<svg xmlns="http://www.w3.org/2000/svg" viewBox="0 0 168.143 81.178">
  <defs>
    <style>
      .cls-1, .cls-10 {
        fill: #314698;
      }

      .cls-1, .cls-11, .cls-3 {
        stroke: #fff;
        stroke-width: 4px;
      }

      .cls-1, .cls-11, .cls-2, .cls-3 {
        fill-rule: evenodd;
      }

      .cls-2, .cls-3 {
        fill: none;
      }

      .cls-4 {
        fill: #57a85a;
      }

      .cls-5 {
        fill: #ef5f2b;
      }

      .cls-6 {
        fill: #e797a4;
      }

      .cls-7 {
        fill: #f1a588;
      }

      .cls-8 {
        fill: #658ec9;
      }

      .cls-9 {
        fill: #eec83f;
      }

      .cls-11 {
        fill: #fff;
      }
    </style>
  </defs>
  <g id="_3-jar-active" data-name="3-jar-active" transform="translate(-502.127 -550.203)">
    <g id="Group-19" transform="translate(504.173 576.151)">
      <path id="Fill-75" class="cls-1" d="M34.105,12.165c3.423-1.667,6.513-3.975,9.911-5.7a19.74,19.74,0,0,1,7.2-2.217c.092.33.189.657.278.988,2.145,7.966,2.268,17.285-2.9,23.638l-44.2.173C-.191,23.494-.7,15.612.662,8.36c1.619.844,3.2,1.874,4.757,2.755a31.278,31.278,0,0,0,28.686,1.051" transform="translate(0 23.838)"/>
      <path id="Fill-77" class="cls-2" d="M28.676,17.168c-7.682,2.671-16.315-.449-22.682-5.617C4.474,10.319,2.85,8.907,1.017,8.559A59.535,59.535,0,0,0,3.006.951L38.318.814a76.791,76.791,0,0,0,3.6,12A25.289,25.289,0,0,0,35.5,14.174c-2.326.868-4.481,2.179-6.825,2.994" transform="translate(5.704 4.565)"/>
      <path id="Fill-79" class="cls-1" d="M43.439,19.224c-3.4,1.738-6.486,4.068-9.91,5.75a31.041,31.041,0,0,1-28.685-1.06c-1.555-.89-3.138-1.928-4.755-2.779.186-1,.407-1.986.656-2.954C2.172,12.669,4.407,7.393,6.156,1.989c1.83.347,3.447,1.756,4.963,2.986,6.348,5.16,14.954,8.275,22.613,5.61,2.337-.814,4.485-2.125,6.8-2.989a25.208,25.208,0,0,1,6.4-1.354c1.3,3.558,2.66,7.1,3.7,10.745a19.551,19.551,0,0,0-7.2,2.237" transform="translate(0.496 11.158)"/>
      <path id="Fill-109" class="cls-3" d="M42.95,7.769.928,7.473.979,0,43,.3Z" transform="translate(5.208)"/>
      <circle id="Ellipse_75" data-name="Ellipse 75" class="cls-4" cx="2.118" cy="2.118" r="2.118" transform="translate(37.116 37.566)"/>
      <circle id="Ellipse_76" data-name="Ellipse 76" class="cls-5" cx="1.211" cy="1.211" r="1.211" transform="translate(38.326 46.645)"/>
      <circle id="Ellipse_77" data-name="Ellipse 77" class="cls-6" cx="1.513" cy="1.513" r="1.513" transform="translate(27.432 45.434)"/>
      <circle id="Ellipse_78" data-name="Ellipse 78" class="cls-7" cx="1.513" cy="1.513" r="1.513" transform="translate(14.116 43.014)"/>
      <circle id="Ellipse_79" data-name="Ellipse 79" class="cls-8" cx="1.211" cy="1.211" r="1.211" transform="translate(11.09 46.645)"/>
      <circle id="Ellipse_80" data-name="Ellipse 80" class="cls-9" cx="0.605" cy="0.605" r="0.605" transform="translate(3.827 43.014)"/>
      <circle id="Ellipse_81" data-name="Ellipse 81" class="cls-10" cx="1.513" cy="1.513" r="1.513" transform="translate(4.432 39.382)"/>
    </g>
    <g id="Group-19-2" data-name="Group-19" transform="translate(546.565 564.045)">
      <path id="Fill-75-2" data-name="Fill-75" class="cls-1" d="M41.917,13.979c4.207-2.049,8-4.886,12.181-7a24.262,24.262,0,0,1,8.847-2.725c.113.406.233.807.342,1.215,2.636,9.79,2.788,21.244-3.563,29.052L5.4,34.729C-.235,27.9-.862,18.215.814,9.3c1.99,1.037,3.935,2.3,5.846,3.386a38.442,38.442,0,0,0,35.257,1.291" transform="translate(0 30.271)"/>
      <path id="Fill-79-2" data-name="Fill-79" class="cls-1" d="M53.369,23.172c-4.176,2.136-7.972,5-12.18,7.067a38.151,38.151,0,0,1-35.256-1.3C4.022,27.841,2.076,26.566.088,25.52c.229-1.228.5-2.44.806-3.63,1.755-6.774,4.5-13.258,6.652-19.9,2.249.426,4.237,2.159,6.1,3.67,7.8,6.342,18.379,10.171,27.792,6.9,2.873-1,5.512-2.612,8.363-3.674a30.982,30.982,0,0,1,7.869-1.664c1.6,4.374,3.269,8.73,4.547,13.206a24.029,24.029,0,0,0-8.846,2.749" transform="translate(0.63 14.169)"/>
      <path id="Fill-109-2" data-name="Fill-109" class="cls-11" d="M52.576,9.548.928,9.184.991,0l51.65.364Z" transform="translate(6.613)"/>
      <ellipse id="Ellipse_82" data-name="Ellipse 82" class="cls-4" cx="2.781" cy="2.781" rx="2.781" ry="2.781" transform="translate(48.369 46.073)"/>
      <ellipse id="Ellipse_83" data-name="Ellipse 83" class="cls-5" cx="1.589" cy="1.589" rx="1.589" ry="1.589" transform="translate(49.959 57.994)"/>
      <ellipse id="Ellipse_84" data-name="Ellipse 84" class="cls-6" cx="1.987" cy="1.987" rx="1.987" ry="1.987" transform="translate(35.654 56.404)"/>
      <ellipse id="Ellipse_85" data-name="Ellipse 85" class="cls-7" cx="1.987" cy="1.987" rx="1.987" ry="1.987" transform="translate(18.171 53.225)"/>
      <ellipse id="Ellipse_86" data-name="Ellipse 86" class="cls-8" cx="1.589" cy="1.589" rx="1.589" ry="1.589" transform="translate(14.198 57.994)"/>
      <ellipse id="Ellipse_87" data-name="Ellipse 87" class="cls-9" cx="0.795" cy="0.795" rx="0.795" ry="0.795" transform="translate(4.661 53.225)"/>
      <ellipse id="Ellipse_88" data-name="Ellipse 88" class="cls-10" cx="1.987" cy="1.987" rx="1.987" ry="1.987" transform="translate(5.456 48.457)"/>
    </g>
    <g id="Group-19-3" data-name="Group-19" transform="translate(590.958 552.218)">
      <path id="Fill-75-3" data-name="Fill-75" class="cls-1" d="M49.759,15.8c4.994-2.432,9.5-5.8,14.459-8.315a28.8,28.8,0,0,1,10.5-3.235c.135.481.276.958.406,1.442,3.129,11.622,3.309,25.219-4.229,34.487l-64.482.253c-6.693-8.1-7.438-19.6-5.448-30.184,2.362,1.231,4.672,2.734,6.94,4.019A45.634,45.634,0,0,0,49.759,15.8" transform="translate(0 36.729)"/>
      <path id="Fill-79-3" data-name="Fill-79" class="cls-1" d="M63.337,27.134c-4.957,2.535-9.463,5.935-14.459,8.388A45.288,45.288,0,0,1,7.026,33.976c-2.268-1.3-4.578-2.813-6.938-4.054.272-1.457.594-2.9.956-4.309,2.083-8.042,5.344-15.739,7.9-23.624,2.67.506,5.03,2.562,7.24,4.357C25.443,13.874,38,18.419,49.173,14.531c3.41-1.187,6.543-3.1,9.927-4.362a36.778,36.778,0,0,1,9.341-1.975c1.9,5.192,3.881,10.364,5.4,15.677a28.525,28.525,0,0,0-10.5,3.264" transform="translate(0.764 17.192)"/>
      <path id="Fill-109-3" data-name="Fill-109" class="cls-3" d="M62.238,11.334.928,10.9,1,0,62.315.432Z" transform="translate(8.024)"/>
      <circle id="Ellipse_89" data-name="Ellipse 89" class="cls-4" cx="3.5" cy="3.5" r="3.5" transform="translate(60.042 54)"/>
      <circle id="Ellipse_90" data-name="Ellipse 90" class="cls-5" cx="2" cy="2" r="2" transform="translate(62.042 69)"/>
      <circle id="Ellipse_91" data-name="Ellipse 91" class="cls-6" cx="2.5" cy="2.5" r="2.5" transform="translate(44.042 67)"/>
      <circle id="Ellipse_92" data-name="Ellipse 92" class="cls-7" cx="2.5" cy="2.5" r="2.5" transform="translate(22.042 63)"/>
      <circle id="Ellipse_93" data-name="Ellipse 93" class="cls-8" cx="2" cy="2" r="2" transform="translate(17.042 69)"/>
      <circle id="Ellipse_94" data-name="Ellipse 94" class="cls-9" cx="1" cy="1" r="1" transform="translate(5.042 63)"/>
      <circle id="Ellipse_95" data-name="Ellipse 95" class="cls-10" cx="2.5" cy="2.5" r="2.5" transform="translate(6.042 57)"/>
    </g>
  </g>
</svg>
