<?xml version="1.0" encoding="UTF-8"?>
<svg width="200px" height="41px" viewBox="0 0 200 41" version="1.1" xmlns="http://www.w3.org/2000/svg" xmlns:xlink="http://www.w3.org/1999/xlink">
    <!-- Generator: Sketch 47.1 (45422) - http://www.bohemiancoding.com/sketch -->
    <title>black</title>
    <desc>Created with Sketch.</desc>
    <defs></defs>
    <g id="Page-1" stroke="none" stroke-width="1" fill="none" fill-rule="evenodd">
        <g id="black" fill-rule="nonzero" fill="#35302D">
            <rect id="XMLID_6_" x="187.769165" y="0.0172265289" width="12.0757967" height="38.535745"></rect>
            <polygon id="XMLID_5_" points="30.163652 0.0172265289 21.6881998 13.8329027 13.2127476 0.0172265289 0.120585702 0.0172265289 15.5211025 23.8587425 15.5211025 38.5529716 27.3212748 38.5529716 27.3212748 23.8587425 42.7217916 0.0172265289"></polygon>
            <polygon id="XMLID_4_" points="153.229974 21.8087855 143.927649 0.0172265289 127.235142 0.0172265289 127.235142 38.5529716 138.81137 38.5529716 138.81137 15.3143842 148.802756 38.5529716 157.639966 38.5529716 167.631352 15.3143842 167.631352 38.5529716 179.20758 38.5529716 179.20758 0.0172265289 162.515073 0.0172265289"></polygon>
            <path d="M83.9621016,40.1722653 C104.409991,40.1722653 121.085271,25.047373 121.085271,3.47975883 L121.033592,0.0172265289 L108.544358,0.0172265289 L108.596038,3.4625323 C108.596038,18.8975022 97.622739,28.7855297 83.9448751,28.7855297 C70.2842377,28.7855297 59.2937123,18.8975022 59.2937123,3.4625323 L59.3453919,0.0172265289 L46.8561585,0.0172265289 L46.8044789,3.47975883 C46.838932,25.047373 63.5142119,40.1722653 83.9621016,40.1722653 Z" id="XMLID_3_"></path>
        </g>
    </g>
</svg>