<?xml version="1.0" standalone="no"?>
<!DOCTYPE svg PUBLIC "-//W3C//DTD SVG 1.1//EN" "http://www.w3.org/Graphics/SVG/1.1/DTD/svg11.dtd" >
<svg xmlns="http://www.w3.org/2000/svg" xmlns:xlink="http://www.w3.org/1999/xlink" version="1.1">
<metadata>
Created by FontForge 20170731 at Thu Oct 22 09:30:14 2009
 By Aleksey,,,
Copyright (c) 2005-2009, Joshua Darden &#38; Phil's Fonts, Inc. All rights reserved. Published by Garagefonts USA 301-879-9222 www.garagefonts.com
</metadata>
<defs>
<font id="FreightDispProMedium-Italic" horiz-adv-x="448" >
  <font-face 
    font-family="FreightDisp Pro Medium"
    font-weight="500"
    font-style="italic"
    font-stretch="normal"
    units-per-em="1000"
    panose-1="2 0 6 3 8 0 0 9 0 4"
    ascent="800"
    descent="-200"
    x-height="444"
    cap-height="625"
    bbox="-235 -270 1299 977"
    underline-thickness="20"
    underline-position="-206"
    slope="-12"
    unicode-range="U+0020-FB04"
  />
<missing-glyph horiz-adv-x="500" 
 />
    <glyph glyph-name="ff" unicode="ff" horiz-adv-x="488" 
d="M426 596q8 12 20 24q50 50 118 50q38 0 60.5 -17t22.5 -45q0 -20 -15.5 -35.5t-35.5 -15.5q-31 0 -41.5 26.5t8.5 55.5q-29 5 -41 5q-29 -6 -49.5 -60.5t-39.5 -150.5h106l-10 -39h-104l-52 -236q-26 -115 -50 -182.5t-60 -104.5q-41 -41 -103 -41q-32 0 -53 16.5
t-21 42.5q0 19 13.5 34.5t34.5 15.5q27 0 41 -25.5t1 -54.5q24 2 33 2q23 6 40.5 61t48.5 207l48 265h-150l-57 -266q-48 -216 -118 -287q-40 -41 -103 -41q-33 0 -55.5 16.5t-22.5 42.5q0 19 14 34.5t35 15.5q27 0 42 -25.5t3 -54.5q27 2 36 2q23 6 42.5 64t49.5 204
l56 294l-84 2l11 33l83 7q25 103 87 165q52 50 125 50q35 0 57.5 -15t28.5 -39zM389 531h-7q-31 0 -42 26.5t9 51.5q-26 14 -47 14q-35 -6 -57.5 -53t-40.5 -137l153 1q13 52 32 97z" />
    <glyph glyph-name="fi" unicode="fi" horiz-adv-x="467" 
d="M-82 -200q-33 0 -55.5 16.5t-22.5 42.5q0 19 14 34.5t35 15.5q27 0 42 -25.5t3 -54.5q27 2 36 2q23 6 42.5 64t49.5 204l56 294l-84 2l11 33l83 7q25 114 88 177q60 60 147 60q43 0 69.5 -21.5t26.5 -52.5q0 -20 -13.5 -34t-35.5 -14q-31 0 -42.5 27t7.5 52
q-41 14 -62 14q-38 -10 -64 -60t-45 -150h125q21 13 40 13q21 0 43 -21t21 -41q0 -11 -24 -80.5t-57 -160t-36 -100.5l52 -8l70 90l8 -7q-29 -61 -65 -96t-61 -35q-16 0 -48.5 15t-31.5 24q0 6 26 82t60 172t39 111l-3 3h-166l-57 -266q-25 -110 -51 -180t-63 -107
q-40 -41 -107 -41z" />
    <glyph glyph-name="fl" unicode="fl" horiz-adv-x="478" 
d="M430 652l77 21l-177 -631l43 -7l69 90l10 -7q-30 -62 -64 -96.5t-59 -34.5q-16 0 -47 13t-29 20l144 534q-24 7 -29.5 31.5t11.5 43.5q-39 14 -69 14q-38 -10 -62 -59t-44 -151h111l-9 -39h-110l-57 -266q-25 -110 -51 -180t-63 -107q-40 -41 -107 -41q-33 0 -55.5 16.5
t-22.5 42.5q0 19 14 34.5t35 15.5q27 0 42 -25.5t3 -54.5q28 2 37 2q24 6 43.5 64.5t48.5 203.5l54 294l-83 2l11 33l83 7q25 114 88 177q60 60 143 60q42 0 71 -20z" />
    <glyph glyph-name="ffi" unicode="ffi" horiz-adv-x="700" 
d="M435 596q4 6 14 16q60 60 146 60q43 0 70 -22t27 -52q0 -20 -13.5 -34t-36.5 -14q-31 0 -42 27t8 52q-41 14 -62 14q-38 -10 -64 -60t-45 -150h125q21 13 40 13q20 0 42.5 -21t21.5 -41q0 -17 -118 -341l52 -8l70 90l9 -7q-29 -61 -65.5 -96t-61.5 -35q-16 0 -48 15
t-32 24q0 6 26 82t60 172t39 111l-3 3h-165l-52 -236q-49 -220 -115 -287q-41 -41 -98 -41q-33 0 -54 16.5t-21 42.5q0 19 14 34.5t35 15.5q27 0 41 -25.5t1 -54.5q19 2 27 2q24 6 44.5 65.5t49.5 202.5l49 265h-154l-57 -266q-48 -216 -118 -287q-40 -41 -103 -41
q-33 0 -55.5 16.5t-22.5 42.5q0 19 14 34.5t35 15.5q27 0 42 -25.5t3 -54.5q27 2 36 2q23 6 42.5 64t49.5 204l56 294l-84 2l11 33l83 7q23 104 88 169q52 52 128 52q38 0 61.5 -17t29.5 -43zM395 536q-5 -1 -8 -1q-31 0 -42 26.5t9 51.5q-30 14 -51 14q-66 -17 -99 -194
l156 1q13 57 35 102z" />
    <glyph glyph-name="ffl" unicode="ffl" horiz-adv-x="711" 
d="M662 651l78 22l-177 -631l43 -7l69 90l9 -7q-30 -62 -63.5 -96.5t-58.5 -34.5q-10 0 -29 6t-34 14t-14 13l144 534q-23 7 -29 31t11 44q-38 14 -69 14q-37 -10 -61.5 -59.5t-43.5 -150.5h111l-10 -39h-109l-52 -236q-49 -220 -115 -287q-41 -41 -98 -41q-33 0 -54 16.5
t-21 42.5q0 19 14 34.5t35 15.5q27 0 41 -25.5t1 -54.5q19 2 27 2q24 6 44.5 65.5t49.5 202.5l49 265h-154l-57 -266q-48 -216 -118 -287q-40 -41 -103 -41q-33 0 -55.5 16.5t-22.5 42.5q0 19 14 34.5t35 15.5q27 0 42 -25.5t3 -54.5q27 2 36 2q23 6 42.5 64t49.5 204
l56 294l-84 2l11 33l83 7q23 104 88 169q52 52 128 52q38 0 61.5 -17t29.5 -43q4 6 14 16q60 60 143 60q44 0 70 -21zM395 536q-5 -1 -8 -1q-31 0 -42 26.5t9 51.5q-30 14 -51 14q-66 -17 -99 -194l156 1q13 57 35 102z" />
    <glyph glyph-name=".notdef" horiz-adv-x="500" 
 />
    <glyph glyph-name=".null" horiz-adv-x="0" 
 />
    <glyph glyph-name="nonmarkingreturn" horiz-adv-x="333" 
 />
    <glyph glyph-name="space" unicode=" " horiz-adv-x="180" 
 />
    <glyph glyph-name="exclam" unicode="!" horiz-adv-x="260" 
d="M129 189q0 -2 -3 -3t-5.5 0.5t-2.5 3.5l32 406q3 22 14 34t41 9h3q57 -4 42 -53zM100 -14q-26 0 -43.5 17.5t-17.5 41.5q0 23 17.5 40t42.5 17t42 -17t17 -40q0 -24 -16.5 -41.5t-41.5 -17.5z" />
    <glyph glyph-name="quotedbl" unicode="&#x22;" horiz-adv-x="334" 
d="M202 403l141 243h1l61 -27l-184 -216h-19zM39 403l141 243h2l61 -27l-185 -216h-19z" />
    <glyph glyph-name="numbersign" unicode="#" horiz-adv-x="516" 
d="M88 -5l51 194h-136v17h141l55 211h-136v17h141l52 198h20l-53 -198h165l53 198h19l-52 -198h135v-17h-140l-55 -211h135v-17h-140l-51 -194h-19l51 194h-165l-52 -194h-19zM163 206h165l56 211h-165z" />
    <glyph glyph-name="dollar" unicode="$" horiz-adv-x="499" 
d="M105 -3q-65 13 -110 38l23 155h16l18 -82q19 -54 65 -81l110 264h-1q-70 39 -106.5 80t-36.5 98q0 67 57.5 118t143.5 51q46 0 83 -9l45 110h20q-47 -114 -47 -115q14 -4 54 -17l42 10l-31 -169l-15 1l-31 124q-11 10 -32 22l-23 -56l-46 -112l-23 -56l6 -3
q74 -41 112.5 -84t38.5 -101q0 -78 -66 -137t-168 -59q-43 0 -80 6l-65 -158h-20zM134 19q32 -12 69 -12q63 0 104 40.5t42 99.5q0 73 -106 135zM356 603q-33 15 -70 15q-49 0 -84.5 -30.5t-35.5 -78.5q0 -71 98 -128z" />
    <glyph glyph-name="percent" unicode="%" horiz-adv-x="608" 
d="M199 364q-59 0 -96.5 38t-37.5 95q0 60 40 102.5t102 42.5q60 0 97.5 -38.5t37.5 -95.5q0 -60 -40 -102t-103 -42zM11 -14l598 654h26l-597 -654h-27zM441 -16q-59 0 -96 37.5t-37 94.5q0 61 40 103.5t102 42.5q59 0 96.5 -38.5t37.5 -95.5q0 -60 -40 -102t-103 -42z
M200 384q52 0 85 35t33 86q0 50 -31 83.5t-81 33.5q-52 0 -85 -36.5t-33 -87.5q0 -50 31 -82t81 -32zM443 4q52 0 85 35.5t33 87.5q0 49 -31.5 82t-80.5 33q-52 0 -85 -36.5t-33 -87.5q0 -50 31 -82t81 -32z" />
    <glyph glyph-name="ampersand" unicode="&#x26;" horiz-adv-x="720" 
d="M619 373q40 -14 62.5 -49t22.5 -83q0 -104 -105.5 -179.5t-253.5 -75.5q-140 0 -232 69.5t-92 175.5q0 69 44 125t115 81q-6 19 -6 40q0 65 48.5 114t115.5 48q58 0 94 -51.5t27 -118.5l-16 3q3 45 -21.5 79.5t-69.5 34.5q-39 0 -66 -33.5t-27 -82.5q0 -12 1 -17h16
q53 0 87 -23.5t34 -58.5q0 -24 -20 -39.5t-53 -15.5q-44 0 -82.5 29.5t-55.5 74.5q-87 -37 -87 -135q0 -112 86.5 -172.5t246.5 -60.5q113 0 184 53.5t71 136.5q0 46 -29.5 81.5t-67.5 35.5q-39 0 -76.5 -28.5t-37.5 -57.5q0 -24 21.5 -38.5t56.5 -16.5q-14 5 -17 22.5
t8 32.5t32 15q18 0 30 -11.5t12 -28.5q0 -21 -15 -36t-40 -15q-49 0 -82.5 33t-33.5 86q0 39 28.5 66t69.5 41.5t82 28t69.5 36.5t28.5 56q0 31 -21 48.5t-58 19.5q12 -7 15 -25t-7 -34.5t-33 -16.5q-20 0 -32 12.5t-12 32.5q0 21 19 37t42 16q50 0 84 -39t34 -97
q0 -45 -29.5 -72t-108.5 -53zM264 437q10 -33 34.5 -55t53.5 -22q8 0 14.5 6t6.5 14q0 23 -28.5 40t-68.5 17h-12z" />
    <glyph glyph-name="quotesingle" unicode="'" horiz-adv-x="173" 
d="M39 403l141 243h2l61 -27l-185 -216h-19z" />
    <glyph glyph-name="parenleft" unicode="(" horiz-adv-x="340" 
d="M252 -264q-40 26 -77 69.5t-69 103.5t-45 140.5t0 165.5t50 160.5t85.5 128.5t97.5 89t95 55l12 -18q-45 -19 -92.5 -54.5t-94 -87t-81.5 -123.5t-47 -152q-12 -81 0 -158t41.5 -135t65 -100t73.5 -67z" />
    <glyph glyph-name="parenright" unicode=")" horiz-adv-x="340" 
d="M-58 -264l-11 18q45 19 92 54.5t93.5 86.5t81.5 123.5t47 152.5q11 86 0.5 158t-41 133t-65.5 102.5t-73 66.5l13 17q89 -58 152.5 -187t39.5 -291q-13 -85 -50 -161t-86 -129t-98 -89t-95 -55z" />
    <glyph glyph-name="asterisk" unicode="*" horiz-adv-x="317" 
d="M241 310l-48 45l11 108q0 1 -4 3t-5 1l-65 -84h-66l-3 8l28 60l103 21q2 0 2 4t-2 6l-98 39l-21 62l5 8l67 -10l51 -95q0 -1 2 -1t4.5 1t2.5 2l9 110l51 35l8 -2l13 -63l-76 -82q-1 -2 1.5 -5.5t4.5 -3.5l106 30l50 -41q1 -7 0 -8l-56 -32l-100 46q-2 1 -5 -2t-2 -5
l61 -93l-22 -60z" />
    <glyph glyph-name="plus" unicode="+" 
d="M217 27v198h-198l3 22h195v198h22v-198h195l3 -22h-198v-198h-22z" />
    <glyph glyph-name="comma" unicode="," horiz-adv-x="194" 
d="M-32 -125l-8 8q44 17 77 49.5t33 67.5q0 32 -25.5 46.5t-45.5 2.5q-6 24 11 46t49 22t54 -23t22 -57q0 -52 -51 -97t-116 -65z" />
    <glyph glyph-name="hyphen" unicode="-" horiz-adv-x="294" 
d="M23 212l10 44h244l-7 -44h-247z" />
    <glyph glyph-name="period" unicode="." horiz-adv-x="209" 
d="M74 -13q-26 0 -44 18.5t-18 43.5q0 24 17.5 42t43.5 18q27 0 44.5 -17.5t17.5 -42.5t-17.5 -43.5t-43.5 -18.5z" />
    <glyph glyph-name="slash" unicode="/" horiz-adv-x="258" 
d="M13 -236l212 877h21l-211 -877h-22z" />
    <glyph glyph-name="zero" unicode="0" horiz-adv-x="518" 
d="M237 -13q-90 0 -145 60.5t-55 157.5q0 115 73.5 196.5t175.5 81.5q90 0 145 -60.5t55 -157.5q0 -116 -73.5 -197t-175.5 -81zM229 3q71 0 121 93.5t50 221.5q0 69 -29.5 108.5t-78.5 39.5q-72 0 -120.5 -94t-48.5 -228q0 -69 27.5 -105t78.5 -36z" />
    <glyph glyph-name="one" unicode="1" horiz-adv-x="350" 
d="M16 0l3 15l47 4q38 1 41 18l73 390l-102 16l4 13l189 22l-84 -443q-1 -4 1.5 -7t12.5 -5.5t29 -3.5l42 -4l2 -15h-258z" />
    <glyph glyph-name="two" unicode="2" horiz-adv-x="446" 
d="M-14 0v24q191 135 251 191t60 110q0 49 -28.5 75.5t-74.5 26.5q-67 0 -124 -68l-6 11q79 112 188 112q56 0 94.5 -33.5t38.5 -83.5q0 -19 -6 -37.5t-13.5 -33.5t-26.5 -34t-33 -31.5t-45 -34.5t-50 -35t-62 -41t-67 -45v-3h174q48 0 78 22t64 78l11 18h16l-76 -188h-363z
" />
    <glyph glyph-name="three" unicode="3" horiz-adv-x="405" 
d="M93 -200q-62 0 -105 18t-43 57q0 20 14.5 34.5t36.5 14.5q28 0 47 -27.5t3 -59.5q30 -17 62 -17q62 0 106 51t44 120q0 62 -38.5 100t-106.5 38q-31 0 -60 -8l-5 12q120 53 173 93.5t53 102.5q0 42 -27 70.5t-72 28.5q-36 0 -71.5 -21.5t-60.5 -55.5l-7 11q33 52 84.5 86
t110.5 34q56 0 95 -35t39 -86q0 -114 -187 -182v-2q3 1 11 1q70 -5 111.5 -50.5t41.5 -107.5q0 -85 -76.5 -152.5t-172.5 -67.5z" />
    <glyph glyph-name="four" unicode="4" horiz-adv-x="476" 
d="M199 -184l37 203h-264v14l403 445h26l-75 -400h111l-17 -59h-106l-38 -203h-77zM41 78h207l55 286h-3z" />
    <glyph glyph-name="five" unicode="5" horiz-adv-x="402" 
d="M60 -200q-55 6 -85 26.5t-29 53.5q2 20 17.5 32.5t37.5 10.5q28 -2 42 -29.5t16 -63.5q16 -7 38 -10q54 -5 99 37.5t51 111.5q6 76 -53 133t-157 82l103 284h257l-26 -84h-239l-46 -129q118 -29 181.5 -93.5t57.5 -150.5q-7 -92 -85.5 -156t-179.5 -55z" />
    <glyph glyph-name="six" unicode="6" horiz-adv-x="493" 
d="M229 -12q-89 0 -140.5 64t-51.5 156q0 76 36.5 150.5t101.5 135t164 99t215 41.5l1 -14q-145 -17 -250.5 -95.5t-157.5 -194.5l5 -1q73 65 155 65q70 0 111 -43.5t41 -120.5q0 -101 -70 -171.5t-160 -70.5zM228 5q58 0 100.5 60.5t42.5 147.5q0 65 -30 106t-84 41
q-56 0 -112 -54q-26 -67 -26 -132q0 -169 109 -169z" />
    <glyph glyph-name="seven" unicode="7" horiz-adv-x="430" 
d="M38 -184l360 569l-1 4h-136q-103 0 -135.5 -10t-52.5 -53l-14 -25h-16l52 167h363v-17l-359 -635h-61z" />
    <glyph glyph-name="eight" unicode="8" horiz-adv-x="481" 
d="M227 -16q-84 0 -144.5 47t-60.5 118q0 66 51 110t131 56v2q-97 73 -98 151q0 69 55 121t137 52q75 0 127.5 -44t52.5 -111q0 -60 -43.5 -97.5t-115.5 -51.5v-2q56 -42 87 -81t31 -93q0 -76 -61 -126.5t-149 -50.5zM306 345q93 47 93 153q0 52 -26 89.5t-77 37.5
q-50 0 -80 -35.5t-30 -85.5q0 -31 19.5 -62t41.5 -50.5t59 -46.5zM233 1q56 0 90 36t35 88q0 34 -22 68.5t-42 51.5t-63 50q-3 3 -5 4t-4.5 3t-4.5 4q-115 -50 -115 -168q0 -59 34 -98t97 -39z" />
    <glyph glyph-name="nine" unicode="9" horiz-adv-x="493" 
d="M-53 -160l-1 14q145 17 250.5 95.5t157.5 194.5h-5q-75 -65 -155 -65q-70 0 -111 44t-41 121q0 101 70 171.5t160 70.5q89 0 140.5 -64t51.5 -156q0 -76 -36.5 -150.5t-101.5 -135t-164 -99t-215 -41.5zM244 113q53 0 112 55q26 69 26 132q0 168 -109 168
q-58 0 -100.5 -60t-42.5 -147q0 -65 30 -106.5t84 -41.5z" />
    <glyph glyph-name="colon" unicode=":" horiz-adv-x="208" 
d="M132 292q-26 0 -44.5 18.5t-18.5 43.5q0 24 18 41.5t44 17.5t43.5 -17.5t17.5 -41.5q0 -25 -17 -43.5t-43 -18.5zM74 -13q-26 0 -44 18.5t-18 43.5q0 24 17.5 41.5t43.5 17.5t44 -17.5t18 -41.5q0 -25 -17.5 -43.5t-43.5 -18.5z" />
    <glyph glyph-name="semicolon" unicode=";" horiz-adv-x="194" 
d="M127 292q-27 0 -45.5 18.5t-18.5 42.5t18 42t45 18q26 0 43.5 -18t17.5 -42q0 -25 -17 -43t-43 -18zM-32 -125l-8 9q45 17 77.5 49t32.5 67q0 32 -25.5 46.5t-45.5 2.5q-6 23 11 45t49 22t54 -22.5t22 -56.5q0 -51 -50.5 -96t-116.5 -66z" />
    <glyph glyph-name="less" unicode="&#x3c;" horiz-adv-x="438" 
d="M414 35l-397 193v14l397 193l8 -20l-368 -177v-4l368 -179z" />
    <glyph glyph-name="equal" unicode="=" 
d="M33 311l-3 22h396l-3 -22h-390zM30 138l3 22h390l3 -22h-396z" />
    <glyph glyph-name="greater" unicode="&#x3e;" horiz-adv-x="438" 
d="M429 228l-397 -193l-8 20l368 179v4l-368 177l8 20l397 -193v-14z" />
    <glyph glyph-name="question" unicode="?" horiz-adv-x="321" 
d="M142 183q-63 59 -63 109q0 41 30 64t95 43q66 19 89 32.5t23 41.5q0 35 -42.5 62t-119.5 27q-21 0 -47 -4q-4 8 -4 23q0 26 13 42t51 16q77 0 123.5 -49t46.5 -115q0 -61 -28.5 -94.5t-92.5 -54.5q-39 -13 -54.5 -19t-29.5 -19.5t-14 -33.5q0 -31 38 -69zM112 -14
q-25 0 -42.5 17.5t-17.5 41.5q0 23 17 40t42 17q26 0 42.5 -17t16.5 -40q0 -24 -16.5 -41.5t-41.5 -17.5z" />
    <glyph glyph-name="at" unicode="@" horiz-adv-x="786" 
d="M402 -110q-159 0 -262 100.5t-100 258.5q3 163 118.5 278t274.5 114q147 -2 243 -93t92 -230q-2 -111 -72 -188.5t-155 -77.5q-58 0 -82.5 24t-21.5 58q0 12 7 44.5t14 48.5h-5q-57 -87 -95.5 -129t-74.5 -42t-62.5 26t-26.5 63q0 58 43 134t96 124q65 60 116 60
q24 0 39.5 -25.5t18.5 -61.5h4l34 101l69 -3l-62 -159l-37 -133q-31 -93 56 -93q68 0 121.5 66.5t55.5 163.5q3 130 -87 216t-229 88q-150 1 -259.5 -109.5t-111.5 -265.5q-4 -148 93.5 -244t247.5 -96q83 0 154.5 39.5t108.5 99.5l10 -14q-41 -63 -114 -103t-159 -40z
M320 107q22 0 64.5 52t81.5 126q25 46 25 63q-3 23 -28.5 45t-56.5 22q-22 0 -41 -17q-32 -29 -60.5 -102t-28.5 -125q0 -30 13 -47t31 -17z" />
    <glyph glyph-name="A" unicode="A" horiz-adv-x="607" 
d="M361 257h-172l-52 -100l-1 -2q-46 -85 -47 -104q-1 -21 27 -28q11 -2 30 -4l34 -4l2 -15h-223l3 15l22 5q40 6 63 33t89 146l188 360l-4 36q20 5 45 18.5t33 25.5h13l61 -522q7 -58 18.5 -76t42.5 -21l36 -5l1 -15h-275l3 15l38 4q31 2 38.5 20.5t2.5 61.5zM200 279h159
l-25 253h-4z" />
    <glyph glyph-name="B" unicode="B" horiz-adv-x="580" 
d="M-11 0l3 15l43 6q42 6 44 18l105 549q1 6 -7 9.5t-38 7.5l-33 5l-1 15h242q112 0 161.5 -40.5t49.5 -98.5q0 -64 -53.5 -102.5t-148.5 -46.5l2 -3q84 -13 130 -56t46 -100q0 -86 -77 -132t-218 -46h-250zM230 19h44q73 1 115 50t42 116q0 68 -46 106.5t-124 38.5h-32
l-57 -294zM300 348q76 0 116.5 42.5t40.5 100.5q0 54 -36 84.5t-103 30.5h-37l-48 -254q19 -4 67 -4z" />
    <glyph glyph-name="C" unicode="C" horiz-adv-x="663" 
d="M364 -15q-143 0 -228 79t-85 205q0 150 107 260.5t266 110.5q100 0 168 -37l70 16l-33 -187l-16 1l-31 139q-56 48 -150 48q-125 0 -202 -109t-77 -259q0 -113 57 -180t158 -67q105 0 188 97l38 68l18 -1l-52 -162l-39 1q-69 -23 -157 -23z" />
    <glyph glyph-name="D" unicode="D" horiz-adv-x="664" 
d="M-11 0l3 15l43 6q42 6 44 18l105 549q1 6 -7 9.5t-38 7.5l-33 5l-1 15l239 1q151 1 230.5 -71.5t79.5 -188.5q0 -153 -109.5 -259.5t-295.5 -106.5h-260zM239 17q146 1 229 101t83 254q0 104 -54 169.5t-163 65.5h-53l-108 -568z" />
    <glyph glyph-name="E" unicode="E" horiz-adv-x="588" 
d="M-11 0l3 15l40 6q46 6 47 18l105 549q1 6 -7 9.5t-38 7.5l-32 5l-2 15h454l1 -192h-19l-6 38q-9 28 -13.5 41t-15 32.5t-22.5 28t-32 18t-48 13t-66 3.5h-57l-53 -277l39 1q74 2 102 14.5t47 51.5l15 30l17 -1l-47 -213l-17 1l3 29q6 42 -19 53.5t-109 14.5l-34 1
l-55 -290l93 -4q57 0 98.5 10.5t69.5 33t44 42.5t37 56l19 37l19 -1l-64 -196h-497z" />
    <glyph glyph-name="F" unicode="F" horiz-adv-x="562" 
d="M-11 0l3 15l46 6q39 4 41 18l105 549q1 5 -1 7t-11.5 5t-29.5 5l-35 5l-2 15h463l-4 -192h-19l-7 38q-10 33 -16 48.5t-20.5 36t-33 29.5t-50.5 15.5t-78 6.5h-59l-54 -283l42 1q74 2 102.5 14t46.5 51l15 30l16 -1l-46 -212l-16 1l2 29q3 42 -21 53.5t-107 14.5l-37 1
l-52 -269q-1 -5 2 -8t13 -5.5t30 -3.5l49 -5l2 -15h-279z" />
    <glyph glyph-name="G" unicode="G" horiz-adv-x="690" 
d="M349 -15q-139 0 -218.5 78.5t-79.5 203.5q0 150 105 261.5t268 111.5q98 0 168 -38l70 16l-33 -189h-15l-32 142q-54 48 -149 48q-82 0 -147.5 -53t-99 -136t-33.5 -178q0 -112 56 -180t154 -68q58 0 100 22l42 209q1 7 -8.5 11t-40.5 7l-42 5l-2 15h271l-4 -15l-39 -6
q-43 -6 -45 -18l-37 -189l54 2v-11q-142 -51 -263 -51z" />
    <glyph glyph-name="H" unicode="H" horiz-adv-x="723" 
d="M-10 0l3 15l42 6q42 5 45 18l104 549q1 3 0 5t-6 4t-14 4t-25 4l-32 5l-1 15h264l-4 -15l-44 -6q-42 -5 -44 -18l-49 -258h305l50 260q2 7 -6.5 10t-38.5 7l-35 5l-1 15h264l-4 -15l-41 -6q-42 -5 -44 -18l-105 -549q-1 -7 6.5 -9.5t38.5 -7.5l32 -5l1 -15h-264l3 15
l45 6q42 4 44 18l51 270h-306l-51 -272q-2 -7 6 -10t39 -7l35 -5l1 -15h-264z" />
    <glyph glyph-name="I" unicode="I" horiz-adv-x="344" 
d="M-6 0l3 15l49 6q42 4 44 18l105 549q1 4 -2 7t-13 5.5t-30 4.5l-38 5l-2 15h273l-3 -15l-48 -6q-42 -6 -44 -18l-105 -549q-1 -7 7 -10t38 -7l38 -5l2 -15h-274z" />
    <glyph glyph-name="J" unicode="J" horiz-adv-x="344" 
d="M-12 -121q-41 0 -65 17t-24 45q0 24 16.5 40t41.5 16q41 0 52.5 -35t-15.5 -64q38 -5 67.5 39.5t46.5 139.5l101 511q1 4 -2 7t-13 5.5t-30 4.5l-41 5l-2 15h276l-4 -15l-47 -6q-42 -5 -44 -18l-104 -525q-11 -67 -76.5 -124.5t-133.5 -57.5z" />
    <glyph glyph-name="K" unicode="K" horiz-adv-x="662" 
d="M-11 0l3 15l46 6q39 4 41 18l105 549q1 5 -1 7t-11.5 5t-29.5 5l-35 5l-2 15h272l-4 -15l-52 -6q-41 -4 -44 -18l-58 -307l186 158q132 114 141 142q5 17 -23 24q-8 1 -21 3l-37 4v15h248l-3 -14l-17 -2q-43 -4 -83.5 -31.5t-161.5 -130.5l-64 -56l133 -301
q20 -46 31 -57t39 -15l29 -3l2 -15h-259l3 15l30 4q28 2 32 21t-15 68l-97 224l-99 -83l-41 -212q-1 -7 7.5 -10.5t37.5 -6.5l42 -5l2 -15h-272z" />
    <glyph glyph-name="L" unicode="L" horiz-adv-x="557" 
d="M-11 0l3 15l46 6q39 4 41 18l104 549q1 4 -1 6.5t-11.5 5.5t-29.5 5l-35 5l-2 15h281l-3 -15l-61 -6q-42 -4 -44 -18l-107 -564l77 -4q55 0 92 8.5t64 30t43.5 44.5t39.5 66l19 42h20l-64 -209h-472z" />
    <glyph glyph-name="M" unicode="M" horiz-adv-x="812" 
d="M-19 0l3 15l30 4q42 3 55.5 18.5t23.5 67.5l108 484q-11 14 -44 17l-36 4l-2 15h193l75 -495l3 -1l283 496h187l-4 -15l-44 -6q-42 -5 -44 -18l-95 -498q-4 -40 3 -51.5t39 -16.5l33 -5l1 -15h-268l3 15l46 6q24 2 35 16.5t15 52.5l91 483h-3l-325 -567h-27l-88 552
q0 2 -8 21l-104 -475q-8 -50 2.5 -66t55.5 -19l29 -4l2 -15h-224z" />
    <glyph glyph-name="N" unicode="N" horiz-adv-x="673" 
d="M500 -6l-298 550h-3l-87 -439q-7 -49 3.5 -65t51.5 -21l27 -4l1 -15h-214l3 15l28 4q35 4 53 22t24 66l88 433q-5 26 -19 43t-46 22l-22 5l-2 15h180l256 -482h3l75 377q7 50 -3 65.5t-51 20.5l-27 4l-2 15h215l-3 -15l-28 -4q-35 -3 -53 -21t-25 -67l-104 -524h-21z" />
    <glyph glyph-name="O" unicode="O" horiz-adv-x="719" 
d="M357 -14q-135 0 -219 86.5t-84 213.5q0 141 97.5 247t248.5 106q134 0 217.5 -87t83.5 -214q0 -144 -98.5 -248t-245.5 -104zM351 7q73 0 132.5 59t90 144.5t30.5 172.5q0 104 -53 170t-147 66q-75 0 -134.5 -60t-89 -145t-29.5 -172q0 -104 53.5 -169.5t146.5 -65.5z
" />
    <glyph glyph-name="P" unicode="P" horiz-adv-x="556" 
d="M-20 0l3 15l52 6q42 4 44 18l105 549q1 5 -1.5 7.5t-13 5t-30.5 4.5l-42 5l-2 15h272q98 0 153 -42.5t55 -108.5q0 -82 -69.5 -134t-174.5 -52q-40 0 -108 14l-51 -265q-1 -5 2 -8t13 -5.5t30 -3.5l56 -5l1 -15h-294zM318 307q73 0 115 53.5t42 130.5q0 53 -30.5 84
t-85.5 31h-78l-53 -282q49 -17 90 -17z" />
    <glyph glyph-name="Q" unicode="Q" horiz-adv-x="720" 
d="M563 -182q-117 0 -188.5 41t-97.5 137q-102 24 -162.5 104t-60.5 186q0 141 97.5 247t248.5 106q134 0 217.5 -87t83.5 -214q0 -135 -87.5 -236t-222.5 -114q26 -87 87.5 -119t171.5 -30v-14q-27 -7 -87 -7zM351 7q73 0 132.5 59t90 144.5t30.5 172.5q0 104 -53 170
t-147 66q-75 0 -134.5 -60t-89 -145t-29.5 -172q0 -104 53.5 -169.5t146.5 -65.5z" />
    <glyph glyph-name="R" unicode="R" horiz-adv-x="621" 
d="M-20 0l3 15l52 6q42 4 44 18l104 549q1 4 -1.5 7t-13 5.5t-30.5 4.5l-42 5l-1 15h275q99 0 155.5 -41.5t56.5 -106.5q0 -71 -56.5 -117.5t-143.5 -55.5l100 -206q20 -45 39.5 -61t51.5 -19l17 -3l2 -15h-171l-133 305q-4 2 -28.5 8.5t-31.5 10.5l-56 -287
q-1 -6 13.5 -10.5t31.5 -6.5l45 -5l2 -15h-284zM323 324q71 2 115 45.5t44 118.5q0 54 -35 86t-98 32h-68l-49 -261q44 -21 91 -21z" />
    <glyph glyph-name="S" unicode="S" horiz-adv-x="496" 
d="M216 -13q-118 0 -207 48l23 156h16l18 -83q17 -50 56.5 -75.5t94.5 -25.5q63 0 105 40.5t42 99.5q0 44 -31.5 77.5t-92.5 66.5q-70 39 -105.5 80t-35.5 100q0 66 56.5 117t142.5 51q70 0 155 -31l42 10l-31 -170l-15 1l-31 125q-53 44 -118 44q-50 0 -86 -30.5t-36 -77.5
q0 -46 27 -76t95 -66q74 -41 111.5 -83.5t37.5 -103.5q0 -76 -65.5 -135t-167.5 -59z" />
    <glyph glyph-name="T" unicode="T" horiz-adv-x="646" 
d="M135 0l4 15l58 6q41 4 44 18l107 568h-38q-127 -5 -197 -126l-18 -41h-19l52 185h543l-23 -185h-17l-5 38q-9 67 -42 97t-107 32h-34l-109 -570q-1 -4 2 -7t13 -5.5t30 -4.5l47 -5l2 -15h-293z" />
    <glyph glyph-name="U" unicode="U" horiz-adv-x="687" 
d="M345 -15q-108 0 -175.5 42.5t-67.5 127.5q0 36 10 81l67 352q1 5 -1.5 7.5t-13 5t-30.5 4.5l-42 5l-2 15h282l-4 -15l-52 -6q-41 -4 -44 -18l-65 -340q-8 -42 -8 -74q0 -150 175 -150q75 0 121 46.5t65 147.5l61 304q8 49 -2.5 65t-51.5 21l-27 4l-2 15h215l-4 -15
l-27 -4q-35 -4 -52.5 -21.5t-25.5 -66.5l-62 -309q-21 -112 -78.5 -168t-158.5 -56z" />
    <glyph glyph-name="V" unicode="V" horiz-adv-x="617" 
d="M252 -11l-89 521q-11 66 -18 79t-40 17l-35 4l-2 15h273l-3 -15l-42 -3q-35 -2 -42 -15t0 -53l69 -427h3l195 369q1 3 4 8q41 72 40 89q-1 21 -45 27q-6 0 -12 1l-34 4l-2 15h224l-4 -15l-22 -5q-40 -6 -63 -33t-90 -146l-235 -437h-30z" />
    <glyph glyph-name="W" unicode="W" horiz-adv-x="952" 
d="M248 -11l-84 521q-10 62 -19 77t-42 19l-36 4l-1 15h273l-3 -15l-38 -3q-33 -2 -41 -15t-2 -53l65 -435h3l199 362l-8 44q-11 62 -20 77t-42 19l-35 4l-2 15h272l-4 -15l-38 -3q-36 -2 -43.5 -16t0.5 -54l65 -432l3 -1l190 379q42 71 39.5 93.5t-58.5 29.5l-27 4l-1 15
h222l-4 -15l-22 -5q-36 -5 -60 -29.5t-69 -105.5l-249 -481h-33l-68 439h-3l-246 -439h-33z" />
    <glyph glyph-name="X" unicode="X" horiz-adv-x="643" 
d="M-43 0l3 15l26 3q42 5 69.5 25.5t92.5 93.5l150 170l-95 193q-23 48 -31 63t-21 27.5t-31 14.5l-31 5l-3 15h260l-4 -15l-31 -2q-33 -2 -36 -20.5t25 -78.5l66 -143h2l111 129q30 34 42 49.5t16.5 30.5t-9 21t-44.5 10l-24 4l-2 15h234l-4 -15l-24 -3q-43 -5 -70 -25.5
t-93 -93.5l-123 -141l126 -262q18 -38 30 -50t35 -15l30 -5l2 -15h-257l3 15l32 2q31 2 37 16.5t-9 42.5l-98 211h-3l-135 -157q-31 -35 -42.5 -50t-16 -30t8.5 -21t44 -10l25 -4l2 -15h-235z" />
    <glyph glyph-name="Y" unicode="Y" horiz-adv-x="615" 
d="M123 0l3 15l58 6q42 4 44 18l46 237l-101 257q-15 40 -29 54t-42 18l-32 5l-1 15h272l-4 -15l-28 -2q-39 -3 -45 -21t12 -61l81 -218h3l127 179q53 74 56 89q4 18 -23 25q-10 2 -26 4l-29 5l-2 15h220l-4 -15l-26 -4q-31 -5 -61 -30t-79 -92l-145 -201l-47 -246
q-1 -4 2 -7t13 -5.5t30 -4.5l48 -5l1 -15h-292z" />
    <glyph glyph-name="Z" unicode="Z" horiz-adv-x="571" 
d="M-10 0l3 14l500 590l-1 3h-110q-64 0 -109.5 -10t-73 -30.5t-42.5 -41t-29 -52.5l-13 -32h-16l33 184h477l-3 -15l-499 -588v-3h123q66 0 111 8.5t74 29.5t45.5 43.5t35.5 62.5l15 35h20l-51 -198h-490z" />
    <glyph glyph-name="bracketleft" unicode="[" horiz-adv-x="325" 
d="M-4 -239l130 872h247l-1 -20h-224l-127 -832h224l-2 -20h-247z" />
    <glyph glyph-name="backslash" unicode="\" horiz-adv-x="246" 
d="M210 -236l-212 877h22l211 -877h-21z" />
    <glyph glyph-name="bracketright" unicode="]" horiz-adv-x="325" 
d="M-57 -239l2 20h224l127 832h-224l1 20h247l-130 -872h-247z" />
    <glyph glyph-name="asciicircum" unicode="^" horiz-adv-x="379" 
d="M105 489l153 194h32l80 -194h-12l-93 116h-3l-147 -116h-10z" />
    <glyph glyph-name="underscore" unicode="_" horiz-adv-x="453" 
d="M-31 -36l3 37h424l3 -37h-430z" />
    <glyph glyph-name="grave" unicode="`" horiz-adv-x="379" 
d="M270 497l-139 187h90l61 -187h-12z" />
    <glyph glyph-name="a" unicode="a" horiz-adv-x="453" 
d="M310 -13q-17 0 -49.5 13t-32.5 23q0 33 48 164h-4q-6 -10 -17 -28q-31 -51 -45.5 -74t-36 -50.5t-38 -37t-35.5 -9.5q-37 0 -62 28.5t-25 75.5q0 75 40 151t95 132q65 67 127 67q24 0 34 -20t12 -71h4l34 95l75 -3l-72 -200l-57 -201l46 -7l70 91l9 -7q-30 -63 -63 -97.5
t-57 -34.5zM140 47q43 0 145 195q7 13 15.5 40.5t8.5 37.5q-5 29 -30.5 51.5t-56.5 22.5q-24 0 -44 -20q-30 -31 -57 -111t-27 -140q0 -76 46 -76z" />
    <glyph glyph-name="b" unicode="b" horiz-adv-x="424" 
d="M141 -16q-51 0 -89.5 27t-24.5 73l137 518q6 21 -5 23l-75 10l3 12l176 26l-31 -115q-76 -247 -105 -337q-2 -5 0 -6q2 0 5 4q56 121 100 173.5t85 52.5q38 0 63 -34t25 -88q0 -63 -31 -138.5t-91 -134.5q-29 -30 -68.5 -48t-73.5 -18zM175 7q20 0 47 25q41 41 72 123
t31 148q0 84 -50 84q-30 0 -65 -52t-85 -161q-10 -23 -18 -55.5t-8 -44.5q8 -29 29 -48t47 -19z" />
    <glyph glyph-name="c" unicode="c" horiz-adv-x="354" 
d="M142 -13q-55 0 -91 42t-36 102q0 111 78 213t174 102q40 0 71 -22t31 -54q0 -23 -15.5 -39.5t-35.5 -16.5q-19 0 -33 11.5t-14 28.5q0 27 27 47q-26 23 -53 23q-24 0 -55 -31q-36 -36 -63.5 -109t-27.5 -138q0 -105 77 -105q33 0 59.5 19.5t66.5 70.5l9 -7
q-41 -64 -81 -100.5t-88 -36.5z" />
    <glyph glyph-name="d" unicode="d" horiz-adv-x="453" 
d="M310 -13q-17 0 -49.5 13t-32.5 23q0 31 47 164h-4q-5 -9 -15 -25q-31 -52 -46 -75.5t-36 -51t-38 -37.5t-36 -10q-37 0 -62 28.5t-25 75.5q0 75 40 151t95 131q69 71 125 71q17 0 27.5 -16.5t13.5 -31.5t7 -46h4l73 251q4 22 -6 23l-88 10l3 12l191 26l-123 -392
l-70 -239l46 -7l70 90l9 -7q-30 -62 -63 -96.5t-57 -34.5zM140 47q44 0 145 195q7 13 15.5 40.5t8.5 37.5q-5 28 -30.5 50.5t-56.5 22.5q-24 0 -44 -20q-30 -30 -57 -110t-27 -140q0 -76 46 -76z" />
    <glyph glyph-name="e" unicode="e" horiz-adv-x="362" 
d="M142 -13q-55 0 -91 42t-36 102q0 112 77.5 213.5t167.5 101.5q48 0 77 -22.5t29 -59.5q0 -47 -58.5 -79t-199.5 -72q-9 -38 -9 -67q0 -105 82 -105q32 0 60 20t67 70l9 -7q-87 -137 -175 -137zM112 227q101 32 140 64t39 81q0 21 -15 35.5t-35 14.5q-24 0 -51 -25
q-51 -51 -80 -169z" />
    <glyph glyph-name="f" unicode="f" horiz-adv-x="265" 
d="M-82 -200q-33 0 -55.5 16.5t-22.5 42.5q0 19 14 34.5t35 15.5q27 0 42 -25.5t3 -54.5q27 2 36 2q23 6 42.5 64t49.5 204l56 294l-84 2l11 33l83 7q29 123 89 183q50 52 120 52q39 0 63 -18t24 -45q0 -21 -15.5 -36t-35.5 -15q-31 0 -42 27t8 55q-35 3 -47 3
q-54 -15 -89 -208h105l-9 -39h-104l-58 -266q-48 -222 -112 -287q-40 -41 -107 -41z" />
    <glyph glyph-name="g" unicode="g" horiz-adv-x="394" 
d="M106 -244q-86 0 -140 32t-54 87q0 39 44 73t104 50v3q-60 30 -60 72q0 27 29 51.5t70 35.5v3q-53 42 -53 111q0 68 53.5 119.5t120.5 51.5q51 0 93 -29l125 16l-14 -64l-115 30v-5q43 -48 43 -98q0 -62 -53 -111t-115 -49q-39 0 -68 16q-22 -3 -36 -18t-14 -32t19 -28
t78 -32l26 -9q75 -27 115 -57t40 -76q0 -58 -68 -100.5t-170 -42.5zM163 151q35 0 63 30q28 28 43.5 77.5t15.5 91.5q0 33 -16.5 53.5t-40.5 20.5q-23 0 -48 -23q-29 -30 -47 -80t-17 -89q2 -50 17 -67q14 -14 30 -14zM150 -224q53 0 91 27.5t38 64.5q0 32 -33.5 54
t-90.5 42q-71 25 -75 26q-40 -10 -66 -37t-26 -63q0 -48 45.5 -81t116.5 -33z" />
    <glyph glyph-name="h" unicode="h" horiz-adv-x="460" 
d="M303 -13q-16 0 -45.5 13t-29.5 23t66 191q5 15 15.5 41.5t16 42t10.5 31.5t5 23q0 14 -14.5 26t-31.5 12q-23 0 -73 -75.5t-113 -209.5l-35 -109l-81 5q1 3 11 33.5t22.5 69t18.5 56.5q17 54 47 164.5t51 193.5l21 84q6 21 -5 23l-75 10l3 12l175 26l-30 -115
q-12 -40 -34 -117.5t-34.5 -120t-27.5 -90.5t-26 -73l7 -1q97 197 152 252q36 36 75 36q28 0 51 -17.5t23 -41.5q0 -39 -48 -168q-9 -24 -25 -67.5t-27.5 -73.5t-12.5 -34l45 -7l70 90l9 -7q-29 -61 -65 -96t-61 -35z" />
    <glyph glyph-name="i" unicode="i" horiz-adv-x="249" 
d="M231 530q-23 0 -37 14.5t-14 36.5q0 28 15 47.5t36 19.5q24 0 38 -14.5t14 -36.5q-1 -28 -16 -47.5t-36 -19.5zM103 -13q-17 0 -49.5 12t-31.5 21q0 6 126 371l-54 5l-67 -96l-10 8q31 64 67.5 101t67.5 37q21 0 44 -18t22 -38q0 -11 -23.5 -81t-58 -165t-36.5 -101
l51 -8l70 90l9 -7q-29 -61 -65.5 -96t-61.5 -35z" />
    <glyph glyph-name="j" unicode="j" horiz-adv-x="233" 
d="M227 530q-23 0 -37 14.5t-14 36.5q0 28 15.5 47t35.5 19q24 0 38.5 -14.5t13.5 -36.5q-1 -28 -16 -47t-36 -19zM-104 -253q-25 0 -45.5 16t-20.5 40q0 18 13.5 32t33.5 14q27 0 40.5 -22t0.5 -52l39 13q28 37 75 211l111 393l-50 4l-71 -96l-9 8q30 64 67 101t68 37
q21 0 44.5 -18.5t22.5 -37.5q0 -19 -40 -153.5t-64 -194.5q-62 -188 -126 -252q-41 -43 -89 -43z" />
    <glyph glyph-name="k" unicode="k" horiz-adv-x="421" 
d="M280 -13q-30 0 -52 24q-6 97 -22 161.5t-38 64.5q-8 0 -16.5 -3.5t-13 -7t-4.5 -4.5l-60 -226l-81 5l11 33t22.5 69t18.5 57q17 54 47 164.5t51 193.5l21 84q6 21 -5 23l-75 10l3 12l175 26l-30 -115q-71 -241 -93 -311q8 2 25 2q49 19 106.5 49.5t63.5 42.5v4
q-37 14 -37 52q0 19 16 34.5t36 15.5q22 0 38 -16t16 -38q0 -34 -27 -59.5t-110 -58.5l-60 -24q35 -6 61 -71.5t35 -138.5l27 -2l66 97l8 -6q-25 -63 -58 -103t-65 -40z" />
    <glyph glyph-name="l" unicode="l" horiz-adv-x="231" 
d="M82 -13q-16 0 -47 13t-29 20l157 582q6 21 -5 23l-75 10l3 12l175 26l-178 -631l43 -7l69 90l10 -7q-30 -62 -64 -96.5t-59 -34.5z" />
    <glyph glyph-name="m" unicode="m" horiz-adv-x="694" 
d="M547 -13q-17 0 -48.5 13t-31.5 23q0 9 67 191q5 15 15.5 41.5t16 42t10.5 31.5t5 23q0 15 -15 27t-32 12q-42 0 -176 -286l-34 -109l-82 5l50 157q10 30 27.5 77.5t27.5 76.5t10 38q0 16 -12.5 28.5t-28.5 12.5q-44 0 -180 -286l-33 -109l-81 5l51 160l62 232l-43 4
l-68 -97l-9 8q65 139 125 139q17 0 43 -18.5t26 -37.5q0 -20 -22.5 -93.5t-48.5 -139.5l7 -2q104 212 145 253q36 36 75 36q27 0 46 -20t19 -48q0 -41 -70 -219l6 -2q34 67 44.5 88t34 65.5t37.5 65.5t27 34q36 36 75 36q28 0 51 -18t23 -41q0 -40 -48 -169l-66 -175l46 -7
l70 91l9 -7q-30 -62 -64 -97t-58 -35z" />
    <glyph glyph-name="n" unicode="n" horiz-adv-x="483" 
d="M335 -13q-17 0 -48 13t-31 23q0 12 66 191q5 15 15.5 41.5t16 42t10.5 31.5t5 23q0 15 -14.5 27t-31.5 12q-23 0 -73 -75.5t-114 -210.5l-33 -109l-81 5l51 160l62 230l-43 5l-68 -96l-9 8q30 65 64.5 102t64.5 37q16 0 40.5 -18.5t24.5 -37.5q0 -20 -22 -94.5
t-47 -138.5l5 -2q98 199 152 253q36 36 75 36q28 0 51 -18t23 -41q0 -40 -48 -169q-61 -165 -66 -175l46 -7l70 91l9 -7q-30 -62 -64 -97t-58 -35z" />
    <glyph glyph-name="o" unicode="o" horiz-adv-x="410" 
d="M163 -12q-63 0 -102 53t-39 132q0 95 69.5 183t148.5 88q65 0 106.5 -53t41.5 -131q0 -96 -71.5 -184t-153.5 -88zM155 6q44 0 80 51.5t57 124.5q17 59 17 130q0 51 -14.5 82t-41.5 31q-36 0 -76 -60t-62 -131q-18 -62 -18 -118q0 -47 15.5 -78.5t42.5 -31.5z" />
    <glyph glyph-name="p" unicode="p" horiz-adv-x="445" 
d="M-105 -251l2 15l31 4q21 2 28.5 5t9.5 12l169 607l-43 4l-68 -96l-9 8q65 138 125 138q17 0 42.5 -19.5t25.5 -36.5q0 -24 -31 -109h7q42 86 78.5 124.5t80.5 38.5q37 0 61 -39.5t24 -98.5q0 -118 -78 -218.5t-168 -100.5q-46 0 -69 43h-2l-67 -247q-1 -4 2.5 -7t14 -5.5
t28.5 -2.5l42 -4l1 -15h-237zM194 5q23 0 53 30q37 37 69 120.5t32 141.5q0 91 -50 91q-38 0 -76.5 -67.5t-89.5 -197.5q-10 -30 -10 -55q7 -24 28.5 -43.5t43.5 -19.5z" />
    <glyph glyph-name="q" unicode="q" horiz-adv-x="435" 
d="M66 -251l3 15l40 4q39 1 44 19l79 260l45 141h-4q-78 -129 -103 -158q-37 -41 -70 -42q-37 0 -62 28.5t-25 75.5q0 75 40 151t95 131q69 71 125 71q17 0 27.5 -16.5t13.5 -31.5t7 -46h4l31 87l76 -3l-70 -192l-131 -458q-2 -8 8 -11.5t32 -5.5l29 -4l3 -15h-237zM140 47
q44 0 145 195q7 13 15.5 40.5t8.5 37.5q-5 28 -30.5 50.5t-56.5 22.5q-24 0 -44 -20q-30 -30 -57 -110t-27 -140q0 -76 46 -76z" />
    <glyph glyph-name="r" unicode="r" horiz-adv-x="386" 
d="M104 -4l-82 5l51 160l62 232l-43 4l-68 -97l-9 8q65 139 125 139q17 0 43 -18.5t26 -37.5q0 -40 -63 -209h7q82 169 108 206q14 20 26 31q31 29 61 28q29 -2 46.5 -21.5t15.5 -45.5q-1 -24 -18 -41t-36 -15q-29 2 -38 26t13 50l-22 8q-22 -14 -55 -67.5t-109 -197.5z" />
    <glyph glyph-name="s" unicode="s" horiz-adv-x="321" 
d="M116 -13q-53 0 -90.5 22t-37.5 62q0 21 14.5 36t36.5 15q17 0 28 -13t11 -29q0 -11 -7.5 -25.5t-15.5 -20.5q41 -26 83 -28q31 2 50.5 29t20.5 53q0 12 -3.5 23t-13 23t-14 18t-20.5 21t-20 19q-29 28 -42 42t-26 39t-12 49q1 54 47 88.5t101 34.5q114 0 114 -78
q0 -23 -14.5 -36.5t-35.5 -13.5q-17 0 -28.5 13t-11.5 30q0 26 24 43q-39 21 -64 22q-31 -1 -48 -25.5t-18 -50.5q0 -8 1.5 -15t6 -15t7.5 -14t11 -14.5t12 -13t14.5 -15l14.5 -14.5q2 -2 12 -11.5t13 -13t12 -13t12.5 -14.5t10.5 -14t10 -16t6.5 -16t5 -18t1.5 -18
q-1 -53 -51.5 -90t-106.5 -37z" />
    <glyph glyph-name="t" unicode="t" horiz-adv-x="283" 
d="M110 -13q-18 0 -56.5 11.5t-36.5 19.5l101 374l-78 3l11 33l79 11l35 127h80l-35 -133h95l1 -39h-107l-105 -352l61 -7l69 90l9 -7q-29 -61 -63.5 -96t-59.5 -35z" />
    <glyph glyph-name="u" unicode="u" horiz-adv-x="483" 
d="M339 -14q-16 0 -40 18.5t-24 37.5q0 21 22 96t46 138l-5 1q-100 -202 -151 -253q-36 -36 -75 -36q-28 0 -51 18t-23 41q0 40 48 169l65 176l-46 5l-68 -97l-10 7q30 65 64 102t58 37q17 0 48 -13t31 -23q0 -12 -66 -191q-5 -13 -12.5 -33.5t-13 -34.5t-10.5 -29.5t-8 -26
t-3 -15.5q0 -14 14.5 -26t31.5 -12q23 0 73 75.5t114 209.5l33 110l80 -5l-50 -160q-60 -221 -63 -231l43 -6l69 90l9 -7q-30 -63 -65 -97.5t-65 -34.5z" />
    <glyph glyph-name="v" unicode="v" horiz-adv-x="410" 
d="M131 -13q-34 0 -63.5 24.5t-29.5 55.5q0 15 9.5 42.5t28 67.5t32 67t37.5 73.5t28 54.5l-94 17l-59 -82l-8 7q63 135 116 135q21 0 60 -7.5t39 -13.5q0 -7 -57 -130t-57 -168q0 -38 25 -59.5t58 -21.5q21 0 61.5 55.5t73 128t32.5 113.5q-21 -5 -44 11t-23 37t15.5 37
t36.5 16q25 0 41.5 -17.5t16.5 -45.5q0 -52 -46 -147t-102 -157q-74 -93 -127 -93z" />
    <glyph glyph-name="w" unicode="w" horiz-adv-x="589" 
d="M111 -13q-29 0 -52.5 24t-23.5 56q0 30 23 83t65.5 131t48.5 91l-93 17l-59 -82l-8 7q63 135 116 135q21 0 60 -7.5t39 -13.5q0 -10 -30 -69.5t-60 -129t-30 -102.5q0 -35 20 -50t42 -15q29 0 91 92t106 180l-5 3l-12.5 7.5t-15 11.5t-12.5 17t-5 21q0 22 14.5 36.5
t37.5 14.5q21 0 36 -15.5t15 -39.5q0 -27 -29.5 -64.5t-41.5 -68.5q-24 -66 -24 -107q0 -46 23 -67t51 -21q26 0 62 49.5t61.5 117.5t25.5 117q-21 -5 -42 11t-21 37t14.5 37t35.5 16q23 0 39.5 -17t16.5 -45q0 -53 -40.5 -151t-90.5 -158q-61 -89 -108 -89q-28 0 -48 26
t-20 55q0 42 46 163q-69 -120 -121.5 -182t-96.5 -62z" />
    <glyph glyph-name="x" unicode="x" horiz-adv-x="443" 
d="M48 -13q-31 0 -51.5 16.5t-19.5 43.5q0 24 14 39t34 15q25 0 35.5 -21t-3.5 -44q0 -2 10 -8t12 -5q14 2 51.5 60t59.5 110q-8 65 -25.5 132t-31.5 67h-37l-44 -73l-10 7q51 121 115 121q35 0 54.5 -38t37.5 -125h2q40 96 66 129.5t61 33.5q29 0 50 -16.5t20 -41.5
q0 -23 -14 -38.5t-33 -15.5q-24 0 -36 21t0 40q0 1 -9.5 4.5t-12.5 3.5q-11 -2 -41 -51.5t-46 -90.5q32 -219 60 -219h36l45 73l10 -9q-53 -120 -116 -120q-37 0 -57.5 44t-37.5 137h-3q-49 -108 -78 -144.5t-67 -36.5z" />
    <glyph glyph-name="y" unicode="y" horiz-adv-x="423" 
d="M-46 -204q-39 0 -60.5 16.5t-21.5 46.5q0 21 15 34.5t35 13.5q28 0 43 -23t3 -52l31 -8q32 7 88 51.5t92 84.5q0 168 -22.5 302t-53.5 134l-20 1l-63 -97l-10 8q35 74 60.5 106t62.5 32q44 0 68.5 -35.5t35.5 -119t13 -239.5l4 -1q39 65 79.5 166t41.5 148
q-27 -15 -52.5 -1t-26.5 36q-2 22 11.5 37t36.5 15q24 0 41.5 -18t17.5 -52q0 -87 -70 -221.5t-140 -202.5q-1 -1 -20 -19.5t-26 -25.5t-27.5 -26t-33 -28t-32.5 -23.5t-35 -21.5t-32.5 -12.5t-32.5 -5.5z" />
    <glyph glyph-name="z" unicode="z" horiz-adv-x="373" 
d="M236 -21q-36 0 -69.5 20.5t-62.5 48t-42 33.5h-8l-25 -93q-19 2 -34.5 15t-15.5 28q0 38 52 59l260 245q-29 -6 -60 9.5t-62 42t-37 30.5q-2 1 -10 -6.5t-15 -15.5t-5 -8q16 -4 26.5 -16.5t10.5 -26.5q0 -19 -12.5 -32t-32.5 -13t-31.5 13t-11.5 32q0 36 42.5 69.5
t87.5 34.5q30 -2 50.5 -15t28.5 -28t17.5 -30.5t18.5 -20.5l7 1l25 92q19 -2 34 -15.5t15 -29.5q-1 -36 -53 -57l-260 -245q40 7 83 -9.5t87 -47.5l44 -31q2 -1 7.5 6t9.5 14.5t3 7.5q-17 5 -28 19.5t-11 29.5q0 19 13 31.5t34 12.5q19 0 30.5 -13.5t11.5 -34.5
q0 -36 -37 -70t-75 -36z" />
    <glyph glyph-name="braceleft" unicode="{" horiz-adv-x="312" 
d="M245 -248q-88 11 -138.5 55t-40.5 109q6 44 37.5 109t36.5 96q6 39 -26.5 59t-101.5 31l-5 12l7 12q142 0 152 69q5 31 -5.5 98.5t-3.5 112.5q10 64 71.5 99.5t151.5 33.5v-15q-73 -3 -108.5 -26t-42.5 -67q-5 -32 5 -100.5t4 -110.5q-7 -46 -55.5 -74.5t-112.5 -31.5v-4
l-1 -3q63 -14 101 -48.5t32 -82.5q-6 -42 -38 -107.5t-37 -97.5q-8 -44 20.5 -72t99.5 -43z" />
    <glyph glyph-name="bar" unicode="|" horiz-adv-x="190" 
d="M86 -207v877h18v-877h-18z" />
    <glyph glyph-name="braceright" unicode="}" horiz-adv-x="312" 
d="M-57 -247v14q137 5 152 94q5 32 -16 101.5t-15 110.5q6 47 54 75.5t113 31.5q0 1 1 4v3q-62 14 -100.5 49.5t-31.5 81.5q6 42 48.5 106.5t47.5 97.5q8 43 -20.5 70.5t-99.5 42.5l3 14q88 -12 138 -55t40 -108q-7 -44 -48.5 -108t-46.5 -96q-10 -70 127 -91l5 -11l-6 -11
q-70 0 -108 -15t-44 -55q-5 -32 15.5 -100.5t14.5 -111.5q-10 -64 -71.5 -100t-151.5 -34z" />
    <glyph glyph-name="asciitilde" unicode="~" horiz-adv-x="369" 
d="M250 156q-33 0 -88 32.5t-72 32.5q-20 0 -31.5 -10.5t-21.5 -46.5h-13q14 60 34 85.5t57 25.5q33 0 88 -32.5t72 -32.5q20 0 31.5 11t22.5 46h14q-15 -59 -35.5 -85t-57.5 -26z" />
    <glyph glyph-name="nbspace" unicode="&#xa0;" horiz-adv-x="139" 
 />
    <glyph glyph-name="exclamdown" unicode="&#xa1;" horiz-adv-x="260" 
d="M197 518q-25 0 -42 17t-17 41t16.5 41.5t41.5 17.5q26 0 43.5 -17.5t17.5 -41.5t-17.5 -41t-42.5 -17zM88 -19q-57 5 -42 53l121 398q1 2 4 3t5 -0.5t2 -3.5l-32 -406q-3 -22 -14 -34t-41 -10h-3z" />
    <glyph glyph-name="cent" unicode="&#xa2;" horiz-adv-x="352" 
d="M110 -9q-42 11 -68.5 50t-26.5 89q0 112 78 213.5t174 101.5q17 0 30 -4l71 173h19l-74 -178q25 -9 40.5 -27t15.5 -40t-15.5 -38.5t-35.5 -16.5q-31 0 -45 26l-122 -296q12 -3 25 -3q33 0 59.5 19.5t66.5 70.5l9 -8q-41 -64 -81 -100t-88 -36q-9 0 -14 1l-61 -148h-19z
M284 411q-15 12 -39 12q-23 0 -55 -30q-36 -36 -63.5 -109t-27.5 -138q0 -71 36 -94z" />
    <glyph glyph-name="sterling" unicode="&#xa3;" horiz-adv-x="516" 
d="M177 284h-110l4 19h105q-2 38 -1 58q5 109 76.5 189.5t179.5 80.5q55 0 85 -21t28 -55q-1 -22 -16.5 -37.5t-37.5 -15.5q-34 0 -43.5 31.5t8.5 56.5q-19 19 -54 19q-44 0 -79 -34.5t-47 -104.5q-4 -23 -8 -85t-6 -82h129l1 -19h-132q-4 -36 -8 -55q-12 -65 -57 -130
q11 -3 35.5 -11t37.5 -12t32 -9.5t34 -7.5t28 -2q43 0 66.5 22t42.5 82l11 -3q-16 -74 -57.5 -122t-99.5 -48q-73 0 -170 62q-61 -63 -121 -63q-28 0 -46 17t-16 42q1 34 27 56.5t72 22.5q34 0 94 -16q15 36 16 69q2 27 -3 106zM136 61q-63 39 -93 39q-24 0 -40 -15.5
t-17 -37.5q-1 -19 13 -32.5t35 -13.5q55 0 102 60z" />
    <glyph glyph-name="currency" unicode="&#xa4;" 
d="M88 199l-14 14l57 57q-33 38 -33 89t33 89l-57 57l14 14l57 -57q40 33 89 33t89 -33l57 57l14 -14l-57 -57q33 -40 33 -89t-33 -89l57 -57l-14 -14l-57 57q-38 -33 -89 -33t-89 33zM118 359q0 -48 34 -82t82 -34t82 34t34 82t-34 82t-82 34t-82 -34t-34 -82z" />
    <glyph glyph-name="yen" unicode="&#xa5;" horiz-adv-x="607" 
d="M273 288h-180l-1 20h176l-94 235q-12 33 -26.5 47t-41.5 16l-28 4l-2 15h269l-3 -15l-29 -2q-39 -3 -44.5 -22.5t15.5 -67.5l73 -194h2l124 171q34 47 43 68.5t0 30t-42 13.5l-21 3l-2 15h207l-3 -15l-23 -3q-33 -5 -58 -24t-73 -85l-138 -190h172v-5.5t-1 -9.5v-5h-179
l-21 -107h181l2 -19h-187l-23 -125q-1 -4 2 -7t13 -5.5t30 -4.5l48 -5l2 -15h-292l3 15l58 6q42 4 44 18l24 123h-178l4 19h177q2 0 21 107z" />
    <glyph glyph-name="brokenbar" unicode="&#xa6;" horiz-adv-x="190" 
d="M86 292v335h18v-335h-18zM86 -154v335h18v-335h-18z" />
    <glyph glyph-name="section" unicode="&#xa7;" horiz-adv-x="390" 
d="M136 -50q-50 0 -87 20t-37 52q0 22 13.5 36.5t34.5 14.5q29 0 38 -27.5t-4 -53.5q14 -23 58 -23q36 0 59 25t23 53q0 32 -26 62t-75 68t-77 72t-28 75q0 43 30 76t77 49q-15 25 -15 59q0 53 45 92t113 39q46 0 83 -21t37 -53q0 -19 -15 -33t-35 -14q-31 0 -39.5 28.5
t5.5 53.5q-14 21 -49 21q-38 0 -60.5 -23.5t-22.5 -51.5q0 -33 26 -62.5t77 -68.5q50 -38 77.5 -71.5t27.5 -73.5q0 -44 -31 -78t-78 -49q16 -26 16 -61q0 -54 -47.5 -93t-113.5 -39zM275 154q52 30 52 80q0 45 -72 104q-10 8 -33 26t-33.5 26.5t-24.5 22t-22 25.5
q-53 -29 -53 -79q0 -27 18.5 -50.5t56.5 -53.5q91 -71 111 -101z" />
    <glyph glyph-name="dieresis" unicode="&#xa8;" horiz-adv-x="379" 
d="M349 520q-25 0 -39.5 17.5t-14.5 37.5q0 21 14.5 39.5t39.5 18.5t39.5 -18.5t14.5 -39.5q0 -20 -14.5 -37.5t-39.5 -17.5zM163 520q-25 0 -39.5 17.5t-14.5 37.5q0 21 14.5 39.5t39.5 18.5t39.5 -18.5t14.5 -39.5q0 -20 -14.5 -37.5t-39.5 -17.5z" />
    <glyph glyph-name="copyright" unicode="&#xa9;" horiz-adv-x="713" 
d="M365 -14q-136 0 -231.5 95.5t-95.5 231.5t95.5 232t231.5 96t231.5 -96t95.5 -232t-95.5 -231.5t-231.5 -95.5zM365 2q127 0 217.5 91.5t90.5 219.5t-90.5 219.5t-217.5 91.5q-128 0 -218.5 -91.5t-90.5 -219.5t90.5 -219.5t218.5 -91.5zM375 118q-92 0 -148.5 53
t-56.5 138t58 140t150 55q54 0 96 -20l39 14l2 -121h-11l-46 90q-27 22 -83 22q-65 0 -103.5 -49t-38.5 -122q0 -82 42 -133.5t106 -51.5q39 0 64 17t49 53l20 41h11l-19 -105l-23 -2q-44 -19 -108 -19z" />
    <glyph glyph-name="ordfeminine" unicode="&#xaa;" horiz-adv-x="352" 
d="M135 288q-28 0 -47 22.5t-19 59.5q0 56 30 113.5t72 99.5q49 51 97 51q18 0 25.5 -15.5t9.5 -54.5h3l26 74l56 -2l-54 -154l-43 -153l35 -5l56 74l5 -5q-25 -49 -50.5 -77t-44.5 -28q-12 0 -35.5 11.5t-23.5 19.5q0 16 40 130h-3q-67 -113 -91 -138q-23 -22 -44 -23z
M166 334q15 0 45.5 41.5t63.5 105.5q18 36 18 58q-4 22 -23 39t-43 17q-21 0 -34 -15q-24 -24 -43.5 -81.5t-19.5 -105.5q0 -28 10 -43.5t26 -15.5z" />
    <glyph glyph-name="guillemotleft" unicode="&#xab;" horiz-adv-x="452" 
d="M393 48l-185 167l2 19l249 164l4 -11l-170 -171l107 -157zM205 58l-187 157l2 19l247 153l4 -10l-164 -161l105 -147z" />
    <glyph glyph-name="logicalnot" unicode="&#xac;" 
d="M422 312v-180h-22v158h-382l3 22h401z" />
    <glyph glyph-name="uni00AD" unicode="&#xad;" horiz-adv-x="294" 
d="M23 212l10 44h244l-7 -44h-247z" />
    <glyph glyph-name="registered" unicode="&#xae;" horiz-adv-x="713" 
d="M365 -14q-136 0 -231.5 95.5t-95.5 231.5t95.5 232t231.5 96t231.5 -96t95.5 -232t-95.5 -231.5t-231.5 -95.5zM365 2q127 0 217.5 91.5t90.5 219.5t-90.5 219.5t-217.5 91.5q-128 0 -218.5 -91.5t-90.5 -219.5t90.5 -219.5t218.5 -91.5zM196 130l2 12l30 4q24 2 24 11
v316q0 7 -28 9l-25 4l-2 12h158q72 0 108.5 -26t36.5 -71q0 -34 -24.5 -60t-65.5 -34l78 -118q18 -26 29.5 -34.5t30.5 -10.5l15 -2l2 -12h-109l-9 17l-97 157q-2 0 -18 3t-22 5v-157q0 -5 28 -10l27 -3l1 -12h-170zM356 320q82 2 82 81q0 83 -102 79l-26 -1v-151
q26 -8 46 -8z" />
    <glyph glyph-name="macron" unicode="&#xaf;" horiz-adv-x="378" 
d="M117 527l11 30h248l-8 -30h-251z" />
    <glyph glyph-name="degree" unicode="&#xb0;" horiz-adv-x="321" 
d="M211 360q-60 0 -98.5 39t-38.5 97q0 61 41 104t103 43q60 0 98 -39t38 -96q0 -61 -40.5 -104.5t-102.5 -43.5zM212 381q52 0 84.5 36t32.5 88q1 48 -30.5 81.5t-82.5 34.5q-52 0 -84.5 -36.5t-32.5 -87.5q-1 -50 30.5 -83t82.5 -33z" />
    <glyph glyph-name="plusminus" unicode="&#xb1;" 
d="M217 84v162h-198l3 22h195v168h22v-168h195l3 -22h-198v-162h-22zM424 27h-392l3 22h386z" />
    <glyph glyph-name="twosuperior" unicode="&#xb2;" horiz-adv-x="282" 
d="M-16 267v14q16 13 45 36.5t41.5 33.5t35 29t32 29t24.5 26t21.5 26.5t14 25t10 27.5t2.5 28q0 34 -20.5 53.5t-50.5 19.5q-42 0 -84 -48l-5 7q55 80 127 80q40 0 67.5 -25.5t28.5 -64.5q0 -27 -9.5 -50.5t-35 -49.5t-45.5 -42t-67 -51.5t-72 -55.5v-2h119q29 0 47.5 13
t39.5 45l8 11h10l-47 -115h-237z" />
    <glyph glyph-name="threesuperior" unicode="&#xb3;" horiz-adv-x="268" 
d="M88 245q-40 0 -68 11.5t-28 36.5q0 13 9.5 22.5t24.5 9.5q19 0 31 -18.5t1 -38.5q17 -11 38 -11q39 0 65.5 31t26.5 73q0 37 -22.5 58.5t-63.5 21.5q-17 0 -39 -6l-4 9q80 34 111.5 56.5t31.5 58.5q0 25 -17.5 41.5t-43.5 16.5q-50 0 -87 -48l-4 7q21 34 55 56t73 22
q35 0 61.5 -21.5t26.5 -51.5q0 -68 -125 -109v-2q4 1 13 1q43 -3 69 -30t26 -65q0 -51 -49.5 -91t-111.5 -40z" />
    <glyph glyph-name="acute" unicode="&#xb4;" horiz-adv-x="379" 
d="M196 497l124 187h97l-209 -187h-12z" />
    <glyph glyph-name="mu" unicode="&#xb5;" horiz-adv-x="494" 
d="M219 -251h-211l3 15l21 1q40 3 40 16v618q0 8 -7.5 10t-41.5 5l-17 2l-3 15h154l-3 -313q0 -72 84 -72q63 0 109 39v290q0 22 -9 29.5t-38 9.5l-21 2l-3 15h155v-361q0 -23 14 -27l54 -13l-1 -11l-150 -35v81h-2q-18 -28 -27.5 -40t-30.5 -25.5t-47 -13.5q-53 0 -84 60
h-2v-265q0 -13 40 -16l21 -1z" />
    <glyph glyph-name="mu" unicode="&#x3bc;" horiz-adv-x="494" 
d="M219 -251h-211l3 15l21 1q40 3 40 16v618q0 8 -7.5 10t-41.5 5l-17 2l-3 15h154l-3 -313q0 -72 84 -72q63 0 109 39v290q0 22 -9 29.5t-38 9.5l-21 2l-3 15h155v-361q0 -23 14 -27l54 -13l-1 -11l-150 -35v81h-2q-18 -28 -27.5 -40t-30.5 -25.5t-47 -13.5q-53 0 -84 60
h-2v-265q0 -13 40 -16l21 -1z" />
    <glyph glyph-name="paragraph" unicode="&#xb6;" horiz-adv-x="452" 
d="M322 -31l53 285q-14 -3 -23 -3q-131 0 -207 48t-76 132q0 98 70 146.5t182 48.5h147l-124 -657h-22z" />
    <glyph glyph-name="periodcentered" unicode="&#xb7;" horiz-adv-x="211" 
d="M99 163q-26 0 -44 18.5t-18 43.5q0 24 17.5 42t43.5 18t44 -17.5t18 -42.5t-17.5 -43.5t-43.5 -18.5z" />
    <glyph glyph-name="cedilla" unicode="&#xb8;" horiz-adv-x="379" 
d="M3 -260l-1 11q168 15 168 90q0 48 -83 48q-23 0 -55 -5l2 11l120 109h22l-72 -67q56 3 92.5 -18t36.5 -58q0 -57 -64 -86.5t-166 -34.5z" />
    <glyph glyph-name="onesuperior" unicode="&#xb9;" horiz-adv-x="254" 
d="M21 267l2 11l35 2q24 1 26 12l62 321l-67 10l3 8l132 19l-70 -359q-1 -3 1 -5t8 -4t17 -2l28 -2l2 -11h-179z" />
    <glyph glyph-name="ordmasculine" unicode="&#xba;" horiz-adv-x="318" 
d="M183 286q-48 0 -78 40t-30 100q0 73 53.5 142t113.5 69q50 0 81.5 -40.5t31.5 -100.5q0 -75 -54 -142.5t-118 -67.5zM176 300q34 0 62 40.5t45 96.5q12 46 12 99q0 39 -11 62t-32 23q-27 0 -58 -47t-48 -102q-14 -45 -14 -89q0 -37 11.5 -60t32.5 -23z" />
    <glyph glyph-name="guillemotright" unicode="&#xbb;" horiz-adv-x="452" 
d="M182 57l-3 10l164 160l-107 149l8 10l187 -157l-1 -19zM-9 47l-4 10l169 170l-108 159l8 11l185 -168l-1 -19z" />
    <glyph glyph-name="onequarter" unicode="&#xbc;" horiz-adv-x="646" 
d="M481 -136l21 107h-160v9l243 271l26 -2l-46 -241h67l-10 -37h-64l-22 -107h-55zM384 8h125l34 174h-3zM21 267l2 11l35 2q24 1 26 12l62 321l-67 10l3 8l132 19l-70 -359q-1 -3 1 -5t8 -4t17 -2l28 -2l2 -11h-179zM-16 -121l678 751h27l-678 -751h-27z" />
    <glyph glyph-name="onehalf" unicode="&#xbd;" horiz-adv-x="660" 
d="M356 -137v14q16 13 45 36.5t41.5 33.5t35 29t32 29t24.5 26t21.5 26.5t14 25t10 27.5t2.5 28q0 34 -20.5 53.5t-50.5 19.5q-42 0 -84 -48l-5 7q55 80 127 80q40 0 67.5 -25.5t28.5 -64.5q0 -27 -9.5 -50.5t-35 -49.5t-45.5 -42t-67 -51.5t-72 -55.5v-2h119q29 0 47.5 13
t39.5 45l8 11h10l-47 -115h-237zM21 267l2 11l35 2q24 1 26 12l62 321l-67 10l3 8l132 19l-70 -359q-1 -3 1 -5t8 -4t17 -2l28 -2l2 -11h-179zM-16 -121l678 751h27l-678 -751h-27z" />
    <glyph glyph-name="threequarters" unicode="&#xbe;" horiz-adv-x="620" 
d="M455 -136l21 107h-160v9l243 271l26 -2l-46 -241h67l-10 -37h-64l-22 -107h-55zM358 8h125l34 174h-3zM88 245q-40 0 -68 11.5t-28 36.5q0 13 9.5 22.5t24.5 9.5q19 0 31 -18.5t1 -38.5q17 -11 38 -11q39 0 65.5 31t26.5 73q0 37 -22.5 58.5t-63.5 21.5q-17 0 -39 -6
l-4 9q80 34 111.5 56.5t31.5 58.5q0 25 -17.5 41.5t-43.5 16.5q-50 0 -87 -48l-4 7q21 34 55 56t73 22q35 0 61.5 -21.5t26.5 -51.5q0 -68 -125 -109v-2q4 1 13 1q43 -3 69 -30t26 -65q0 -51 -49.5 -91t-111.5 -40zM-42 -121l678 751h27l-678 -751h-27z" />
    <glyph glyph-name="questiondown" unicode="&#xbf;" horiz-adv-x="321" 
d="M243 525q-25 0 -42 17t-17 40q0 25 16.5 42.5t42.5 17.5q25 0 42.5 -18t17.5 -42q0 -23 -17 -40t-43 -17zM188 -12q-77 0 -123.5 49.5t-46.5 114.5q0 61 28 94.5t93 54.5q39 13 54.5 19t29 19.5t13.5 33.5q0 32 -37 69l13 2q63 -57 63 -109q0 -41 -29.5 -63.5
t-95.5 -42.5q-66 -19 -89 -33t-23 -43q0 -33 43 -60.5t120 -27.5q22 0 46 4q5 -10 5 -23q0 -58 -64 -58z" />
    <glyph glyph-name="Agrave" unicode="&#xc0;" horiz-adv-x="607" 
d="M361 257h-172l-52 -100l-1 -2q-46 -85 -47 -104q-1 -21 27 -28q11 -2 30 -4l34 -4l2 -15h-223l3 15l22 5q40 6 63 33t89 146l188 360l-4 36q20 5 45 18.5t33 25.5h13l61 -522q7 -58 18.5 -76t42.5 -21l36 -5l1 -15h-275l3 15l38 4q31 2 38.5 20.5t2.5 61.5zM200 279h159
l-25 253h-4zM387 664l-139 187h90l61 -187h-12z" />
    <glyph glyph-name="Aacute" unicode="&#xc1;" horiz-adv-x="607" 
d="M361 257h-172l-52 -100l-1 -2q-46 -85 -47 -104q-1 -21 27 -28q11 -2 30 -4l34 -4l2 -15h-223l3 15l22 5q40 6 63 33t89 146l188 360l-4 36q20 5 45 18.5t33 25.5h13l61 -522q7 -58 18.5 -76t42.5 -21l36 -5l1 -15h-275l3 15l38 4q31 2 38.5 20.5t2.5 61.5zM200 279h159
l-25 253h-4zM333 664l124 187h97l-209 -187h-12z" />
    <glyph glyph-name="Acircumflex" unicode="&#xc2;" horiz-adv-x="607" 
d="M361 257h-172l-52 -100l-1 -2q-46 -85 -47 -104q-1 -21 27 -28q11 -2 30 -4l34 -4l2 -15h-223l3 15l22 5q40 6 63 33t89 146l188 360l-4 36q20 5 45 18.5t33 25.5h13l61 -522q7 -58 18.5 -76t42.5 -21l36 -5l1 -15h-275l3 15l38 4q31 2 38.5 20.5t2.5 61.5zM200 279h159
l-25 253h-4zM245 656l152 194h32l81 -194h-12l-94 116h-3l-146 -116h-10z" />
    <glyph glyph-name="Atilde" unicode="&#xc3;" horiz-adv-x="607" 
d="M361 257h-172l-52 -100l-1 -2q-46 -85 -47 -104q-1 -21 27 -28q11 -2 30 -4l34 -4l2 -15h-223l3 15l22 5q40 6 63 33t89 146l188 360l-4 36q20 5 45 18.5t33 25.5h13l61 -522q7 -58 18.5 -76t42.5 -21l36 -5l1 -15h-275l3 15l38 4q31 2 38.5 20.5t2.5 61.5zM200 279h159
l-25 253h-4zM455 671q-33 0 -88 32.5t-72 32.5q-20 0 -31.5 -10.5t-21.5 -46.5h-13q14 60 34 85.5t57 25.5q32 0 87 -32.5t73 -32.5q20 0 31.5 11t22.5 46h14q-15 -59 -35.5 -85t-57.5 -26z" />
    <glyph glyph-name="Adieresis" unicode="&#xc4;" horiz-adv-x="607" 
d="M361 257h-172l-52 -100l-1 -2q-46 -85 -47 -104q-1 -21 27 -28q11 -2 30 -4l34 -4l2 -15h-223l3 15l22 5q40 6 63 33t89 146l188 360l-4 36q20 5 45 18.5t33 25.5h13l61 -522q7 -58 18.5 -76t42.5 -21l36 -5l1 -15h-275l3 15l38 4q31 2 38.5 20.5t2.5 61.5zM200 279h159
l-25 253h-4zM476 687q-25 0 -39.5 17.5t-14.5 37.5q0 21 14.5 39.5t39.5 18.5t39.5 -18.5t14.5 -39.5q0 -20 -14.5 -37.5t-39.5 -17.5zM290 687q-25 0 -39.5 17.5t-14.5 37.5q0 21 14.5 39.5t39.5 18.5t39.5 -18.5t14.5 -39.5q0 -20 -14.5 -37.5t-39.5 -17.5z" />
    <glyph glyph-name="Aring" unicode="&#xc5;" horiz-adv-x="607" 
d="M361 257h-172l-52 -100l-1 -2q-46 -85 -47 -104q-1 -21 27 -28q11 -2 30 -4l34 -4l2 -15h-223l3 15l22 5q40 6 63 33t89 146l220 419q-49 22 -49 81q0 37 24.5 63.5t64.5 26.5t64.5 -26.5t24.5 -63.5q0 -33 -19 -57t-52 -30l58 -495q7 -58 18.5 -76t42.5 -21l36 -5l1 -15
h-275l3 15l38 4q31 2 38.5 20.5t2.5 61.5zM396 624q33 0 53 21.5t20 53.5q0 31 -20 53.5t-53 22.5t-53 -22.5t-20 -53.5q0 -32 20 -53.5t53 -21.5zM200 279h159l-25 252h-4z" />
    <glyph glyph-name="AE" unicode="&#xc6;" horiz-adv-x="834" 
d="M375 257h-173l-67 -90q-72 -95 -79 -114q-8 -22 19 -29q10 -3 29 -5l26 -4l3 -15h-216l3 15l24 5q43 5 68 27t94 110l301 408q17 18 10.5 28t-45.5 13l-42 4l-2 15h479v-192h-18l-7 38q-10 33 -16 48.5t-19.5 36t-32 29t-50.5 15t-78 6.5h-53l-52 -276l34 1
q74 2 102 14.5t47 51.5l15 30l16 -1l-46 -213l-17 1l3 29q6 42 -19 53.5t-109 14.5l-30 1l-54 -290l89 -3q46 0 82 8t59.5 19t44.5 31.5t33 37t29 45.5l18 37l20 -1l-65 -196h-491l3 15l45 6q42 4 44 18zM217 279h162l54 288h-3q-212 -288 -213 -288z" />
    <glyph glyph-name="Ccedilla" unicode="&#xc7;" horiz-adv-x="663" 
d="M338 -14q-133 7 -210 85t-77 198q0 150 107 260.5t266 110.5q100 0 168 -37l70 16l-33 -187l-16 1l-31 139q-56 48 -150 48q-125 0 -202 -109t-77 -259q0 -113 57 -180t158 -67q105 0 188 97l38 68l18 -1l-52 -162l-39 1q-69 -23 -157 -23h-4l-52 -48q56 3 92.5 -18
t36.5 -58q0 -57 -64 -86.5t-166 -34.5l-1 11q168 15 168 90q0 48 -83 48q-23 0 -55 -5l2 11z" />
    <glyph glyph-name="Egrave" unicode="&#xc8;" horiz-adv-x="588" 
d="M-11 0l3 15l40 6q46 6 47 18l105 549q1 6 -7 9.5t-38 7.5l-32 5l-2 15h454l1 -192h-19l-6 38q-9 28 -13.5 41t-15 32.5t-22.5 28t-32 18t-48 13t-66 3.5h-57l-53 -277l39 1q74 2 102 14.5t47 51.5l15 30l17 -1l-47 -213l-17 1l3 29q6 42 -19 53.5t-109 14.5l-34 1
l-55 -290l93 -4q57 0 98.5 10.5t69.5 33t44 42.5t37 56l19 37l19 -1l-64 -196h-497zM373 664l-139 187h90l61 -187h-12z" />
    <glyph glyph-name="Eacute" unicode="&#xc9;" horiz-adv-x="588" 
d="M-11 0l3 15l40 6q46 6 47 18l105 549q1 6 -7 9.5t-38 7.5l-32 5l-2 15h454l1 -192h-19l-6 38q-9 28 -13.5 41t-15 32.5t-22.5 28t-32 18t-48 13t-66 3.5h-57l-53 -277l39 1q74 2 102 14.5t47 51.5l15 30l17 -1l-47 -213l-17 1l3 29q6 42 -19 53.5t-109 14.5l-34 1
l-55 -290l93 -4q57 0 98.5 10.5t69.5 33t44 42.5t37 56l19 37l19 -1l-64 -196h-497zM307 664l124 187h97l-209 -187h-12z" />
    <glyph glyph-name="Ecircumflex" unicode="&#xca;" horiz-adv-x="588" 
d="M-11 0l3 15l40 6q46 6 47 18l105 549q1 6 -7 9.5t-38 7.5l-32 5l-2 15h454l1 -192h-19l-6 38q-9 28 -13.5 41t-15 32.5t-22.5 28t-32 18t-48 13t-66 3.5h-57l-53 -277l39 1q74 2 102 14.5t47 51.5l15 30l17 -1l-47 -213l-17 1l3 29q6 42 -19 53.5t-109 14.5l-34 1
l-55 -290l93 -4q57 0 98.5 10.5t69.5 33t44 42.5t37 56l19 37l19 -1l-64 -196h-497zM219 656l152 194h32l81 -194h-12l-94 116h-3l-146 -116h-10z" />
    <glyph glyph-name="Edieresis" unicode="&#xcb;" horiz-adv-x="588" 
d="M-11 0l3 15l40 6q46 6 47 18l105 549q1 6 -7 9.5t-38 7.5l-32 5l-2 15h454l1 -192h-19l-6 38q-9 28 -13.5 41t-15 32.5t-22.5 28t-32 18t-48 13t-66 3.5h-57l-53 -277l39 1q74 2 102 14.5t47 51.5l15 30l17 -1l-47 -213l-17 1l3 29q6 42 -19 53.5t-109 14.5l-34 1
l-55 -290l93 -4q57 0 98.5 10.5t69.5 33t44 42.5t37 56l19 37l19 -1l-64 -196h-497zM452 687q-25 0 -39.5 17.5t-14.5 37.5q0 21 14.5 39.5t39.5 18.5t39.5 -18.5t14.5 -39.5q0 -20 -14.5 -37.5t-39.5 -17.5zM266 687q-25 0 -39.5 17.5t-14.5 37.5q0 21 14.5 39.5t39.5 18.5
t39.5 -18.5t14.5 -39.5q0 -20 -14.5 -37.5t-39.5 -17.5z" />
    <glyph glyph-name="Igrave" unicode="&#xcc;" horiz-adv-x="344" 
d="M-6 0l3 15l49 6q42 4 44 18l105 549q1 4 -2 7t-13 5.5t-30 4.5l-38 5l-2 15h273l-3 -15l-48 -6q-42 -6 -44 -18l-105 -549q-1 -7 7 -10t38 -7l38 -5l2 -15h-274zM269 664l-139 187h90l61 -187h-12z" />
    <glyph glyph-name="Iacute" unicode="&#xcd;" horiz-adv-x="344" 
d="M-6 0l3 15l49 6q42 4 44 18l105 549q1 4 -2 7t-13 5.5t-30 4.5l-38 5l-2 15h273l-3 -15l-48 -6q-42 -6 -44 -18l-105 -549q-1 -7 7 -10t38 -7l38 -5l2 -15h-274zM213 664l124 187h97l-209 -187h-12z" />
    <glyph glyph-name="Icircumflex" unicode="&#xce;" horiz-adv-x="344" 
d="M-6 0l3 15l49 6q42 4 44 18l105 549q1 4 -2 7t-13 5.5t-30 4.5l-38 5l-2 15h273l-3 -15l-48 -6q-42 -6 -44 -18l-105 -549q-1 -7 7 -10t38 -7l38 -5l2 -15h-274zM116 656l152 194h32l81 -194h-12l-94 116h-3l-146 -116h-10z" />
    <glyph glyph-name="Idieresis" unicode="&#xcf;" horiz-adv-x="344" 
d="M-6 0l3 15l49 6q42 4 44 18l105 549q1 4 -2 7t-13 5.5t-30 4.5l-38 5l-2 15h273l-3 -15l-48 -6q-42 -6 -44 -18l-105 -549q-1 -7 7 -10t38 -7l38 -5l2 -15h-274zM356 687q-25 0 -39.5 17.5t-14.5 37.5q0 21 14.5 39.5t39.5 18.5t39.5 -18.5t14.5 -39.5q0 -20 -14.5 -37.5
t-39.5 -17.5zM170 687q-25 0 -39.5 17.5t-14.5 37.5q0 21 14.5 39.5t39.5 18.5t39.5 -18.5t14.5 -39.5q0 -20 -14.5 -37.5t-39.5 -17.5z" />
    <glyph glyph-name="Eth" unicode="&#xd0;" horiz-adv-x="664" 
d="M130 305h-91l4 21h91l50 262q1 6 -7 9.5t-38 7.5l-33 5l-1 15l239 1q151 1 230.5 -71.5t79.5 -188.5q0 -153 -109 -259.5t-296 -106.5h-260l3 15l43 6q42 6 44 18zM228 326h139l2 -21h-145l-51 -266l66 -22q146 1 229 101t83 254q0 104 -54 169.5t-163 65.5h-53z" />
    <glyph glyph-name="Ntilde" unicode="&#xd1;" horiz-adv-x="673" 
d="M500 -6l-298 550h-3l-87 -439q-7 -49 3.5 -65t51.5 -21l27 -4l1 -15h-214l3 15l28 4q35 4 53 22t24 66l88 433q-5 26 -19 43t-46 22l-22 5l-2 15h180l256 -482h3l75 377q7 50 -3 65.5t-51 20.5l-27 4l-2 15h215l-3 -15l-28 -4q-35 -3 -53 -21t-25 -67l-104 -524h-21z
M481 671q-33 0 -88 32.5t-72 32.5q-20 0 -31.5 -10.5t-21.5 -46.5h-13q14 60 34 85.5t57 25.5q32 0 87 -32.5t73 -32.5q20 0 31.5 11t22.5 46h14q-15 -59 -35.5 -85t-57.5 -26z" />
    <glyph glyph-name="Ograve" unicode="&#xd2;" horiz-adv-x="719" 
d="M357 -14q-135 0 -219 86.5t-84 213.5q0 141 97.5 247t248.5 106q134 0 217.5 -87t83.5 -214q0 -144 -98.5 -248t-245.5 -104zM351 7q73 0 132.5 59t90 144.5t30.5 172.5q0 104 -53 170t-147 66q-75 0 -134.5 -60t-89 -145t-29.5 -172q0 -104 53.5 -169.5t146.5 -65.5z
M434 664l-139 187h90l61 -187h-12z" />
    <glyph glyph-name="Oacute" unicode="&#xd3;" horiz-adv-x="719" 
d="M357 -14q-135 0 -219 86.5t-84 213.5q0 141 97.5 247t248.5 106q134 0 217.5 -87t83.5 -214q0 -144 -98.5 -248t-245.5 -104zM351 7q73 0 132.5 59t90 144.5t30.5 172.5q0 104 -53 170t-147 66q-75 0 -134.5 -60t-89 -145t-29.5 -172q0 -104 53.5 -169.5t146.5 -65.5z
M373 664l124 187h97l-209 -187h-12z" />
    <glyph glyph-name="Ocircumflex" unicode="&#xd4;" horiz-adv-x="719" 
d="M357 -14q-135 0 -219 86.5t-84 213.5q0 141 97.5 247t248.5 106q134 0 217.5 -87t83.5 -214q0 -144 -98.5 -248t-245.5 -104zM351 7q73 0 132.5 59t90 144.5t30.5 172.5q0 104 -53 170t-147 66q-75 0 -134.5 -60t-89 -145t-29.5 -172q0 -104 53.5 -169.5t146.5 -65.5z
M286 656l152 194h32l81 -194h-12l-94 116h-3l-146 -116h-10z" />
    <glyph glyph-name="Otilde" unicode="&#xd5;" horiz-adv-x="719" 
d="M357 -14q-135 0 -219 86.5t-84 213.5q0 141 97.5 247t248.5 106q134 0 217.5 -87t83.5 -214q0 -144 -98.5 -248t-245.5 -104zM351 7q73 0 132.5 59t90 144.5t30.5 172.5q0 104 -53 170t-147 66q-75 0 -134.5 -60t-89 -145t-29.5 -172q0 -104 53.5 -169.5t146.5 -65.5z
M503 671q-33 0 -88 32.5t-72 32.5q-20 0 -31.5 -10.5t-21.5 -46.5h-13q14 60 34 85.5t57 25.5q32 0 87 -32.5t73 -32.5q20 0 31.5 11t22.5 46h14q-15 -59 -35.5 -85t-57.5 -26z" />
    <glyph glyph-name="Odieresis" unicode="&#xd6;" horiz-adv-x="719" 
d="M357 -14q-135 0 -219 86.5t-84 213.5q0 141 97.5 247t248.5 106q134 0 217.5 -87t83.5 -214q0 -144 -98.5 -248t-245.5 -104zM351 7q73 0 132.5 59t90 144.5t30.5 172.5q0 104 -53 170t-147 66q-75 0 -134.5 -60t-89 -145t-29.5 -172q0 -104 53.5 -169.5t146.5 -65.5z
M520 687q-25 0 -39.5 17.5t-14.5 37.5q0 21 14.5 39.5t39.5 18.5t39.5 -18.5t14.5 -39.5q0 -20 -14.5 -37.5t-39.5 -17.5zM334 687q-25 0 -39.5 17.5t-14.5 37.5q0 21 14.5 39.5t39.5 18.5t39.5 -18.5t14.5 -39.5q0 -20 -14.5 -37.5t-39.5 -17.5z" />
    <glyph glyph-name="multiply" unicode="&#xd7;" 
d="M37 61l175 175l-175 175l16 16l175 -175l175 175l16 -16l-175 -175l175 -175l-16 -16l-175 175l-175 -175z" />
    <glyph glyph-name="Oslash" unicode="&#xd8;" horiz-adv-x="719" 
d="M585 580q55 -41 85.5 -105t30.5 -137q0 -144 -98.5 -248t-245.5 -104q-95 0 -168 46l-76 -105h-24l84 116q-56 41 -87.5 104.5t-31.5 138.5q0 141 97.5 247t248.5 106q95 0 170 -48l71 98h23q-47 -66 -79 -109zM199 79l347 479q-53 61 -142 61q-75 0 -134.5 -60t-89 -145
t-29.5 -172q0 -98 48 -163zM558 543l-86 -119l-174 -240l-86 -120q54 -57 139 -57q73 0 132.5 59t90 144.5t30.5 172.5q0 97 -46 160z" />
    <glyph glyph-name="Ugrave" unicode="&#xd9;" horiz-adv-x="687" 
d="M345 -15q-108 0 -175.5 42.5t-67.5 127.5q0 36 10 81l67 352q1 5 -1.5 7.5t-13 5t-30.5 4.5l-42 5l-2 15h282l-4 -15l-52 -6q-41 -4 -44 -18l-65 -340q-8 -42 -8 -74q0 -150 175 -150q75 0 121 46.5t65 147.5l61 304q8 49 -2.5 65t-51.5 21l-27 4l-2 15h215l-4 -15
l-27 -4q-35 -4 -52.5 -21.5t-25.5 -66.5l-62 -309q-21 -112 -78.5 -168t-158.5 -56zM464 664l-139 187h90l61 -187h-12z" />
    <glyph glyph-name="Uacute" unicode="&#xda;" horiz-adv-x="687" 
d="M345 -15q-108 0 -175.5 42.5t-67.5 127.5q0 36 10 81l67 352q1 5 -1.5 7.5t-13 5t-30.5 4.5l-42 5l-2 15h282l-4 -15l-52 -6q-41 -4 -44 -18l-65 -340q-8 -42 -8 -74q0 -150 175 -150q75 0 121 46.5t65 147.5l61 304q8 49 -2.5 65t-51.5 21l-27 4l-2 15h215l-4 -15
l-27 -4q-35 -4 -52.5 -21.5t-25.5 -66.5l-62 -309q-21 -112 -78.5 -168t-158.5 -56zM400 664l124 187h97l-209 -187h-12z" />
    <glyph glyph-name="Ucircumflex" unicode="&#xdb;" horiz-adv-x="687" 
d="M345 -15q-108 0 -175.5 42.5t-67.5 127.5q0 36 10 81l67 352q1 5 -1.5 7.5t-13 5t-30.5 4.5l-42 5l-2 15h282l-4 -15l-52 -6q-41 -4 -44 -18l-65 -340q-8 -42 -8 -74q0 -150 175 -150q75 0 121 46.5t65 147.5l61 304q8 49 -2.5 65t-51.5 21l-27 4l-2 15h215l-4 -15
l-27 -4q-35 -4 -52.5 -21.5t-25.5 -66.5l-62 -309q-21 -112 -78.5 -168t-158.5 -56zM305 656l152 194h32l81 -194h-12l-94 116h-3l-146 -116h-10z" />
    <glyph glyph-name="Udieresis" unicode="&#xdc;" horiz-adv-x="687" 
d="M345 -15q-108 0 -175.5 42.5t-67.5 127.5q0 36 10 81l67 352q1 5 -1.5 7.5t-13 5t-30.5 4.5l-42 5l-2 15h282l-4 -15l-52 -6q-41 -4 -44 -18l-65 -340q-8 -42 -8 -74q0 -150 175 -150q75 0 121 46.5t65 147.5l61 304q8 49 -2.5 65t-51.5 21l-27 4l-2 15h215l-4 -15
l-27 -4q-35 -4 -52.5 -21.5t-25.5 -66.5l-62 -309q-21 -112 -78.5 -168t-158.5 -56zM530 687q-25 0 -39.5 17.5t-14.5 37.5q0 21 14.5 39.5t39.5 18.5t39.5 -18.5t14.5 -39.5q0 -20 -14.5 -37.5t-39.5 -17.5zM344 687q-25 0 -39.5 17.5t-14.5 37.5q0 21 14.5 39.5t39.5 18.5
t39.5 -18.5t14.5 -39.5q0 -20 -14.5 -37.5t-39.5 -17.5z" />
    <glyph glyph-name="Yacute" unicode="&#xdd;" horiz-adv-x="615" 
d="M123 0l3 15l58 6q42 4 44 18l46 237l-101 257q-15 40 -29 54t-42 18l-32 5l-1 15h272l-4 -15l-28 -2q-39 -3 -45 -21t12 -61l81 -218h3l127 179q53 74 56 89q4 18 -23 25q-10 2 -26 4l-29 5l-2 15h220l-4 -15l-26 -4q-31 -5 -61 -30t-79 -92l-145 -201l-47 -246
q-1 -4 2 -7t13 -5.5t30 -4.5l48 -5l1 -15h-292zM359 664l124 187h97l-209 -187h-12z" />
    <glyph glyph-name="Thorn" unicode="&#xde;" horiz-adv-x="556" 
d="M-20 0l3 15l52 6q42 4 45 18l105 549q1 5 -1.5 7.5t-13 5t-30.5 4.5l-42 5l-1 15h281l-4 -15l-52 -6q-41 -4 -44 -18l-17 -89h83q98 0 152.5 -43t54.5 -109q0 -82 -69.5 -134t-174.5 -52q-42 0 -107 14l-27 -136q-1 -5 2 -8t13 -5.5t30 -3.5l55 -5l2 -15h-295zM294 179
q73 0 115 53t42 129q0 54 -30 85t-86 31h-78l-53 -281q49 -17 90 -17z" />
    <glyph glyph-name="germandbls" unicode="&#xdf;" horiz-adv-x="492" 
d="M336 417q54 -40 92.5 -106t34.5 -131q-4 -76 -57 -135t-121 -57q-45 1 -76.5 29t-29.5 62q1 27 20 44t44 16q32 -1 45 -26t-2.5 -49t-51.5 -23q4 -10 19 -22.5t34 -13.5q40 -1 68.5 39.5t30.5 97.5q4 67 -32 138t-109 127l2 10q74 5 110.5 38.5t39.5 103.5
q2 37 -16.5 64.5t-53.5 27.5q-50 0 -72.5 -47.5t-48.5 -170.5l-65 -305q-50 -223 -113 -287q-41 -41 -106 -41q-33 0 -55.5 16.5t-22.5 42.5q0 19 13.5 34.5t34.5 15.5q27 0 42 -25.5t3 -54.5q27 2 36 2q23 6 42.5 64t49.5 204l55 294l-83 2l11 33l83 7q29 124 78.5 179.5
t122.5 55.5q70 0 107.5 -36t33.5 -91q-3 -52 -40.5 -83.5t-96.5 -42.5z" />
    <glyph glyph-name="agrave" unicode="&#xe0;" horiz-adv-x="453" 
d="M310 -13q-17 0 -49.5 13t-32.5 23q0 33 48 164h-4q-6 -10 -17 -28q-31 -51 -45.5 -74t-36 -50.5t-38 -37t-35.5 -9.5q-37 0 -62 28.5t-25 75.5q0 75 40 151t95 132q65 67 127 67q24 0 34 -20t12 -71h4l34 95l75 -3l-72 -200l-57 -201l46 -7l70 91l9 -7q-30 -63 -63 -97.5
t-57 -34.5zM140 47q43 0 145 195q7 13 15.5 40.5t8.5 37.5q-5 29 -30.5 51.5t-56.5 22.5q-24 0 -44 -20q-30 -31 -57 -111t-27 -140q0 -76 46 -76zM303 497l-139 187h90l61 -187h-12z" />
    <glyph glyph-name="aacute" unicode="&#xe1;" horiz-adv-x="453" 
d="M310 -13q-17 0 -49.5 13t-32.5 23q0 33 48 164h-4q-6 -10 -17 -28q-31 -51 -45.5 -74t-36 -50.5t-38 -37t-35.5 -9.5q-37 0 -62 28.5t-25 75.5q0 75 40 151t95 132q65 67 127 67q24 0 34 -20t12 -71h4l34 95l75 -3l-72 -200l-57 -201l46 -7l70 91l9 -7q-30 -63 -63 -97.5
t-57 -34.5zM140 47q43 0 145 195q7 13 15.5 40.5t8.5 37.5q-5 29 -30.5 51.5t-56.5 22.5q-24 0 -44 -20q-30 -31 -57 -111t-27 -140q0 -76 46 -76zM233 497l124 187h97l-209 -187h-12z" />
    <glyph glyph-name="acircumflex" unicode="&#xe2;" horiz-adv-x="453" 
d="M310 -13q-17 0 -49.5 13t-32.5 23q0 33 48 164h-4q-6 -10 -17 -28q-31 -51 -45.5 -74t-36 -50.5t-38 -37t-35.5 -9.5q-37 0 -62 28.5t-25 75.5q0 75 40 151t95 132q65 67 127 67q24 0 34 -20t12 -71h4l34 95l75 -3l-72 -200l-57 -201l46 -7l70 91l9 -7q-30 -63 -63 -97.5
t-57 -34.5zM140 47q43 0 145 195q7 13 15.5 40.5t8.5 37.5q-5 29 -30.5 51.5t-56.5 22.5q-24 0 -44 -20q-30 -31 -57 -111t-27 -140q0 -76 46 -76zM138 489l152 194h32l81 -194h-12l-94 116h-3l-146 -116h-10z" />
    <glyph glyph-name="atilde" unicode="&#xe3;" horiz-adv-x="453" 
d="M310 -13q-17 0 -49.5 13t-32.5 23q0 33 48 164h-4q-6 -10 -17 -28q-31 -51 -45.5 -74t-36 -50.5t-38 -37t-35.5 -9.5q-37 0 -62 28.5t-25 75.5q0 75 40 151t95 132q65 67 127 67q24 0 34 -20t12 -71h4l34 95l75 -3l-72 -200l-57 -201l46 -7l70 91l9 -7q-30 -63 -63 -97.5
t-57 -34.5zM140 47q43 0 145 195q7 13 15.5 40.5t8.5 37.5q-5 29 -30.5 51.5t-56.5 22.5q-24 0 -44 -20q-30 -31 -57 -111t-27 -140q0 -76 46 -76zM372 504q-33 0 -88 32.5t-72 32.5q-20 0 -31.5 -10.5t-21.5 -46.5h-13q14 60 34 85.5t57 25.5q33 0 88 -32.5t72 -32.5
q20 0 31.5 11t22.5 46h14q-15 -59 -35.5 -85t-57.5 -26z" />
    <glyph glyph-name="adieresis" unicode="&#xe4;" horiz-adv-x="453" 
d="M310 -13q-17 0 -49.5 13t-32.5 23q0 33 48 164h-4q-6 -10 -17 -28q-31 -51 -45.5 -74t-36 -50.5t-38 -37t-35.5 -9.5q-37 0 -62 28.5t-25 75.5q0 75 40 151t95 132q65 67 127 67q24 0 34 -20t12 -71h4l34 95l75 -3l-72 -200l-57 -201l46 -7l70 91l9 -7q-30 -63 -63 -97.5
t-57 -34.5zM140 47q43 0 145 195q7 13 15.5 40.5t8.5 37.5q-5 29 -30.5 51.5t-56.5 22.5q-24 0 -44 -20q-30 -31 -57 -111t-27 -140q0 -76 46 -76zM379 520q-25 0 -39.5 17.5t-14.5 37.5q0 21 14.5 39.5t39.5 18.5t39.5 -18.5t14.5 -39.5q0 -20 -14.5 -37.5t-39.5 -17.5z
M193 520q-25 0 -39.5 17.5t-14.5 37.5q0 21 14.5 39.5t39.5 18.5t39.5 -18.5t14.5 -39.5q0 -20 -14.5 -37.5t-39.5 -17.5z" />
    <glyph glyph-name="aring" unicode="&#xe5;" horiz-adv-x="453" 
d="M291 504q-40 0 -65 26t-24 64q0 37 24.5 63.5t64.5 26.5t64.5 -26.5t24.5 -63.5q0 -38 -24.5 -64t-64.5 -26zM310 -13q-17 0 -49.5 13t-32.5 23q0 33 48 164h-4q-6 -10 -17 -28q-31 -51 -45.5 -74t-36 -50.5t-38 -37t-35.5 -9.5q-37 0 -62 28.5t-25 75.5q0 75 40 151
t95 132q65 67 127 67q24 0 34 -20t12 -71h4l34 95l75 -3l-72 -200l-57 -201l46 -7l70 91l9 -7q-30 -63 -63 -97.5t-57 -34.5zM291 518q33 0 53 22t20 54q0 31 -20 53t-53 22t-53 -22t-20 -53q0 -32 20 -54t53 -22zM140 47q43 0 145 195q7 13 15.5 40.5t8.5 37.5
q-5 29 -30.5 51.5t-56.5 22.5q-24 0 -44 -20q-30 -31 -57 -111t-27 -140q0 -76 46 -76z" />
    <glyph glyph-name="ae" unicode="&#xe6;" horiz-adv-x="604" 
d="M97 -13q-37 0 -60.5 31t-23.5 80q0 75 38.5 148t93.5 129q68 70 125 70q56 0 65 -105q77 106 167 106q48 0 77 -22.5t29 -59.5q0 -47 -58.5 -79t-198.5 -72q-9 -32 -9 -67q0 -105 82 -105q32 0 60 20t66 70l9 -7q-87 -137 -174 -137q-55 0 -91 42t-36 102q0 22 2 33
q-59 -94 -94.5 -135.5t-68.5 -41.5zM354 227q101 32 140 64t39 81q0 21 -15 35.5t-35 14.5q-23 0 -50 -25q-50 -48 -81 -169zM135 49q47 0 146 193q23 44 26 70q-5 33 -31 57.5t-57 24.5q-25 0 -45 -20q-30 -31 -55 -107.5t-25 -137.5q0 -37 11.5 -58.5t29.5 -21.5z" />
    <glyph glyph-name="ccedilla" unicode="&#xe7;" horiz-adv-x="354" 
d="M130 -12q-50 4 -82.5 45.5t-32.5 97.5q0 111 78 213t174 102q40 0 71 -22t31 -54q0 -23 -15.5 -39.5t-35.5 -16.5q-19 0 -33 11.5t-14 28.5q0 27 27 47q-26 23 -53 23q-24 0 -55 -31q-36 -36 -63.5 -109t-27.5 -138q0 -105 77 -105q33 0 59.5 19.5t66.5 70.5l9 -7
q-39 -61 -77 -97t-82 -40l-54 -50q56 3 92.5 -18t36.5 -58q0 -57 -64 -86.5t-166 -34.5l-1 11q168 15 168 90q0 48 -83 48q-23 0 -55 -5l2 11z" />
    <glyph glyph-name="egrave" unicode="&#xe8;" horiz-adv-x="362" 
d="M142 -13q-55 0 -91 42t-36 102q0 112 77.5 213.5t167.5 101.5q48 0 77 -22.5t29 -59.5q0 -47 -58.5 -79t-199.5 -72q-9 -38 -9 -67q0 -105 82 -105q32 0 60 20t67 70l9 -7q-87 -137 -175 -137zM112 227q101 32 140 64t39 81q0 21 -15 35.5t-35 14.5q-24 0 -51 -25
q-51 -51 -80 -169zM268 497l-139 187h90l61 -187h-12z" />
    <glyph glyph-name="eacute" unicode="&#xe9;" horiz-adv-x="362" 
d="M142 -13q-55 0 -91 42t-36 102q0 112 77.5 213.5t167.5 101.5q48 0 77 -22.5t29 -59.5q0 -47 -58.5 -79t-199.5 -72q-9 -38 -9 -67q0 -105 82 -105q32 0 60 20t67 70l9 -7q-87 -137 -175 -137zM112 227q101 32 140 64t39 81q0 21 -15 35.5t-35 14.5q-24 0 -51 -25
q-51 -51 -80 -169zM215 497l124 187h97l-209 -187h-12z" />
    <glyph glyph-name="ecircumflex" unicode="&#xea;" horiz-adv-x="362" 
d="M142 -13q-55 0 -91 42t-36 102q0 112 77.5 213.5t167.5 101.5q48 0 77 -22.5t29 -59.5q0 -47 -58.5 -79t-199.5 -72q-9 -38 -9 -67q0 -105 82 -105q32 0 60 20t67 70l9 -7q-87 -137 -175 -137zM112 227q101 32 140 64t39 81q0 21 -15 35.5t-35 14.5q-24 0 -51 -25
q-51 -51 -80 -169zM118 489l152 194h32l81 -194h-12l-94 116h-3l-146 -116h-10z" />
    <glyph glyph-name="edieresis" unicode="&#xeb;" horiz-adv-x="362" 
d="M142 -13q-55 0 -91 42t-36 102q0 112 77.5 213.5t167.5 101.5q48 0 77 -22.5t29 -59.5q0 -47 -58.5 -79t-199.5 -72q-9 -38 -9 -67q0 -105 82 -105q32 0 60 20t67 70l9 -7q-87 -137 -175 -137zM112 227q101 32 140 64t39 81q0 21 -15 35.5t-35 14.5q-24 0 -51 -25
q-51 -51 -80 -169zM351 520q-25 0 -39.5 17.5t-14.5 37.5q0 21 14.5 39.5t39.5 18.5t39.5 -18.5t14.5 -39.5q0 -20 -14.5 -37.5t-39.5 -17.5zM165 520q-25 0 -39.5 17.5t-14.5 37.5q0 21 14.5 39.5t39.5 18.5t39.5 -18.5t14.5 -39.5q0 -20 -14.5 -37.5t-39.5 -17.5z" />
    <glyph glyph-name="igrave" unicode="&#xec;" horiz-adv-x="249" 
d="M103 -13q-17 0 -49.5 12t-31.5 21q0 6 126 371l-54 5l-67 -96l-10 8q31 64 67.5 101t67.5 37q21 0 44 -18t22 -38q0 -11 -23.5 -81t-58 -165t-36.5 -101l51 -8l70 90l9 -7q-29 -61 -65.5 -96t-61.5 -35zM196 497l-139 187h90l61 -187h-12z" />
    <glyph glyph-name="iacute" unicode="&#xed;" horiz-adv-x="249" 
d="M103 -13q-17 0 -49.5 12t-31.5 21q0 6 126 371l-54 5l-67 -96l-10 8q31 64 67.5 101t67.5 37q21 0 44 -18t22 -38q0 -11 -23.5 -81t-58 -165t-36.5 -101l51 -8l70 90l9 -7q-29 -61 -65.5 -96t-61.5 -35zM132 497l124 187h97l-209 -187h-12z" />
    <glyph glyph-name="icircumflex" unicode="&#xee;" horiz-adv-x="249" 
d="M46 491l146 193h32l74 -193h-13l-90 116h-3l-135 -116h-11zM103 -13q-17 0 -49.5 12t-31.5 21q0 6 126 371l-54 5l-67 -96l-10 8q31 64 67.5 101t67.5 37q21 0 44 -18t22 -38q0 -11 -23.5 -81t-58 -165t-36.5 -101l51 -8l70 90l9 -7q-29 -61 -65.5 -96t-61.5 -35z" />
    <glyph glyph-name="idieresis" unicode="&#xef;" horiz-adv-x="249" 
d="M103 -13q-17 0 -49.5 12t-31.5 21q0 6 126 371l-54 5l-67 -96l-10 8q31 64 67.5 101t67.5 37q21 0 44 -18t22 -38q0 -11 -23.5 -81t-58 -165t-36.5 -101l51 -8l70 90l9 -7q-29 -61 -65.5 -96t-61.5 -35zM292 520q-25 0 -39.5 17.5t-14.5 37.5q0 21 14.5 39.5t39.5 18.5
t39.5 -18.5t14.5 -39.5q0 -20 -14.5 -37.5t-39.5 -17.5zM106 520q-25 0 -39.5 17.5t-14.5 37.5q0 21 14.5 39.5t39.5 18.5t39.5 -18.5t14.5 -39.5q0 -20 -14.5 -37.5t-39.5 -17.5z" />
    <glyph glyph-name="eth" unicode="&#xf0;" horiz-adv-x="414" 
d="M235 558l-131 -40l6 22l111 34q-40 44 -89 63l7 18q70 -21 126 -68l125 39l-4 -21l-104 -32q53 -51 83 -120t31 -146q0 -121 -72.5 -220t-160.5 -99q-63 0 -102 53t-39 132q0 95 69 182.5t148 87.5q42 0 64 -28q-20 83 -68 143zM155 6q44 0 81.5 52t58.5 124
q17 59 17 130q0 50 -16 81t-43 31q-36 0 -76 -60t-62 -130q-18 -62 -18 -118q0 -47 15.5 -78.5t42.5 -31.5z" />
    <glyph glyph-name="ntilde" unicode="&#xf1;" horiz-adv-x="483" 
d="M335 -13q-17 0 -48 13t-31 23q0 12 66 191q5 15 15.5 41.5t16 42t10.5 31.5t5 23q0 15 -14.5 27t-31.5 12q-23 0 -73 -75.5t-114 -210.5l-33 -109l-81 5l51 160l62 230l-43 5l-68 -96l-9 8q30 65 64.5 102t64.5 37q16 0 40.5 -18.5t24.5 -37.5q0 -20 -22 -94.5
t-47 -138.5l5 -2q98 199 152 253q36 36 75 36q28 0 51 -18t23 -41q0 -40 -48 -169q-61 -165 -66 -175l46 -7l70 91l9 -7q-30 -62 -64 -97t-58 -35zM367 504q-33 0 -88 32.5t-72 32.5q-20 0 -31.5 -10.5t-21.5 -46.5h-13q14 60 34 85.5t57 25.5q32 0 87 -32.5t73 -32.5
q20 0 31.5 11t22.5 46h14q-15 -59 -35.5 -85t-57.5 -26z" />
    <glyph glyph-name="ograve" unicode="&#xf2;" horiz-adv-x="410" 
d="M163 -12q-63 0 -102 53t-39 132q0 95 69.5 183t148.5 88q65 0 106.5 -53t41.5 -131q0 -96 -71.5 -184t-153.5 -88zM155 6q44 0 80 51.5t57 124.5q17 59 17 130q0 51 -14.5 82t-41.5 31q-36 0 -76 -60t-62 -131q-18 -62 -18 -118q0 -47 15.5 -78.5t42.5 -31.5zM295 497
l-139 187h90l61 -187h-12z" />
    <glyph glyph-name="oacute" unicode="&#xf3;" horiz-adv-x="410" 
d="M163 -12q-63 0 -102 53t-39 132q0 95 69.5 183t148.5 88q65 0 106.5 -53t41.5 -131q0 -96 -71.5 -184t-153.5 -88zM155 6q44 0 80 51.5t57 124.5q17 59 17 130q0 51 -14.5 82t-41.5 31q-36 0 -76 -60t-62 -131q-18 -62 -18 -118q0 -47 15.5 -78.5t42.5 -31.5zM221 497
l124 187h97l-209 -187h-12z" />
    <glyph glyph-name="ocircumflex" unicode="&#xf4;" horiz-adv-x="410" 
d="M163 -12q-63 0 -102 53t-39 132q0 95 69.5 183t148.5 88q65 0 106.5 -53t41.5 -131q0 -96 -71.5 -184t-153.5 -88zM155 6q44 0 80 51.5t57 124.5q17 59 17 130q0 51 -14.5 82t-41.5 31q-36 0 -76 -60t-62 -131q-18 -62 -18 -118q0 -47 15.5 -78.5t42.5 -31.5zM131 489
l152 194h32l81 -194h-12l-94 116h-3l-146 -116h-10z" />
    <glyph glyph-name="otilde" unicode="&#xf5;" horiz-adv-x="410" 
d="M163 -12q-63 0 -102 53t-39 132q0 95 69.5 183t148.5 88q65 0 106.5 -53t41.5 -131q0 -96 -71.5 -184t-153.5 -88zM155 6q44 0 80 51.5t57 124.5q17 59 17 130q0 51 -14.5 82t-41.5 31q-36 0 -76 -60t-62 -131q-18 -62 -18 -118q0 -47 15.5 -78.5t42.5 -31.5zM345 504
q-33 0 -88 32.5t-72 32.5q-20 0 -31.5 -10.5t-21.5 -46.5h-13q14 60 34 85.5t57 25.5q32 0 87 -32.5t73 -32.5q20 0 31.5 11t22.5 46h14q-15 -59 -35.5 -85t-57.5 -26z" />
    <glyph glyph-name="odieresis" unicode="&#xf6;" horiz-adv-x="410" 
d="M163 -12q-63 0 -102 53t-39 132q0 95 69.5 183t148.5 88q65 0 106.5 -53t41.5 -131q0 -96 -71.5 -184t-153.5 -88zM155 6q44 0 80 51.5t57 124.5q17 59 17 130q0 51 -14.5 82t-41.5 31q-36 0 -76 -60t-62 -131q-18 -62 -18 -118q0 -47 15.5 -78.5t42.5 -31.5zM374 520
q-25 0 -39.5 17.5t-14.5 37.5q0 21 14.5 39.5t39.5 18.5t39.5 -18.5t14.5 -39.5q0 -20 -14.5 -37.5t-39.5 -17.5zM188 520q-25 0 -39.5 17.5t-14.5 37.5q0 21 14.5 39.5t39.5 18.5t39.5 -18.5t14.5 -39.5q0 -20 -14.5 -37.5t-39.5 -17.5z" />
    <glyph glyph-name="divide" unicode="&#xf7;" 
d="M277 377q0 -20 -14.5 -35t-35.5 -15t-35 15t-14 35q0 19 14 33.5t35 14.5t35.5 -14.5t14.5 -33.5zM428 225h-400l3 22h394zM277 98q0 -20 -14 -35t-35 -15t-35.5 15t-14.5 35q0 19 14.5 33t35.5 14t35 -14t14 -33z" />
    <glyph glyph-name="oslash" unicode="&#xf8;" horiz-adv-x="410" 
d="M344 393q44 -52 44 -133q0 -97 -71.5 -184.5t-153.5 -87.5q-49 0 -85 34l-108 -150h-21q7 10 19.5 27t38 52.5t42.5 58.5l17 24q-44 53 -44 139q0 95 69.5 182.5t148.5 87.5q53 0 93 -38l124 173h21q-133 -185 -134 -185zM99 81l205 284q-15 59 -51 59t-76 -60t-62 -130
q-18 -62 -18 -118q0 -13 2 -35zM307 341l-203 -282q15 -52 51 -52q44 0 80 51t57 123q17 60 17 131q0 20 -2 29z" />
    <glyph glyph-name="ugrave" unicode="&#xf9;" horiz-adv-x="483" 
d="M339 -14q-16 0 -40 18.5t-24 37.5q0 21 22 96t46 138l-5 1q-100 -202 -151 -253q-36 -36 -75 -36q-28 0 -51 18t-23 41q0 40 48 169l65 176l-46 5l-68 -97l-10 7q30 65 64 102t58 37q17 0 48 -13t31 -23q0 -12 -66 -191q-5 -13 -12.5 -33.5t-13 -34.5t-10.5 -29.5t-8 -26
t-3 -15.5q0 -14 14.5 -26t31.5 -12q23 0 73 75.5t114 209.5l33 110l80 -5l-50 -160q-60 -221 -63 -231l43 -6l69 90l9 -7q-30 -63 -65 -97.5t-65 -34.5zM330 497l-139 187h90l61 -187h-12z" />
    <glyph glyph-name="uacute" unicode="&#xfa;" horiz-adv-x="483" 
d="M339 -14q-16 0 -40 18.5t-24 37.5q0 21 22 96t46 138l-5 1q-100 -202 -151 -253q-36 -36 -75 -36q-28 0 -51 18t-23 41q0 40 48 169l65 176l-46 5l-68 -97l-10 7q30 65 64 102t58 37q17 0 48 -13t31 -23q0 -12 -66 -191q-5 -13 -12.5 -33.5t-13 -34.5t-10.5 -29.5t-8 -26
t-3 -15.5q0 -14 14.5 -26t31.5 -12q23 0 73 75.5t114 209.5l33 110l80 -5l-50 -160q-60 -221 -63 -231l43 -6l69 90l9 -7q-30 -63 -65 -97.5t-65 -34.5zM259 497l124 187h97l-209 -187h-12z" />
    <glyph glyph-name="ucircumflex" unicode="&#xfb;" horiz-adv-x="483" 
d="M339 -14q-16 0 -40 18.5t-24 37.5q0 21 22 96t46 138l-5 1q-100 -202 -151 -253q-36 -36 -75 -36q-28 0 -51 18t-23 41q0 40 48 169l65 176l-46 5l-68 -97l-10 7q30 65 64 102t58 37q17 0 48 -13t31 -23q0 -12 -66 -191q-5 -13 -12.5 -33.5t-13 -34.5t-10.5 -29.5t-8 -26
t-3 -15.5q0 -14 14.5 -26t31.5 -12q23 0 73 75.5t114 209.5l33 110l80 -5l-50 -160q-60 -221 -63 -231l43 -6l69 90l9 -7q-30 -63 -65 -97.5t-65 -34.5zM169 489l152 194h32l81 -194h-12l-94 116h-3l-146 -116h-10z" />
    <glyph glyph-name="udieresis" unicode="&#xfc;" horiz-adv-x="483" 
d="M339 -14q-16 0 -40 18.5t-24 37.5q0 21 22 96t46 138l-5 1q-100 -202 -151 -253q-36 -36 -75 -36q-28 0 -51 18t-23 41q0 40 48 169l65 176l-46 5l-68 -97l-10 7q30 65 64 102t58 37q17 0 48 -13t31 -23q0 -12 -66 -191q-5 -13 -12.5 -33.5t-13 -34.5t-10.5 -29.5t-8 -26
t-3 -15.5q0 -14 14.5 -26t31.5 -12q23 0 73 75.5t114 209.5l33 110l80 -5l-50 -160q-60 -221 -63 -231l43 -6l69 90l9 -7q-30 -63 -65 -97.5t-65 -34.5zM226 520q-25 0 -39.5 17.5t-14.5 37.5q0 21 14.5 39.5t39.5 18.5t39.5 -18.5t14.5 -39.5q0 -20 -14.5 -37.5
t-39.5 -17.5zM412 520q-25 0 -39.5 17.5t-14.5 37.5q0 21 14.5 39.5t39.5 18.5t39.5 -18.5t14.5 -39.5q0 -20 -14.5 -37.5t-39.5 -17.5z" />
    <glyph glyph-name="yacute" unicode="&#xfd;" horiz-adv-x="423" 
d="M-46 -204q-39 0 -60.5 16.5t-21.5 46.5q0 21 15 34.5t35 13.5q28 0 43 -23t3 -52l31 -8q32 7 88 51.5t92 84.5q0 168 -22.5 302t-53.5 134l-20 1l-63 -97l-10 8q35 74 60.5 106t62.5 32q44 0 68.5 -35.5t35.5 -119t13 -239.5l4 -1q39 65 79.5 166t41.5 148
q-27 -15 -52.5 -1t-26.5 36q-2 22 11.5 37t36.5 15q24 0 41.5 -18t17.5 -52q0 -87 -70 -221.5t-140 -202.5q-1 -1 -20 -19.5t-26 -25.5t-27.5 -26t-33 -28t-32.5 -23.5t-35 -21.5t-32.5 -12.5t-32.5 -5.5zM245 497l124 187h97l-209 -187h-12z" />
    <glyph glyph-name="thorn" unicode="&#xfe;" horiz-adv-x="418" 
d="M-132 -251l2 15l30 4q21 2 29 5t10 12l225 816q6 21 -5 23l-75 10l3 12l176 27l-31 -115q-68 -223 -105 -338q-2 -5 0 -6q2 0 5 4q56 122 99.5 174.5t85.5 52.5q38 0 61 -39.5t23 -99.5q0 -118 -78 -218.5t-168 -100.5q-45 0 -70 43h-1l-67 -247q-1 -4 2.5 -7t14 -5.5
t28.5 -2.5l41 -4l2 -15h-237zM167 5q24 0 52 30q37 37 69.5 120t32.5 142q0 90 -46 90q-30 0 -65 -52t-85 -161q-10 -24 -20 -60t-10 -46q7 -24 28.5 -43.5t43.5 -19.5z" />
    <glyph glyph-name="ydieresis" unicode="&#xff;" horiz-adv-x="423" 
d="M-46 -204q-39 0 -60.5 16.5t-21.5 46.5q0 21 15 34.5t35 13.5q28 0 43 -23t3 -52l31 -8q32 7 88 51.5t92 84.5q0 168 -22.5 302t-53.5 134l-20 1l-63 -97l-10 8q35 74 60.5 106t62.5 32q44 0 68.5 -35.5t35.5 -119t13 -239.5l4 -1q39 65 79.5 166t41.5 148
q-27 -15 -52.5 -1t-26.5 36q-2 22 11.5 37t36.5 15q24 0 41.5 -18t17.5 -52q0 -87 -70 -221.5t-140 -202.5q-1 -1 -20 -19.5t-26 -25.5t-27.5 -26t-33 -28t-32.5 -23.5t-35 -21.5t-32.5 -12.5t-32.5 -5.5zM385 520q-25 0 -39.5 17.5t-14.5 37.5q0 21 14.5 39.5t39.5 18.5
t39.5 -18.5t14.5 -39.5q0 -20 -14.5 -37.5t-39.5 -17.5zM199 520q-25 0 -39.5 17.5t-14.5 37.5q0 21 14.5 39.5t39.5 18.5t39.5 -18.5t14.5 -39.5q0 -20 -14.5 -37.5t-39.5 -17.5z" />
    <glyph glyph-name="Amacron" unicode="&#x100;" horiz-adv-x="607" 
d="M361 257h-172l-52 -100l-1 -2q-46 -85 -47 -104q-1 -21 27 -28q11 -2 30 -4l34 -4l2 -15h-223l3 15l22 5q40 6 63 33t89 146l188 360l-4 36q20 5 45 18.5t33 25.5h13l61 -522q7 -58 18.5 -76t42.5 -21l36 -5l1 -15h-275l3 15l38 4q31 2 38.5 20.5t2.5 61.5zM200 279h159
l-25 253h-4zM254 705l11 30h248l-8 -30h-251z" />
    <glyph glyph-name="amacron" unicode="&#x101;" horiz-adv-x="453" 
d="M310 -13q-17 0 -49.5 13t-32.5 23q0 33 48 164h-4q-6 -10 -17 -28q-31 -51 -45.5 -74t-36 -50.5t-38 -37t-35.5 -9.5q-37 0 -62 28.5t-25 75.5q0 75 40 151t95 132q65 67 127 67q24 0 34 -20t12 -71h4l34 95l75 -3l-72 -200l-57 -201l46 -7l70 91l9 -7q-30 -63 -63 -97.5
t-57 -34.5zM140 47q43 0 145 195q7 13 15.5 40.5t8.5 37.5q-5 29 -30.5 51.5t-56.5 22.5q-24 0 -44 -20q-30 -31 -57 -111t-27 -140q0 -76 46 -76zM189 527l11 30h248l-8 -30h-251z" />
    <glyph glyph-name="Abreve" unicode="&#x102;" horiz-adv-x="607" 
d="M361 257h-172l-52 -100l-1 -2q-46 -85 -47 -104q-1 -21 27 -28q11 -2 30 -4l34 -4l2 -15h-223l3 15l22 5q40 6 63 33t89 146l188 360l-4 36q20 5 45 18.5t33 25.5h13l61 -522q7 -58 18.5 -76t42.5 -21l36 -5l1 -15h-275l3 15l38 4q31 2 38.5 20.5t2.5 61.5zM200 279h159
l-25 253h-4zM376 670q-31 0 -51.5 15t-30 44t-13.5 57.5t-4 68.5h12q11 -64 33 -96.5t63 -32.5q40 0 72.5 32t67.5 97h13q-41 -101 -66 -134q-39 -51 -96 -51z" />
    <glyph glyph-name="abreve" unicode="&#x103;" horiz-adv-x="453" 
d="M310 -13q-17 0 -49.5 13t-32.5 23q0 33 48 164h-4q-6 -10 -17 -28q-31 -51 -45.5 -74t-36 -50.5t-38 -37t-35.5 -9.5q-37 0 -62 28.5t-25 75.5q0 75 40 151t95 132q65 67 127 67q24 0 34 -20t12 -71h4l34 95l75 -3l-72 -200l-57 -201l46 -7l70 91l9 -7q-30 -63 -63 -97.5
t-57 -34.5zM140 47q43 0 145 195q7 13 15.5 40.5t8.5 37.5q-5 29 -30.5 51.5t-56.5 22.5q-24 0 -44 -20q-30 -31 -57 -111t-27 -140q0 -76 46 -76zM304 492q-31 0 -51.5 15t-30 44t-13.5 57.5t-4 68.5h12q11 -64 33 -96.5t63 -32.5q40 0 72.5 32t67.5 97h13
q-41 -101 -66 -134q-39 -51 -96 -51z" />
    <glyph glyph-name="Aogonek" unicode="&#x104;" horiz-adv-x="607" 
d="M444 -230q-37 1 -56.5 24.5t-17.5 60.5q2 44 43 81.5t99 63.5h-217l3 15l38 4q31 2 38.5 20.5t2.5 61.5l-15 156h-173l-52 -99l-1 -1v-1q-46 -86 -47 -106q-1 -21 33 -28q10 -2 24 -3l34 -4l2 -15h-223l3 15l22 5q40 6 63 33t89 147l188 359l-4 36q21 5 48 18.5t36 25.5
h7l61 -522q7 -58 18.5 -76t42.5 -21l36 -5l1 -15q-59 -10 -96.5 -47t-38.5 -82q-2 -60 48 -61q26 0 56 20l4 -5q-15 -23 -42 -39.5t-57 -15.5zM199 279h160l-25 253h-4z" />
    <glyph glyph-name="aogonek" unicode="&#x105;" horiz-adv-x="453" 
d="M255 -230q-36 1 -55.5 25t-17.5 62q4 74 113 132q-21 4 -44 15t-23 19q0 33 48 164h-4q-6 -10 -17 -28q-31 -51 -45.5 -74t-36 -50.5t-38 -37t-35.5 -9.5q-37 0 -62 28.5t-25 75.5q0 75 40 151t95 132q65 67 127 67q24 0 34 -20t12 -71h4l34 95l75 -3l-72 -200l-57 -201
l46 -7l70 91l9 -7q-46 -96 -95 -126q-40 -23 -63 -55t-25 -65q-4 -62 47 -63q25 0 57 20l3 -5q-15 -23 -42 -39.5t-57 -15.5zM309 320q-5 29 -30.5 51.5t-56.5 22.5q-24 0 -44 -20q-30 -31 -57 -111t-27 -140q0 -76 46 -76q43 0 145 195q7 13 15.5 40.5t8.5 37.5z" />
    <glyph glyph-name="Cacute" unicode="&#x106;" horiz-adv-x="664" 
d="M370 675l124 187h97l-209 -187h-12zM364 -15q-143 0 -228 79t-85 205q0 150 107 260.5t266 110.5q100 0 168 -37l70 16l-33 -187l-16 1l-31 139q-56 48 -150 48q-125 0 -202 -109t-77 -259q0 -113 57 -180t158 -67q105 0 188 97l38 68l18 -1l-52 -162l-39 1
q-69 -23 -157 -23z" />
    <glyph glyph-name="cacute" unicode="&#x107;" horiz-adv-x="354" 
d="M206 497l124 187h97l-209 -187h-12zM142 -13q-55 0 -91 42t-36 102q0 111 78 213t174 102q40 0 71 -22t31 -54q0 -23 -15.5 -39.5t-35.5 -16.5q-19 0 -33 11.5t-14 28.5q0 27 27 47q-26 23 -53 23q-24 0 -55 -31q-36 -36 -63.5 -109t-27.5 -138q0 -105 77 -105
q33 0 59.5 19.5t66.5 70.5l9 -7q-41 -64 -81 -100.5t-88 -36.5z" />
    <glyph glyph-name="Ccircumflex" unicode="&#x108;" horiz-adv-x="664" 
d="M290 667l152 194h32l81 -194h-12l-94 116h-3l-146 -116h-10zM364 -15q-143 0 -228 79t-85 205q0 150 107 260.5t266 110.5q100 0 168 -37l70 16l-33 -187l-16 1l-31 139q-56 48 -150 48q-125 0 -202 -109t-77 -259q0 -113 57 -180t158 -67q105 0 188 97l38 68l18 -1
l-52 -162l-39 1q-69 -23 -157 -23z" />
    <glyph glyph-name="ccircumflex" unicode="&#x109;" horiz-adv-x="354" 
d="M120 489l152 194h32l81 -194h-12l-94 116h-3l-146 -116h-10zM142 -13q-55 0 -91 42t-36 102q0 111 78 213t174 102q40 0 71 -22t31 -54q0 -23 -15.5 -39.5t-35.5 -16.5q-19 0 -33 11.5t-14 28.5q0 27 27 47q-26 23 -53 23q-24 0 -55 -31q-36 -36 -63.5 -109t-27.5 -138
q0 -105 77 -105q33 0 59.5 19.5t66.5 70.5l9 -7q-41 -64 -81 -100.5t-88 -36.5z" />
    <glyph glyph-name="Cdotaccent" unicode="&#x10a;" horiz-adv-x="664" 
d="M364 -15q-143 0 -228 79t-85 205q0 150 107 260.5t266 110.5q100 0 168 -37l70 16l-33 -187l-16 1l-31 139q-56 48 -150 48q-125 0 -202 -109t-77 -259q0 -113 57 -180t158 -67q105 0 188 97l38 68l18 -1l-52 -162l-39 1q-69 -23 -157 -23zM442 709q-25 0 -39.5 17.5
t-14.5 37.5q0 21 14.5 39.5t39.5 18.5q26 0 40.5 -18.5t14.5 -39.5q0 -20 -14.5 -37.5t-40.5 -17.5z" />
    <glyph glyph-name="cdotaccent" unicode="&#x10b;" horiz-adv-x="354" 
d="M142 -13q-55 0 -91 42t-36 102q0 111 78 213t174 102q40 0 71 -22t31 -54q0 -23 -15.5 -39.5t-35.5 -16.5q-19 0 -33 11.5t-14 28.5q0 27 27 47q-26 23 -53 23q-24 0 -55 -31q-36 -36 -63.5 -109t-27.5 -138q0 -105 77 -105q33 0 59.5 19.5t66.5 70.5l9 -7
q-41 -64 -81 -100.5t-88 -36.5zM278 531q-25 0 -39.5 17.5t-14.5 37.5q0 21 14.5 39.5t39.5 18.5q26 0 40.5 -18.5t14.5 -39.5q0 -20 -14.5 -37.5t-40.5 -17.5z" />
    <glyph glyph-name="Ccaron" unicode="&#x10c;" horiz-adv-x="664" 
d="M404 667l-81 194h12l95 -116h3l144 116h11l-153 -194h-31zM364 -15q-143 0 -228 79t-85 205q0 150 107 260.5t266 110.5q100 0 168 -37l70 16l-33 -187l-16 1l-31 139q-56 48 -150 48q-125 0 -202 -109t-77 -259q0 -113 57 -180t158 -67q105 0 188 97l38 68l18 -1
l-52 -162l-39 1q-69 -23 -157 -23z" />
    <glyph glyph-name="ccaron" unicode="&#x10d;" horiz-adv-x="354" 
d="M226 489l-81 194h12l95 -116h3l144 116h11l-153 -194h-31zM142 -13q-55 0 -91 42t-36 102q0 111 78 213t174 102q40 0 71 -22t31 -54q0 -23 -15.5 -39.5t-35.5 -16.5q-19 0 -33 11.5t-14 28.5q0 27 27 47q-26 23 -53 23q-24 0 -55 -31q-36 -36 -63.5 -109t-27.5 -138
q0 -105 77 -105q33 0 59.5 19.5t66.5 70.5l9 -7q-41 -64 -81 -100.5t-88 -36.5z" />
    <glyph glyph-name="Dcaron" unicode="&#x10e;" horiz-adv-x="664" 
d="M-11 0l3 15l43 6q42 6 44 18l105 549q1 6 -7 9.5t-38 7.5l-33 5l-1 15l239 1q151 1 230.5 -71.5t79.5 -188.5q0 -153 -109.5 -259.5t-295.5 -106.5h-260zM239 17q146 1 229 101t83 254q0 104 -54 169.5t-163 65.5h-53l-108 -568zM336 667l-81 194h12l95 -116h3l144 116
h11l-153 -194h-31z" />
    <glyph glyph-name="dcaron" unicode="&#x10f;" horiz-adv-x="642" 
d="M524 432l-9 9q44 17 76 49t32 67q0 15 -7.5 27.5t-17.5 19.5t-20.5 12t-18 7t-7.5 3q3 20 20 35.5t42 15.5q32 0 54 -23.5t22 -58.5q0 -53 -46 -97.5t-120 -65.5zM310 -13q-17 0 -49.5 13t-32.5 23q0 31 47 164h-4q-5 -9 -15 -25q-31 -52 -46 -75.5t-36 -51t-38 -37.5
t-36 -10q-37 0 -62 28.5t-25 75.5q0 75 40 151t95 131q69 71 125 71q17 0 27.5 -16.5t13.5 -31.5t7 -46h4l73 251q4 22 -6 23l-88 10l3 12l191 26l-123 -392l-70 -239l46 -7l70 90l9 -7q-30 -62 -63 -96.5t-57 -34.5zM140 47q44 0 145 195q7 13 15.5 40.5t8.5 37.5
q-5 28 -30.5 50.5t-56.5 22.5q-24 0 -44 -20q-30 -30 -57 -110t-27 -140q0 -76 46 -76z" />
    <glyph glyph-name="Dcroat" unicode="&#x110;" horiz-adv-x="664" 
d="M130 305h-91l4 21h91l50 262q1 6 -7 9.5t-38 7.5l-33 5l-1 15l239 1q151 1 230.5 -71.5t79.5 -188.5q0 -153 -109 -259.5t-296 -106.5h-260l3 15l43 6q42 6 44 18zM228 326h139l2 -21h-145l-51 -266l66 -22q146 1 229 101t83 254q0 104 -54 169.5t-163 65.5h-53z" />
    <glyph glyph-name="dcroat" unicode="&#x111;" horiz-adv-x="453" 
d="M310 -13q-17 0 -49.5 13t-32.5 23q0 31 47 164h-4q-5 -9 -15 -25q-31 -52 -46 -75.5t-36 -51t-38 -37.5t-36 -10q-37 0 -62 28.5t-25 75.5q0 75 40 151t95 131q69 71 125 71q17 0 27.5 -16.5t13.5 -31.5t7 -46h4l47 164h-117l12 30h114l17 57q4 22 -6 23l-88 10l3 12
l191 26l-40 -128h62l-9 -30h-63l-73 -234l-70 -239l46 -7l70 90l9 -7q-30 -62 -63 -96.5t-57 -34.5zM140 47q44 0 145 195q7 13 15.5 40.5t8.5 37.5q-5 28 -30.5 50.5t-56.5 22.5q-24 0 -44 -20q-30 -30 -57 -110t-27 -140q0 -76 46 -76z" />
    <glyph glyph-name="Emacron" unicode="&#x112;" horiz-adv-x="588" 
d="M-11 0l3 15l40 6q46 6 47 18l105 549q1 6 -7 9.5t-38 7.5l-32 5l-2 15h454l1 -192h-19l-6 38q-9 28 -13.5 41t-15 32.5t-22.5 28t-32 18t-48 13t-66 3.5h-57l-53 -277l39 1q74 2 102 14.5t47 51.5l15 30l17 -1l-47 -213l-17 1l3 29q6 42 -19 53.5t-109 14.5l-34 1
l-55 -290l93 -4q57 0 98.5 10.5t69.5 33t44 42.5t37 56l19 37l19 -1l-64 -196h-497zM234 705l11 30h248l-8 -30h-251z" />
    <glyph glyph-name="emacron" unicode="&#x113;" horiz-adv-x="362" 
d="M142 -13q-55 0 -91 42t-36 102q0 112 77.5 213.5t167.5 101.5q48 0 77 -22.5t29 -59.5q0 -47 -58.5 -79t-199.5 -72q-9 -38 -9 -67q0 -105 82 -105q32 0 60 20t67 70l9 -7q-87 -137 -175 -137zM112 227q101 32 140 64t39 81q0 21 -15 35.5t-35 14.5q-24 0 -51 -25
q-51 -51 -80 -169zM117 527l11 30h248l-8 -30h-251z" />
    <glyph glyph-name="Ebreve" unicode="&#x114;" horiz-adv-x="588" 
d="M-11 0l3 15l40 6q46 6 47 18l105 549q1 6 -7 9.5t-38 7.5l-32 5l-2 15h454l1 -192h-19l-6 38q-9 28 -13.5 41t-15 32.5t-22.5 28t-32 18t-48 13t-66 3.5h-57l-53 -277l39 1q74 2 102 14.5t47 51.5l15 30l17 -1l-47 -213l-17 1l3 29q6 42 -19 53.5t-109 14.5l-34 1
l-55 -290l93 -4q57 0 98.5 10.5t69.5 33t44 42.5t37 56l19 37l19 -1l-64 -196h-497zM371 670q-31 0 -51.5 15t-30 44t-13.5 57.5t-4 68.5h12q11 -64 33 -96.5t63 -32.5q40 0 72.5 32t67.5 97h13q-41 -101 -66 -134q-39 -51 -96 -51z" />
    <glyph glyph-name="ebreve" unicode="&#x115;" horiz-adv-x="362" 
d="M142 -13q-55 0 -91 42t-36 102q0 112 77.5 213.5t167.5 101.5q48 0 77 -22.5t29 -59.5q0 -47 -58.5 -79t-199.5 -72q-9 -38 -9 -67q0 -105 82 -105q32 0 60 20t67 70l9 -7q-87 -137 -175 -137zM112 227q101 32 140 64t39 81q0 21 -15 35.5t-35 14.5q-24 0 -51 -25
q-51 -51 -80 -169zM241 492q-31 0 -51.5 15t-30 44t-13.5 57.5t-4 68.5h12q11 -64 33 -96.5t63 -32.5q40 0 72.5 32t67.5 97h13q-41 -101 -66 -134q-39 -51 -96 -51z" />
    <glyph glyph-name="Edotaccent" unicode="&#x116;" horiz-adv-x="588" 
d="M-11 0l3 15l40 6q46 6 47 18l105 549q1 6 -7 9.5t-38 7.5l-32 5l-2 15h454l1 -192h-19l-6 38q-9 28 -13.5 41t-15 32.5t-22.5 28t-32 18t-48 13t-66 3.5h-57l-53 -277l39 1q74 2 102 14.5t47 51.5l15 30l17 -1l-47 -213l-17 1l3 29q6 42 -19 53.5t-109 14.5l-34 1
l-55 -290l93 -4q57 0 98.5 10.5t69.5 33t44 42.5t37 56l19 37l19 -1l-64 -196h-497zM363 709q-25 0 -39.5 17.5t-14.5 37.5q0 21 14.5 39.5t39.5 18.5q26 0 40.5 -18.5t14.5 -39.5q0 -20 -14.5 -37.5t-40.5 -17.5z" />
    <glyph glyph-name="edotaccent" unicode="&#x117;" horiz-adv-x="362" 
d="M142 -13q-55 0 -91 42t-36 102q0 112 77.5 213.5t167.5 101.5q48 0 77 -22.5t29 -59.5q0 -47 -58.5 -79t-199.5 -72q-9 -38 -9 -67q0 -105 82 -105q32 0 60 20t67 70l9 -7q-87 -137 -175 -137zM112 227q101 32 140 64t39 81q0 21 -15 35.5t-35 14.5q-24 0 -51 -25
q-51 -51 -80 -169zM257 531q-25 0 -39.5 17.5t-14.5 37.5q0 21 14.5 39.5t39.5 18.5q26 0 40.5 -18.5t14.5 -39.5q0 -20 -14.5 -37.5t-40.5 -17.5z" />
    <glyph glyph-name="Eogonek" unicode="&#x118;" horiz-adv-x="588" 
d="M361 -230q-37 1 -56.5 25t-16.5 62q4 81 133 143h-432l3 15l40 6q46 6 47 18l105 549q1 4 -2 7t-13 5.5t-30 4.5l-32 5l-2 15h454l1 -192h-19l-6 38q-9 28 -13.5 41t-15 32.5t-22.5 28t-32 18t-48 13t-66 3.5h-57l-53 -277l39 1q74 2 102.5 14.5t47.5 51.5l14 30l17 -1
l-47 -213l-16 1l2 29q6 42 -19 53.5t-109 14.5l-34 1l-55 -290l94 -4q57 0 98 10.5t69 33t44 42.5t37 56l19 37l19 -1l-64 -196h-38q-93 -54 -95 -127q-4 -62 46 -63q25 0 57 20l3 -5q-15 -23 -41.5 -39.5t-56.5 -15.5z" />
    <glyph glyph-name="eogonek" unicode="&#x119;" horiz-adv-x="362" 
d="M115 -230q-37 1 -56.5 24.5t-17.5 61.5q1 38 31.5 76t71.5 56h-4q-54 -1 -89.5 41.5t-35.5 101.5q0 112 77.5 213.5t167.5 101.5q48 0 77 -22.5t29 -59.5q0 -47 -58.5 -79t-199.5 -72q-9 -34 -9 -67q0 -105 82 -105q32 0 60 20t67 70l9 -7q-67 -105 -126 -130
q-37 -15 -60 -52t-25 -70q-3 -61 48 -62q26 0 56 20l3 -5q-15 -23 -41.5 -39.5t-56.5 -15.5zM112 227q101 32 140 64t39 81q0 21 -15 35.5t-35 14.5q-26 0 -51 -25q-51 -51 -80 -169z" />
    <glyph glyph-name="Ecaron" unicode="&#x11a;" horiz-adv-x="588" 
d="M351 667l-81 194h12l95 -116h3l144 116h11l-153 -194h-31zM-11 0l3 15l40 6q46 6 47 18l105 549q1 6 -7 9.5t-38 7.5l-32 5l-2 15h454l1 -192h-19l-6 38q-9 28 -13.5 41t-15 32.5t-22.5 28t-32 18t-48 13t-66 3.5h-57l-53 -277l39 1q74 2 102 14.5t47 51.5l15 30l17 -1
l-47 -213l-17 1l3 29q6 42 -19 53.5t-109 14.5l-34 1l-55 -290l93 -4q57 0 98.5 10.5t69.5 33t44 42.5t37 56l19 37l19 -1l-64 -196h-497z" />
    <glyph glyph-name="ecaron" unicode="&#x11b;" horiz-adv-x="362" 
d="M223 489l-81 194h12l95 -116h3l144 116h11l-153 -194h-31zM142 -13q-55 0 -91 42t-36 102q0 112 77.5 213.5t167.5 101.5q48 0 77 -22.5t29 -59.5q0 -47 -58.5 -79t-199.5 -72q-9 -38 -9 -67q0 -105 82 -105q32 0 60 20t67 70l9 -7q-87 -137 -175 -137zM112 227
q101 32 140 64t39 81q0 21 -15 35.5t-35 14.5q-24 0 -51 -25q-51 -51 -80 -169z" />
    <glyph glyph-name="Gcircumflex" unicode="&#x11c;" horiz-adv-x="690" 
d="M280 667l152 194h32l81 -194h-12l-94 116h-3l-146 -116h-10zM349 -15q-139 0 -218.5 78.5t-79.5 203.5q0 150 105 261.5t268 111.5q98 0 168 -38l70 16l-33 -189h-15l-32 142q-54 48 -149 48q-82 0 -147.5 -53t-99 -136t-33.5 -178q0 -112 56 -180t154 -68q58 0 100 22
l42 209q1 7 -8.5 11t-40.5 7l-42 5l-2 15h271l-4 -15l-39 -6q-43 -6 -45 -18l-37 -189l54 2v-11q-142 -51 -263 -51z" />
    <glyph glyph-name="gcircumflex" unicode="&#x11d;" horiz-adv-x="394" 
d="M110 489l152 194h32l81 -194h-12l-94 116h-3l-146 -116h-10zM106 -244q-86 0 -140 32t-54 87q0 39 44 73t104 50v3q-60 30 -60 72q0 27 29 51.5t70 35.5v3q-53 42 -53 111q0 68 53.5 119.5t120.5 51.5q51 0 93 -29l125 16l-14 -64l-115 30v-5q43 -48 43 -98
q0 -62 -53 -111t-115 -49q-39 0 -68 16q-22 -3 -36 -18t-14 -32t19 -28t78 -32l26 -9q75 -27 115 -57t40 -76q0 -58 -68 -100.5t-170 -42.5zM163 151q35 0 63 30q28 28 43.5 77.5t15.5 91.5q0 33 -16.5 53.5t-40.5 20.5q-23 0 -48 -23q-29 -30 -47 -80t-17 -89q2 -50 17 -67
q14 -14 30 -14zM150 -224q53 0 91 27.5t38 64.5q0 32 -33.5 54t-90.5 42q-71 25 -75 26q-40 -10 -66 -37t-26 -63q0 -48 45.5 -81t116.5 -33z" />
    <glyph glyph-name="Gbreve" unicode="&#x11e;" horiz-adv-x="690" 
d="M349 -15q-139 0 -218.5 78.5t-79.5 203.5q0 150 105 261.5t268 111.5q98 0 168 -38l70 16l-33 -189h-15l-32 142q-54 48 -149 48q-82 0 -147.5 -53t-99 -136t-33.5 -178q0 -112 56 -180t154 -68q58 0 100 22l42 209q1 7 -8.5 11t-40.5 7l-42 5l-2 15h271l-4 -15l-39 -6
q-43 -6 -45 -18l-37 -189l54 2v-11q-142 -51 -263 -51zM427 670q-31 0 -51.5 15t-30 44t-13.5 57.5t-4 68.5h12q11 -64 33 -96.5t63 -32.5q40 0 72.5 32t67.5 97h13q-41 -101 -66 -134q-39 -51 -96 -51z" />
    <glyph glyph-name="gbreve" unicode="&#x11f;" horiz-adv-x="394" 
d="M106 -244q-86 0 -140 32t-54 87q0 39 44 73t104 50v3q-60 30 -60 72q0 27 29 51.5t70 35.5v3q-53 42 -53 111q0 68 53.5 119.5t120.5 51.5q51 0 93 -29l125 16l-14 -64l-115 30v-5q43 -48 43 -98q0 -62 -53 -111t-115 -49q-39 0 -68 16q-22 -3 -36 -18t-14 -32t19 -28
t78 -32l26 -9q75 -27 115 -57t40 -76q0 -58 -68 -100.5t-170 -42.5zM163 151q35 0 63 30q28 28 43.5 77.5t15.5 91.5q0 33 -16.5 53.5t-40.5 20.5q-23 0 -48 -23q-29 -30 -47 -80t-17 -89q2 -50 17 -67q14 -14 30 -14zM150 -224q53 0 91 27.5t38 64.5q0 32 -33.5 54
t-90.5 42q-71 25 -75 26q-40 -10 -66 -37t-26 -63q0 -48 45.5 -81t116.5 -33zM244 492q-31 0 -51.5 15t-30 44t-13.5 57.5t-4 68.5h12q11 -64 33 -96.5t63 -32.5q40 0 72.5 32t67.5 97h13q-41 -101 -66 -134q-39 -51 -96 -51z" />
    <glyph glyph-name="Gdotaccent" unicode="&#x120;" horiz-adv-x="690" 
d="M349 -15q-139 0 -218.5 78.5t-79.5 203.5q0 150 105 261.5t268 111.5q98 0 168 -38l70 16l-33 -189h-15l-32 142q-54 48 -149 48q-82 0 -147.5 -53t-99 -136t-33.5 -178q0 -112 56 -180t154 -68q58 0 100 22l42 209q1 7 -8.5 11t-40.5 7l-42 5l-2 15h271l-4 -15l-39 -6
q-43 -6 -45 -18l-37 -189l54 2v-11q-142 -51 -263 -51zM442 709q-25 0 -39.5 17.5t-14.5 37.5q0 21 14.5 39.5t39.5 18.5q26 0 40.5 -18.5t14.5 -39.5q0 -20 -14.5 -37.5t-40.5 -17.5z" />
    <glyph glyph-name="gdotaccent" unicode="&#x121;" horiz-adv-x="394" 
d="M106 -244q-86 0 -140 32t-54 87q0 39 44 73t104 50v3q-60 30 -60 72q0 27 29 51.5t70 35.5v3q-53 42 -53 111q0 68 53.5 119.5t120.5 51.5q51 0 93 -29l125 16l-14 -64l-115 30v-5q43 -48 43 -98q0 -62 -53 -111t-115 -49q-39 0 -68 16q-22 -3 -36 -18t-14 -32t19 -28
t78 -32l26 -9q75 -27 115 -57t40 -76q0 -58 -68 -100.5t-170 -42.5zM163 151q35 0 63 30q28 28 43.5 77.5t15.5 91.5q0 33 -16.5 53.5t-40.5 20.5q-23 0 -48 -23q-29 -30 -47 -80t-17 -89q2 -50 17 -67q14 -14 30 -14zM150 -224q53 0 91 27.5t38 64.5q0 32 -33.5 54
t-90.5 42q-71 25 -75 26q-40 -10 -66 -37t-26 -63q0 -48 45.5 -81t116.5 -33zM261 531q-25 0 -39.5 17.5t-14.5 37.5q0 21 14.5 39.5t39.5 18.5q26 0 40.5 -18.5t14.5 -39.5q0 -20 -14.5 -37.5t-40.5 -17.5z" />
    <glyph glyph-name="Gcommaaccent" unicode="&#x122;" horiz-adv-x="690" 
d="M349 -15q-139 0 -218.5 78.5t-79.5 203.5q0 150 105 261.5t268 111.5q98 0 168 -38l70 16l-33 -189h-15l-32 142q-54 48 -149 48q-82 0 -147.5 -53t-99 -136t-33.5 -178q0 -112 56 -180t154 -68q58 0 100 22l42 209q1 7 -8.5 11t-40.5 7l-42 5l-2 15h271l-4 -15l-39 -6
q-43 -6 -45 -18l-37 -189l54 2v-11q-142 -51 -263 -51zM383 -139q-10 -48 -51.5 -80t-91.5 -44l-15 18q30 8 54.5 27t30.5 48q3 16 -0.5 29t-11.5 21t-16.5 13.5t-14.5 8.5l-6 3q5 22 22.5 34.5t44.5 8.5q29 -4 45 -30t10 -57z" />
    <glyph glyph-name="gcommaaccent" unicode="&#x123;" horiz-adv-x="394" 
d="M106 -244q-86 0 -140 32t-54 87q0 39 44 73t104 50v3q-60 30 -60 72q0 27 29 51.5t70 35.5v3q-53 42 -53 111q0 68 53.5 119.5t120.5 51.5q51 0 93 -29l125 16l-14 -64l-115 30v-5q43 -48 43 -98q0 -62 -53 -111t-115 -49q-39 0 -68 16q-22 -3 -36 -18t-14 -32t19 -28
t78 -32l26 -9q75 -27 115 -57t40 -76q0 -58 -68 -100.5t-170 -42.5zM163 151q35 0 63 30q28 28 43.5 77.5t15.5 91.5q0 33 -16.5 53.5t-40.5 20.5q-23 0 -48 -23q-29 -30 -47 -80t-17 -89q2 -50 17 -67q14 -14 30 -14zM150 -224q53 0 91 27.5t38 64.5q0 32 -33.5 54
t-90.5 42q-71 25 -75 26q-40 -10 -66 -37t-26 -63q0 -48 45.5 -81t116.5 -33zM193 585q10 48 51.5 80t91.5 44l15 -18q-30 -8 -54.5 -27t-30.5 -48q-3 -16 0.5 -29t11.5 -21t16.5 -13.5t14.5 -8.5l6 -3q-5 -22 -22.5 -34.5t-44.5 -8.5q-29 4 -45 30t-10 57z" />
    <glyph glyph-name="Hcircumflex" unicode="&#x124;" horiz-adv-x="723" 
d="M298 667l152 194h32l81 -194h-12l-94 116h-3l-146 -116h-10zM-10 0l3 15l42 6q42 5 45 18l104 549q1 3 0 5t-6 4t-14 4t-25 4l-32 5l-1 15h264l-4 -15l-44 -6q-42 -5 -44 -18l-49 -258h305l50 260q2 7 -6.5 10t-38.5 7l-35 5l-1 15h264l-4 -15l-41 -6q-42 -5 -44 -18
l-105 -549q-1 -7 6.5 -9.5t38.5 -7.5l32 -5l1 -15h-264l3 15l45 6q42 4 44 18l51 270h-306l-51 -272q-2 -7 6 -10t39 -7l35 -5l1 -15h-264z" />
    <glyph glyph-name="hcircumflex" unicode="&#x125;" horiz-adv-x="460" 
d="M66 682l152 194h32l81 -194h-12l-94 116h-3l-146 -116h-10zM303 -13q-16 0 -45.5 13t-29.5 23t66 191q5 15 15.5 41.5t16 42t10.5 31.5t5 23q0 14 -14.5 26t-31.5 12q-23 0 -73 -75.5t-113 -209.5l-35 -109l-81 5q1 3 11 33.5t22.5 69t18.5 56.5q17 54 47 164.5t51 193.5
l21 84q6 21 -5 23l-75 10l3 12l175 26l-30 -115q-12 -40 -34 -117.5t-34.5 -120t-27.5 -90.5t-26 -73l7 -1q97 197 152 252q36 36 75 36q28 0 51 -17.5t23 -41.5q0 -39 -48 -168q-9 -24 -25 -67.5t-27.5 -73.5t-12.5 -34l45 -7l70 90l9 -7q-29 -61 -65 -96t-61 -35z" />
    <glyph glyph-name="Hbar" unicode="&#x126;" horiz-adv-x="723" 
d="M651 0h-264l3 15l45 6q42 4 44 18l51 270h-306l-51 -272q-2 -7 6 -10t39 -7l35 -5l1 -15h-264l3 15l42 6q42 5 45 18l73 391h-86l11 29h81l25 129q1 4 -1.5 7t-12.5 5.5t-31 4.5l-32 5l-1 15h264l-4 -15l-44 -6q-42 -4 -44 -18l-25 -127h306l26 129q1 7 -7.5 10t-38.5 7
l-35 5l-1 15h264l-4 -15l-41 -6q-42 -4 -44 -18l-26 -127h69l-9 -29h-65l-74 -393q-1 -7 6.5 -9.5t38.5 -7.5l32 -5zM229 328h305l20 102h-306z" />
    <glyph glyph-name="hbar" unicode="&#x127;" horiz-adv-x="460" 
d="M75 515l11 30h62l16 57q6 21 -5 23l-75 10l3 12l175 26q-8 -26 -15.5 -54.5t-13 -49t-6.5 -24.5h112l-8 -30h-112q-11 -38 -36.5 -126.5t-43 -146t-29.5 -85.5l7 -1q97 197 152 252q36 36 75 36q28 0 51 -17.5t23 -41.5q0 -39 -48 -168q-9 -24 -25 -67.5t-27.5 -73.5
t-12.5 -34l45 -7l70 90l9 -7q-29 -61 -65 -96t-61 -35q-16 0 -45.5 13t-29.5 23t66 191q6 16 20 53t21 57t7 28q0 14 -15 26t-32 12q-23 0 -73 -75.5t-113 -209.5l-35 -109l-81 5q1 3 11 33.5t22.5 69t18.5 56.5q13 41 50.5 185t45.5 170h-66z" />
    <glyph glyph-name="Imacron" unicode="&#x12a;" horiz-adv-x="344" 
d="M-6 0l3 15l49 6q42 4 44 18l105 549q1 4 -2 7t-13 5.5t-30 4.5l-38 5l-2 15h273l-3 -15l-48 -6q-42 -6 -44 -18l-105 -549q-1 -7 7 -10t38 -7l38 -5l2 -15h-274zM128 705l11 30h248l-8 -30h-251z" />
    <glyph glyph-name="imacron" unicode="&#x12b;" horiz-adv-x="249" 
d="M103 -13q-17 0 -49.5 12t-31.5 21q0 6 126 371l-54 5l-67 -96l-10 8q31 64 67.5 101t67.5 37q21 0 44 -18t22 -38q0 -11 -23.5 -81t-58 -165t-36.5 -101l51 -8l70 90l9 -7q-29 -61 -65.5 -96t-61.5 -35zM52 527l11 30h248l-8 -30h-251z" />
    <glyph glyph-name="Ibreve" unicode="&#x12c;" horiz-adv-x="344" 
d="M-6 0l3 15l49 6q42 4 44 18l105 549q1 4 -2 7t-13 5.5t-30 4.5l-38 5l-2 15h273l-3 -15l-48 -6q-42 -6 -44 -18l-105 -549q-1 -7 7 -10t38 -7l38 -5l2 -15h-274zM253 670q-31 0 -51.5 15t-30 44t-13.5 57.5t-4 68.5h12q11 -64 33 -96.5t63 -32.5q40 0 72.5 32t67.5 97h13
q-41 -101 -66 -134q-39 -51 -96 -51z" />
    <glyph glyph-name="ibreve" unicode="&#x12d;" horiz-adv-x="249" 
d="M103 -13q-17 0 -49.5 12t-31.5 21q0 6 126 371l-54 5l-67 -96l-10 8q31 64 67.5 101t67.5 37q21 0 44 -18t22 -38q0 -11 -23.5 -81t-58 -165t-36.5 -101l51 -8l70 90l9 -7q-29 -61 -65.5 -96t-61.5 -35zM176 492q-31 0 -51.5 15t-30 44t-13.5 57.5t-4 68.5h12
q11 -64 33 -96.5t63 -32.5q40 0 72.5 32t67.5 97h13q-41 -101 -66 -134q-39 -51 -96 -51z" />
    <glyph glyph-name="Iogonek" unicode="&#x12e;" horiz-adv-x="344" 
d="M145 -230q-37 1 -57 24.5t-18 61.5q2 49 46.5 89t105.5 55h-228l3 15l49 6q42 4 44 18l105 549q1 4 -2 7t-13 5.5t-30 4.5l-38 5l-2 15h273l-3 -15l-48 -6q-42 -4 -44 -18l-105 -549q-1 -7 7 -10t38 -7l38 -5l2 -15q-55 -10 -93.5 -48t-39.5 -80q-3 -61 48 -62
q25 0 57 20l3 -5q-15 -23 -41.5 -39.5t-56.5 -15.5z" />
    <glyph glyph-name="iogonek" unicode="&#x12f;" horiz-adv-x="249" 
d="M46 -230q-37 1 -56.5 25t-16.5 62q1 40 34 74.5t81 58.5q-19 2 -43 12.5t-23 17.5q0 6 126 371l-54 5l-67 -96l-10 8q31 64 67.5 101t67.5 37q21 0 44 -18t22 -38q0 -11 -23.5 -81t-58 -165t-36.5 -101l51 -8l70 90l9 -7q-46 -96 -106 -128q-40 -20 -62.5 -52t-23.5 -65
q-4 -62 47 -63q24 0 56 20l3 -5q-15 -23 -41.5 -39.5t-56.5 -15.5zM283 597q-1 -28 -16 -47.5t-36 -19.5q-23 0 -37 14.5t-14 36.5q0 28 15 47.5t36 19.5q24 0 38 -14.5t14 -36.5z" />
    <glyph glyph-name="Idotaccent" unicode="&#x130;" horiz-adv-x="344" 
d="M-6 0l3 15l49 6q42 4 44 18l105 549q1 4 -2 7t-13 5.5t-30 4.5l-38 5l-2 15h273l-3 -15l-48 -6q-42 -6 -44 -18l-105 -549q-1 -7 7 -10t38 -7l38 -5l2 -15h-274zM272 709q-25 0 -39.5 17.5t-14.5 37.5q0 21 14.5 39.5t39.5 18.5q26 0 40.5 -18.5t14.5 -39.5
q0 -20 -14.5 -37.5t-40.5 -17.5z" />
    <glyph glyph-name="dotlessi" unicode="&#x131;" horiz-adv-x="249" 
d="M103 -13q-17 0 -49.5 12t-31.5 21q0 6 126 371l-54 5l-67 -96l-10 8q31 64 67.5 101t67.5 37q21 0 44 -18t22 -38q0 -11 -23.5 -81t-58 -165t-36.5 -101l51 -8l70 90l9 -7q-29 -61 -65.5 -96t-61.5 -35z" />
    <glyph glyph-name="Jcircumflex" unicode="&#x134;" horiz-adv-x="344" 
d="M128 667l152 194h32l81 -194h-12l-94 116h-3l-146 -116h-10zM-12 -121q-41 0 -65 17t-24 45q0 24 16.5 40t41.5 16q41 0 52.5 -35t-15.5 -64q38 -5 67.5 39.5t46.5 139.5l101 511q1 4 -2 7t-13 5.5t-30 4.5l-41 5l-2 15h276l-4 -15l-47 -6q-42 -5 -44 -18l-104 -525
q-11 -67 -76.5 -124.5t-133.5 -57.5z" />
    <glyph glyph-name="jcircumflex" unicode="&#x135;" horiz-adv-x="233" 
d="M38 489l152 194h32l81 -194h-12l-94 116h-3l-146 -116h-10zM-104 -253q-25 0 -45.5 16t-20.5 40q0 18 13.5 32t33.5 14q27 0 40.5 -22t0.5 -52l39 13q28 37 75 211l111 393l-50 4l-71 -96l-9 8q30 64 67 101t68 37q21 0 44.5 -18.5t22.5 -37.5q0 -19 -40 -153.5
t-64 -194.5q-62 -188 -126 -252q-41 -43 -89 -43z" />
    <glyph glyph-name="Kcommaaccent" unicode="&#x136;" horiz-adv-x="662" 
d="M-11 0l3 15l46 6q39 4 41 18l105 549q1 5 -1 7t-11.5 5t-29.5 5l-35 5l-2 15h272l-4 -15l-52 -6q-41 -4 -44 -18l-58 -307l186 158q132 114 141 142q5 17 -23 24q-8 1 -21 3l-37 4v15h248l-3 -14l-17 -2q-43 -4 -83.5 -31.5t-161.5 -130.5l-64 -56l133 -301
q20 -46 31 -57t39 -15l29 -3l2 -15h-259l3 15l30 4q28 2 32 21t-15 68l-97 224l-99 -83l-41 -212q-1 -7 7.5 -10.5t37.5 -6.5l42 -5l2 -15h-272zM343 -139q-10 -48 -51.5 -80t-91.5 -44l-15 18q30 8 54.5 27t30.5 48q3 16 -0.5 29t-11.5 21t-16.5 13.5t-14.5 8.5l-6 3
q5 22 22.5 34.5t44.5 8.5q29 -4 45 -30t10 -57z" />
    <glyph glyph-name="kcommaaccent" unicode="&#x137;" horiz-adv-x="421" 
d="M280 -13q-30 0 -52 24q-6 97 -22 161.5t-38 64.5q-8 0 -16.5 -3.5t-13 -7t-4.5 -4.5l-60 -226l-81 5l11 33t22.5 69t18.5 57q17 54 47 164.5t51 193.5l21 84q6 21 -5 23l-75 10l3 12l175 26l-30 -115q-71 -241 -93 -311q8 2 25 2q49 19 106.5 49.5t63.5 42.5v4
q-37 14 -37 52q0 19 16 34.5t36 15.5q22 0 38 -16t16 -38q0 -34 -27 -59.5t-110 -58.5l-60 -24q35 -6 61 -71.5t35 -138.5l27 -2l66 97l8 -6q-25 -63 -58 -103t-65 -40zM212 -139q-10 -48 -51.5 -80t-91.5 -44l-15 18q30 8 54.5 27t30.5 48q3 16 -0.5 29t-11.5 21
t-16.5 13.5t-14.5 8.5l-6 3q5 22 22.5 34.5t44.5 8.5q29 -4 45 -30t10 -57z" />
    <glyph glyph-name="Lacute" unicode="&#x139;" horiz-adv-x="557" 
d="M213 675l124 187h97l-209 -187h-12zM-11 0l3 15l46 6q39 4 41 18l104 549q1 4 -1 6.5t-11.5 5.5t-29.5 5l-35 5l-2 15h281l-3 -15l-61 -6q-42 -4 -44 -18l-107 -564l77 -4q55 0 92 8.5t64 30t43.5 44.5t39.5 66l19 42h20l-64 -209h-472z" />
    <glyph glyph-name="lacute" unicode="&#x13a;" horiz-adv-x="231" 
d="M133 690l124 187h97l-209 -187h-12zM82 -13q-16 0 -47 13t-29 20l157 582q6 21 -5 23l-75 10l3 12l175 26l-178 -631l43 -7l69 90l10 -7q-30 -62 -64 -96.5t-59 -34.5z" />
    <glyph glyph-name="Lcommaaccent" unicode="&#x13b;" horiz-adv-x="557" 
d="M-11 0l3 15l46 6q39 4 41 18l104 549q1 4 -1 6.5t-11.5 5.5t-29.5 5l-35 5l-2 15h281l-3 -15l-61 -6q-42 -4 -44 -18l-107 -564l77 -4q55 0 92 8.5t64 30t43.5 44.5t39.5 66l19 42h20l-64 -209h-472zM303 -139q-10 -48 -51.5 -80t-91.5 -44l-15 18q30 8 54.5 27t30.5 48
q3 16 -0.5 29t-11.5 21t-16.5 13.5t-14.5 8.5l-6 3q5 22 22.5 34.5t44.5 8.5q29 -4 45 -30t10 -57z" />
    <glyph glyph-name="lcommaaccent" unicode="&#x13c;" horiz-adv-x="231" 
d="M82 -13q-16 0 -47 13t-29 20l157 582q6 21 -5 23l-75 10l3 12l175 26l-178 -631l43 -7l69 90l10 -7q-30 -62 -64 -96.5t-59 -34.5zM112 -139q-10 -48 -51.5 -80t-91.5 -44l-15 18q30 8 54.5 27t30.5 48q3 16 -0.5 29t-11.5 21t-16.5 13.5t-14.5 8.5l-6 3q5 22 22.5 34.5
t44.5 8.5q29 -4 45 -30t10 -57z" />
    <glyph glyph-name="Lcaron" unicode="&#x13d;" horiz-adv-x="655" 
d="M537 391l-9 9q44 17 76 48.5t32 67.5q0 15 -7.5 27.5t-18 19.5t-20.5 12t-17.5 7t-7.5 3q3 20 20 35.5t42 15.5q32 0 54 -23.5t22 -58.5q0 -53 -46 -97.5t-120 -65.5zM-11 0l3 15l46 6q39 4 41 18l104 549q1 4 -1 6.5t-11.5 5.5t-29.5 5l-35 5l-2 15h281l-3 -15l-61 -6
q-42 -4 -44 -18l-107 -564l77 -4q55 0 92 8.5t64 30t43.5 44.5t39.5 66l19 42h20l-64 -209h-472z" />
    <glyph glyph-name="lcaron" unicode="&#x13e;" horiz-adv-x="414" 
d="M287 433l-9 9q44 17 76 48.5t32 67.5q0 15 -7.5 27.5t-18 19.5t-20.5 12t-17.5 7t-7.5 3q3 20 20 35.5t42 15.5q32 0 54 -23.5t22 -58.5q0 -53 -46 -97.5t-120 -65.5zM82 -13q-16 0 -47 13t-29 20l157 582q6 21 -5 23l-75 10l3 12l175 26l-178 -631l43 -7l69 90l10 -7
q-30 -62 -64 -96.5t-59 -34.5z" />
    <glyph glyph-name="Ldot" unicode="&#x13f;" horiz-adv-x="631" 
d="M-11 0l3 15l46 6q39 4 41 18l104 549q1 4 -1 6.5t-11.5 5.5t-29.5 5l-35 5l-2 15h281l-3 -15l-61 -6q-42 -4 -44 -18l-107 -564l77 -4q55 0 92 8.5t64 30t43.5 44.5t39.5 66l19 42h20l-64 -209h-472zM667 244q-26 0 -44 18.5t-18 43.5q0 24 17.5 42t43.5 18t44 -18
t18 -42q0 -25 -17.5 -43.5t-43.5 -18.5z" />
    <glyph glyph-name="ldotaccent" unicode="&#x140;" horiz-adv-x="391" 
d="M82 -13q-16 0 -47 13t-29 20l157 582q6 21 -5 23l-75 10l3 12l175 26l-178 -631l43 -7l69 90l10 -7q-30 -62 -64 -96.5t-59 -34.5zM330 250q-26 0 -44 18.5t-18 43.5q0 24 17.5 42t43.5 18q27 0 44.5 -18t17.5 -42q0 -25 -17.5 -43.5t-43.5 -18.5z" />
    <glyph glyph-name="Lslash" unicode="&#x141;" horiz-adv-x="557" 
d="M121 258l-24 -7l-48 -14l-24 -7l3 22q6 2 16 5t31.5 9t36.5 10l14 4l58 308q1 4 -2 7t-13 5.5t-30 4.5l-42 5l-2 15h291l-4 -15l-60 -6q-42 -4 -45 -18l-52 -276l109 32l-1 -21l-113 -33l-12 -66l-26 -134l-12 -66l77 -4q55 0 92.5 9t64.5 31t43 44.5t40 64.5l18 42h21
l-68 -209h-478l3 15l52 6q42 4 45 18t7 36.5t13.5 70.5t15.5 80z" />
    <glyph glyph-name="lslash" unicode="&#x142;" horiz-adv-x="233" 
d="M84 244l-83 -24l3 21q5 2 14 4.5t28 8t32 8.5l12 4l91 336q4 22 -6 23l-75 10l3 12l175 26q-58 -206 -107 -383l72 22v-21l-79 -23q-63 -224 -64 -226l43 -7l70 90l9 -7q-30 -62 -63.5 -96.5t-58.5 -34.5q-16 0 -46.5 16t-28.5 24z" />
    <glyph glyph-name="Nacute" unicode="&#x143;" horiz-adv-x="673" 
d="M378 675l124 187h97l-209 -187h-12zM500 -6l-298 550h-3l-87 -439q-7 -49 3.5 -65t51.5 -21l27 -4l1 -15h-214l3 15l28 4q35 4 53 22t24 66l88 433q-5 26 -19 43t-46 22l-22 5l-2 15h180l256 -482h3l75 377q7 50 -3 65.5t-51 20.5l-27 4l-2 15h215l-3 -15l-28 -4
q-35 -3 -53 -21t-25 -67l-104 -524h-21z" />
    <glyph glyph-name="nacute" unicode="&#x144;" horiz-adv-x="483" 
d="M258 497l124 187h97l-209 -187h-12zM335 -13q-17 0 -48 13t-31 23q0 12 66 191q5 15 15.5 41.5t16 42t10.5 31.5t5 23q0 15 -14.5 27t-31.5 12q-23 0 -73 -75.5t-114 -210.5l-33 -109l-81 5l51 160l62 230l-43 5l-68 -96l-9 8q30 65 64.5 102t64.5 37q16 0 40.5 -18.5
t24.5 -37.5q0 -20 -22 -94.5t-47 -138.5l5 -2q98 199 152 253q36 36 75 36q28 0 51 -18t23 -41q0 -40 -48 -169q-61 -165 -66 -175l46 -7l70 91l9 -7q-30 -62 -64 -97t-58 -35z" />
    <glyph glyph-name="Ncommaaccent" unicode="&#x145;" horiz-adv-x="673" 
d="M500 -6l-298 550h-3l-87 -439q-7 -49 3.5 -65t51.5 -21l27 -4l1 -15h-214l3 15l28 4q35 4 53 22t24 66l88 433q-5 26 -19 43t-46 22l-22 5l-2 15h180l256 -482h3l75 377q7 50 -3 65.5t-51 20.5l-27 4l-2 15h215l-3 -15l-28 -4q-35 -3 -53 -21t-25 -67l-104 -524h-21z
M365 -139q-10 -48 -51.5 -80t-91.5 -44l-15 18q30 8 54.5 27t30.5 48q3 16 -0.5 29t-11.5 21t-16.5 13.5t-14.5 8.5l-6 3q5 22 22.5 34.5t44.5 8.5q29 -4 45 -30t10 -57z" />
    <glyph glyph-name="ncommaaccent" unicode="&#x146;" horiz-adv-x="483" 
d="M335 -13q-17 0 -48 13t-31 23q0 12 66 191q5 15 15.5 41.5t16 42t10.5 31.5t5 23q0 15 -14.5 27t-31.5 12q-23 0 -73 -75.5t-114 -210.5l-33 -109l-81 5l51 160l62 230l-43 5l-68 -96l-9 8q30 65 64.5 102t64.5 37q16 0 40.5 -18.5t24.5 -37.5q0 -20 -22 -94.5
t-47 -138.5l5 -2q98 199 152 253q36 36 75 36q28 0 51 -18t23 -41q0 -40 -48 -169q-61 -165 -66 -175l46 -7l70 91l9 -7q-30 -62 -64 -97t-58 -35zM240 -139q-10 -48 -51.5 -80t-91.5 -44l-15 18q30 8 54.5 27t30.5 48q3 16 -0.5 29t-11.5 21t-16.5 13.5t-14.5 8.5l-6 3
q5 22 22.5 34.5t44.5 8.5q29 -4 45 -30t10 -57z" />
    <glyph glyph-name="Ncaron" unicode="&#x147;" horiz-adv-x="673" 
d="M396 667l-81 194h12l95 -116h3l144 116h11l-153 -194h-31zM500 -6l-298 550h-3l-87 -439q-7 -49 3.5 -65t51.5 -21l27 -4l1 -15h-214l3 15l28 4q35 4 53 22t24 66l88 433q-5 26 -19 43t-46 22l-22 5l-2 15h180l256 -482h3l75 377q7 50 -3 65.5t-51 20.5l-27 4l-2 15h215
l-3 -15l-28 -4q-35 -3 -53 -21t-25 -67l-104 -524h-21z" />
    <glyph glyph-name="ncaron" unicode="&#x148;" horiz-adv-x="483" 
d="M265 489l-81 194h12l95 -116h3l144 116h11l-153 -194h-31zM335 -13q-17 0 -48 13t-31 23q0 12 66 191q5 15 15.5 41.5t16 42t10.5 31.5t5 23q0 15 -14.5 27t-31.5 12q-23 0 -73 -75.5t-114 -210.5l-33 -109l-81 5l51 160l62 230l-43 5l-68 -96l-9 8q30 65 64.5 102
t64.5 37q16 0 40.5 -18.5t24.5 -37.5q0 -20 -22 -94.5t-47 -138.5l5 -2q98 199 152 253q36 36 75 36q28 0 51 -18t23 -41q0 -40 -48 -169q-61 -165 -66 -175l46 -7l70 91l9 -7q-30 -62 -64 -97t-58 -35z" />
    <glyph glyph-name="Omacron" unicode="&#x14c;" horiz-adv-x="720" 
d="M307 705l11 30h248l-8 -30h-251zM357 -14q-135 0 -219 86.5t-84 213.5q0 141 97.5 247t248.5 106q134 0 217.5 -87t83.5 -214q0 -144 -98.5 -248t-245.5 -104zM351 7q73 0 132.5 59t90 144.5t30.5 172.5q0 104 -53 170t-147 66q-75 0 -134.5 -60t-89 -145t-29.5 -172
q0 -104 53.5 -169.5t146.5 -65.5z" />
    <glyph glyph-name="omacron" unicode="&#x14d;" horiz-adv-x="410" 
d="M136 527l11 30h248l-8 -30h-251zM163 -12q-63 0 -102 53t-39 132q0 95 69.5 183t148.5 88q65 0 106.5 -53t41.5 -131q0 -96 -71.5 -184t-153.5 -88zM155 6q44 0 80 51.5t57 124.5q17 59 17 130q0 51 -14.5 82t-41.5 31q-36 0 -76 -60t-62 -131q-18 -62 -18 -118
q0 -47 15.5 -78.5t42.5 -31.5z" />
    <glyph glyph-name="Obreve" unicode="&#x14e;" horiz-adv-x="720" 
d="M357 -14q-135 0 -219 86.5t-84 213.5q0 141 97.5 247t248.5 106q134 0 217.5 -87t83.5 -214q0 -144 -98.5 -248t-245.5 -104zM351 7q73 0 132.5 59t90 144.5t30.5 172.5q0 104 -53 170t-147 66q-75 0 -134.5 -60t-89 -145t-29.5 -172q0 -104 53.5 -169.5t146.5 -65.5z
M429 670q-31 0 -51.5 15t-30 44t-13.5 57.5t-4 68.5h12q11 -64 33 -96.5t63 -32.5q40 0 72.5 32t67.5 97h13q-41 -101 -66 -134q-39 -51 -96 -51z" />
    <glyph glyph-name="obreve" unicode="&#x14f;" horiz-adv-x="410" 
d="M163 -12q-63 0 -102 53t-39 132q0 95 69.5 183t148.5 88q65 0 106.5 -53t41.5 -131q0 -96 -71.5 -184t-153.5 -88zM155 6q44 0 80 51.5t57 124.5q17 59 17 130q0 51 -14.5 82t-41.5 31q-36 0 -76 -60t-62 -131q-18 -62 -18 -118q0 -47 15.5 -78.5t42.5 -31.5zM253 492
q-31 0 -51.5 15t-30 44t-13.5 57.5t-4 68.5h12q11 -64 33 -96.5t63 -32.5q40 0 72.5 32t67.5 97h13q-41 -101 -66 -134q-39 -51 -96 -51z" />
    <glyph glyph-name="Ohungarumlaut" unicode="&#x150;" horiz-adv-x="720" 
d="M459 675l124 187h86l-198 -187h-12zM307 675l124 187h86l-198 -187h-12zM357 -14q-135 0 -219 86.5t-84 213.5q0 141 97.5 247t248.5 106q134 0 217.5 -87t83.5 -214q0 -144 -98.5 -248t-245.5 -104zM351 7q73 0 132.5 59t90 144.5t30.5 172.5q0 104 -53 170t-147 66
q-75 0 -134.5 -60t-89 -145t-29.5 -172q0 -104 53.5 -169.5t146.5 -65.5z" />
    <glyph glyph-name="ohungarumlaut" unicode="&#x151;" horiz-adv-x="410" 
d="M300 497l124 187h86l-198 -187h-12zM148 497l124 187h86l-198 -187h-12zM163 -12q-63 0 -102 53t-39 132q0 95 69.5 183t148.5 88q65 0 106.5 -53t41.5 -131q0 -96 -71.5 -184t-153.5 -88zM155 6q44 0 80 51.5t57 124.5q17 59 17 130q0 51 -14.5 82t-41.5 31
q-36 0 -76 -60t-62 -131q-18 -62 -18 -118q0 -47 15.5 -78.5t42.5 -31.5z" />
    <glyph glyph-name="OE" unicode="&#x152;" horiz-adv-x="932" 
d="M353 0q-83 0 -145.5 25.5t-97 69t-47.5 99.5t-3 120q20 137 126 224t273 87h446l-3 -192h-16l-6 38q-12 40 -20.5 59t-29 40t-55.5 28.5t-91 7.5h-51l-52 -276l32 1q74 2 103.5 15.5t48.5 52.5l12 28l16 -1l-47 -213l-16 1l3 29q6 42 -19 53.5t-109 14.5l-28 1l-55 -290
l87 -3q57 0 98 10t69.5 32.5t44 42.5t37.5 56l18 37l20 -1l-65 -196h-478zM375 19h52l108 568l-66 21q-125 -2 -204.5 -76.5t-99.5 -210.5q-13 -80 2 -146t68 -111t140 -45z" />
    <glyph glyph-name="oe" unicode="&#x153;" horiz-adv-x="635" 
d="M163 -12q-63 0 -102 52.5t-39 132.5q0 95 69 183t149 88q45 0 78.5 -26.5t49.5 -71.5q34 46 77 73t88 27q48 0 77 -22.5t29 -59.5q0 -47 -58.5 -79t-199.5 -72q-9 -38 -9 -67q0 -105 82 -105q32 0 60 20t67 70l9 -7q-86 -136 -175 -136q-79 0 -110 77q-64 -77 -142 -77z
M385 227q101 32 140 64t39 81q0 21 -15 35.5t-35 14.5q-24 0 -51 -25q-51 -51 -80 -169zM155 6q44 0 80 51.5t57 124.5q17 59 17 130q0 51 -14.5 82t-41.5 31q-36 0 -76 -60t-62 -131q-18 -62 -18 -118q0 -47 15.5 -78.5t42.5 -31.5z" />
    <glyph glyph-name="Racute" unicode="&#x154;" horiz-adv-x="621" 
d="M296 675l124 187h97l-209 -187h-12zM-20 0l3 15l52 6q42 4 44 18l104 549q1 4 -1.5 7t-13 5.5t-30.5 4.5l-42 5l-1 15h275q99 0 155.5 -41.5t56.5 -106.5q0 -71 -56.5 -117.5t-143.5 -55.5l100 -206q20 -45 39.5 -61t51.5 -19l17 -3l2 -15h-171l-133 305q-4 2 -28.5 8.5
t-31.5 10.5l-56 -287q-1 -6 13.5 -10.5t31.5 -6.5l45 -5l2 -15h-284zM323 324q71 2 115 45.5t44 118.5q0 54 -35 86t-98 32h-68l-49 -261q44 -21 91 -21z" />
    <glyph glyph-name="racute" unicode="&#x155;" horiz-adv-x="386" 
d="M211 497l124 187h97l-209 -187h-12zM104 -4l-82 5l51 160l62 232l-43 4l-68 -97l-9 8q65 139 125 139q17 0 43 -18.5t26 -37.5q0 -40 -63 -209h7q82 169 108 206q14 20 26 31q31 29 61 28q29 -2 46.5 -21.5t15.5 -45.5q-1 -24 -18 -41t-36 -15q-29 2 -38 26t13 50l-22 8
q-22 -14 -55 -67.5t-109 -197.5z" />
    <glyph glyph-name="Rcommaaccent" unicode="&#x156;" horiz-adv-x="621" 
d="M-20 0l3 15l52 6q42 4 44 18l104 549q1 4 -1.5 7t-13 5.5t-30.5 4.5l-42 5l-1 15h275q99 0 155.5 -41.5t56.5 -106.5q0 -71 -56.5 -117.5t-143.5 -55.5l100 -206q20 -45 39.5 -61t51.5 -19l17 -3l2 -15h-171l-133 305q-4 2 -28.5 8.5t-31.5 10.5l-56 -287
q-1 -6 13.5 -10.5t31.5 -6.5l45 -5l2 -15h-284zM323 324q71 2 115 45.5t44 118.5q0 54 -35 86t-98 32h-68l-49 -261q44 -21 91 -21zM344 -139q-10 -48 -51.5 -80t-91.5 -44l-15 18q30 8 54.5 27t30.5 48q3 16 -0.5 29t-11.5 21t-16.5 13.5t-14.5 8.5l-6 3q5 22 22.5 34.5
t44.5 8.5q29 -4 45 -30t10 -57z" />
    <glyph glyph-name="rcommaaccent" unicode="&#x157;" horiz-adv-x="386" 
d="M104 -4l-82 5l51 160l62 232l-43 4l-68 -97l-9 8q65 139 125 139q17 0 43 -18.5t26 -37.5q0 -40 -63 -209h7q82 169 108 206q14 20 26 31q31 29 61 28q29 -2 46.5 -21.5t15.5 -45.5q-1 -24 -18 -41t-36 -15q-29 2 -38 26t13 50l-22 8q-22 -14 -55 -67.5t-109 -197.5z
M114 -139q-10 -48 -51.5 -80t-91.5 -44l-15 18q30 8 54.5 27t30.5 48q3 16 -0.5 29t-11.5 21t-16.5 13.5t-14.5 8.5l-6 3q5 22 22.5 34.5t44.5 8.5q29 -4 45 -30t10 -57z" />
    <glyph glyph-name="Rcaron" unicode="&#x158;" horiz-adv-x="621" 
d="M332 667l-81 194h12l95 -116h3l144 116h11l-153 -194h-31zM-20 0l3 15l52 6q42 4 44 18l104 549q1 4 -1.5 7t-13 5.5t-30.5 4.5l-42 5l-1 15h275q99 0 155.5 -41.5t56.5 -106.5q0 -71 -56.5 -117.5t-143.5 -55.5l100 -206q20 -45 39.5 -61t51.5 -19l17 -3l2 -15h-171
l-133 305q-4 2 -28.5 8.5t-31.5 10.5l-56 -287q-1 -6 13.5 -10.5t31.5 -6.5l45 -5l2 -15h-284zM323 324q71 2 115 45.5t44 118.5q0 54 -35 86t-98 32h-68l-49 -261q44 -21 91 -21z" />
    <glyph glyph-name="rcaron" unicode="&#x159;" horiz-adv-x="386" 
d="M232 489l-81 194h12l95 -116h3l144 116h11l-153 -194h-31zM104 -4l-82 5l51 160l62 232l-43 4l-68 -97l-9 8q65 139 125 139q17 0 43 -18.5t26 -37.5q0 -40 -63 -209h7q82 169 108 206q14 20 26 31q31 29 61 28q29 -2 46.5 -21.5t15.5 -45.5q-1 -24 -18 -41t-36 -15
q-29 2 -38 26t13 50l-22 8q-22 -14 -55 -67.5t-109 -197.5z" />
    <glyph glyph-name="Sacute" unicode="&#x15a;" horiz-adv-x="496" 
d="M258 675l124 187h97l-209 -187h-12zM216 -13q-118 0 -207 48l23 156h16l18 -83q17 -50 56.5 -75.5t94.5 -25.5q63 0 105 40.5t42 99.5q0 44 -31.5 77.5t-92.5 66.5q-70 39 -105.5 80t-35.5 100q0 66 56.5 117t142.5 51q70 0 155 -31l42 10l-31 -170l-15 1l-31 125
q-53 44 -118 44q-50 0 -86 -30.5t-36 -77.5q0 -46 27 -76t95 -66q74 -41 111.5 -83.5t37.5 -103.5q0 -76 -65.5 -135t-167.5 -59z" />
    <glyph glyph-name="sacute" unicode="&#x15b;" horiz-adv-x="321" 
d="M160 497l124 187h97l-209 -187h-12zM116 -13q-53 0 -90.5 22t-37.5 62q0 21 14.5 36t36.5 15q17 0 28 -13t11 -29q0 -11 -7.5 -25.5t-15.5 -20.5q41 -26 83 -28q31 2 50.5 29t20.5 53q0 12 -3.5 23t-13 23t-14 18t-20.5 21t-20 19q-29 28 -42 42t-26 39t-12 49
q1 54 47 88.5t101 34.5q114 0 114 -78q0 -23 -14.5 -36.5t-35.5 -13.5q-17 0 -28.5 13t-11.5 30q0 26 24 43q-39 21 -64 22q-31 -1 -48 -25.5t-18 -50.5q0 -8 1.5 -15t6 -15t7.5 -14t11 -14.5t12 -13t14.5 -15l14.5 -14.5q2 -2 12 -11.5t13 -13t12 -13t12.5 -14.5t10.5 -14
t10 -16t6.5 -16t5 -18t1.5 -18q-1 -53 -51.5 -90t-106.5 -37z" />
    <glyph glyph-name="Scircumflex" unicode="&#x15c;" horiz-adv-x="496" 
d="M185 667l152 194h32l81 -194h-12l-94 116h-3l-146 -116h-10zM216 -13q-118 0 -207 48l23 156h16l18 -83q17 -50 56.5 -75.5t94.5 -25.5q63 0 105 40.5t42 99.5q0 44 -31.5 77.5t-92.5 66.5q-70 39 -105.5 80t-35.5 100q0 66 56.5 117t142.5 51q70 0 155 -31l42 10
l-31 -170l-15 1l-31 125q-53 44 -118 44q-50 0 -86 -30.5t-36 -77.5q0 -46 27 -76t95 -66q74 -41 111.5 -83.5t37.5 -103.5q0 -76 -65.5 -135t-167.5 -59z" />
    <glyph glyph-name="scircumflex" unicode="&#x15d;" horiz-adv-x="321" 
d="M79 489l152 194h32l81 -194h-12l-94 116h-3l-146 -116h-10zM116 -13q-53 0 -90.5 22t-37.5 62q0 21 14.5 36t36.5 15q17 0 28 -13t11 -29q0 -11 -7.5 -25.5t-15.5 -20.5q41 -26 83 -28q31 2 50.5 29t20.5 53q0 12 -3.5 23t-13 23t-14 18t-20.5 21t-20 19q-29 28 -42 42
t-26 39t-12 49q1 54 47 88.5t101 34.5q114 0 114 -78q0 -23 -14.5 -36.5t-35.5 -13.5q-17 0 -28.5 13t-11.5 30q0 26 24 43q-39 21 -64 22q-31 -1 -48 -25.5t-18 -50.5q0 -8 1.5 -15t6 -15t7.5 -14t11 -14.5t12 -13t14.5 -15l14.5 -14.5q2 -2 12 -11.5t13 -13t12 -13
t12.5 -14.5t10.5 -14t10 -16t6.5 -16t5 -18t1.5 -18q-1 -53 -51.5 -90t-106.5 -37z" />
    <glyph glyph-name="Scedilla" unicode="&#x15e;" horiz-adv-x="496" 
d="M216 -13q-118 0 -207 48l23 156h16l18 -83q17 -50 56.5 -75.5t94.5 -25.5q63 0 105 40.5t42 99.5q0 44 -31.5 77.5t-92.5 66.5q-70 39 -105.5 80t-35.5 100q0 66 56.5 117t142.5 51q70 0 155 -31l42 10l-31 -170l-15 1l-31 125q-53 44 -118 44q-50 0 -86 -30.5t-36 -77.5
q0 -46 27 -76t95 -66q74 -41 111.5 -83.5t37.5 -103.5q0 -70 -56.5 -126.5t-147.5 -65.5l-55 -52q56 3 92.5 -18t36.5 -58q0 -57 -64 -86.5t-166 -34.5l-1 11q168 15 168 90q0 48 -83 48q-23 0 -55 -5l2 11l101 92h-5z" />
    <glyph glyph-name="scedilla" unicode="&#x15f;" horiz-adv-x="321" 
d="M-26 -260l-1 11q168 15 168 90q0 48 -83 48q-23 0 -55 -5l2 11l101 92q-49 2 -83.5 24t-34.5 60q0 21 14.5 36t36.5 15q17 0 28 -13t11 -29q0 -11 -7.5 -25.5t-15.5 -20.5q41 -26 83 -28q31 2 50.5 29t20.5 53q0 12 -3.5 23t-13 23t-14 18t-20.5 21t-20 19q-29 28 -42 42
t-26 39t-12 49q1 54 47 88.5t101 34.5q114 0 114 -78q0 -23 -14.5 -36.5t-35.5 -13.5q-17 0 -28.5 13t-11.5 30q0 26 24 43q-39 21 -64 22q-31 -1 -48 -25.5t-18 -50.5q0 -8 1.5 -15t6 -15t7.5 -14t11 -14.5t12 -13t14.5 -15l14.5 -14.5q2 -2 12 -11.5t13 -13t12 -13
t12.5 -14.5t10.5 -14t10 -16t6.5 -16t5 -18t1.5 -18q-1 -50 -46 -85.5t-99 -40.5l-54 -51q56 3 92.5 -18t36.5 -58q0 -57 -64 -86.5t-166 -34.5z" />
    <glyph glyph-name="Scaron" unicode="&#x160;" horiz-adv-x="496" 
d="M216 -13q-118 0 -207 48l23 156h16l18 -83q17 -50 56.5 -75.5t94.5 -25.5q63 0 105 40.5t42 99.5q0 44 -31.5 77.5t-92.5 66.5q-70 39 -105.5 80t-35.5 100q0 66 56.5 117t142.5 51q70 0 155 -31l42 10l-31 -170l-15 1l-31 125q-53 44 -118 44q-50 0 -86 -30.5t-36 -77.5
q0 -46 27 -76t95 -66q74 -41 111.5 -83.5t37.5 -103.5q0 -76 -65.5 -135t-167.5 -59zM310 656l-81 194h12l95 -116h3l144 116h11l-153 -194h-31z" />
    <glyph glyph-name="scaron" unicode="&#x161;" horiz-adv-x="321" 
d="M116 -13q-53 0 -90.5 22t-37.5 62q0 21 14.5 36t36.5 15q17 0 28 -13t11 -29q0 -11 -7.5 -25.5t-15.5 -20.5q41 -26 83 -28q31 2 50.5 29t20.5 53q0 12 -3.5 23t-13 23t-14 18t-20.5 21t-20 19q-29 28 -42 42t-26 39t-12 49q1 54 47 88.5t101 34.5q114 0 114 -78
q0 -23 -14.5 -36.5t-35.5 -13.5q-17 0 -28.5 13t-11.5 30q0 26 24 43q-39 21 -64 22q-31 -1 -48 -25.5t-18 -50.5q0 -8 1.5 -15t6 -15t7.5 -14t11 -14.5t12 -13t14.5 -15l14.5 -14.5q2 -2 12 -11.5t13 -13t12 -13t12.5 -14.5t10.5 -14t10 -16t6.5 -16t5 -18t1.5 -18
q-1 -53 -51.5 -90t-106.5 -37zM222 489l-81 194h12l95 -116h3l144 116h11l-153 -194h-31z" />
    <glyph glyph-name="Tcommaaccent" unicode="&#x162;" horiz-adv-x="646" 
d="M135 0l4 15l58 6q41 4 44 18l107 568h-38q-127 -5 -197 -126l-18 -41h-19l52 185h543l-23 -185h-17l-5 38q-9 67 -42 97t-107 32h-34l-109 -570q-1 -4 2 -7t13 -5.5t30 -4.5l47 -5l2 -15h-293zM327 -139q-10 -48 -51.5 -80t-91.5 -44l-15 18q30 8 54.5 27t30.5 48
q3 16 -0.5 29t-11.5 21t-16.5 13.5t-14.5 8.5l-6 3q5 22 22.5 34.5t44.5 8.5q29 -4 45 -30t10 -57z" />
    <glyph glyph-name="tcommaaccent" unicode="&#x163;" horiz-adv-x="283" 
d="M110 -13q-18 0 -56.5 11.5t-36.5 19.5l101 374l-78 3l11 33l79 11l35 127h80l-35 -133h95l1 -39h-107l-105 -352l61 -7l69 90l9 -7q-29 -61 -63.5 -96t-59.5 -35zM150 -139q-10 -48 -51.5 -80t-91.5 -44l-15 18q30 8 54.5 27t30.5 48q3 16 -0.5 29t-11.5 21t-16.5 13.5
t-14.5 8.5l-6 3q5 22 22.5 34.5t44.5 8.5q29 -4 45 -30t10 -57z" />
    <glyph glyph-name="Tcaron" unicode="&#x164;" horiz-adv-x="646" 
d="M390 667l-81 194h12l95 -116h3l144 116h11l-153 -194h-31zM135 0l4 15l58 6q41 4 44 18l107 568h-38q-127 -5 -197 -126l-18 -41h-19l52 185h543l-23 -185h-17l-5 38q-9 67 -42 97t-107 32h-34l-109 -570q-1 -4 2 -7t13 -5.5t30 -4.5l47 -5l2 -15h-293z" />
    <glyph glyph-name="tcaron" unicode="&#x165;" horiz-adv-x="381" 
d="M269 470l-7 8q36 13 61.5 38.5t25.5 53.5q0 19 -14.5 32.5t-28.5 18.5l-14 5q2 16 15.5 28t33.5 12q26 0 43.5 -18.5t17.5 -46.5q0 -43 -37 -78t-96 -53zM110 -13q-18 0 -56.5 11.5t-36.5 19.5l101 374l-78 3l11 33l79 11l35 127h80l-35 -133h95l1 -39h-107l-105 -352
l61 -7l69 90l9 -7q-29 -61 -63.5 -96t-59.5 -35z" />
    <glyph glyph-name="Umacron" unicode="&#x16a;" horiz-adv-x="687" 
d="M345 -15q-108 0 -175.5 42.5t-67.5 127.5q0 36 10 81l67 352q1 5 -1.5 7.5t-13 5t-30.5 4.5l-42 5l-2 15h282l-4 -15l-52 -6q-41 -4 -44 -18l-65 -340q-8 -42 -8 -74q0 -150 175 -150q75 0 121 46.5t65 147.5l61 304q8 49 -2.5 65t-51.5 21l-27 4l-2 15h215l-4 -15
l-27 -4q-35 -4 -52.5 -21.5t-25.5 -66.5l-62 -309q-21 -112 -78.5 -168t-158.5 -56zM336 705l11 30h248l-8 -30h-251z" />
    <glyph glyph-name="umacron" unicode="&#x16b;" horiz-adv-x="483" 
d="M339 -14q-16 0 -40 18.5t-24 37.5q0 21 22 96t46 138l-5 1q-100 -202 -151 -253q-36 -36 -75 -36q-28 0 -51 18t-23 41q0 40 48 169l65 176l-46 5l-68 -97l-10 7q30 65 64 102t58 37q17 0 48 -13t31 -23q0 -12 -66 -191q-5 -13 -12.5 -33.5t-13 -34.5t-10.5 -29.5t-8 -26
t-3 -15.5q0 -14 14.5 -26t31.5 -12q23 0 73 75.5t114 209.5l33 110l80 -5l-50 -160q-60 -221 -63 -231l43 -6l69 90l9 -7q-30 -63 -65 -97.5t-65 -34.5zM182 527l11 30h248l-8 -30h-251z" />
    <glyph glyph-name="Ubreve" unicode="&#x16c;" horiz-adv-x="687" 
d="M345 -15q-108 0 -175.5 42.5t-67.5 127.5q0 36 10 81l67 352q1 5 -1.5 7.5t-13 5t-30.5 4.5l-42 5l-2 15h282l-4 -15l-52 -6q-41 -4 -44 -18l-65 -340q-8 -42 -8 -74q0 -150 175 -150q75 0 121 46.5t65 147.5l61 304q8 49 -2.5 65t-51.5 21l-27 4l-2 15h215l-4 -15
l-27 -4q-35 -4 -52.5 -21.5t-25.5 -66.5l-62 -309q-21 -112 -78.5 -168t-158.5 -56zM456 670q-31 0 -51.5 15t-30 44t-13.5 57.5t-4 68.5h12q11 -64 33 -96.5t63 -32.5q40 0 72.5 32t67.5 97h13q-41 -101 -66 -134q-39 -51 -96 -51z" />
    <glyph glyph-name="ubreve" unicode="&#x16d;" horiz-adv-x="483" 
d="M339 -14q-16 0 -40 18.5t-24 37.5q0 21 22 96t46 138l-5 1q-100 -202 -151 -253q-36 -36 -75 -36q-28 0 -51 18t-23 41q0 40 48 169l65 176l-46 5l-68 -97l-10 7q30 65 64 102t58 37q17 0 48 -13t31 -23q0 -12 -66 -191q-5 -13 -12.5 -33.5t-13 -34.5t-10.5 -29.5t-8 -26
t-3 -15.5q0 -14 14.5 -26t31.5 -12q23 0 73 75.5t114 209.5l33 110l80 -5l-50 -160q-60 -221 -63 -231l43 -6l69 90l9 -7q-30 -63 -65 -97.5t-65 -34.5zM305 492q-31 0 -51.5 15t-30 44t-13.5 57.5t-4 68.5h12q11 -64 33 -96.5t63 -32.5q40 0 72.5 32t67.5 97h13
q-41 -101 -66 -134q-39 -51 -96 -51z" />
    <glyph glyph-name="Uring" unicode="&#x16e;" horiz-adv-x="687" 
d="M457 682q-40 0 -65 26t-24 64q0 37 24.5 63.5t64.5 26.5t64.5 -26.5t24.5 -63.5q0 -38 -24.5 -64t-64.5 -26zM457 696q33 0 53 22t20 54q0 31 -20 53t-53 22t-53 -22t-20 -53q0 -32 20 -54t53 -22zM345 -15q-108 0 -175.5 42.5t-67.5 127.5q0 36 10 81l67 352
q1 5 -1.5 7.5t-13 5t-30.5 4.5l-42 5l-2 15h282l-4 -15l-52 -6q-41 -4 -44 -18l-65 -340q-8 -42 -8 -74q0 -150 175 -150q75 0 121 46.5t65 147.5l61 304q8 49 -2.5 65t-51.5 21l-27 4l-2 15h215l-4 -15l-27 -4q-35 -4 -52.5 -21.5t-25.5 -66.5l-62 -309
q-21 -112 -78.5 -168t-158.5 -56z" />
    <glyph glyph-name="uring" unicode="&#x16f;" horiz-adv-x="483" 
d="M339 -14q-16 0 -40 18.5t-24 37.5q0 21 22 96t46 138l-5 1q-100 -202 -151 -253q-36 -36 -75 -36q-28 0 -51 18t-23 41q0 40 48 169l65 176l-46 5l-68 -97l-10 7q30 65 64 102t58 37q17 0 48 -13t31 -23q0 -12 -66 -191q-5 -13 -12.5 -33.5t-13 -34.5t-10.5 -29.5t-8 -26
t-3 -15.5q0 -14 14.5 -26t31.5 -12q23 0 73 75.5t114 209.5l33 110l80 -5l-50 -160q-60 -221 -63 -231l43 -6l69 90l9 -7q-30 -63 -65 -97.5t-65 -34.5zM306 504q-40 0 -65 26t-24 64q0 37 24.5 63.5t64.5 26.5t64.5 -26.5t24.5 -63.5q0 -38 -24.5 -64t-64.5 -26zM306 518
q33 0 53 22t20 54q0 31 -20 53t-53 22t-53 -22t-20 -53q0 -32 20 -54t53 -22z" />
    <glyph glyph-name="Uhungarumlaut" unicode="&#x170;" horiz-adv-x="687" 
d="M345 -15q-108 0 -175.5 42.5t-67.5 127.5q0 36 10 81l67 352q1 5 -1.5 7.5t-13 5t-30.5 4.5l-42 5l-2 15h282l-4 -15l-52 -6q-41 -4 -44 -18l-65 -340q-8 -42 -8 -74q0 -150 175 -150q75 0 121 46.5t65 147.5l61 304q8 49 -2.5 65t-51.5 21l-27 4l-2 15h215l-4 -15
l-27 -4q-35 -4 -52.5 -21.5t-25.5 -66.5l-62 -309q-21 -112 -78.5 -168t-158.5 -56zM470 675l124 187h86l-198 -187h-12zM318 675l124 187h86l-198 -187h-12z" />
    <glyph glyph-name="uhungarumlaut" unicode="&#x171;" horiz-adv-x="483" 
d="M339 -14q-16 0 -40 18.5t-24 37.5q0 21 22 96t46 138l-5 1q-100 -202 -151 -253q-36 -36 -75 -36q-28 0 -51 18t-23 41q0 40 48 169l65 176l-46 5l-68 -97l-10 7q30 65 64 102t58 37q17 0 48 -13t31 -23q0 -12 -66 -191q-5 -13 -12.5 -33.5t-13 -34.5t-10.5 -29.5t-8 -26
t-3 -15.5q0 -14 14.5 -26t31.5 -12q23 0 73 75.5t114 209.5l33 110l80 -5l-50 -160q-60 -221 -63 -231l43 -6l69 90l9 -7q-30 -63 -65 -97.5t-65 -34.5zM188 497l124 187h86l-198 -187h-12zM340 497l124 187h86l-198 -187h-12z" />
    <glyph glyph-name="Uogonek" unicode="&#x172;" horiz-adv-x="687" 
d="M349 -230q-37 1 -56.5 24.5t-17.5 61.5q3 76 124 133q-26 -4 -54 -4q-108 0 -175.5 42.5t-67.5 127.5q0 36 10 81l67 352q1 5 -1.5 7.5t-13 5t-30.5 4.5l-42 5l-2 15h282l-4 -15l-51 -6q-42 -4 -45 -18l-65 -340q-8 -42 -8 -74q0 -150 175 -150q75 0 121 46.5t65 147.5
l61 304q8 49 -2.5 65.5t-51.5 21.5l-27 3l-2 15h215l-4 -15l-27 -3q-35 -5 -52.5 -22.5t-25.5 -65.5l-62 -309q-16 -83 -49.5 -133t-91.5 -80q-44 -24 -72.5 -57.5t-29.5 -67.5q-2 -61 49 -62q26 0 56 20l3 -5q-15 -23 -41.5 -39.5t-56.5 -15.5z" />
    <glyph glyph-name="uogonek" unicode="&#x173;" horiz-adv-x="483" 
d="M287 -230q-37 1 -56.5 25t-16.5 62q3 74 116 131q-16 2 -35.5 20t-19.5 34q0 21 22 96t46 138l-5 1q-100 -202 -151 -253q-36 -36 -75 -36q-28 0 -51 18t-23 41q0 40 48 169l65 176l-46 5l-68 -97l-10 7q30 65 64 102t58 37q17 0 48 -13t31 -23q0 -12 -66 -191
q-5 -13 -12.5 -33.5t-13 -34.5t-10.5 -29.5t-8 -26t-3 -15.5q0 -14 14.5 -26t31.5 -12q23 0 73 75.5t114 209.5l33 110l81 -5l-51 -160q-60 -221 -63 -231l43 -6l69 90l9 -7q-47 -99 -104 -128q-41 -21 -63 -52.5t-24 -64.5q-2 -62 47 -63q25 0 57 20l3 -5
q-15 -23 -41.5 -39.5t-56.5 -15.5z" />
    <glyph glyph-name="Wcircumflex" unicode="&#x174;" horiz-adv-x="952" 
d="M429 667l152 194h32l81 -194h-12l-94 116h-3l-146 -116h-10zM248 -11l-84 521q-10 62 -19 77t-42 19l-36 4l-1 15h273l-3 -15l-38 -3q-33 -2 -41 -15t-2 -53l65 -435h3l199 362l-8 44q-11 62 -20 77t-42 19l-35 4l-2 15h272l-4 -15l-38 -3q-36 -2 -43.5 -16t0.5 -54
l65 -432l3 -1l190 379q42 71 39.5 93.5t-58.5 29.5l-27 4l-1 15h222l-4 -15l-22 -5q-36 -5 -60 -29.5t-69 -105.5l-249 -481h-33l-68 439h-3l-246 -439h-33z" />
    <glyph glyph-name="wcircumflex" unicode="&#x175;" horiz-adv-x="597" 
d="M241 489l152 194h32l81 -194h-12l-94 116h-3l-146 -116h-10zM111 -13q-29 0 -52.5 24t-23.5 56q0 30 23 83t65.5 131t48.5 91l-93 17l-59 -82l-8 7q63 135 116 135q21 0 60 -7.5t39 -13.5q0 -10 -30 -69.5t-60 -129t-30 -102.5q0 -35 20 -50t42 -15q29 0 91 92t106 180
l-5 3l-12.5 7.5t-15 11.5t-12.5 17t-5 21q0 22 14.5 36.5t37.5 14.5q21 0 36 -15.5t15 -39.5q0 -27 -29.5 -64.5t-41.5 -68.5q-24 -66 -24 -107q0 -46 23 -67t51 -21q26 0 62 49.5t61.5 117.5t25.5 117q-21 -5 -42 11t-21 37t14.5 37t35.5 16q23 0 39.5 -17t16.5 -45
q0 -53 -40.5 -151t-90.5 -158q-61 -89 -108 -89q-28 0 -48 26t-20 55q0 42 46 163q-69 -120 -121.5 -182t-96.5 -62z" />
    <glyph glyph-name="Ycircumflex" unicode="&#x176;" horiz-adv-x="615" 
d="M123 0l3 15l58 6q42 4 44 18l46 237l-101 257q-15 40 -29 54t-42 18l-32 5l-1 15h272l-4 -15l-28 -2q-39 -3 -45 -21t12 -61l81 -218h3l127 179q53 74 56 89q4 18 -23 25q-10 2 -26 4l-29 5l-2 15h220l-4 -15l-26 -4q-31 -5 -61 -30t-79 -92l-145 -201l-47 -246
q-1 -4 2 -7t13 -5.5t30 -4.5l48 -5l1 -15h-292zM267 667l152 194h32l81 -194h-12l-94 116h-3l-146 -116h-10z" />
    <glyph glyph-name="ycircumflex" unicode="&#x177;" horiz-adv-x="423" 
d="M-46 -204q-39 0 -60.5 16.5t-21.5 46.5q0 21 15 34.5t35 13.5q28 0 43 -23t3 -52l31 -8q32 7 88 51.5t92 84.5q0 168 -22.5 302t-53.5 134l-20 1l-63 -97l-10 8q35 74 60.5 106t62.5 32q44 0 68.5 -35.5t35.5 -119t13 -239.5l4 -1q39 65 79.5 166t41.5 148
q-27 -15 -52.5 -1t-26.5 36q-2 22 11.5 37t36.5 15q24 0 41.5 -18t17.5 -52q0 -87 -70 -221.5t-140 -202.5q-1 -1 -20 -19.5t-26 -25.5t-27.5 -26t-33 -28t-32.5 -23.5t-35 -21.5t-32.5 -12.5t-32.5 -5.5zM115 489l152 194h32l81 -194h-12l-94 116h-3l-146 -116h-10z" />
    <glyph glyph-name="Ydieresis" unicode="&#x178;" horiz-adv-x="615" 
d="M123 0l3 15l58 6q42 4 44 18l46 237l-101 257q-15 40 -29 54t-42 18l-32 5l-1 15h272l-4 -15l-28 -2q-39 -3 -45 -21t12 -61l81 -218h3l127 179q53 74 56 89q4 18 -23 25q-10 2 -26 4l-29 5l-2 15h220l-4 -15l-26 -4q-31 -5 -61 -30t-79 -92l-145 -201l-47 -246
q-1 -4 2 -7t13 -5.5t30 -4.5l48 -5l1 -15h-292zM482 687q-25 0 -39.5 17.5t-14.5 37.5q0 21 14.5 39.5t39.5 18.5t39.5 -18.5t14.5 -39.5q0 -20 -14.5 -37.5t-39.5 -17.5zM296 687q-25 0 -39.5 17.5t-14.5 37.5q0 21 14.5 39.5t39.5 18.5t39.5 -18.5t14.5 -39.5
q0 -20 -14.5 -37.5t-39.5 -17.5z" />
    <glyph glyph-name="Zacute" unicode="&#x179;" horiz-adv-x="571" 
d="M305 675l124 187h97l-209 -187h-12zM-10 0l3 14l500 590l-1 3h-110q-64 0 -109.5 -10t-73 -30.5t-42.5 -41t-29 -52.5l-13 -32h-16l33 184h477l-3 -15l-499 -588v-3h123q66 0 111 8.5t74 29.5t45.5 43.5t35.5 62.5l15 35h20l-51 -198h-490z" />
    <glyph glyph-name="zacute" unicode="&#x17a;" horiz-adv-x="373" 
d="M200 497l124 187h97l-209 -187h-12zM236 -21q-36 0 -69.5 20.5t-62.5 48t-42 33.5h-8l-25 -93q-19 2 -34.5 15t-15.5 28q0 38 52 59l260 245q-29 -6 -60 9.5t-62 42t-37 30.5q-2 1 -10 -6.5t-15 -15.5t-5 -8q16 -4 26.5 -16.5t10.5 -26.5q0 -19 -12.5 -32t-32.5 -13
t-31.5 13t-11.5 32q0 36 42.5 69.5t87.5 34.5q30 -2 50.5 -15t28.5 -28t17.5 -30.5t18.5 -20.5l7 1l25 92q19 -2 34 -15.5t15 -29.5q-1 -36 -53 -57l-260 -245q40 7 83 -9.5t87 -47.5l44 -31q2 -1 7.5 6t9.5 14.5t3 7.5q-17 5 -28 19.5t-11 29.5q0 19 13 31.5t34 12.5
q19 0 30.5 -13.5t11.5 -34.5q0 -36 -37 -70t-75 -36z" />
    <glyph glyph-name="Zdotaccent" unicode="&#x17b;" horiz-adv-x="571" 
d="M-10 0l3 14l500 590l-1 3h-110q-64 0 -109.5 -10t-73 -30.5t-42.5 -41t-29 -52.5l-13 -32h-16l33 184h477l-3 -15l-499 -588v-3h123q66 0 111 8.5t74 29.5t45.5 43.5t35.5 62.5l15 35h20l-51 -198h-490zM364 709q-25 0 -39.5 17.5t-14.5 37.5q0 21 14.5 39.5t39.5 18.5
q26 0 40.5 -18.5t14.5 -39.5q0 -20 -14.5 -37.5t-40.5 -17.5z" />
    <glyph glyph-name="zdotaccent" unicode="&#x17c;" horiz-adv-x="373" 
d="M236 -21q-36 0 -69.5 20.5t-62.5 48t-42 33.5h-8l-25 -93q-19 2 -34.5 15t-15.5 28q0 38 52 59l260 245q-29 -6 -60 9.5t-62 42t-37 30.5q-2 1 -10 -6.5t-15 -15.5t-5 -8q16 -4 26.5 -16.5t10.5 -26.5q0 -19 -12.5 -32t-32.5 -13t-31.5 13t-11.5 32q0 36 42.5 69.5
t87.5 34.5q30 -2 50.5 -15t28.5 -28t17.5 -30.5t18.5 -20.5l7 1l25 92q19 -2 34 -15.5t15 -29.5q-1 -36 -53 -57l-260 -245q40 7 83 -9.5t87 -47.5l44 -31q2 -1 7.5 6t9.5 14.5t3 7.5q-17 5 -28 19.5t-11 29.5q0 19 13 31.5t34 12.5q19 0 30.5 -13.5t11.5 -34.5
q0 -36 -37 -70t-75 -36zM250 531q-25 0 -39.5 17.5t-14.5 37.5q0 21 14.5 39.5t39.5 18.5q26 0 40.5 -18.5t14.5 -39.5q0 -20 -14.5 -37.5t-40.5 -17.5z" />
    <glyph glyph-name="Zcaron" unicode="&#x17d;" horiz-adv-x="571" 
d="M-10 0l3 14l500 590l-1 3h-110q-64 0 -109.5 -10t-73 -30.5t-42.5 -41t-29 -52.5l-13 -32h-16l33 184h477l-3 -15l-499 -588v-3h123q66 0 111 8.5t74 29.5t45.5 43.5t35.5 62.5l15 35h20l-51 -198h-490zM338 656l-81 194h12l95 -116h3l144 116h11l-153 -194h-31z" />
    <glyph glyph-name="zcaron" unicode="&#x17e;" horiz-adv-x="373" 
d="M236 -21q-36 0 -69.5 20.5t-62.5 48t-42 33.5h-8l-25 -93q-19 2 -34.5 15t-15.5 28q0 38 52 59l260 245q-29 -6 -60 9.5t-62 42t-37 30.5q-2 1 -10 -6.5t-15 -15.5t-5 -8q16 -4 26.5 -16.5t10.5 -26.5q0 -19 -12.5 -32t-32.5 -13t-31.5 13t-11.5 32q0 36 42.5 69.5
t87.5 34.5q30 -2 50.5 -15t28.5 -28t17.5 -30.5t18.5 -20.5l7 1l25 92q19 -2 34 -15.5t15 -29.5q-1 -36 -53 -57l-260 -245q40 7 83 -9.5t87 -47.5l44 -31q2 -1 7.5 6t9.5 14.5t3 7.5q-17 5 -28 19.5t-11 29.5q0 19 13 31.5t34 12.5q19 0 30.5 -13.5t11.5 -34.5
q0 -36 -37 -70t-75 -36zM244 489l-81 194h12l95 -116h3l144 116h11l-153 -194h-31z" />
    <glyph glyph-name="florin" unicode="&#x192;" horiz-adv-x="503" 
d="M76 -54q-33 0 -55.5 16t-22.5 42q0 20 13.5 35t34.5 15q27 0 42.5 -25t3.5 -54q28 1 36 1q24 6 43.5 64.5t48.5 204.5l20 114l-104 3l12 32l103 8q30 125 89 185q50 50 118 50q38 0 60.5 -17t22.5 -44q0 -21 -15.5 -37t-35.5 -16q-31 0 -41.5 27.5t8.5 55.5q-29 4 -40 4
q-29 -5 -48 -57t-40 -153l121 -1l1 -39h-128l-21 -87q-24 -109 -51 -177t-68 -109q-38 -41 -107 -41z" />
    <glyph glyph-name="Aringacute" unicode="&#x1fa;" horiz-adv-x="607" 
d="M330 790l124 187h97l-209 -187h-12zM361 257h-172l-52 -100l-1 -2q-46 -85 -47 -104q-1 -21 27 -28q11 -2 30 -4l34 -4l2 -15h-223l3 15l22 5q40 6 63 33t89 146l220 419q-49 22 -49 81q0 37 24.5 63.5t64.5 26.5t64.5 -26.5t24.5 -63.5q0 -33 -19 -57t-52 -30l58 -495
q7 -58 18.5 -76t42.5 -21l36 -5l1 -15h-275l3 15l38 4q31 2 38.5 20.5t2.5 61.5zM396 624q33 0 53 21.5t20 53.5q0 31 -20 53.5t-53 22.5t-53 -22.5t-20 -53.5q0 -32 20 -53.5t53 -21.5zM200 279h159l-25 252h-4z" />
    <glyph glyph-name="aringacute" unicode="&#x1fb;" horiz-adv-x="453" 
d="M228 699l124 187h97l-209 -187h-12zM291 504q-40 0 -65 26t-24 64q0 37 24.5 63.5t64.5 26.5t64.5 -26.5t24.5 -63.5q0 -38 -24.5 -64t-64.5 -26zM310 -13q-17 0 -49.5 13t-32.5 23q0 33 48 164h-4q-6 -10 -17 -28q-31 -51 -45.5 -74t-36 -50.5t-38 -37t-35.5 -9.5
q-37 0 -62 28.5t-25 75.5q0 75 40 151t95 132q65 67 127 67q24 0 34 -20t12 -71h4l34 95l75 -3l-72 -200l-57 -201l46 -7l70 91l9 -7q-30 -63 -63 -97.5t-57 -34.5zM291 518q33 0 53 22t20 54q0 31 -20 53t-53 22t-53 -22t-20 -53q0 -32 20 -54t53 -22zM140 47q43 0 145 195
q7 13 15.5 40.5t8.5 37.5q-5 29 -30.5 51.5t-56.5 22.5q-24 0 -44 -20q-30 -31 -57 -111t-27 -140q0 -76 46 -76z" />
    <glyph glyph-name="AEacute" unicode="&#x1fc;" horiz-adv-x="834" 
d="M542 675l124 187h97l-209 -187h-12zM375 257h-173l-67 -90q-72 -95 -79 -114q-8 -22 19 -29q10 -3 29 -5l26 -4l3 -15h-216l3 15l24 5q43 5 68 27t94 110l301 408q17 18 10.5 28t-45.5 13l-42 4l-2 15h479v-192h-18l-7 38q-10 33 -16 48.5t-19.5 36t-32 29t-50.5 15
t-78 6.5h-53l-52 -276l34 1q74 2 102 14.5t47 51.5l15 30l16 -1l-46 -213l-17 1l3 29q6 42 -19 53.5t-109 14.5l-30 1l-54 -290l89 -3q46 0 82 8t59.5 19t44.5 31.5t33 37t29 45.5l18 37l20 -1l-65 -196h-491l3 15l45 6q42 4 44 18zM217 279h162l54 288h-3
q-212 -288 -213 -288z" />
    <glyph glyph-name="aeacute" unicode="&#x1fd;" horiz-adv-x="604" 
d="M337 497l124 187h97l-209 -187h-12zM97 -13q-37 0 -60.5 31t-23.5 80q0 75 38.5 148t93.5 129q68 70 125 70q56 0 65 -105q77 106 167 106q48 0 77 -22.5t29 -59.5q0 -47 -58.5 -79t-198.5 -72q-9 -32 -9 -67q0 -105 82 -105q32 0 60 20t66 70l9 -7q-87 -137 -174 -137
q-55 0 -91 42t-36 102q0 22 2 33q-59 -94 -94.5 -135.5t-68.5 -41.5zM354 227q101 32 140 64t39 81q0 21 -15 35.5t-35 14.5q-23 0 -50 -25q-50 -48 -81 -169zM135 49q47 0 146 193q23 44 26 70q-5 33 -31 57.5t-57 24.5q-25 0 -45 -20q-30 -31 -55 -107.5t-25 -137.5
q0 -37 11.5 -58.5t29.5 -21.5z" />
    <glyph glyph-name="Oslashacute" unicode="&#x1fe;" horiz-adv-x="720" 
d="M585 580q55 -41 85.5 -105t30.5 -137q0 -144 -98.5 -248t-245.5 -104q-95 0 -168 46l-76 -105h-24l84 116q-56 41 -87.5 104.5t-31.5 138.5q0 141 97.5 247t248.5 106q95 0 170 -48l71 98h23q-47 -66 -79 -109zM199 79l347 479q-53 61 -142 61q-75 0 -134.5 -60t-89 -145
t-29.5 -172q0 -98 48 -163zM558 543l-86 -119l-174 -240l-86 -120q54 -57 139 -57q73 0 132.5 59t90 144.5t30.5 172.5q0 97 -46 160zM387 671l124 187h97l-209 -187h-12z" />
    <glyph glyph-name="oslashacute" unicode="&#x1ff;" horiz-adv-x="410" 
d="M344 393q44 -52 44 -133q0 -97 -71.5 -184.5t-153.5 -87.5q-49 0 -85 34l-108 -150h-21q7 10 19.5 27t38 52.5t42.5 58.5l17 24q-44 53 -44 139q0 95 69.5 182.5t148.5 87.5q53 0 93 -38l124 173h21q-133 -185 -134 -185zM99 81l205 284q-15 59 -51 59t-76 -60t-62 -130
q-18 -62 -18 -118q0 -13 2 -35zM307 341l-203 -282q15 -52 51 -52q44 0 80 51t57 123q17 60 17 131q0 20 -2 29zM215 490l124 187h97l-209 -187h-12z" />
    <glyph glyph-name="Scommaaccent" unicode="&#x218;" horiz-adv-x="496" 
d="M216 -13q-118 0 -207 48l23 156h16l18 -83q17 -50 56.5 -75.5t94.5 -25.5q63 0 105 40.5t42 99.5q0 44 -31.5 77.5t-92.5 66.5q-70 39 -105.5 80t-35.5 100q0 66 56.5 117t142.5 51q70 0 155 -31l42 10l-31 -170l-15 1l-31 125q-53 44 -118 44q-50 0 -86 -30.5t-36 -77.5
q0 -46 27 -76t95 -66q74 -41 111.5 -83.5t37.5 -103.5q0 -76 -65.5 -135t-167.5 -59zM257 -139q-10 -48 -51.5 -80t-91.5 -44l-15 18q30 8 54.5 27t30.5 48q3 16 -0.5 29t-11.5 21t-16.5 13.5t-14.5 8.5l-6 3q5 22 22.5 34.5t44.5 8.5q29 -4 45 -30t10 -57z" />
    <glyph glyph-name="scommaaccent" unicode="&#x219;" horiz-adv-x="321" 
d="M116 -13q-53 0 -90.5 22t-37.5 62q0 21 14.5 36t36.5 15q17 0 28 -13t11 -29q0 -11 -7.5 -25.5t-15.5 -20.5q41 -26 83 -28q31 2 50.5 29t20.5 53q0 12 -3.5 23t-13 23t-14 18t-20.5 21t-20 19q-29 28 -42 42t-26 39t-12 49q1 54 47 88.5t101 34.5q114 0 114 -78
q0 -23 -14.5 -36.5t-35.5 -13.5q-17 0 -28.5 13t-11.5 30q0 26 24 43q-39 21 -64 22q-31 -1 -48 -25.5t-18 -50.5q0 -8 1.5 -15t6 -15t7.5 -14t11 -14.5t12 -13t14.5 -15l14.5 -14.5q2 -2 12 -11.5t13 -13t12 -13t12.5 -14.5t10.5 -14t10 -16t6.5 -16t5 -18t1.5 -18
q-1 -53 -51.5 -90t-106.5 -37zM170 -139q-10 -48 -51.5 -80t-91.5 -44l-15 18q30 8 54.5 27t30.5 48q3 16 -0.5 29t-11.5 21t-16.5 13.5t-14.5 8.5l-6 3q5 22 22.5 34.5t44.5 8.5q29 -4 45 -30t10 -57z" />
    <glyph glyph-name="uni021A" unicode="&#x21a;" horiz-adv-x="646" 
d="M135 0l4 15l58 6q41 4 44 18l107 568h-38q-127 -5 -197 -126l-18 -41h-19l52 185h543l-23 -185h-17l-5 38q-9 67 -42 97t-107 32h-34l-109 -570q-1 -4 2 -7t13 -5.5t30 -4.5l47 -5l2 -15h-293zM327 -139q-10 -48 -51.5 -80t-91.5 -44l-15 18q30 8 54.5 27t30.5 48
q3 16 -0.5 29t-11.5 21t-16.5 13.5t-14.5 8.5l-6 3q5 22 22.5 34.5t44.5 8.5q29 -4 45 -30t10 -57z" />
    <glyph glyph-name="uni021B" unicode="&#x21b;" horiz-adv-x="283" 
d="M110 -13q-18 0 -56.5 11.5t-36.5 19.5l101 374l-78 3l11 33l79 11l35 127h80l-35 -133h95l1 -39h-107l-105 -352l61 -7l69 90l9 -7q-29 -61 -63.5 -96t-59.5 -35zM150 -139q-10 -48 -51.5 -80t-91.5 -44l-15 18q30 8 54.5 27t30.5 48q3 16 -0.5 29t-11.5 21t-16.5 13.5
t-14.5 8.5l-6 3q5 22 22.5 34.5t44.5 8.5q29 -4 45 -30t10 -57z" />
    <glyph glyph-name="dotlessj" unicode="&#x237;" horiz-adv-x="233" 
d="M-104 -253q-25 0 -45.5 16t-20.5 40q0 18 13.5 32t33.5 14q27 0 40.5 -22t0.5 -52l39 13q28 37 75 211l111 393l-50 4l-71 -96l-9 8q30 64 67 101t68 37q21 0 44.5 -18.5t22.5 -37.5q0 -19 -40 -153.5t-64 -194.5q-62 -188 -126 -252q-41 -43 -89 -43z" />
    <glyph glyph-name="circumflex" unicode="&#x2c6;" horiz-adv-x="379" 
d="M106 489l152 194h32l81 -194h-12l-94 116h-3l-146 -116h-10z" />
    <glyph glyph-name="caron" unicode="&#x2c7;" horiz-adv-x="379" 
d="M222 489l-81 194h12l95 -116h3l144 116h11l-153 -194h-31z" />
    <glyph glyph-name="breve" unicode="&#x2d8;" horiz-adv-x="379" 
d="M243 492q-31 0 -51.5 15t-30 44t-13.5 57.5t-4 68.5h12q11 -64 33 -96.5t63 -32.5q40 0 72.5 32t67.5 97h13q-41 -101 -66 -134q-39 -51 -96 -51z" />
    <glyph glyph-name="dotaccent" unicode="&#x2d9;" horiz-adv-x="379" 
d="M258 531q-25 0 -39.5 17.5t-14.5 37.5q0 21 14.5 39.5t39.5 18.5q26 0 40.5 -18.5t14.5 -39.5q0 -20 -14.5 -37.5t-40.5 -17.5z" />
    <glyph glyph-name="ring" unicode="&#x2da;" horiz-adv-x="379" 
d="M261 504q-40 0 -65 26t-24 64q0 37 24.5 63.5t64.5 26.5t64.5 -26.5t24.5 -63.5q0 -38 -24.5 -64t-64.5 -26zM261 518q33 0 53 22t20 54q0 31 -20 53t-53 22t-53 -22t-20 -53q0 -32 20 -54t53 -22z" />
    <glyph glyph-name="ogonek" unicode="&#x2db;" horiz-adv-x="379" 
d="M117 -237q-37 0 -59.5 23.5t-22.5 59.5q0 55 52.5 99t123.5 71h25q-68 -30 -103.5 -70.5t-35.5 -83.5q0 -64 57 -64q25 0 61 22l2 -8q-47 -49 -100 -49z" />
    <glyph glyph-name="tilde" unicode="&#x2dc;" horiz-adv-x="379" 
d="M319 504q-33 0 -88 32.5t-72 32.5q-20 0 -31.5 -10.5t-21.5 -46.5h-13q14 60 34 85.5t57 25.5q32 0 87 -32.5t73 -32.5q20 0 31.5 11t22.5 46h14q-15 -59 -35.5 -85t-57.5 -26z" />
    <glyph glyph-name="hungarumlaut" unicode="&#x2dd;" horiz-adv-x="379" 
d="M272 497l124 187h86l-198 -187h-12zM120 497l124 187h86l-198 -187h-12z" />
    <glyph glyph-name="Wgrave" unicode="&#x1e80;" horiz-adv-x="952" 
d="M248 -11l-84 521q-10 62 -19 77t-42 19l-36 4l-1 15h273l-3 -15l-38 -3q-33 -2 -41 -15t-2 -53l65 -435h3l199 362l-8 44q-11 62 -20 77t-42 19l-35 4l-2 15h272l-4 -15l-38 -3q-36 -2 -43.5 -16t0.5 -54l65 -432l3 -1l190 379q42 71 39.5 93.5t-58.5 29.5l-27 4l-1 15
h222l-4 -15l-22 -5q-36 -5 -60 -29.5t-69 -105.5l-249 -481h-33l-68 439h-3l-246 -439h-33zM603 675l-139 187h90l61 -187h-12z" />
    <glyph glyph-name="wgrave" unicode="&#x1e81;" horiz-adv-x="597" 
d="M111 -13q-29 0 -52.5 24t-23.5 56q0 30 23 83t65.5 131t48.5 91l-93 17l-59 -82l-8 7q63 135 116 135q21 0 60 -7.5t39 -13.5q0 -10 -30 -69.5t-60 -129t-30 -102.5q0 -35 20 -50t42 -15q29 0 91 92t106 180l-5 3l-12.5 7.5t-15 11.5t-12.5 17t-5 21q0 22 14.5 36.5
t37.5 14.5q21 0 36 -15.5t15 -39.5q0 -27 -29.5 -64.5t-41.5 -68.5q-24 -66 -24 -107q0 -46 23 -67t51 -21q26 0 62 49.5t61.5 117.5t25.5 117q-21 -5 -42 11t-21 37t14.5 37t35.5 16q23 0 39.5 -17t16.5 -45q0 -53 -40.5 -151t-90.5 -158q-61 -89 -108 -89q-28 0 -48 26
t-20 55q0 42 46 163q-69 -120 -121.5 -182t-96.5 -62zM379 497l-139 187h90l61 -187h-12z" />
    <glyph glyph-name="Wacute" unicode="&#x1e82;" horiz-adv-x="952" 
d="M515 675l124 187h97l-209 -187h-12zM248 -11l-84 521q-10 62 -19 77t-42 19l-36 4l-1 15h273l-3 -15l-38 -3q-33 -2 -41 -15t-2 -53l65 -435h3l199 362l-8 44q-11 62 -20 77t-42 19l-35 4l-2 15h272l-4 -15l-38 -3q-36 -2 -43.5 -16t0.5 -54l65 -432l3 -1l190 379
q42 71 39.5 93.5t-58.5 29.5l-27 4l-1 15h222l-4 -15l-22 -5q-36 -5 -60 -29.5t-69 -105.5l-249 -481h-33l-68 439h-3l-246 -439h-33z" />
    <glyph glyph-name="wacute" unicode="&#x1e83;" horiz-adv-x="597" 
d="M352 497l124 187h97l-209 -187h-12zM111 -13q-29 0 -52.5 24t-23.5 56q0 30 23 83t65.5 131t48.5 91l-93 17l-59 -82l-8 7q63 135 116 135q21 0 60 -7.5t39 -13.5q0 -10 -30 -69.5t-60 -129t-30 -102.5q0 -35 20 -50t42 -15q29 0 91 92t106 180l-5 3l-12.5 7.5t-15 11.5
t-12.5 17t-5 21q0 22 14.5 36.5t37.5 14.5q21 0 36 -15.5t15 -39.5q0 -27 -29.5 -64.5t-41.5 -68.5q-24 -66 -24 -107q0 -46 23 -67t51 -21q26 0 62 49.5t61.5 117.5t25.5 117q-21 -5 -42 11t-21 37t14.5 37t35.5 16q23 0 39.5 -17t16.5 -45q0 -53 -40.5 -151t-90.5 -158
q-61 -89 -108 -89q-28 0 -48 26t-20 55q0 42 46 163q-69 -120 -121.5 -182t-96.5 -62z" />
    <glyph glyph-name="Wdieresis" unicode="&#x1e84;" horiz-adv-x="952" 
d="M654 698q-25 0 -39.5 17.5t-14.5 37.5q0 21 14.5 39.5t39.5 18.5t39.5 -18.5t14.5 -39.5q0 -20 -14.5 -37.5t-39.5 -17.5zM468 698q-25 0 -39.5 17.5t-14.5 37.5q0 21 14.5 39.5t39.5 18.5t39.5 -18.5t14.5 -39.5q0 -20 -14.5 -37.5t-39.5 -17.5zM248 -11l-84 521
q-10 62 -19 77t-42 19l-36 4l-1 15h273l-3 -15l-38 -3q-33 -2 -41 -15t-2 -53l65 -435h3l199 362l-8 44q-11 62 -20 77t-42 19l-35 4l-2 15h272l-4 -15l-38 -3q-36 -2 -43.5 -16t0.5 -54l65 -432l3 -1l190 379q42 71 39.5 93.5t-58.5 29.5l-27 4l-1 15h222l-4 -15l-22 -5
q-36 -5 -60 -29.5t-69 -105.5l-249 -481h-33l-68 439h-3l-246 -439h-33z" />
    <glyph glyph-name="wdieresis" unicode="&#x1e85;" horiz-adv-x="597" 
d="M475 520q-25 0 -39.5 17.5t-14.5 37.5q0 21 14.5 39.5t39.5 18.5t39.5 -18.5t14.5 -39.5q0 -20 -14.5 -37.5t-39.5 -17.5zM289 520q-25 0 -39.5 17.5t-14.5 37.5q0 21 14.5 39.5t39.5 18.5t39.5 -18.5t14.5 -39.5q0 -20 -14.5 -37.5t-39.5 -17.5zM111 -13q-29 0 -52.5 24
t-23.5 56q0 30 23 83t65.5 131t48.5 91l-93 17l-59 -82l-8 7q63 135 116 135q21 0 60 -7.5t39 -13.5q0 -10 -30 -69.5t-60 -129t-30 -102.5q0 -35 20 -50t42 -15q29 0 91 92t106 180l-5 3l-12.5 7.5t-15 11.5t-12.5 17t-5 21q0 22 14.5 36.5t37.5 14.5q21 0 36 -15.5
t15 -39.5q0 -27 -29.5 -64.5t-41.5 -68.5q-24 -66 -24 -107q0 -46 23 -67t51 -21q26 0 62 49.5t61.5 117.5t25.5 117q-21 -5 -42 11t-21 37t14.5 37t35.5 16q23 0 39.5 -17t16.5 -45q0 -53 -40.5 -151t-90.5 -158q-61 -89 -108 -89q-28 0 -48 26t-20 55q0 42 46 163
q-69 -120 -121.5 -182t-96.5 -62z" />
    <glyph glyph-name="thinspace" unicode="&#x2009;" horiz-adv-x="60" 
 />
    <glyph glyph-name="endash" unicode="&#x2013;" horiz-adv-x="439" 
d="M12 212l10 44h412l-8 -44h-414z" />
    <glyph glyph-name="emdash" unicode="&#x2014;" horiz-adv-x="909" 
d="M12 212l10 44h882l-7 -44h-885z" />
    <glyph glyph-name="quoteleft" unicode="&#x2018;" horiz-adv-x="196" 
d="M148 402q-32 0 -52.5 22.5t-20.5 55.5q0 55 49 101t131 69l6 -8q-47 -19 -81 -52.5t-34 -69.5q0 -15 7 -27t16.5 -19t19 -12t16.5 -7t7 -3q-5 -21 -21.5 -35.5t-42.5 -14.5z" />
    <glyph glyph-name="quoteright" unicode="&#x2019;" horiz-adv-x="196" 
d="M68 408l-9 9q44 17 76 49t32 67q0 15 -7.5 27.5t-17.5 19.5t-20.5 12t-18 7t-7.5 3q3 20 20 35.5t42 15.5q32 0 54 -23.5t22 -58.5q0 -53 -46 -97.5t-120 -65.5z" />
    <glyph glyph-name="quotesinglbase" unicode="&#x201a;" horiz-adv-x="196" 
d="M-34 -127l-9 9q44 17 76 48.5t32 67.5q0 15 -7.5 27.5t-17.5 19.5t-20.5 12t-18 7t-7.5 3q3 20 20 35.5t42 15.5q32 0 54 -23.5t22 -58.5q0 -53 -46 -97.5t-120 -65.5z" />
    <glyph glyph-name="quotedblleft" unicode="&#x201c;" horiz-adv-x="379" 
d="M338 402q-32 0 -53.5 23t-21.5 58q0 53 46 97.5t119 65.5l9 -8q-44 -18 -75.5 -49.5t-31.5 -66.5q0 -15 7 -28t17.5 -20t21 -12t17.5 -7t7 -3q-3 -20 -20 -35t-42 -15zM150 402q-32 0 -53.5 23.5t-21.5 57.5q0 53 46 97.5t120 65.5l8 -8q-44 -18 -75.5 -49.5t-31.5 -66.5
q0 -15 7 -28t17.5 -20t21 -12t17.5 -7t7 -3q-2 -20 -19.5 -35t-42.5 -15z" />
    <glyph glyph-name="quotedblright" unicode="&#x201d;" horiz-adv-x="379" 
d="M257 408l-8 9q44 17 75.5 48.5t31.5 67.5q0 15 -7.5 27.5t-17.5 19.5t-20.5 12t-17.5 7t-7 3q2 20 19 35.5t43 15.5q32 0 53.5 -24t21.5 -58q0 -53 -46 -97.5t-120 -65.5zM70 408l-9 9q44 17 76 49t32 67q0 15 -7.5 27.5t-17.5 19.5t-20.5 12t-17.5 7t-7 3q2 20 19 35.5
t43 15.5q32 0 53.5 -24t21.5 -58q0 -53 -46 -97.5t-120 -65.5z" />
    <glyph glyph-name="quotedblbase" unicode="&#x201e;" horiz-adv-x="379" 
d="M155 -127l-8 9q44 17 75.5 48.5t31.5 67.5q0 15 -7.5 27.5t-17.5 19.5t-20.5 12t-17.5 7t-7 3q2 20 19 35.5t43 15.5q32 0 53.5 -24t21.5 -58q0 -53 -46 -97.5t-120 -65.5zM-32 -127l-9 9q44 17 76 48.5t32 67.5q0 15 -7.5 27.5t-17.5 19.5t-20.5 12t-17.5 7t-7 3
q2 20 19 35.5t43 15.5q32 0 53.5 -24t21.5 -58q0 -53 -46 -97.5t-120 -65.5z" />
    <glyph glyph-name="dagger" unicode="&#x2020;" horiz-adv-x="444" 
d="M165 -156l85 563h-195l-1 19h197l30 199h20l-30 -199h197l-3 -19h-195l-85 -563h-20z" />
    <glyph glyph-name="daggerdbl" unicode="&#x2021;" horiz-adv-x="444" 
d="M166 -156l28 187h-197l4 20h195l56 366h-195l-1 20h197l29 188h19l-28 -188h197l-3 -20h-196l-56 -366h196v-20h-197l-29 -187h-19z" />
    <glyph glyph-name="bullet" unicode="&#x2022;" horiz-adv-x="434" 
d="M219 39q-21 0 -71 21t-63 36q-15 16 -36 65.5t-21 70.5q0 22 21 71.5t36 64.5t64.5 35.5t70.5 20.5q22 0 71.5 -20.5t64.5 -35.5t35.5 -64.5t20.5 -71.5t-20 -71t-36 -65q-15 -16 -65 -36.5t-72 -20.5z" />
    <glyph glyph-name="ellipsis" unicode="&#x2026;" horiz-adv-x="631" 
d="M502 -13q-26 0 -44 18.5t-18 43.5t18 42.5t44 17.5t43.5 -18t17.5 -42q0 -25 -17.5 -43.5t-43.5 -18.5zM285 -13q-26 0 -44 18.5t-18 43.5q0 24 17.5 42t43.5 18t44 -17.5t18 -42.5t-17.5 -43.5t-43.5 -18.5zM68 -13q-27 0 -45 18.5t-18 43.5q0 24 18 42t44 18
q27 0 44.5 -17.5t17.5 -42.5t-17.5 -43.5t-43.5 -18.5z" />
    <glyph glyph-name="perthousand" unicode="&#x2030;" horiz-adv-x="924" 
d="M199 364q-59 0 -96.5 38t-37.5 95q0 60 40 102.5t102 42.5q60 0 97.5 -38.5t37.5 -95.5q0 -60 -40 -102t-103 -42zM11 -14l598 654h26l-597 -654h-27zM757 -16q-60 0 -96.5 37.5t-36.5 94.5q0 61 39.5 103.5t101.5 42.5q59 0 96.5 -38.5t37.5 -95.5q0 -60 -40 -102
t-102 -42zM441 -16q-59 0 -96 37.5t-37 94.5q0 61 40 103.5t102 42.5q59 0 96.5 -38.5t37.5 -95.5q0 -60 -40 -102t-103 -42zM200 384q52 0 85 35t33 86q0 50 -31 83.5t-81 33.5q-52 0 -85 -36.5t-33 -87.5q0 -50 31 -82t81 -32zM758 4q52 0 85.5 35.5t33.5 87.5
q0 49 -31.5 82t-81.5 33q-52 0 -85 -36.5t-33 -87.5q0 -50 31 -82t81 -32zM443 4q52 0 85 35.5t33 87.5q0 49 -31.5 82t-80.5 33q-52 0 -85 -36.5t-33 -87.5q0 -50 31 -82t81 -32z" />
    <glyph glyph-name="guilsinglleft" unicode="&#x2039;" horiz-adv-x="266" 
d="M203 48l-185 167l2 19l249 164l4 -10l-170 -172l107 -157z" />
    <glyph glyph-name="guilsinglright" unicode="&#x203a;" horiz-adv-x="267" 
d="M3 47l-4 10l165 169l-103 159l7 12l185 -168l-3 -20z" />
    <glyph glyph-name="fraction" unicode="&#x2044;" horiz-adv-x="507" 
d="M-41 -14l590 654h29l-591 -654h-28z" />
    <glyph glyph-name="zerosuperior" unicode="&#x2070;" horiz-adv-x="329" 
d="M151 259q-61 0 -90 43.5t-29 106.5q0 51 17.5 104.5t58.5 95.5t96 42q59 0 88.5 -45.5t29.5 -106.5q0 -52 -17.5 -105t-58 -94t-95.5 -41zM147 271q30 0 53.5 33t36 80.5t18.5 90.5t6 72q0 92 -56 92q-29 0 -52 -33.5t-35.5 -82t-19 -92t-6.5 -72.5q0 -88 55 -88z" />
    <glyph glyph-name="foursuperior" unicode="&#x2074;" horiz-adv-x="298" 
d="M140 267l21 107h-160v9l243 271l26 -2l-46 -241h67l-10 -37h-64l-22 -107h-55zM43 411h125l34 174h-3z" />
    <glyph glyph-name="fivesuperior" unicode="&#x2075;" horiz-adv-x="268" 
d="M72 250q-39 3 -60.5 16t-18.5 36q2 13 12 21t24 8q20 -1 29.5 -19.5t8.5 -40.5q16 -7 29 -8q32 -2 58.5 21.5t32.5 60.5q7 48 -29.5 80t-106.5 46l78 175h163l-16 -55h-156l-32 -72q75 -17 118 -55t36 -91q-8 -55 -58.5 -91t-111.5 -32z" />
    <glyph glyph-name="sixsuperior" unicode="&#x2076;" horiz-adv-x="299" 
d="M145 259q-56 0 -88.5 40t-32.5 96q0 95 85 172.5t231 81.5l2 -10q-89 -9 -151 -55.5t-91 -114.5l2 -1q45 37 95 37q43 0 67.5 -26.5t24.5 -71.5q0 -61 -43.5 -104.5t-100.5 -43.5zM145 271q33 0 58.5 36t25.5 89q0 37 -17.5 61t-49.5 24t-64 -27q-17 -42 -17 -83
q0 -100 64 -100z" />
    <glyph glyph-name="sevensuperior" unicode="&#x2077;" horiz-adv-x="273" 
d="M35 265l239 326l-1 3h-83q-63 0 -83.5 -7t-38.5 -33l-10 -15h-11l34 106h238v-9l-240 -371h-44z" />
    <glyph glyph-name="eightsuperior" unicode="&#x2078;" horiz-adv-x="300" 
d="M143 258q-53 0 -91.5 28t-38.5 70q0 40 31.5 66.5t80.5 33.5l1 1q-62 45 -62 92q0 42 35.5 73.5t86.5 31.5q48 0 82 -26t34 -67q0 -36 -27.5 -59t-71.5 -30v-2q35 -25 54 -48.5t19 -55.5q0 -46 -39.5 -77t-93.5 -31zM193 477q56 29 56 90q0 32 -16 54t-48 22
q-30 0 -48.5 -20.5t-18.5 -50.5q0 -19 12.5 -37.5t25.5 -29.5t37 -28zM147 269q33 0 54 21.5t21 51.5q0 22 -15.5 43.5t-28 31.5t-42.5 32q-69 -29 -69 -99q0 -35 20.5 -58t59.5 -23z" />
    <glyph glyph-name="ninesuperior" unicode="&#x2079;" horiz-adv-x="308" 
d="M-8 265l-1 10q89 9 151 55.5t90 114.5h-1q-43 -37 -95 -37q-43 0 -68 26.5t-25 72.5q0 61 44 104t101 43q56 0 88.5 -39.5t32.5 -95.5q0 -96 -85 -173t-232 -81zM171 432q34 0 64 27q16 39 16 84q0 99 -62 99q-34 0 -59.5 -35.5t-25.5 -88.5q0 -38 17 -62t50 -24z" />
    <glyph glyph-name="plussuperior" unicode="&#x207a;" horiz-adv-x="329" 
d="M187 300l-1 148h-144l2 18h142l1 145h19v-145h142l2 -18h-144v-148h-19z" />
    <glyph glyph-name="minussuperior" unicode="&#x207b;" horiz-adv-x="329" 
d="M329 447h-273l2 16h270z" />
    <glyph glyph-name="zeroinferior" unicode="&#x2080;" horiz-adv-x="329" 
d="M145 -145q-61 0 -90 43.5t-29 106.5q0 51 17.5 104.5t58.5 95.5t96 42q59 0 88.5 -45.5t29.5 -106.5q0 -52 -17.5 -105t-58 -94t-95.5 -41zM141 -133q30 0 53.5 33t36 80.5t18.5 90.5t6 72q0 92 -56 92q-29 0 -52 -33.5t-35.5 -82t-19 -92t-6.5 -72.5q0 -88 55 -88z" />
    <glyph glyph-name="oneinferior" unicode="&#x2081;" horiz-adv-x="254" 
d="M15 -137l2 11l35 2q24 1 26 12l62 321l-67 10l3 8l132 19l-70 -359q-1 -3 1 -5t8 -4t17 -2l28 -2l2 -11h-179z" />
    <glyph glyph-name="twoinferior" unicode="&#x2082;" horiz-adv-x="282" 
d="M-22 -137v14q16 13 45 36.5t41.5 33.5t35 29t32 29t24.5 26t21.5 26.5t14 25t10 27.5t2.5 28q0 34 -20.5 53.5t-50.5 19.5q-42 0 -84 -48l-5 7q55 80 127 80q40 0 67.5 -25.5t28.5 -64.5q0 -27 -9.5 -50.5t-35 -49.5t-45.5 -42t-67 -51.5t-72 -55.5v-2h119q29 0 47.5 13
t39.5 45l8 11h10l-47 -115h-237z" />
    <glyph glyph-name="threeinferior" unicode="&#x2083;" horiz-adv-x="268" 
d="M82 -159q-40 0 -68 11.5t-28 36.5q0 13 9.5 22.5t24.5 9.5q19 0 31 -18.5t1 -38.5q16 -11 38 -11q39 0 65.5 31t26.5 73q0 37 -22.5 58.5t-63.5 21.5q-17 0 -39 -6l-4 9q80 34 111.5 56.5t31.5 58.5q0 25 -17.5 41.5t-43.5 16.5q-50 0 -87 -48l-4 7q21 34 55 56t73 22
q35 0 61.5 -21.5t26.5 -51.5q0 -68 -125 -109v-2q4 1 13 1q43 -3 69 -30t26 -65q0 -51 -49.5 -91t-111.5 -40z" />
    <glyph glyph-name="fourinferior" unicode="&#x2084;" horiz-adv-x="298" 
d="M134 -137l21 107h-160v9l243 271l26 -2l-46 -241h67l-10 -37h-64l-22 -107h-55zM37 7h125l34 174h-3z" />
    <glyph glyph-name="fiveinferior" unicode="&#x2085;" horiz-adv-x="268" 
d="M66 -154q-39 3 -60.5 16t-18.5 36q2 13 12 21t24 8q20 -1 29.5 -19.5t8.5 -40.5q16 -7 29 -8q32 -2 58.5 21.5t32.5 60.5q7 48 -29.5 80t-106.5 46l78 175h163l-16 -55h-156l-32 -72q75 -17 118 -55t36 -91q-8 -55 -58.5 -91t-111.5 -32z" />
    <glyph glyph-name="sixinferior" unicode="&#x2086;" horiz-adv-x="299" 
d="M139 -145q-56 0 -88.5 40t-32.5 96q0 95 85 172.5t231 81.5l2 -10q-89 -9 -151 -55.5t-91 -114.5l2 -1q45 37 95 37q43 0 67.5 -26.5t24.5 -71.5q0 -61 -43.5 -104.5t-100.5 -43.5zM139 -133q33 0 58.5 36t25.5 89q0 37 -17.5 61t-49.5 24t-64 -27q-17 -42 -17 -83
q0 -100 64 -100z" />
    <glyph glyph-name="seveninferior" unicode="&#x2087;" horiz-adv-x="273" 
d="M29 -139l239 326l-1 3h-83q-63 0 -83.5 -7t-38.5 -33l-10 -15h-11l34 106h238v-9l-240 -371h-44z" />
    <glyph glyph-name="eightinferior" unicode="&#x2088;" horiz-adv-x="300" 
d="M137 -146q-53 0 -91.5 28t-38.5 70q0 40 31.5 66.5t80.5 33.5l1 1q-62 45 -62 92q0 42 35.5 73.5t86.5 31.5q48 0 82 -26t34 -67q0 -36 -27.5 -59t-71.5 -30v-2q35 -25 54 -48.5t19 -55.5q0 -46 -39.5 -77t-93.5 -31zM187 73q56 29 56 90q0 32 -16 54t-48 22
q-30 0 -48.5 -20.5t-18.5 -50.5q0 -19 12.5 -37.5t25.5 -29.5t37 -28zM141 -135q33 0 54 21.5t21 51.5q0 22 -15.5 43.5t-28 31.5t-42.5 32q-69 -29 -69 -99q0 -35 20.5 -58t59.5 -23z" />
    <glyph glyph-name="nineinferior" unicode="&#x2089;" horiz-adv-x="308" 
d="M-14 -139l-1 10q89 9 151 55.5t90 114.5h-1q-43 -37 -95 -37q-43 0 -68 26.5t-25 72.5q0 61 44 104t101 43q56 0 88.5 -39.5t32.5 -95.5q0 -96 -85 -173t-232 -81zM165 28q34 0 64 27q16 39 16 84q0 99 -62 99q-34 0 -59.5 -35.5t-25.5 -88.5q0 -38 17 -62t50 -24z" />
    <glyph glyph-name="Euro" unicode="&#x20ac;" horiz-adv-x="496" 
d="M286 -14q-93 0 -148 68.5t-65 165.5h-70l3 19h65q0 3 0.5 8.5t0.5 7.5q0 52 10 93h-55l3 19h57q34 116 123.5 190.5t187.5 74.5q65 0 104 -23.5t39 -57.5q0 -22 -14.5 -38t-37.5 -16q-32 0 -43.5 33t3.5 57q-21 24 -60 24q-81 0 -136.5 -65.5t-78.5 -178.5h199l3 -19
h-205q-8 -43 -8 -85q0 -16 1 -24h186l3 -19h-187q9 -83 53.5 -132t116.5 -49q68 0 136 63l8 -11q-40 -50 -91 -77.5t-103 -27.5z" />
    <glyph glyph-name="trademark" unicode="&#x2122;" horiz-adv-x="559" 
d="M343 403l1 11l13 1q12 1 15.5 8.5t4.5 37.5l4 140q-5 10 -16 11l-15 3l-1 10h83l49 -162h4l56 162h87l-1 -10l-19 -3q-13 -1 -13 -7l4 -168q0 -12 3 -15.5t12 -5.5l15 -2l1 -11h-105l1 11l17 2q11 2 11 22l-3 165h-4l-70 -196h-18l-63 193q-3 1 -3 0l-3 -141
q-1 -28 2 -35t17 -9l13 -1l1 -11h-80zM159 403l1 11l21 2q12 1 12 7v191h-7q-41 0 -64 -57l-4 -9h-9l8 77h201l3 -76h-10l-3 9q-11 30 -24.5 43t-39.5 13h-7v-192q0 -4 13 -6l19 -2v-11h-110z" />
    <glyph glyph-name="minus" unicode="&#x2212;" 
d="M414 225h-372l3 22h366z" />
    <glyph glyph-name="uni2215" unicode="&#x2215;" horiz-adv-x="507" 
d="M-41 -14l590 654h29l-591 -654h-28z" />
    <glyph glyph-name="approxequal" unicode="&#x2248;" 
d="M415 203h22q-17 -94 -106 -94q-33 0 -104 33.5t-102 33.5q-34 0 -54.5 -15t-29.5 -57h-22q17 94 106 94q33 0 104 -33.5t102 -33.5q36 0 55.5 15t28.5 57zM415 367h22q-17 -94 -106 -94q-33 0 -104 33.5t-102 33.5q-34 0 -54.5 -15t-29.5 -57h-22q17 94 106 94
q33 0 104 -33.5t102 -33.5q36 0 55.5 15t28.5 57z" />
    <glyph glyph-name="notequal" unicode="&#x2260;" 
d="M33 311l-3 22h215l43 150h23l-43 -150h158l-3 -22h-161l-43 -151h204l3 -22h-213l-45 -160h-23l45 160h-160l3 22h163l43 151h-206z" />
    <glyph glyph-name="lessequal" unicode="&#x2264;" horiz-adv-x="438" 
d="M422 27h-405l3 22h399zM413 87l-396 173v14l396 173l8 -20l-366 -157v-4l366 -159z" />
    <glyph glyph-name="greaterequal" unicode="&#x2265;" horiz-adv-x="438" 
d="M429 27h-405l3 22h399zM429 260l-396 -173l-8 20l366 159v4l-366 157l8 20l396 -173v-14z" />
    <glyph glyph-name="pcircle" unicode="&#x24df;" horiz-adv-x="713" 
d="M365 -14q-136 0 -231.5 95.5t-95.5 231.5t95.5 232t231.5 96t231.5 -96t95.5 -232t-95.5 -231.5t-231.5 -95.5zM365 2q127 0 217.5 91.5t90.5 219.5t-90.5 219.5t-217.5 91.5q-128 0 -218.5 -91.5t-90.5 -219.5t90.5 -219.5t218.5 -91.5zM229 125l1 12l30 4q24 3 24 11
v315q0 8 -28 10l-26 4l-1 12h163q69 0 104 -26.5t35 -69.5q0 -48 -41 -80t-102 -32q-20 0 -46 4v-138q0 -9 28 -11l32 -3l2 -12h-175zM387 299q38 0 60.5 24.5t22.5 64.5q0 90 -93 90h-35v-173q19 -6 45 -6z" />
    <glyph glyph-name="commaaccent" unicode="&#xf6c3;" horiz-adv-x="400" 
d="M184 -139q-10 -48 -51.5 -80t-91.5 -44l-15 18q30 8 54.5 27t30.5 48q3 16 -0.5 29t-11.5 21t-16.5 13.5t-14.5 8.5l-6 3q5 22 22.5 34.5t44.5 8.5q29 -4 45 -30t10 -57z" />
    <glyph glyph-name="J.alt" horiz-adv-x="451" 
d="M133 -12q-69 0 -111 31.5t-42 72.5q0 26 17.5 45t43.5 18q22 0 36 -14.5t14 -33.5q0 -44 -43 -51q8 -21 31.5 -35.5t55.5 -14.5q49 0 77 34t42 111l83 438q1 4 -1.5 7t-13 5.5t-30.5 4.5l-47 5l-3 15h289l-3 -15l-55 -6q-43 -4 -45 -19l-88 -460q-10 -55 -72.5 -96.5
t-134.5 -41.5z" />
    <glyph glyph-name="Jcircumflex.alt" horiz-adv-x="451" 
d="M259 667l152 194h32l81 -194h-12l-94 116h-3l-146 -116h-10zM531 626l-3 -15l-55 -6q-43 -4 -45 -18l-88 -461q-10 -55 -72.5 -96.5t-134.5 -41.5q-69 0 -111 31.5t-42 72.5q0 26 18 45t44 18q21 0 35.5 -14.5t14.5 -33.5q0 -18 -10.5 -33t-33.5 -18q8 -21 31.5 -35.5
t55.5 -14.5q49 0 77 34t42 111l83 438q1 4 -1.5 7t-13 5.5t-30.5 4.5l-47 5l-3 15h289z" />
    <glyph glyph-name="zero.alt" horiz-adv-x="532" 
d="M252 -13q-98 0 -159 59.5t-61 155.5q0 117 73 199.5t180 82.5q98 0 159 -60t61 -157q0 -117 -73 -198.5t-180 -81.5zM253 10q97 0 161.5 76.5t64.5 180.5q0 84 -54.5 138.5t-139.5 54.5q-98 0 -162.5 -77t-64.5 -181q0 -84 54.5 -138t140.5 -54z" />
    <glyph glyph-name="one.alt" horiz-adv-x="345" 
d="M6 0l5 15l44 4q42 1 43 18l75 396q1 5 -1 7.5t-11 5t-27 3.5l-41 4v15h252l-5 -15l-43 -4q-40 -1 -44 -18l-75 -396q-1 -5 1 -7.5t11.5 -5t27.5 -3.5l40 -4v-15h-252z" />
    <glyph glyph-name="dot" horiz-adv-x="211" 
d="M99 163q-26 0 -44 18.5t-18 43.5q0 24 17.5 42t43.5 18t44 -17.5t18 -42.5t-17.5 -43.5t-43.5 -18.5z" />
    <glyph glyph-name="ampersand.smallcap" horiz-adv-x="605" 
d="M522 313q69 -29 69 -108q0 -90 -87 -153.5t-214 -63.5q-120 0 -194.5 57t-74.5 145q0 56 35.5 100t92.5 65q-6 18 -6 37q0 55 40 94.5t97 38.5q50 0 80.5 -42.5t22.5 -97.5l-13 3q2 36 -17.5 63t-55.5 27q-33 0 -54.5 -26.5t-21.5 -64.5q0 -11 1 -17q5 1 16 1
q43 0 70 -18.5t27 -46.5q0 -19 -18 -32t-45 -13q-36 0 -68 22.5t-49 57.5q-62 -29 -62 -103q0 -90 70 -138.5t199 -48.5q96 0 155.5 43.5t59.5 110.5q0 38 -25 67t-57 29q-29 0 -59 -24.5t-30 -47.5q0 -21 16.5 -33.5t43.5 -14.5q-20 11 -13 38.5t35 27.5q16 0 27 -10.5
t11 -27.5q0 -19 -14 -32t-36 -13q-42 0 -70.5 27.5t-28.5 72.5q0 33 23 56t55.5 36t64.5 25t55 31.5t23 47.5q0 23 -17 36.5t-45 15.5q19 -10 14 -40.5t-37 -30.5q-18 0 -29.5 11.5t-11.5 29.5q0 19 17 33.5t39 14.5q44 0 73.5 -32t29.5 -81q0 -35 -23.5 -58t-85.5 -46z
M225 357q8 -27 27 -43.5t43 -16.5q7 0 13 6t6 12q0 17 -22 29.5t-54 12.5h-13z" />
    <glyph glyph-name="at.smallcap" horiz-adv-x="653" 
d="M326 -92q-132 0 -216.5 83.5t-81.5 215.5q3 134 98.5 228t225.5 93q123 -2 202.5 -78t75.5 -191q-2 -91 -59 -154.5t-128 -63.5q-49 0 -69 21t-17 52q0 27 19 78h-5q-47 -76 -79 -111.5t-64 -35.5q-31 0 -54 23t-23 53q0 47 32.5 109t75.5 103q51 50 100 50
q23 0 37 -21.5t15 -51.5h4l29 82l64 -2l-51 -135l-29 -110q-24 -70 45 -70q52 0 94.5 53.5t44.5 131.5q3 108 -71.5 179t-189.5 73q-122 1 -212 -89t-92 -217q-4 -123 76.5 -202t203.5 -79q64 0 119.5 30t85.5 75l9 -13q-34 -49 -91 -79t-124 -30zM261 91q18 0 51 41t65 101
q19 36 19 51q-2 21 -22.5 41.5t-44.5 20.5q-15 0 -30 -13q-25 -25 -49.5 -87.5t-24.5 -106.5q0 -22 11 -35t25 -13z" />
    <glyph glyph-name="a.smallcap" horiz-adv-x="464" 
d="M260 187h-128l-34 -64q-39 -71 -39 -85q-1 -16 30 -20q5 -1 12 -1l21 -2l1 -15h-164l2 15l15 2q35 4 52 25t73 125l128 239l-2 28q17 3 39.5 16.5t32.5 26.5h14l49 -387q4 -43 14 -56t33 -16l25 -3l2 -15h-224l4 15l24 2q26 2 30.5 15.5t0.5 55.5zM141 205h117l-19 180
h-4z" />
    <glyph glyph-name="b.smallcap" horiz-adv-x="460" 
d="M-9 0l4 15l30 4q30 4 32 13l78 402q1 3 -1 5t-9.5 4t-22.5 3l-24 4l-1 15h199q86 0 125.5 -29.5t39.5 -74.5q0 -46 -39.5 -75.5t-111.5 -33.5v-3q65 -9 99 -41t33 -74q0 -65 -58 -99.5t-169 -34.5h-204zM183 17h30q52 1 84 37t32 86q0 48 -33 76t-90 28h-18l-42 -215z
M239 259q53 0 81.5 30.5t28.5 76.5q0 38 -25 60t-72 22h-27l-35 -186q18 -3 49 -3z" />
    <glyph glyph-name="c.smallcap" horiz-adv-x="518" 
d="M277 -11q-107 0 -173.5 60.5t-66.5 154.5q0 111 79.5 191t205.5 80q74 0 128 -29l60 18l-24 -150h-19l-29 107q-41 35 -104 35q-62 0 -109 -41t-70 -102.5t-23 -128.5q0 -83 41 -130t111 -47q84 0 139 74l31 59l18 -2l-38 -133l-31 2q-62 -18 -126 -18z" />
    <glyph glyph-name="d.smallcap" horiz-adv-x="519" 
d="M-9 0l4 15l31 4q29 4 31 13l78 402q1 3 -1 5t-9.5 4t-22.5 3l-24 4l-1 15l190 1q114 1 176.5 -54.5t62.5 -141.5q0 -111 -83.5 -190.5t-222.5 -79.5h-209zM195 17q102 -2 159.5 75.5t57.5 191.5q0 74 -39 119t-116 45h-31l-80 -415z" />
    <glyph glyph-name="e.smallcap" horiz-adv-x="471" 
d="M-9 0l4 15l29 4q31 4 33 13l78 402q1 3 -1 5t-9.5 4t-22.5 3l-24 4l-1 15h372l-2 -150h-18l-4 25q-13 63 -43.5 86t-107.5 22l-49 -1l-38 -202l40 1q48 2 70 13t35 40l11 25l15 -1l-38 -173h-15l2 24q4 31 -14 41.5t-74 13.5l-35 2l-40 -212l76 -2q74 1 112.5 27t76.5 84
l12 24h18l-47 -152h-401z" />
    <glyph glyph-name="f.smallcap" horiz-adv-x="445" 
d="M-9 0l4 15l32 4q28 4 30 13l78 402q1 3 -1 5t-9 4t-21 3l-26 4l-1 15h372l-7 -150h-18l-5 25q-10 34 -18 51.5t-23.5 32.5t-39 19.5t-62.5 4.5l-51 -1l-39 -207l34 2q48 2 70 12.5t35 39.5l12 24l15 -1l-38 -171h-14l-1 22q0 33 -16.5 44.5t-69.5 12.5h-30l-37 -194
q-1 -3 1 -5t9.5 -4t21.5 -3l38 -4l1 -15h-226z" />
    <glyph glyph-name="g.smallcap" horiz-adv-x="539" 
d="M269 -12q-104 0 -168 59t-64 156q0 112 80 192t206 80q81 0 130 -30l57 18l-23 -152h-18l-30 112q-39 33 -103 33q-91 0 -147.5 -81.5t-56.5 -192.5q0 -81 38.5 -128.5t106.5 -47.5q42 0 70 14l29 153q0 2 -1 3.5t-6 3t-12 2.5t-19 3l-30 5l-1 15h220l-3 -15l-34 -5
q-27 -2 -29 -13l-26 -133l40 4l1 -11q-108 -44 -207 -44z" />
    <glyph glyph-name="h.smallcap" horiz-adv-x="561" 
d="M-9 0l4 15l31 4q29 4 31 13l78 402q1 3 -1 5t-9.5 4t-22.5 3l-24 4l-1 15h213l-3 -15l-32 -4q-30 -4 -32 -13l-36 -187h211l37 188q1 5 -5 7.5t-28 4.5l-25 4l-1 15h214l-4 -15l-32 -4q-30 -4 -32 -13l-77 -402q-1 -3 1 -5t9.5 -4t22.5 -3l24 -4l2 -15h-214l4 15l32 4
q31 4 32 13l37 195h-211l-38 -196q-1 -3 1 -5t9.5 -4t21.5 -3l26 -4l1 -15h-214z" />
    <glyph glyph-name="i.smallcap" horiz-adv-x="279" 
d="M-3 0l4 15l34 4q30 4 32 13l77 402q1 3 -1 5t-9.5 4t-22.5 3l-27 4l-2 15h220l-3 -15l-34 -4q-32 -4 -34 -13l-77 -402q-1 -3 1.5 -5t10 -4t22.5 -3l27 -4l2 -15h-220z" />
    <glyph glyph-name="j.smallcap" horiz-adv-x="265" 
d="M-35 -129q-33 0 -52 15.5t-18 37.5q1 20 15.5 33.5t34.5 13.5q33 0 43 -29t-13 -53q30 -2 52 32.5t35 105.5l79 407q1 3 -1 5t-10 4t-22 3l-31 4v15h220l-3 -15l-34 -4q-30 -4 -32 -13l-78 -408q-9 -55 -67.5 -104.5t-117.5 -49.5z" />
    <glyph glyph-name="j.smallcap.alt" horiz-adv-x="369" 
d="M113 -11q-61 0 -93.5 25t-32.5 57q0 25 15 40.5t38 15.5q19 0 32 -12.5t13 -30.5q0 -38 -34 -45q12 -32 62 -32q32 0 51.5 24.5t29.5 81.5l62 321q1 3 -1 5t-10 4t-22 3l-35 4l-2 15h229l-3 -15l-37 -4q-31 -3 -33 -13l-64 -332q-6 -40 -57.5 -76t-107.5 -36z" />
    <glyph glyph-name="k.smallcap" horiz-adv-x="517" 
d="M-8 0l3 15l32 4q28 4 30 13l78 402q1 3 -1 5t-9 4t-21 3l-26 4l-1 15h218l-4 -15l-36 -4q-30 -4 -32 -13l-43 -221l132 114q104 88 99 109q-3 11 -36 14l-21 2l-2 14h196l-4 -14l-18 -2q-32 -3 -56.5 -19t-95.5 -75q-18 -15 -28 -23l-35 -30l99 -228q14 -36 24 -45.5
t30 -11.5l20 -2l1 -15h-210l3 15l17 3q22 1 24 14t-12 53l-67 157l-16 -14l-32 -26l-16 -14l-30 -157q-1 -3 1 -5t9.5 -4t21.5 -3l29 -4l2 -15h-217z" />
    <glyph glyph-name="l.smallcap" horiz-adv-x="442" 
d="M-9 0l4 15l32 4q28 4 30 13l78 402q1 3 -1 5t-9 4t-21 3l-26 4l-1 15h223l-3 -15l-42 -4q-30 -3 -32 -13l-79 -414l52 -2q71 0 107 26t75 94l13 27h18l-46 -164h-372z" />
    <glyph glyph-name="m.smallcap" horiz-adv-x="632" 
d="M-16 0l2 15l23 3q30 2 40 13t17 49l78 347q-8 18 -34 20l-27 3l-2 15h166l55 -347h3l197 347h160l-4 -15l-34 -4q-29 -4 -31 -13l-71 -368q-4 -29 1.5 -36.5t28.5 -9.5l26 -4l1 -15h-218l3 15l35 4q18 2 25 11t10 36l69 359h-4l-239 -420h-28l-66 406q-3 10 -6 11
l-75 -345q-6 -36 2 -46t42 -13l22 -3l1 -15h-168z" />
    <glyph glyph-name="n.smallcap" horiz-adv-x="532" 
d="M385 -5l-223 401h-4l-62 -315q-5 -36 3.5 -48.5t39.5 -14.5l21 -3l1 -15h-165l3 15l21 3q27 2 39.5 15t18.5 50l63 313q-13 42 -52 50l-16 4l-1 15h156l187 -341h4l50 260q6 35 -3 47.5t-40 15.5l-20 3l-2 15h166l-4 -15l-21 -3q-27 -2 -39.5 -15.5t-18.5 -50.5l-77 -386
h-25z" />
    <glyph glyph-name="o.smallcap" horiz-adv-x="547" 
d="M268 -10q-101 0 -164 63.5t-63 157.5q0 105 73.5 184t187.5 79q101 0 164.5 -65t63.5 -159q0 -106 -74.5 -183t-187.5 -77zM261 7q52 0 94 44.5t63 110t21 135.5q0 72 -34.5 115.5t-95.5 43.5q-54 0 -96 -48t-62 -114t-20 -131q0 -71 34.5 -113.5t95.5 -42.5z" />
    <glyph glyph-name="p.smallcap" horiz-adv-x="454" 
d="M-13 0l3 15l36 4q29 4 31 13l78 402q1 3 -1 5t-9.5 4t-22.5 3l-29 4l-1 15h213q84 0 130 -33.5t46 -85.5q0 -61 -56.5 -100.5t-138.5 -39.5q-42 0 -84 10l-36 -185q-1 -3 1 -5t9.5 -4t21.5 -3l38 -4l2 -15h-231zM248 225q50 -1 84 39.5t34 94.5q0 39 -24 63t-63 25h-54
l-39 -212q28 -10 62 -10z" />
    <glyph glyph-name="q.smallcap" horiz-adv-x="547" 
d="M417 -137q-92 0 -142 29t-73 106q-74 19 -117.5 78t-43.5 135q0 105 73.5 184t187.5 79q101 0 164.5 -65t63.5 -159q0 -95 -62.5 -169.5t-159.5 -88.5q20 -66 58 -88.5t120 -20.5v-15q-25 -5 -69 -5zM261 7q52 0 94 44.5t63 110t21 135.5q0 72 -34.5 115.5t-95.5 43.5
q-54 0 -96 -48t-62 -114t-20 -131q0 -71 34.5 -113.5t95.5 -42.5z" />
    <glyph glyph-name="r.smallcap" horiz-adv-x="488" 
d="M-13 0l3 15l36 4q29 5 31 13l78 402q1 3 -1 5t-9.5 4t-22.5 3l-29 4l-1 15h211q84 0 131 -32t47 -83t-40 -84t-106 -39l67 -147q16 -34 29 -46.5t38 -16.5l11 -2l3 -15h-147l-89 226q-3 1 -19.5 5.5t-20.5 6.5l-41 -207q0 -3 3.5 -5.5t11 -4t17.5 -2.5l31 -4l1 -15h-223z
M254 243q50 1 82 32.5t32 82.5q0 40 -26.5 65t-73.5 25h-42l-37 -192q32 -13 65 -13z" />
    <glyph glyph-name="s.smallcap" horiz-adv-x="396" 
d="M176 -10q-89 0 -161 37l15 125l15 -1l18 -70q33 -73 113 -73q47 0 76 28.5t29 68.5q0 32 -24.5 55.5t-69.5 45.5q-115 59 -115 134q0 54 43.5 94t117.5 40q51 0 116 -24l38 9l-22 -135h-15l-32 103q-37 29 -81 29q-40 0 -65.5 -22t-25.5 -56q0 -31 23.5 -53.5t70.5 -46.5
q56 -30 87 -61.5t31 -76.5q0 -59 -50.5 -104.5t-131.5 -45.5z" />
    <glyph glyph-name="t.smallcap" horiz-adv-x="498" 
d="M103 0l3 15l39 4q30 4 32 13l79 416h-22q-92 -5 -148 -102l-14 -29h-18l43 148h416l-19 -148h-17l-3 27q-9 51 -34 77.5t-74 26.5h-21l-81 -417q-1 -3 1 -5t9.5 -4t22.5 -3l33 -4l1 -15h-228z" />
    <glyph glyph-name="u.smallcap" horiz-adv-x="523" 
d="M263 -12q-87 0 -137.5 34.5t-50.5 100.5q0 26 6 56q50 254 50 255q0 9 -33 12l-29 4l-2 15h223l-3 -15l-37 -4q-30 -4 -32 -13l-47 -244q-6 -31 -6 -55q0 -111 126 -111q107 0 134 136l45 225q5 36 -4 48t-40 15l-20 3l-2 15h166l-3 -15l-22 -3q-27 -2 -39.5 -15.5
t-17.5 -50.5l-47 -229q-32 -164 -178 -164z" />
    <glyph glyph-name="v.smallcap" horiz-adv-x="475" 
d="M190 -7l-75 385q-8 47 -14.5 57.5t-29.5 11.5l-24 3l-1 15h220l-3 -15l-28 -2q-30 -2 -34 -12.5t5 -50.5l53 -285h4l125 228q45 82 45 98q0 19 -33 22q-5 1 -10 1l-19 1l-2 15h168l-4 -15l-14 -2q-35 -4 -52.5 -25t-74.5 -125l-172 -305h-30z" />
    <glyph glyph-name="w.smallcap" horiz-adv-x="733" 
d="M183 -9l-72 387q-8 44 -15.5 56t-29.5 13l-24 3l-1 15h221l-4 -15l-27 -2q-26 -2 -31.5 -12t0.5 -45l52 -287h3l137 242l-6 32q-9 43 -16 55.5t-28 13.5l-25 3l-2 15h225l-4 -15l-26 -2q-26 -2 -32 -12.5t0 -47.5l44 -284h3l121 221q23 43 32 62.5t10.5 34.5t-8 19.5
t-32.5 6.5l-18 2l-2 15h167l-3 -15l-14 -2q-32 -5 -51.5 -26t-63.5 -102l-181 -329h-28l-53 329h-4l-186 -329h-28z" />
    <glyph glyph-name="x.smallcap" horiz-adv-x="490" 
d="M-33 0l3 15l25 3q29 1 49 18t76 78l97 107l-75 155q-19 44 -28 57t-26 14l-26 3l-2 15h214l-3 -15l-22 -2q-23 -2 -25.5 -14t14.5 -54l44 -101h2l65 75q56 63 57 77q1 13 -34 16q-3 1 -6 1l-17 2l-1 15h177l-4 -15l-22 -3q-31 -2 -52.5 -18.5t-75.5 -77.5l-79 -87
l93 -196q14 -30 22.5 -39.5t22.5 -10.5l23 -3l2 -15h-211l3 15l22 2q23 1 27.5 11.5t-7.5 35.5l-62 141h-2l-82 -94q-56 -63 -56 -77t39 -17l17 -2l1 -15h-177z" />
    <glyph glyph-name="y.smallcap" horiz-adv-x="466" 
d="M87 0l3 15l40 4q30 3 32 13l34 173l-76 188q-11 30 -21 41.5t-30 12.5l-20 3l-1 15h216l-3 -15l-18 -2q-29 -2 -35.5 -15t5.5 -44l60 -161h5l84 118q49 68 50 82q1 13 -22 17l-16 3l-18 2l-1 15h164l-3 -15l-18 -3q-26 -4 -48.5 -24t-67.5 -81l-97 -131l-36 -180
q-1 -3 1 -5t10 -4t22 -3l32 -4l2 -15h-229z" />
    <glyph glyph-name="z.smallcap" horiz-adv-x="454" 
d="M-7 0l3 14l367 430v2l-76 1q-79 1 -120.5 -26.5t-66.5 -79.5l-10 -23h-16l28 147h372l-2 -15l-371 -429v-3h85q87 -1 129 26t77 94l12 25h18l-45 -163h-384z" />
    <glyph glyph-name="fi.smallcap" horiz-adv-x="724" 
d="M442 0l4 15l34 4q30 4 32 13l77 402q1 3 -1 5t-9.5 4t-21.5 3l-28 4l-2 15h220l-3 -15l-34 -4q-32 -4 -34 -13l-76 -402q-1 -3 1 -5t9.5 -4t22.5 -3l27 -4l2 -15h-220zM-9 0l4 15l32 4q28 4 30 13l78 402q1 3 -1 5t-9 4t-21 3l-26 4l-1 15h372l-7 -150h-18l-5 25
q-10 34 -18 51.5t-23.5 32.5t-39 19.5t-62.5 4.5l-51 -1l-39 -207l34 2q48 2 70 12.5t35 39.5l12 24l15 -1l-38 -171h-14l-1 22q0 33 -16.5 44.5t-69.5 12.5h-30l-37 -194q-1 -3 1 -5t9.5 -4t21.5 -3l38 -4l1 -15h-226z" />
    <glyph glyph-name="fl.smallcap" horiz-adv-x="887" 
d="M437 0l3 15l32 4q29 4 31 13l77 402q1 3 -1 5t-9 4t-21 3l-26 4l-1 15h224l-4 -15l-42 -4q-30 -3 -32 -13l-79 -414l53 -2q71 0 106.5 26t74.5 94l13 27h18l-46 -164h-371zM-9 0l4 15l32 4q28 4 30 13l78 402q1 3 -1 5t-9 4t-21 3l-26 4l-1 15h372l-7 -150h-18l-5 25
q-10 34 -18 51.5t-23.5 32.5t-39 19.5t-62.5 4.5l-51 -1l-39 -207l34 2q48 2 70 12.5t35 39.5l12 24l15 -1l-38 -171h-14l-1 22q0 33 -16.5 44.5t-69.5 12.5h-30l-37 -194q-1 -3 1 -5t9.5 -4t21.5 -3l38 -4l1 -15h-226z" />
    <glyph glyph-name="ff.smallcap" horiz-adv-x="890" 
d="M437 0l3 15l32 4q29 4 31 13l77 402q1 3 -1 5t-9 4t-21 3l-26 4l-1 15h372l-7 -150h-18l-4 25q-14 46 -25.5 65.5t-39 31t-79.5 11.5l-51 -1l-39 -207l35 2q47 2 69 12.5t35 39.5l12 24l15 -1l-38 -171h-14v22q0 33 -16.5 44.5t-70.5 12.5h-30l-37 -194q-1 -3 1 -5
t9.5 -4t21.5 -3l38 -4l1 -15h-225zM-9 0l4 15l32 4q28 4 30 13l78 402q1 3 -1 5t-9 4t-21 3l-26 4l-1 15h372l-7 -150h-18l-5 25q-10 34 -18 51.5t-23.5 32.5t-39 19.5t-62.5 4.5l-51 -1l-39 -207l34 2q48 2 70 12.5t35 39.5l12 24l15 -1l-38 -171h-14l-1 22
q0 33 -16.5 44.5t-69.5 12.5h-30l-37 -194q-1 -3 1 -5t9.5 -4t21.5 -3l38 -4l1 -15h-226z" />
    <glyph glyph-name="ffi.smallcap" horiz-adv-x="1169" 
d="M887 0l4 15l34 4q30 4 32 13l78 402q1 3 -1.5 5t-10 4t-21.5 3l-28 4l-2 15h220l-3 -15l-34 -4q-31 -4 -33 -13l-77 -402q-1 -3 1 -5t9.5 -4t22.5 -3l27 -4l2 -15h-220zM437 0l3 15l32 4q29 4 31 13l77 402q1 3 -1 5t-9 4t-21 3l-26 4l-1 15h372l-7 -150h-18l-4 25
q-14 46 -25.5 65.5t-39 31t-79.5 11.5l-51 -1l-39 -207l35 2q47 2 69 12.5t35 39.5l12 24l15 -1l-38 -171h-14v22q0 33 -16.5 44.5t-70.5 12.5h-30l-37 -194q-1 -3 1 -5t9.5 -4t21.5 -3l38 -4l1 -15h-225zM-9 0l4 15l32 4q28 4 30 13l78 402q1 3 -1 5t-9 4t-21 3l-26 4
l-1 15h372l-7 -150h-18l-5 25q-10 34 -18 51.5t-23.5 32.5t-39 19.5t-62.5 4.5l-51 -1l-39 -207l34 2q48 2 70 12.5t35 39.5l12 24l15 -1l-38 -171h-14l-1 22q0 33 -16.5 44.5t-69.5 12.5h-30l-37 -194q-1 -3 1 -5t9.5 -4t21.5 -3l38 -4l1 -15h-226z" />
    <glyph glyph-name="ffl.smallcap" horiz-adv-x="1332" 
d="M882 0l3 15l32 4q29 4 31 13l77 402q1 3 -1 5t-9 4t-21 3l-25 4l-2 15h224l-4 -15l-42 -4q-30 -3 -32 -13l-79 -414l53 -2q71 0 106.5 26t75.5 94l12 27h18l-46 -164h-371zM437 0l3 15l32 4q29 4 31 13l77 402q1 3 -1 5t-9 4t-21 3l-26 4l-1 15h372l-7 -150h-18l-4 25
q-14 46 -25.5 65.5t-39 31t-79.5 11.5l-51 -1l-39 -207l35 2q47 2 69 12.5t35 39.5l12 24l15 -1l-38 -171h-14v22q0 33 -16.5 44.5t-70.5 12.5h-30l-37 -194q-1 -3 1 -5t9.5 -4t21.5 -3l38 -4l1 -15h-225zM-9 0l4 15l32 4q28 4 30 13l78 402q1 3 -1 5t-9 4t-21 3l-26 4
l-1 15h372l-7 -150h-18l-5 25q-10 34 -18 51.5t-23.5 32.5t-39 19.5t-62.5 4.5l-51 -1l-39 -207l34 2q48 2 70 12.5t35 39.5l12 24l15 -1l-38 -171h-14l-1 22q0 33 -16.5 44.5t-69.5 12.5h-30l-37 -194q-1 -3 1 -5t9.5 -4t21.5 -3l38 -4l1 -15h-226z" />
    <glyph glyph-name="germandbls.smallcap" horiz-adv-x="792" 
d="M572 -10q-89 0 -161 37l15 125l15 -1l19 -70q31 -73 112 -73q47 0 76 28.5t29 68.5q0 32 -24.5 55.5t-69.5 45.5q-115 59 -115 134q0 54 43.5 94t117.5 40q52 0 117 -24l37 9l-22 -135h-14l-33 103q-35 29 -81 29q-40 0 -65 -22t-25 -56q0 -31 23 -53.5t70 -46.5
q56 -30 87 -61.5t31 -76.5q0 -59 -50 -104.5t-132 -45.5zM176 -10q-89 0 -161 37l15 125l15 -1l18 -70q33 -73 113 -73q47 0 76 28.5t29 68.5q0 32 -24.5 55.5t-69.5 45.5q-115 59 -115 134q0 54 43.5 94t117.5 40q51 0 116 -24l38 9l-22 -135h-15l-32 103q-37 29 -81 29
q-40 0 -65.5 -22t-25.5 -56q0 -31 23.5 -53.5t70.5 -46.5q56 -30 87 -61.5t31 -76.5q0 -59 -50.5 -104.5t-131.5 -45.5z" />
    <glyph glyph-name="agrave.smallcap" horiz-adv-x="464" 
d="M260 187h-128l-34 -64q-39 -71 -39 -85q-1 -16 30 -20q5 -1 12 -1l21 -2l1 -15h-164l2 15l15 2q35 4 52 25t73 125l128 239l-2 28q17 3 39.5 16.5t32.5 26.5h14l49 -387q4 -43 14 -56t33 -16l25 -3l2 -15h-224l4 15l24 2q26 2 30.5 15.5t0.5 55.5zM141 205h117l-19 180
h-4zM315 518l-139 187h90l61 -187h-12z" />
    <glyph glyph-name="aacute.smallcap" horiz-adv-x="464" 
d="M260 187h-128l-34 -64q-39 -71 -39 -85q-1 -16 30 -20q5 -1 12 -1l21 -2l1 -15h-164l2 15l15 2q35 4 52 25t73 125l128 239l-2 28q17 3 39.5 16.5t32.5 26.5h14l49 -387q4 -43 14 -56t33 -16l25 -3l2 -15h-224l4 15l24 2q26 2 30.5 15.5t0.5 55.5zM141 205h117l-19 180
h-4zM255 518l124 187h97l-209 -187h-12z" />
    <glyph glyph-name="acircumflex.smallcap" horiz-adv-x="464" 
d="M260 187h-128l-34 -64q-39 -71 -39 -85q-1 -16 30 -20q5 -1 12 -1l21 -2l1 -15h-164l2 15l15 2q35 4 52 25t73 125l128 239l-2 28q17 3 39.5 16.5t32.5 26.5h14l49 -387q4 -43 14 -56t33 -16l25 -3l2 -15h-224l4 15l24 2q26 2 30.5 15.5t0.5 55.5zM141 205h117l-19 180
h-4zM167 510l152 194h32l81 -194h-12l-94 116h-3l-146 -116h-10z" />
    <glyph glyph-name="atilde.smallcap" horiz-adv-x="464" 
d="M260 187h-128l-34 -64q-39 -71 -39 -85q-1 -16 30 -20q5 -1 12 -1l21 -2l1 -15h-164l2 15l15 2q35 4 52 25t73 125l128 239l-2 28q17 3 39.5 16.5t32.5 26.5h14l49 -387q4 -43 14 -56t33 -16l25 -3l2 -15h-224l4 15l24 2q26 2 30.5 15.5t0.5 55.5zM141 205h117l-19 180
h-4zM375 525q-33 0 -88 32.5t-72 32.5q-20 0 -31.5 -10.5t-21.5 -46.5h-13q14 60 34 85.5t57 25.5q32 0 87 -32.5t73 -32.5q20 0 31.5 11t22.5 46h14q-15 -59 -35.5 -85t-57.5 -26z" />
    <glyph glyph-name="adieresis.smallcap" horiz-adv-x="464" 
d="M260 187h-128l-34 -64q-39 -71 -39 -85q-1 -16 30 -20q5 -1 12 -1l21 -2l1 -15h-164l2 15l15 2q35 4 52 25t73 125l128 239l-2 28q17 3 39.5 16.5t32.5 26.5h14l49 -387q4 -43 14 -56t33 -16l25 -3l2 -15h-224l4 15l24 2q26 2 30.5 15.5t0.5 55.5zM141 205h117l-19 180
h-4zM405 541q-25 0 -39.5 17.5t-14.5 37.5q0 21 14.5 39.5t39.5 18.5t39.5 -18.5t14.5 -39.5q0 -20 -14.5 -37.5t-39.5 -17.5zM219 541q-25 0 -39.5 17.5t-14.5 37.5q0 21 14.5 39.5t39.5 18.5t39.5 -18.5t14.5 -39.5q0 -20 -14.5 -37.5t-39.5 -17.5z" />
    <glyph glyph-name="aring.smallcap" horiz-adv-x="464" 
d="M260 187h-128l-34 -64q-39 -71 -39 -85q-1 -16 30 -20q5 -1 12 -1l21 -2l1 -15h-164l2 15l15 2q35 4 53 25.5t72 124.5l156 290q-26 9 -41 32t-15 52q1 38 25 64t64 26t64.5 -26.5t24.5 -63.5q0 -32 -17 -56t-46 -31l12 -91l22 -182l12 -91q4 -43 14 -56t33 -16l25 -3
l2 -15h-224l4 15l24 2q26 2 30.5 15.5t0.5 55.5zM290 465q33 0 53 22t20 54q0 31 -20 53t-53 22t-53 -22t-20 -53q0 -32 20 -54t53 -22zM141 205h117l-19 180h-4z" />
    <glyph glyph-name="aringacute.smallcap" horiz-adv-x="464" 
d="M238 647l124 187h97l-209 -187h-12zM260 187h-128l-34 -64q-39 -71 -39 -85q-1 -16 30 -20q5 -1 12 -1l21 -2l1 -15h-164l2 15l15 2q35 4 53 25.5t72 124.5l156 290q-26 9 -41 32t-15 52q1 38 25 64t64 26t64.5 -26.5t24.5 -63.5q0 -32 -17 -56t-46 -31l12 -91l22 -182
l12 -91q4 -43 14 -56t33 -16l25 -3l2 -15h-224l4 15l24 2q26 2 30.5 15.5t0.5 55.5zM290 465q33 0 53 22t20 54q0 31 -20 53t-53 22t-53 -22t-20 -53q0 -32 20 -54t53 -22zM141 205h117l-19 180h-4z" />
    <glyph glyph-name="amacron.smallcap" horiz-adv-x="464" 
d="M260 187h-128l-34 -64q-39 -71 -39 -85q-1 -16 30 -20q5 -1 12 -1l21 -2l1 -15h-164l2 15l15 2q35 4 52 25t73 125l128 239l-2 28q17 3 39.5 16.5t32.5 26.5h14l49 -387q4 -43 14 -56t33 -16l25 -3l2 -15h-224l4 15l24 2q26 2 30.5 15.5t0.5 55.5zM141 205h117l-19 180
h-4zM166 527l11 30h248l-8 -30h-251z" />
    <glyph glyph-name="abreve.smallcap" horiz-adv-x="464" 
d="M260 187h-128l-34 -64q-39 -71 -39 -85q-1 -16 30 -20q5 -1 12 -1l21 -2l1 -15h-164l2 15l15 2q35 4 52 25t73 125l128 239l-2 28q17 3 39.5 16.5t32.5 26.5h14l49 -387q4 -43 14 -56t33 -16l25 -3l2 -15h-224l4 15l24 2q26 2 30.5 15.5t0.5 55.5zM141 205h117l-19 180
h-4zM275 499q-31 0 -51.5 15t-30 44t-13.5 57.5t-4 68.5h12q11 -64 33 -96.5t63 -32.5q40 0 72.5 32t67.5 97h13q-41 -101 -66 -134q-39 -51 -96 -51z" />
    <glyph glyph-name="aogonek.smallcap" horiz-adv-x="464" 
d="M327 -230q-37 1 -56.5 25t-16.5 62q2 45 43 83t96 60h-181l4 15l24 2q26 2 30.5 15.5t0.5 55.5l-10 99h-129l-34 -64q-39 -71 -39 -85q-1 -16 30 -20q5 -1 12 -1l21 -2l2 -15h-165l2 15l15 2q35 4 52 25t73 125l128 239l-2 28q18 3 43.5 16.5t34.5 26.5h8l49 -387
q4 -43 14.5 -56t33.5 -16l24 -3l2 -15q-50 -12 -83 -48.5t-35 -78.5q-2 -62 47 -63q25 0 57 20l3 -5q-15 -23 -41.5 -39.5t-56.5 -15.5zM141 205h118l-20 180h-4z" />
    <glyph glyph-name="ae.smallcap" horiz-adv-x="666" 
d="M290 189h-134l-48 -62q-59 -75 -63 -90q-3 -13 18 -17q7 -2 19 -3l17 -2l3 -15h-163l2 15l16 2q33 4 55 24t89 106l207 263q15 17 9.5 26.5t-37.5 11.5l-30 2l-1 15h394l-2 -150h-18l-4 25q-19 64 -47.5 86.5t-102.5 21.5l-43 -1l-38 -202l34 1q48 2 70 13t34 40l12 25
l14 -1l-37 -173h-15l1 24q4 31 -13.5 41.5t-73.5 13.5l-28 2l-41 -212l70 -2q74 1 112 27t76 84l12 24h19l-47 -152h-397l4 15l35 5q30 3 32 13zM169 206h124l40 210h-2z" />
    <glyph glyph-name="aeacute.smallcap" horiz-adv-x="666" 
d="M290 189h-134l-48 -62q-59 -75 -63 -90q-3 -13 18 -17q7 -2 19 -3l17 -2l3 -15h-163l2 15l16 2q33 4 55 24t89 106l207 263q15 17 9.5 26.5t-37.5 11.5l-30 2l-1 15h394l-2 -150h-18l-4 25q-19 64 -47.5 86.5t-102.5 21.5l-43 -1l-38 -202l34 1q48 2 70 13t34 40l12 25
l14 -1l-37 -173h-15l1 24q4 31 -13.5 41.5t-73.5 13.5l-28 2l-41 -212l70 -2q74 1 112 27t76 84l12 24h19l-47 -152h-397l4 15l35 5q30 3 32 13zM169 206h124l40 210h-2zM432 497l124 187h97l-209 -187h-12z" />
    <glyph glyph-name="ccedilla.smallcap" horiz-adv-x="518" 
d="M256 -10q-99 6 -159 65t-60 149q0 111 79.5 191t205.5 80q74 0 128 -29l60 18l-24 -150h-19l-29 107q-41 35 -104 35q-62 0 -109 -41t-70 -102.5t-23 -128.5q0 -83 41 -130t111 -47q84 0 139 74l31 59l18 -2l-38 -133l-31 2q-62 -18 -125 -18l-56 -52q56 3 92.5 -18
t36.5 -58q0 -57 -64 -86.5t-166 -34.5l-1 11q168 15 168 90q0 48 -83 48q-23 0 -55 -5l2 11z" />
    <glyph glyph-name="cacute.smallcap" horiz-adv-x="518" 
d="M287 504l124 187h97l-209 -187h-12zM277 -11q-107 0 -173.5 60.5t-66.5 154.5q0 111 79.5 191t205.5 80q74 0 128 -29l60 18l-24 -150h-19l-29 107q-41 35 -104 35q-62 0 -109 -41t-70 -102.5t-23 -128.5q0 -83 41 -130t111 -47q84 0 139 74l31 59l18 -2l-38 -133l-31 2
q-62 -18 -126 -18z" />
    <glyph glyph-name="ccircumflex.smallcap" horiz-adv-x="518" 
d="M179 489l152 194h32l81 -194h-12l-94 116h-3l-146 -116h-10zM277 -11q-107 0 -173.5 60.5t-66.5 154.5q0 111 79.5 191t205.5 80q74 0 128 -29l60 18l-24 -150h-19l-29 107q-41 35 -104 35q-62 0 -109 -41t-70 -102.5t-23 -128.5q0 -83 41 -130t111 -47q84 0 139 74
l31 59l18 -2l-38 -133l-31 2q-62 -18 -126 -18z" />
    <glyph glyph-name="cdotaccent.smallcap" horiz-adv-x="518" 
d="M277 -11q-107 0 -173.5 60.5t-66.5 154.5q0 111 79.5 191t205.5 80q74 0 128 -29l60 18l-24 -150h-19l-29 107q-41 35 -104 35q-62 0 -109 -41t-70 -102.5t-23 -128.5q0 -83 41 -130t111 -47q84 0 139 74l31 59l18 -2l-38 -133l-31 2q-62 -18 -126 -18zM338 531
q-25 0 -39.5 17.5t-14.5 37.5q0 21 14.5 39.5t39.5 18.5q26 0 40.5 -18.5t14.5 -39.5q0 -20 -14.5 -37.5t-40.5 -17.5z" />
    <glyph glyph-name="ccaron.smallcap" horiz-adv-x="518" 
d="M312 496l-81 194h12l95 -116h3l144 116h11l-153 -194h-31zM277 -11q-107 0 -173.5 60.5t-66.5 154.5q0 111 79.5 191t205.5 80q74 0 128 -29l60 18l-24 -150h-19l-29 107q-41 35 -104 35q-62 0 -109 -41t-70 -102.5t-23 -128.5q0 -83 41 -130t111 -47q84 0 139 74l31 59
l18 -2l-38 -133l-31 2q-62 -18 -126 -18z" />
    <glyph glyph-name="dcaron.smallcap" horiz-adv-x="521" 
d="M264 496l-81 194h12l95 -116h3l144 116h11l-152 -194h-32zM-9 0l4 15l31 4q29 4 31 13l78 402q1 3 -1 5t-9.5 4t-22.5 3l-24 4l-1 15l190 1q114 1 176.5 -54.5t62.5 -141.5q0 -111 -83.5 -190.5t-222.5 -79.5h-209zM195 17q102 -2 159.5 75.5t57.5 191.5q0 74 -39 119
t-116 45h-31l-80 -415z" />
    <glyph glyph-name="eth.smallcap" horiz-adv-x="525" 
d="M100 225h-68l3 19h69l37 190q1 3 -1 5t-9.5 4t-22.5 3l-24 4l-1 15l190 1q115 1 177.5 -54.5t62.5 -141.5q0 -111 -84 -190.5t-223 -79.5h-209l4 15l31 4q29 4 31 13zM193 244h101l3 -19h-108l-37 -192l49 -16q102 -2 159.5 75.5t57.5 191.5q0 74 -39 119t-116 45h-31z
" />
    <glyph glyph-name="dcroat.smallcap" horiz-adv-x="525" 
d="M100 225h-68l3 19h69l37 190q1 3 -1 5t-9.5 4t-22.5 3l-24 4l-1 15l190 1q115 1 177.5 -54.5t62.5 -141.5q0 -111 -84 -190.5t-223 -79.5h-209l4 15l31 4q29 4 31 13zM193 244h101l3 -19h-108l-37 -192l49 -16q102 -2 159.5 75.5t57.5 191.5q0 74 -39 119t-116 45h-31z
" />
    <glyph glyph-name="egrave.smallcap" horiz-adv-x="471" 
d="M-9 0l4 15l29 4q31 4 33 13l78 402q1 3 -1 5t-9.5 4t-22.5 3l-24 4l-1 15h372l-2 -150h-18l-4 25q-13 63 -43.5 86t-107.5 22l-49 -1l-38 -202l40 1q48 2 70 13t35 40l11 25l15 -1l-38 -173h-15l2 24q4 31 -14 41.5t-74 13.5l-35 2l-40 -212l76 -2q74 1 112.5 27t76.5 84
l12 24h18l-47 -152h-401zM308 518l-139 187h90l61 -187h-12z" />
    <glyph glyph-name="eacute.smallcap" horiz-adv-x="471" 
d="M-9 0l4 15l29 4q31 4 33 13l78 402q1 3 -1 5t-9.5 4t-22.5 3l-24 4l-1 15h372l-2 -150h-18l-4 25q-13 63 -43.5 86t-107.5 22l-49 -1l-38 -202l40 1q48 2 70 13t35 40l11 25l15 -1l-38 -173h-15l2 24q4 31 -14 41.5t-74 13.5l-35 2l-40 -212l76 -2q74 1 112.5 27t76.5 84
l12 24h18l-47 -152h-401zM254 518l124 187h97l-209 -187h-12z" />
    <glyph glyph-name="ecircumflex.smallcap" horiz-adv-x="471" 
d="M-9 0l4 15l29 4q31 4 33 13l78 402q1 3 -1 5t-9.5 4t-22.5 3l-24 4l-1 15h372l-2 -150h-18l-4 25q-13 63 -43.5 86t-107.5 22l-49 -1l-38 -202l40 1q48 2 70 13t35 40l11 25l15 -1l-38 -173h-15l2 24q4 31 -14 41.5t-74 13.5l-35 2l-40 -212l76 -2q74 1 112.5 27t76.5 84
l12 24h18l-47 -152h-401zM157 510l152 194h32l81 -194h-12l-94 116h-3l-146 -116h-10z" />
    <glyph glyph-name="edieresis.smallcap" horiz-adv-x="471" 
d="M-9 0l4 15l29 4q31 4 33 13l78 402q1 3 -1 5t-9.5 4t-22.5 3l-24 4l-1 15h372l-2 -150h-18l-4 25q-13 63 -43.5 86t-107.5 22l-49 -1l-38 -202l40 1q48 2 70 13t35 40l11 25l15 -1l-38 -173h-15l2 24q4 31 -14 41.5t-74 13.5l-35 2l-40 -212l76 -2q74 1 112.5 27t76.5 84
l12 24h18l-47 -152h-401zM391 541q-25 0 -39.5 17.5t-14.5 37.5q0 21 14.5 39.5t39.5 18.5t39.5 -18.5t14.5 -39.5q0 -20 -14.5 -37.5t-39.5 -17.5zM205 541q-25 0 -39.5 17.5t-14.5 37.5q0 21 14.5 39.5t39.5 18.5t39.5 -18.5t14.5 -39.5q0 -20 -14.5 -37.5t-39.5 -17.5z
" />
    <glyph glyph-name="emacron.smallcap" horiz-adv-x="471" 
d="M-9 0l4 15l29 4q31 4 33 13l78 402q1 3 -1 5t-9.5 4t-22.5 3l-24 4l-1 15h372l-2 -150h-18l-4 25q-13 63 -43.5 86t-107.5 22l-49 -1l-38 -202l40 1q48 2 70 13t35 40l11 25l15 -1l-38 -173h-15l2 24q4 31 -14 41.5t-74 13.5l-35 2l-40 -212l76 -2q74 1 112.5 27t76.5 84
l12 24h18l-47 -152h-401zM150 527l11 30h248l-8 -30h-251z" />
    <glyph glyph-name="ebreve.smallcap" horiz-adv-x="471" 
d="M-9 0l4 15l29 4q31 4 33 13l78 402q1 3 -1 5t-9.5 4t-22.5 3l-24 4l-1 15h372l-2 -150h-18l-4 25q-13 63 -43.5 86t-107.5 22l-49 -1l-38 -202l40 1q48 2 70 13t35 40l11 25l15 -1l-38 -173h-15l2 24q4 31 -14 41.5t-74 13.5l-35 2l-40 -212l76 -2q74 1 112.5 27t76.5 84
l12 24h18l-47 -152h-401zM282 499q-31 0 -51.5 15t-30 44t-13.5 57.5t-4 68.5h12q11 -64 33 -96.5t63 -32.5q40 0 72.5 32t67.5 97h13q-41 -101 -66 -134q-39 -51 -96 -51z" />
    <glyph glyph-name="edotaccent.smallcap" horiz-adv-x="471" 
d="M-9 0l4 15l29 4q31 4 33 13l78 402q1 3 -1 5t-9.5 4t-22.5 3l-24 4l-1 15h372l-2 -150h-18l-4 25q-13 63 -43.5 86t-107.5 22l-49 -1l-38 -202l40 1q48 2 70 13t35 40l11 25l15 -1l-38 -173h-15l2 24q4 31 -14 41.5t-74 13.5l-35 2l-40 -212l76 -2q74 1 112.5 27t76.5 84
l12 24h18l-47 -152h-401zM293 531q-25 0 -39.5 17.5t-14.5 37.5q0 21 14.5 39.5t39.5 18.5q26 0 40.5 -18.5t14.5 -39.5q0 -20 -14.5 -37.5t-40.5 -17.5z" />
    <glyph glyph-name="eogonek.smallcap" horiz-adv-x="471" 
d="M270 -230q-37 1 -56.5 25t-16.5 62q4 81 133 143h-339l4 15l29 4q31 4 33 13l78 402q1 3 -1.5 5t-9.5 4t-22 4l-24 3l-1 15h372l-2 -150h-18l-4 25q-13 63 -43.5 86t-107.5 22l-49 -1l-38 -202l41 1q47 2 69 13t35 40l11 25l15 -1l-38 -173h-15l2 24q4 31 -14 41.5
t-73 13.5l-36 2l-40 -212l76 -2q74 1 112.5 27t76.5 84l12 24h18l-47 -152h-35q-93 -53 -96 -127q-2 -62 47 -63q25 0 57 20l3 -5q-15 -23 -41.5 -39.5t-56.5 -15.5z" />
    <glyph glyph-name="ecaron.smallcap" horiz-adv-x="471" 
d="M268 496l-81 194h12l95 -116h3l144 116h11l-153 -194h-31zM-9 0l4 15l29 4q31 4 33 13l78 402q1 3 -1 5t-9.5 4t-22.5 3l-24 4l-1 15h372l-2 -150h-18l-4 25q-13 63 -43.5 86t-107.5 22l-49 -1l-38 -202l40 1q48 2 70 13t35 40l11 25l15 -1l-38 -173h-15l2 24
q4 31 -14 41.5t-74 13.5l-35 2l-40 -212l76 -2q74 1 112.5 27t76.5 84l12 24h18l-47 -152h-401z" />
    <glyph glyph-name="gcircumflex.smallcap" horiz-adv-x="539" 
d="M184 489l152 194h32l81 -194h-12l-94 116h-3l-146 -116h-10zM269 -12q-104 0 -168 59t-64 156q0 112 80 192t206 80q81 0 130 -30l57 18l-23 -152h-18l-30 112q-39 33 -103 33q-91 0 -147.5 -81.5t-56.5 -192.5q0 -81 38.5 -128.5t106.5 -47.5q42 0 70 14l29 153
q0 2 -1 3.5t-6 3t-12 2.5t-19 3l-30 5l-1 15h220l-3 -15l-34 -5q-27 -2 -29 -13l-26 -133l40 4l1 -11q-108 -44 -207 -44z" />
    <glyph glyph-name="gbreve.smallcap" horiz-adv-x="539" 
d="M269 -12q-104 0 -168 59t-64 156q0 112 80 192t206 80q81 0 130 -30l57 18l-23 -152h-18l-30 112q-39 33 -103 33q-91 0 -147.5 -81.5t-56.5 -192.5q0 -81 38.5 -128.5t106.5 -47.5q42 0 70 14l29 153q0 2 -1 3.5t-6 3t-12 2.5t-19 3l-30 5l-1 15h220l-3 -15l-34 -5
q-27 -2 -29 -13l-26 -133l40 4l1 -11q-108 -44 -207 -44zM328 499q-31 0 -51.5 15t-30 44t-13.5 57.5t-4 68.5h12q11 -64 33 -96.5t63 -32.5q40 0 72.5 32t67.5 97h13q-41 -101 -66 -134q-39 -51 -96 -51z" />
    <glyph glyph-name="gdotaccent.smallcap" horiz-adv-x="539" 
d="M269 -12q-104 0 -168 59t-64 156q0 112 80 192t206 80q81 0 130 -30l57 18l-23 -152h-18l-30 112q-39 33 -103 33q-91 0 -147.5 -81.5t-56.5 -192.5q0 -81 38.5 -128.5t106.5 -47.5q42 0 70 14l29 153q0 2 -1 3.5t-6 3t-12 2.5t-19 3l-30 5l-1 15h220l-3 -15l-34 -5
q-27 -2 -29 -13l-26 -133l40 4l1 -11q-108 -44 -207 -44zM343 531q-25 0 -39.5 17.5t-14.5 37.5q0 21 14.5 39.5t39.5 18.5q26 0 40.5 -18.5t14.5 -39.5q0 -20 -14.5 -37.5t-40.5 -17.5z" />
    <glyph glyph-name="gcommaaccent.smallcap" horiz-adv-x="539" 
d="M315 -139q-10 -48 -51.5 -80t-91.5 -44l-15 18q30 8 54.5 27t30.5 48q3 16 -0.5 29t-11.5 21t-16.5 13.5t-14.5 8.5l-6 3q5 22 22.5 34.5t44.5 8.5q29 -4 45 -30t10 -57zM269 -12q-104 0 -168 59t-64 156q0 112 80 192t206 80q81 0 130 -30l57 18l-23 -152h-18l-30 112
q-39 33 -103 33q-91 0 -147.5 -81.5t-56.5 -192.5q0 -81 38.5 -128.5t106.5 -47.5q42 0 70 14l29 153q0 2 -1 3.5t-6 3t-12 2.5t-19 3l-30 5l-1 15h220l-3 -15l-34 -5q-27 -2 -29 -13l-26 -133l40 4l1 -11q-108 -44 -207 -44z" />
    <glyph glyph-name="hcircumflex.smallcap" horiz-adv-x="561" 
d="M197 500l152 194h32l81 -194h-12l-94 116h-3l-146 -116h-10zM-9 0l4 15l31 4q29 4 31 13l78 402q1 3 -1 5t-9.5 4t-22.5 3l-24 4l-1 15h213l-3 -15l-32 -4q-30 -4 -32 -13l-36 -187h211l37 188q1 5 -5 7.5t-28 4.5l-25 4l-1 15h214l-4 -15l-32 -4q-30 -4 -32 -13
l-77 -402q-1 -3 1 -5t9.5 -4t22.5 -3l24 -4l2 -15h-214l4 15l32 4q31 4 32 13l37 195h-211l-38 -196q-1 -3 1 -5t9.5 -4t21.5 -3l26 -4l1 -15h-214z" />
    <glyph glyph-name="hbar.smallcap" horiz-adv-x="561" 
d="M43 323l11 29h65l16 82q1 3 -1.5 5t-9.5 4t-22 4l-24 3l-1 15h213l-3 -15l-32 -4q-30 -4 -32 -13l-16 -81h212l16 82q1 5 -5 7.5t-28 5.5l-24 3l-2 15h214l-4 -15l-32 -4q-30 -4 -32 -13l-16 -81h66l-8 -29h-63l-56 -292q-1 -3 1 -5t9.5 -4t22.5 -3l24 -4l2 -15h-214
l4 15l32 4q31 4 32 13l37 195h-211l-38 -196q-1 -3 1 -5t9.5 -4t21.5 -3l26 -4l1 -15h-214l4 15l31 4q29 4 31 13l56 291h-70zM187 246h211l15 77h-211z" />
    <glyph glyph-name="igrave.smallcap" horiz-adv-x="279" 
d="M-3 0l4 15l34 4q30 4 32 13l77 402q1 3 -1 5t-9.5 4t-22.5 3l-27 4l-2 15h220l-3 -15l-34 -4q-32 -4 -34 -13l-77 -402q-1 -3 1.5 -5t10 -4t22.5 -3l27 -4l2 -15h-220zM234 518l-139 187h90l61 -187h-12z" />
    <glyph glyph-name="iacute.smallcap" horiz-adv-x="279" 
d="M-3 0l4 15l34 4q30 4 32 13l77 402q1 3 -1 5t-9.5 4t-22.5 3l-27 4l-2 15h220l-3 -15l-34 -4q-32 -4 -34 -13l-77 -402q-1 -3 1.5 -5t10 -4t22.5 -3l27 -4l2 -15h-220zM166 518l124 187h97l-209 -187h-12z" />
    <glyph glyph-name="icircumflex.smallcap" horiz-adv-x="279" 
d="M-3 0l4 15l34 4q30 4 32 13l77 402q1 3 -1 5t-9.5 4t-22.5 3l-27 4l-2 15h220l-3 -15l-34 -4q-32 -4 -34 -13l-77 -402q-1 -3 1.5 -5t10 -4t22.5 -3l27 -4l2 -15h-220zM69 510l152 194h32l81 -194h-12l-94 116h-3l-146 -116h-10z" />
    <glyph glyph-name="idieresis.smallcap" horiz-adv-x="279" 
d="M-3 0l4 15l34 4q30 4 32 13l77 402q1 3 -1 5t-9.5 4t-22.5 3l-27 4l-2 15h220l-3 -15l-34 -4q-32 -4 -34 -13l-77 -402q-1 -3 1.5 -5t10 -4t22.5 -3l27 -4l2 -15h-220zM308 541q-25 0 -39.5 17.5t-14.5 37.5q0 21 14.5 39.5t39.5 18.5t39.5 -18.5t14.5 -39.5
q0 -20 -14.5 -37.5t-39.5 -17.5zM122 541q-25 0 -39.5 17.5t-14.5 37.5q0 21 14.5 39.5t39.5 18.5t39.5 -18.5t14.5 -39.5q0 -20 -14.5 -37.5t-39.5 -17.5z" />
    <glyph glyph-name="imacron.smallcap" horiz-adv-x="279" 
d="M-3 0l4 15l34 4q30 4 32 13l77 402q1 3 -1 5t-9.5 4t-22.5 3l-27 4l-2 15h220l-3 -15l-34 -4q-32 -4 -34 -13l-77 -402q-1 -3 1.5 -5t10 -4t22.5 -3l27 -4l2 -15h-220zM76 527l11 30h248l-8 -30h-251z" />
    <glyph glyph-name="ibreve.smallcap" horiz-adv-x="279" 
d="M-3 0l4 15l34 4q30 4 32 13l77 402q1 3 -1 5t-9.5 4t-22.5 3l-27 4l-2 15h220l-3 -15l-34 -4q-32 -4 -34 -13l-77 -402q-1 -3 1.5 -5t10 -4t22.5 -3l27 -4l2 -15h-220zM197 499q-31 0 -51.5 15t-30 44t-13.5 57.5t-4 68.5h12q11 -64 33 -96.5t63 -32.5q40 0 72.5 32
t67.5 97h13q-41 -101 -66 -134q-39 -51 -96 -51z" />
    <glyph glyph-name="iogonek.smallcap" horiz-adv-x="279" 
d="M110 -230q-37 1 -56 25t-17 62q4 83 136 143h-176l4 15l34 4q30 4 32 13l77 402q1 3 -1.5 5t-9.5 4t-22 4l-27 3l-2 15h220l-3 -15l-34 -4q-32 -4 -34 -13l-77 -402q-1 -3 1.5 -5t10 -4t22.5 -3l27 -4l2 -15q-51 -18 -82.5 -52t-32.5 -75q-4 -62 47 -63q26 0 56 20l3 -5
q-15 -23 -41.5 -39.5t-56.5 -15.5z" />
    <glyph glyph-name="idotaccent.smallcap" horiz-adv-x="279" 
d="M-3 0l4 15l34 4q30 4 32 13l77 402q1 3 -1 5t-9.5 4t-22.5 3l-27 4l-2 15h220l-3 -15l-34 -4q-32 -4 -34 -13l-77 -402q-1 -3 1.5 -5t10 -4t22.5 -3l27 -4l2 -15h-220zM217 531q-25 0 -39.5 17.5t-14.5 37.5q0 21 14.5 39.5t39.5 18.5q26 0 40.5 -18.5t14.5 -39.5
q0 -20 -14.5 -37.5t-40.5 -17.5z" />
    <glyph glyph-name="dotlessi.smallcap" horiz-adv-x="279" 
d="M-3 0l4 15l34 4q30 4 32 13l77 402q1 3 -1 5t-9.5 4t-22.5 3l-27 4l-2 15h220l-3 -15l-34 -4q-32 -4 -34 -13l-77 -402q-1 -3 1.5 -5t10 -4t22.5 -3l27 -4l2 -15h-220z" />
    <glyph glyph-name="jcircumflex.smallcap" horiz-adv-x="277" 
d="M-18 -94q-34 0 -53 15.5t-18 37.5q1 20 15.5 33.5t35.5 13.5q33 0 42.5 -29t-13.5 -53q30 -2 52.5 32.5t35.5 105.5l74 372q1 3 -1 5.5t-10 4.5t-22 3l-30 3l-1 15h220l-3 -15l-34 -4q-29 -4 -31 -13l-75 -373q-8 -55 -66.5 -104.5t-117.5 -49.5zM71 489l152 194h32
l81 -194h-12l-94 116h-3l-146 -116h-10z" />
    <glyph glyph-name="jcircumflex.smallcap.alt" horiz-adv-x="369" 
d="M172 489l152 194h32l81 -194h-12l-94 116h-3l-146 -116h-10zM113 -11q-61 0 -93.5 25t-32.5 57q0 25 15 40.5t38 15.5q19 0 32 -12.5t13 -30.5q0 -38 -34 -45q12 -32 62 -32q32 0 51.5 24.5t29.5 81.5l62 321q1 3 -1 5t-10 4t-22 3l-35 4l-2 15h229l-3 -15l-37 -4
q-31 -3 -33 -13l-64 -332q-6 -40 -57.5 -76t-107.5 -36z" />
    <glyph glyph-name="dotlessj.smallcap" horiz-adv-x="277" 
d="M-18 -94q-34 0 -53 15.5t-18 37.5q1 20 15.5 33.5t35.5 13.5q33 0 42.5 -29t-13.5 -53q30 -2 52.5 32.5t35.5 105.5l74 372q1 3 -1 5.5t-10 4.5t-22 3l-30 3l-1 15h220l-3 -15l-34 -4q-29 -4 -31 -13l-75 -373q-8 -55 -66.5 -104.5t-117.5 -49.5z" />
    <glyph glyph-name="kcommaaccent.smallcap" horiz-adv-x="517" 
d="M285 -139q-10 -48 -51.5 -80t-91.5 -44l-15 18q30 8 54.5 27t30.5 48q3 16 -0.5 29t-11.5 21t-16.5 13.5t-14.5 8.5l-6 3q5 22 22.5 34.5t44.5 8.5q29 -4 45 -30t10 -57zM-8 0l3 15l32 4q28 4 30 13l78 402q1 3 -1 5t-9 4t-21 3l-26 4l-1 15h218l-4 -15l-36 -4
q-30 -4 -32 -13l-43 -221l132 114q104 88 99 109q-3 11 -36 14l-21 2l-2 14h196l-4 -14l-18 -2q-32 -3 -56.5 -19t-95.5 -75q-18 -15 -28 -23l-35 -30l99 -228q14 -36 24 -45.5t30 -11.5l20 -2l1 -15h-210l3 15l17 3q22 1 24 14t-12 53l-67 157l-16 -14l-32 -26l-16 -14
l-30 -157q-1 -3 1 -5t9.5 -4t21.5 -3l29 -4l2 -15h-217z" />
    <glyph glyph-name="lacute.smallcap" horiz-adv-x="442" 
d="M146 497l124 187h97l-209 -187h-12zM-9 0l4 15l32 4q28 4 30 13l78 402q1 3 -1 5t-9 4t-21 3l-26 4l-1 15h223l-3 -15l-42 -4q-30 -3 -32 -13l-79 -414l52 -2q71 0 107 26t75 94l13 27h18l-46 -164h-372z" />
    <glyph glyph-name="lcommaaccent.smallcap" horiz-adv-x="442" 
d="M254 -139q-10 -48 -51.5 -80t-91.5 -44l-15 18q30 8 54.5 27t30.5 48q3 16 -0.5 29t-11.5 21t-16.5 13.5t-14.5 8.5l-6 3q5 22 22.5 34.5t44.5 8.5q29 -4 45 -30t10 -57zM-9 0l4 15l32 4q28 4 30 13l78 402q1 3 -1 5t-9 4t-21 3l-26 4l-1 15h223l-3 -15l-42 -4
q-30 -3 -32 -13l-79 -414l52 -2q71 0 107 26t75 94l13 27h18l-46 -164h-372z" />
    <glyph glyph-name="lcaron.smallcap" horiz-adv-x="615" 
d="M443 231l-9 9q44 17 76 48.5t32 67.5q0 15 -7.5 27.5t-17.5 19.5t-20.5 12t-18 7t-7.5 3q3 20 20 35.5t42 15.5q32 0 54 -23.5t22 -58.5q0 -53 -46 -97.5t-120 -65.5zM-9 0l4 15l32 4q28 4 30 13l78 402q1 3 -1 5t-9 4t-21 3l-26 4l-1 15h223l-3 -15l-42 -4
q-30 -3 -32 -13l-79 -414l52 -2q71 0 107 26t75 94l13 27h18l-46 -164h-372z" />
    <glyph glyph-name="ldotaccent.smallcap" horiz-adv-x="592" 
d="M532 171q-26 0 -44 18.5t-18 43.5t18 42.5t44 17.5t43.5 -18t17.5 -42q0 -25 -17.5 -43.5t-43.5 -18.5zM-9 0l4 15l32 4q28 4 30 13l78 402q1 3 -1 5t-9 4t-21 3l-26 4l-1 15h223l-3 -15l-42 -4q-30 -3 -32 -13l-79 -414l52 -2q71 0 107 26t75 94l13 27h18l-46 -164h-372
z" />
    <glyph glyph-name="lslash.smallcap" horiz-adv-x="441" 
d="M97 201l-19 -5q-20 -6 -39 -12l-19 -5l3 21l78 23l41 211q1 3 -1 5t-9.5 4t-22.5 3l-29 4l-1 15h228l-3 -15l-43 -4q-30 -3 -32 -13l-35 -183l83 25l-1 -21l-86 -25l-40 -210l52 -2q71 0 107 26t76 94l13 27h18l-48 -164h-375l4 15l36 4q29 4 31 13z" />
    <glyph glyph-name="ntilde.smallcap" horiz-adv-x="532" 
d="M354 -5l-223 401h-4l-62 -315q-5 -36 3.5 -48.5t39.5 -14.5l21 -3l1 -15h-165l3 15l21 3q27 2 39.5 15t18.5 50l63 313q-13 42 -52 50l-16 4l-1 15h156l187 -341h4l50 260q6 35 -3 47.5t-40 15.5l-20 3l-2 15h166l-4 -15l-21 -3q-27 -2 -39.5 -15.5t-18.5 -50.5l-77 -386
h-25zM382 525q-33 0 -88 32.5t-72 32.5q-20 0 -31.5 -10.5t-21.5 -46.5h-13q14 60 34 85.5t57 25.5q33 0 88 -32.5t72 -32.5q20 0 31.5 11t22.5 46h14q-15 -59 -35.5 -85t-57.5 -26z" />
    <glyph glyph-name="nacute.smallcap" horiz-adv-x="532" 
d="M311 497l124 187h97l-209 -187h-12zM385 -5l-223 401h-4l-62 -315q-5 -36 3.5 -48.5t39.5 -14.5l21 -3l1 -15h-165l3 15l21 3q27 2 39.5 15t18.5 50l63 313q-13 42 -52 50l-16 4l-1 15h156l187 -341h4l50 260q6 35 -3 47.5t-40 15.5l-20 3l-2 15h166l-4 -15l-21 -3
q-27 -2 -39.5 -15.5t-18.5 -50.5l-77 -386h-25z" />
    <glyph glyph-name="ncommaaccent.smallcap" horiz-adv-x="532" 
d="M296 -139q-10 -48 -51.5 -80t-91.5 -44l-15 18q30 8 54.5 27t30.5 48q3 16 -0.5 29t-11.5 21t-16.5 13.5t-14.5 8.5l-6 3q5 22 22.5 34.5t44.5 8.5q29 -4 45 -30t10 -57zM385 -5l-223 401h-4l-62 -315q-5 -36 3.5 -48.5t39.5 -14.5l21 -3l1 -15h-165l3 15l21 3
q27 2 39.5 15t18.5 50l63 313q-13 42 -52 50l-16 4l-1 15h156l187 -341h4l50 260q6 35 -3 47.5t-40 15.5l-20 3l-2 15h166l-4 -15l-21 -3q-27 -2 -39.5 -15.5t-18.5 -50.5l-77 -386h-25z" />
    <glyph glyph-name="ncaron.smallcap" horiz-adv-x="532" 
d="M326 489l-81 194h12l95 -116h3l144 116h11l-153 -194h-31zM385 -5l-223 401h-4l-62 -315q-5 -36 3.5 -48.5t39.5 -14.5l21 -3l1 -15h-165l3 15l21 3q27 2 39.5 15t18.5 50l63 313q-13 42 -52 50l-16 4l-1 15h156l187 -341h4l50 260q6 35 -3 47.5t-40 15.5l-20 3l-2 15
h166l-4 -15l-21 -3q-27 -2 -39.5 -15.5t-18.5 -50.5l-77 -386h-25z" />
    <glyph glyph-name="ograve.smallcap" horiz-adv-x="547" 
d="M268 -10q-101 0 -164 63.5t-63 157.5q0 105 73.5 184t187.5 79q101 0 164.5 -65t63.5 -159q0 -106 -74.5 -183t-187.5 -77zM261 7q52 0 94 44.5t63 110t21 135.5q0 72 -34.5 115.5t-95.5 43.5q-54 0 -96 -48t-62 -114t-20 -131q0 -71 34.5 -113.5t95.5 -42.5zM349 518
l-139 187h90l61 -187h-12z" />
    <glyph glyph-name="oacute.smallcap" horiz-adv-x="547" 
d="M268 -10q-101 0 -164 63.5t-63 157.5q0 105 73.5 184t187.5 79q101 0 164.5 -65t63.5 -159q0 -106 -74.5 -183t-187.5 -77zM261 7q52 0 94 44.5t63 110t21 135.5q0 72 -34.5 115.5t-95.5 43.5q-54 0 -96 -48t-62 -114t-20 -131q0 -71 34.5 -113.5t95.5 -42.5zM288 518
l124 187h97l-209 -187h-12z" />
    <glyph glyph-name="ocircumflex.smallcap" horiz-adv-x="547" 
d="M268 -10q-101 0 -164 63.5t-63 157.5q0 105 73.5 184t187.5 79q101 0 164.5 -65t63.5 -159q0 -106 -74.5 -183t-187.5 -77zM261 7q52 0 94 44.5t63 110t21 135.5q0 72 -34.5 115.5t-95.5 43.5q-54 0 -96 -48t-62 -114t-20 -131q0 -71 34.5 -113.5t95.5 -42.5zM191 510
l152 194h32l81 -194h-12l-94 116h-3l-146 -116h-10z" />
    <glyph glyph-name="otilde.smallcap" horiz-adv-x="547" 
d="M268 -10q-101 0 -164 63.5t-63 157.5q0 105 73.5 184t187.5 79q101 0 164.5 -65t63.5 -159q0 -106 -74.5 -183t-187.5 -77zM261 7q52 0 94 44.5t63 110t21 135.5q0 72 -34.5 115.5t-95.5 43.5q-54 0 -96 -48t-62 -114t-20 -131q0 -71 34.5 -113.5t95.5 -42.5zM408 525
q-33 0 -88 32.5t-72 32.5q-20 0 -31.5 -10.5t-21.5 -46.5h-13q14 60 34 85.5t57 25.5q33 0 88 -32.5t72 -32.5q20 0 31.5 11t22.5 46h14q-15 -59 -35.5 -85t-57.5 -26z" />
    <glyph glyph-name="odieresis.smallcap" horiz-adv-x="547" 
d="M268 -10q-101 0 -164 63.5t-63 157.5q0 105 73.5 184t187.5 79q101 0 164.5 -65t63.5 -159q0 -106 -74.5 -183t-187.5 -77zM261 7q52 0 94 44.5t63 110t21 135.5q0 72 -34.5 115.5t-95.5 43.5q-54 0 -96 -48t-62 -114t-20 -131q0 -71 34.5 -113.5t95.5 -42.5zM438 541
q-25 0 -39.5 17.5t-14.5 37.5q0 21 14.5 39.5t39.5 18.5t39.5 -18.5t14.5 -39.5q0 -20 -14.5 -37.5t-39.5 -17.5zM252 541q-25 0 -39.5 17.5t-14.5 37.5q0 21 14.5 39.5t39.5 18.5t39.5 -18.5t14.5 -39.5q0 -20 -14.5 -37.5t-39.5 -17.5z" />
    <glyph glyph-name="omacron.smallcap" horiz-adv-x="547" 
d="M196 527l11 30h248l-8 -30h-251zM268 -10q-101 0 -164 63.5t-63 157.5q0 105 73.5 184t187.5 79q101 0 164.5 -65t63.5 -159q0 -106 -74.5 -183t-187.5 -77zM261 7q52 0 94 44.5t63 110t21 135.5q0 72 -34.5 115.5t-95.5 43.5q-54 0 -96 -48t-62 -114t-20 -131
q0 -71 34.5 -113.5t95.5 -42.5z" />
    <glyph glyph-name="obreve.smallcap" horiz-adv-x="547" 
d="M268 -10q-101 0 -164 63.5t-63 157.5q0 105 73.5 184t187.5 79q101 0 164.5 -65t63.5 -159q0 -106 -74.5 -183t-187.5 -77zM261 7q52 0 94 44.5t63 110t21 135.5q0 72 -34.5 115.5t-95.5 43.5q-54 0 -96 -48t-62 -114t-20 -131q0 -71 34.5 -113.5t95.5 -42.5zM320 497
q-31 0 -51.5 15t-30 44t-13.5 57.5t-4 68.5h12q11 -64 33 -96.5t63 -32.5q40 0 72.5 32t67.5 97h13q-41 -101 -66 -134q-39 -51 -96 -51z" />
    <glyph glyph-name="ohungarumlaut.smallcap" horiz-adv-x="547" 
d="M351 497l124 187h86l-198 -187h-12zM199 497l124 187h86l-198 -187h-12zM268 -10q-101 0 -164 63.5t-63 157.5q0 105 73.5 184t187.5 79q101 0 164.5 -65t63.5 -159q0 -106 -74.5 -183t-187.5 -77zM261 7q52 0 94 44.5t63 110t21 135.5q0 72 -34.5 115.5t-95.5 43.5
q-54 0 -96 -48t-62 -114t-20 -131q0 -71 34.5 -113.5t95.5 -42.5z" />
    <glyph glyph-name="oslash.smallcap" horiz-adv-x="547" 
d="M446 427q40 -30 62 -76.5t22 -100.5q0 -106 -74.5 -183t-187.5 -77q-74 0 -129 36l-62 -81h-21l69 90q-84 63 -84 176q0 105 73.5 184t187.5 79q74 0 130 -37l58 75h21zM152 70l257 336q-34 50 -100 50q-54 0 -96 -48t-62 -114t-20 -131q0 -55 21 -93zM418 391l-257 -336
q35 -48 100 -48q52 0 94 44.5t63 110t21 135.5q0 57 -21 94z" />
    <glyph glyph-name="oslashacute.smallcap" horiz-adv-x="547" 
d="M446 427q40 -30 62 -76.5t22 -100.5q0 -106 -74.5 -183t-187.5 -77q-74 0 -129 36l-62 -81h-21l69 90q-84 63 -84 176q0 105 73.5 184t187.5 79q74 0 130 -37l58 75h21zM152 70l257 336q-34 50 -100 50q-54 0 -96 -48t-62 -114t-20 -131q0 -55 21 -93zM418 391l-257 -336
q35 -48 100 -48q52 0 94 44.5t63 110t21 135.5q0 57 -21 94zM308 496l124 187h97l-209 -187h-12z" />
    <glyph glyph-name="oe.smallcap" horiz-adv-x="731" 
d="M276 0q-121 -1 -181.5 63t-50.5 160q10 102 93 172t212 70h359l-2 -150h-18l-4 25q-13 63 -44 86t-107 22l-40 -1l-38 -202l32 1q48 3 69.5 13.5t35.5 39.5l10 25l16 -1l-39 -173h-14l1 24q1 31 -15.5 41t-71.5 14l-27 2l-40 -212l67 -2q75 1 113 26.5t76 84.5l12 24h19
l-47 -152h-376zM292 18h32l79 414l-50 16q-90 2 -146.5 -64t-65.5 -170q-8 -86 28.5 -141t122.5 -55z" />
    <glyph glyph-name="thorn.smallcap" 
d="M-11 0l3 15l38 5q30 3 32 13l77 401q1 3 -1 5t-9.5 4t-21.5 3l-32 4l-1 15h226l-3 -16l-37 -4q-32 -3 -34 -13l-11 -59h53q84 0 128 -33.5t44 -85.5q0 -61 -55 -100t-136 -38q-43 0 -81 9l-18 -94q-1 -3 1 -5t10 -4t22 -3l36 -4l2 -15h-232zM231 133q51 0 83 40t32 95
q0 39 -22.5 63t-61.5 25h-51l-39 -213q30 -10 59 -10z" />
    <glyph glyph-name="racute.smallcap" horiz-adv-x="488" 
d="M231 497l124 187h97l-209 -187h-12zM-13 0l3 15l36 4q29 5 31 13l78 402q1 3 -1 5t-9.5 4t-22.5 3l-29 4l-1 15h211q84 0 131 -32t47 -83t-40 -84t-106 -39l67 -147q16 -34 29 -46.5t38 -16.5l11 -2l3 -15h-147l-89 226q-3 1 -19.5 5.5t-20.5 6.5l-41 -207q0 -3 3.5 -5.5
t11 -4t17.5 -2.5l31 -4l1 -15h-223zM254 243q50 1 82 32.5t32 82.5q0 40 -26.5 65t-73.5 25h-42l-37 -192q32 -13 65 -13z" />
    <glyph glyph-name="rcommaaccent.smallcap" horiz-adv-x="488" 
d="M294 -146q-10 -48 -51.5 -80t-91.5 -44l-15 18q30 8 54.5 27t30.5 48q3 16 -0.5 29t-11.5 21t-16.5 13.5t-14.5 8.5l-6 3q5 22 22.5 34.5t44.5 8.5q29 -4 45 -30t10 -57zM-13 0l3 15l36 4q29 5 31 13l78 402q1 3 -1 5t-9.5 4t-22.5 3l-29 4l-1 15h211q84 0 131 -32
t47 -83t-40 -84t-106 -39l67 -147q16 -34 29 -46.5t38 -16.5l11 -2l3 -15h-147l-89 226q-3 1 -19.5 5.5t-20.5 6.5l-41 -207q0 -3 3.5 -5.5t11 -4t17.5 -2.5l31 -4l1 -15h-223zM254 243q50 1 82 32.5t32 82.5q0 40 -26.5 65t-73.5 25h-42l-37 -192q32 -13 65 -13z" />
    <glyph glyph-name="rcaron.smallcap" horiz-adv-x="488" 
d="M255 496l-81 194h12l95 -116h3l144 116h11l-153 -194h-31zM-13 0l3 15l36 4q29 5 31 13l78 402q1 3 -1 5t-9.5 4t-22.5 3l-29 4l-1 15h211q84 0 131 -32t47 -83t-40 -84t-106 -39l67 -147q16 -34 29 -46.5t38 -16.5l11 -2l3 -15h-147l-89 226q-3 1 -19.5 5.5t-20.5 6.5
l-41 -207q0 -3 3.5 -5.5t11 -4t17.5 -2.5l31 -4l1 -15h-223zM254 243q50 1 82 32.5t32 82.5q0 40 -26.5 65t-73.5 25h-42l-37 -192q32 -13 65 -13z" />
    <glyph glyph-name="sacute.smallcap" horiz-adv-x="396" 
d="M168 497l124 187h97l-209 -187h-12zM176 -10q-89 0 -161 37l15 125l15 -1l18 -70q33 -73 113 -73q47 0 76 28.5t29 68.5q0 32 -24.5 55.5t-69.5 45.5q-115 59 -115 134q0 54 43.5 94t117.5 40q51 0 116 -24l38 9l-22 -135h-15l-32 103q-37 29 -81 29q-40 0 -65.5 -22
t-25.5 -56q0 -31 23.5 -53.5t70.5 -46.5q56 -30 87 -61.5t31 -76.5q0 -59 -50.5 -104.5t-131.5 -45.5z" />
    <glyph glyph-name="scircumflex.smallcap" horiz-adv-x="396" 
d="M113 489l152 194h32l81 -194h-12l-94 116h-3l-146 -116h-10zM176 -10q-89 0 -161 37l15 125l15 -1l18 -70q33 -73 113 -73q47 0 76 28.5t29 68.5q0 32 -24.5 55.5t-69.5 45.5q-115 59 -115 134q0 54 43.5 94t117.5 40q51 0 116 -24l38 9l-22 -135h-15l-32 103
q-37 29 -81 29q-40 0 -65.5 -22t-25.5 -56q0 -31 23.5 -53.5t70.5 -46.5q56 -30 87 -61.5t31 -76.5q0 -59 -50.5 -104.5t-131.5 -45.5z" />
    </font>
</defs>
</svg>
