<?xml version="1.0" standalone="no"?>
<!DOCTYPE svg PUBLIC "-//W3C//DTD SVG 1.1//EN" "http://www.w3.org/Graphics/SVG/1.1/DTD/svg11.dtd" >
<svg xmlns="http://www.w3.org/2000/svg" xmlns:xlink="http://www.w3.org/1999/xlink" version="1.1">
<metadata>
Created by FontForge 20170731 at Thu Oct 22 09:40:40 2009
 By Aleksey,,,
Copyright (c) 2005-2009, Joshua Darden &#38; Phil's Fonts, Inc. All rights reserved. Published by Garagefonts USA 301-879-9222 www.garagefonts.com
</metadata>
<defs>
<font id="FreightDispProBold-Regular" horiz-adv-x="750" >
  <font-face 
    font-family="FreightDisp Pro Bold"
    font-weight="700"
    font-stretch="normal"
    units-per-em="1000"
    panose-1="2 0 8 3 9 0 0 2 0 4"
    ascent="800"
    descent="-200"
    x-height="435"
    cap-height="625"
    bbox="-203 -294 1375 979"
    underline-thickness="20"
    underline-position="-206"
    unicode-range="U+0020-FB04"
  />
<missing-glyph horiz-adv-x="500" 
 />
    <glyph glyph-name="ff" unicode="ff" horiz-adv-x="611" 
d="M407 583q31 41 79 64.5t100 23.5q45 0 68.5 -17.5t23.5 -44.5q0 -23 -16.5 -39t-39.5 -16q-54 0 -71 78l-1 7l-21 4q-27 -12 -37.5 -45t-10.5 -103v-61h128l-14 -53h-114v-348q0 -14 47 -16l36 -1l3 -16h-259l3 16l19 1q23 2 30 5t7 12v349h-168v-349q0 -13 39 -16l31 -2
l3 -16h-250l3 16l22 2q21 2 29 5t8 12v346l-79 3l18 50l60 -1l2 29q8 97 75.5 149t155.5 52q42 0 67.5 -18t25.5 -47q0 -5 -2 -15zM390 556q-16 -13 -37 -13q-30 0 -49.5 23.5t-24.5 65.5l-23 5q-30 -11 -43.5 -45.5t-13.5 -103.5v-54l166 -1l3 45q3 41 22 78z" />
    <glyph glyph-name="fi" unicode="fi" horiz-adv-x="560" 
d="M22 0l3 16l20 1q22 2 30.5 5t8.5 12v346l-79 4l18 49h60l3 41q4 62 41.5 109t92 70.5t115.5 23.5q47 0 77 -20.5t30 -53.5q0 -25 -17.5 -42.5t-42.5 -17.5q-32 0 -53.5 26.5t-26.5 68.5l-36 9q-67 -27 -67 -159v-55h203l78 14v-414q0 -7 8.5 -10t38.5 -6l14 -1l3 -16
h-237l2 16l20 1q23 2 30 5t7 12v349h-167v-350q0 -7 7.5 -10.5t33.5 -5.5l28 -1l3 -16h-249z" />
    <glyph glyph-name="fl" unicode="fl" horiz-adv-x="556" 
d="M408 654l72 25v-646q0 -7 8 -9.5t39 -6.5l14 -1l3 -16h-237l3 16l16 1q23 2 31.5 5.5t8.5 11.5v349h-167v-350q0 -7 7.5 -10.5t33.5 -5.5l28 -1l3 -16h-249l3 16l20 1q22 2 30.5 5t8.5 12v346l-79 3l18 50h60l3 41q6 92 78 147.5t165 55.5q51 0 79 -23zM366 433v123
q-29 4 -48 26.5t-22 55.5l-34 9q-63 -25 -63 -159v-55h167z" />
    <glyph glyph-name="ffi" unicode="ffi" horiz-adv-x="842" 
d="M404 574q34 49 92 76t122 27q47 0 77 -20.5t30 -53.5q0 -25 -18 -42.5t-42 -17.5q-33 0 -54 26.5t-27 68.5l-35 9q-68 -26 -68 -159v-54h203l78 13v-414q0 -7 8.5 -10t38.5 -6l15 -1l3 -16h-237l3 17l19 1q21 2 28.5 5t7.5 12v348h-167v-350q0 -7 8 -10.5t34 -5.5l29 -1
l2 -16h-246l3 16l19 1q23 2 30 5t7 12v349h-168v-349q0 -13 39 -16l31 -2l3 -16h-250l3 16l22 2q21 2 29 5t8 12v346l-79 3l18 50l60 -1l2 29q8 97 75.5 149t155.5 52q42 0 67.5 -18t25.5 -47q0 -12 -5 -24zM397 564q-18 -21 -45 -21q-29 0 -48.5 25.5t-24.5 63.5l-23 5
q-30 -11 -43.5 -45.5t-13.5 -103.5v-54l166 -1l3 41q5 50 29 90z" />
    <glyph glyph-name="ffl" unicode="ffl" horiz-adv-x="839" 
d="M692 654l70 25v-646q0 -7 8 -9.5t39 -6.5l14 -1l3 -16h-236l3 16l18 1q23 1 30 4.5t7 12.5v349h-167v-350q0 -7 8 -10.5t34 -5.5l29 -1l2 -16h-246l3 16l19 1q23 2 30 5t7 12v349h-168v-349q0 -13 39 -16l31 -2l3 -16h-250l3 16l22 2q21 2 29 5t8 12v346l-79 3l18 50
l60 -1l2 29q8 97 75.5 149t155.5 52q42 0 67.5 -18t25.5 -47q0 -13 -4 -21q33 47 89.5 73.5t119.5 26.5q49 0 78 -23zM648 434v122q-28 5 -46 27.5t-22 54.5l-35 9q-64 -25 -64 -162v-51h167zM395 562q-17 -19 -43 -19q-61 0 -73 89l-23 5q-30 -11 -43.5 -45.5t-13.5 -103.5
v-54l166 -1l3 41q3 46 27 88z" />
    <glyph glyph-name=".notdef" horiz-adv-x="500" 
 />
    <glyph glyph-name=".null" horiz-adv-x="0" 
 />
    <glyph glyph-name="nonmarkingreturn" horiz-adv-x="333" 
 />
    <glyph glyph-name="space" unicode=" " horiz-adv-x="180" 
 />
    <glyph glyph-name="exclam" unicode="!" horiz-adv-x="277" 
d="M132 195l-57 382q-5 28 8.5 45t54.5 17h3q41 0 54 -17t9 -45l-57 -382q-2 -5 -7.5 -5t-7.5 5zM139 -14q-28 0 -48 20t-20 48q0 27 20 46.5t48 19.5q29 0 48.5 -19.5t19.5 -46.5q0 -28 -19.5 -48t-48.5 -20z" />
    <glyph glyph-name="quotedbl" unicode="&#x22;" horiz-adv-x="354" 
d="M173 403l107 242h1l77 -31l-168 -211h-17zM1 403l107 242h2l77 -31l-169 -211h-17z" />
    <glyph glyph-name="numbersign" unicode="#" horiz-adv-x="521" 
d="M75 -5l51 193h-134v20h139l55 207h-135v20h140l52 197h23l-53 -197h161l52 197h23l-52 -197h134v-20h-140l-54 -207h134v-20h-139l-51 -193h-23l51 193h-160l-52 -193h-22zM153 208h162l54 207h-161z" />
    <glyph glyph-name="dollar" unicode="$" horiz-adv-x="501" 
d="M157 -8q-61 7 -112 26l-11 171h25l55 -121q24 -24 53 -38l62 238q-2 0 -6 2q-88 31 -133 70t-45 111q0 77 61 131.5t157 54.5q35 0 62 -4l28 105h22q-28 -109 -29 -109q22 -3 55 -13l44 14l2 -184h-22l-72 143l-15 8l-54 -208q98 -34 148 -77t50 -123q0 -81 -67.5 -141.5
t-171.5 -60.5q-22 0 -64 2l-39 -150h-23zM187 21q31 -11 61 -11q59 0 95 33t36 85q0 51 -32.5 79.5t-96.5 52.5zM318 604q-32 10 -61 10q-50 0 -81.5 -28.5t-31.5 -70.5q0 -45 30 -71t89 -47q3 13 9 34.5t18 67t20 75.5z" />
    <glyph glyph-name="percent" unicode="%" horiz-adv-x="594" 
d="M147 365q-61 0 -98.5 40t-37.5 98t37.5 99t98.5 41q62 0 100 -41t38 -99t-38 -98t-100 -40zM58 -14l452 654h24l-451 -654h-25zM446 -17q-62 0 -99 40t-37 98q0 59 37 99.5t99 40.5t99.5 -41t37.5 -99t-37.5 -98t-99.5 -40zM147 386q52 0 83.5 34t31.5 83
q0 50 -31.5 84.5t-83.5 34.5q-51 0 -82 -34.5t-31 -84.5t31 -83.5t82 -33.5zM446 4q51 0 82.5 33.5t31.5 84.5q0 49 -31.5 83.5t-82.5 34.5t-82 -34.5t-31 -83.5q0 -51 31 -84.5t82 -33.5z" />
    <glyph glyph-name="ampersand" unicode="&#x26;" horiz-adv-x="725" 
d="M203 -14q-85 0 -136.5 50t-51.5 123q0 70 47.5 120.5t124.5 73.5q-44 21 -70.5 56.5t-26.5 78.5q0 61 58 105t131 44q74 0 122.5 -33t48.5 -82q0 -46 -36.5 -77.5t-92.5 -43.5q46 -22 96.5 -72.5t79.5 -100.5q68 90 69 123q4 20 -13 31.5t-53 15.5l-15 3l-3 16h250
l-3 -16l-18 -3q-35 -3 -60.5 -21t-61.5 -66l-81 -103q40 -86 70.5 -119.5t72.5 -33.5t78 36l10 -10q-26 -27 -44 -43.5t-51.5 -34t-66.5 -17.5q-56 0 -93 31.5t-65 97.5q-111 -129 -216 -129zM304 409q44 29 44 104q0 42 -20.5 73.5t-57.5 31.5q-34 0 -55 -25.5t-21 -64.5
q0 -75 110 -119zM268 67q79 0 143 67q-66 154 -207 211q-78 -51 -78 -139q-1 -59 40 -99t102 -40z" />
    <glyph glyph-name="quotesingle" unicode="'" horiz-adv-x="184" 
d="M1 403l107 242h2l77 -31l-169 -211h-17z" />
    <glyph glyph-name="parenleft" unicode="(" horiz-adv-x="340" 
d="M326 -267q-43 23 -86.5 63.5t-84.5 97.5t-66.5 136.5t-25.5 165.5t25.5 165.5t66.5 137t84.5 97.5t86.5 63l12 -18q-42 -22 -83.5 -62t-80 -95.5t-62.5 -131.5t-24 -156q0 -82 24 -157.5t62.5 -131t80 -95t83.5 -62.5z" />
    <glyph glyph-name="parenright" unicode=")" horiz-adv-x="340" 
d="M14 -267l-12 17q42 23 83.5 62.5t79.5 95t62 131t24 157.5q0 154 -78 274.5t-171 170.5l12 18q43 -23 86.5 -63t84.5 -97.5t66.5 -137t25.5 -165.5t-25.5 -165.5t-66.5 -136.5t-84.5 -97.5t-86.5 -63.5z" />
    <glyph glyph-name="asterisk" unicode="*" horiz-adv-x="325" 
d="M209 308l-56 32l5 122q0 1 -2 2.5t-3.5 2t-2.5 -0.5l-60 -103l-66 3q-4 0 -8 7l13 65l116 32q1 2 1 6t-1 5l-116 34l-13 64q0 1 3 4t4 3l67 4l59 -104q1 -2 5 -1t4 2l-5 124l57 31q3 3 9 -3l25 -57l-80 -96l4 -8h1l115 45l48 -43q1 -2 1 -6t-1 -4l-48 -43l-115 46
q-1 0 -3.5 -4t-1.5 -6l79 -94l-25 -57q-1 -1 -3 -2l-4 -2h-2z" />
    <glyph glyph-name="plus" unicode="+" horiz-adv-x="448" 
d="M211 25v198h-198l3 26h195v198h26v-198h195l3 -26h-198v-198h-26z" />
    <glyph glyph-name="comma" unicode="," horiz-adv-x="209" 
d="M40 -144l-11 11q87 48 87 120q0 41 -33 59.5t-57 6.5q-9 27 11.5 54.5t59.5 27.5q41 0 67 -27.5t26 -68.5q0 -51 -42 -102.5t-108 -80.5z" />
    <glyph glyph-name="hyphen" unicode="-" horiz-adv-x="296" 
d="M23 214l3 46h248l-2 -46h-249z" />
    <glyph glyph-name="period" unicode="." horiz-adv-x="220" 
d="M110 -13q-30 0 -50.5 21t-20.5 50q0 28 20.5 48.5t50.5 20.5q29 0 49.5 -20.5t20.5 -48.5q0 -29 -20 -50t-50 -21z" />
    <glyph glyph-name="slash" unicode="/" horiz-adv-x="258" 
d="M12 -231l212 877h23l-211 -877h-24z" />
    <glyph glyph-name="zero" unicode="0" horiz-adv-x="572" 
d="M282 -13q-109 0 -179.5 70.5t-70.5 180.5t74.5 182t183.5 72q108 0 179 -70.5t71 -180.5t-74 -182t-184 -72zM286 10q58 0 95 64t37 159q0 111 -35 173.5t-98 62.5q-58 0 -94.5 -63t-36.5 -157q0 -117 34 -178t98 -61z" />
    <glyph glyph-name="one" unicode="1" horiz-adv-x="360" 
d="M50 0l3 17l36 4q39 3 39 18v386l-98 12l3 15l212 37v-452q0 -13 46 -16l34 -4l3 -17h-278z" />
    <glyph glyph-name="two" unicode="2" horiz-adv-x="476" 
d="M26 0l-5 40q146 110 195 161t49 110q0 45 -29 74t-73 29q-77 0 -122 -79l-12 6q29 71 82.5 110.5t121.5 39.5q63 0 105.5 -37t42.5 -92q0 -16 -3 -30t-12 -29t-16.5 -26.5t-25 -28t-29 -27t-37 -29.5t-40.5 -30t-48.5 -35t-51.5 -37v-3h197q47 0 70.5 20.5t49.5 79.5
l10 21l17 -2l-39 -206h-397z" />
    <glyph glyph-name="three" unicode="3" horiz-adv-x="433" 
d="M148 -201q-62 0 -101 24t-39 60q0 23 16.5 39t39.5 16q37 0 59 -33.5t18 -75.5q15 -5 30 -5q52 0 89 43.5t37 110.5q0 68 -38.5 110.5t-100.5 42.5q-35 0 -84 -20l-6 17q110 63 137 86q49 43 49 96q0 46 -29.5 75.5t-75.5 29.5q-81 0 -120 -80l-12 6q27 71 79.5 110.5
t119.5 39.5q66 0 108.5 -36.5t42.5 -89.5q0 -54 -37 -90t-108 -74v-2q84 -1 135 -49.5t51 -122.5q0 -91 -76.5 -159.5t-183.5 -68.5z" />
    <glyph glyph-name="four" unicode="4" horiz-adv-x="509" 
d="M274 -184v192h-261l-2 18l318 456h55v-398h118l-19 -76h-99v-192h-110zM76 84h198v280h-2z" />
    <glyph glyph-name="five" unicode="5" horiz-adv-x="421" 
d="M125 -200q-138 0 -138 83q0 24 16.5 40.5t41.5 16.5q34 0 54 -32t17 -72q22 -10 45 -10q50 0 85 41t35 104q0 79 -63 127t-183 63l80 314h278l-17 -105h-264l-28 -111q152 -20 223.5 -79.5t71.5 -146.5q0 -94 -78 -163.5t-176 -69.5z" />
    <glyph glyph-name="six" unicode="6" horiz-adv-x="529" 
d="M266 -14q-104 0 -170 72.5t-66 180.5q0 168 132 288t328 135l4 -17q-132 -20 -215.5 -106t-112.5 -197l2 -2q71 58 150 58t130 -51.5t51 -137.5q0 -96 -67.5 -159.5t-165.5 -63.5zM278 8q48 0 74 45t26 126q0 79 -35 124.5t-91 45.5q-49 0 -85 -34q-10 -22 -10 -81
q0 -101 30.5 -163.5t90.5 -62.5z" />
    <glyph glyph-name="seven" unicode="7" horiz-adv-x="463" 
d="M79 -184l309 559v3h-159q-103 0 -134.5 -12t-42.5 -56l-10 -24h-18l23 190h400l3 -18l-279 -642h-92z" />
    <glyph glyph-name="eight" unicode="8" horiz-adv-x="507" 
d="M254 -15q-96 0 -159 46.5t-63 119.5q1 50 41.5 89t104.5 55v1q-132 63 -132 160q0 73 55.5 128.5t150.5 55.5q90 0 149 -43t58 -112q0 -46 -37 -80t-98 -53v-1q71 -32 111.5 -73t40.5 -103q0 -78 -62.5 -134t-159.5 -56zM303 360q50 38 50 116q0 59 -30 102.5t-79 43.5
q-45 0 -71.5 -32t-26.5 -76q0 -52 39 -86.5t118 -67.5zM263 6q52 0 83 31.5t31 78.5q1 57 -45.5 95.5t-132.5 74.5q-57 -39 -59 -129q0 -59 35 -105t88 -46z" />
    <glyph glyph-name="nine" unicode="9" horiz-adv-x="529" 
d="M38 -183l-4 17q132 20 215.5 106.5t111.5 197.5l-2 1q-69 -58 -149 -58t-131 51.5t-51 138.5q0 96 69 159t165 63q105 0 170 -72.5t65 -179.5q0 -168 -131.5 -288t-327.5 -136zM276 131q49 0 84 33q10 24 10 83q0 43 -6.5 82t-20.5 71.5t-38 51.5t-55 19q-45 0 -73 -44.5
t-28 -124.5q0 -77 35 -124t92 -47z" />
    <glyph glyph-name="colon" unicode=":" horiz-adv-x="218" 
d="M110 286q-30 0 -50.5 21t-20.5 50q0 27 20.5 47.5t50.5 20.5t50 -20.5t20 -47.5q0 -29 -20 -50t-50 -21zM110 -12q-30 0 -50.5 20.5t-20.5 49.5q0 27 20.5 47.5t50.5 20.5t50 -20t20 -48q0 -29 -20 -49.5t-50 -20.5z" />
    <glyph glyph-name="semicolon" unicode=";" horiz-adv-x="209" 
d="M105 286q-29 0 -50 20.5t-21 49.5q0 28 21 48.5t50 20.5t49.5 -20.5t20.5 -48.5q0 -29 -20 -49.5t-50 -20.5zM40 -143l-11 11q87 48 87 119q0 41 -33 59t-57 7q-9 26 11.5 54t59.5 28q41 0 67 -27.5t26 -67.5q0 -52 -41.5 -102.5t-108.5 -80.5z" />
    <glyph glyph-name="less" unicode="&#x3c;" horiz-adv-x="438" 
d="M411 32l-400 194v18l400 194l10 -24l-370 -177l1 -1q66 -32 191.5 -93.5t177.5 -86.5z" />
    <glyph glyph-name="equal" unicode="=" horiz-adv-x="448" 
d="M27 309l-3 26h400l-3 -26h-394zM24 136l3 26h394l3 -26h-400z" />
    <glyph glyph-name="greater" unicode="&#x3e;" horiz-adv-x="438" 
d="M427 226l-400 -194l-10 24l369 179v1q-60 29 -185 89t-184 89l10 24l400 -194v-18z" />
    <glyph glyph-name="question" unicode="?" horiz-adv-x="343" 
d="M155 181q-33 24 -58 57.5t-25 59.5q0 39 28.5 60.5t89.5 41.5q53 19 74 32t21 31q0 31 -41.5 53t-109.5 22q-30 0 -80 -10q-23 18 -25 51q-1 28 18.5 44t61.5 16q85 0 143.5 -62.5t58.5 -141.5q0 -55 -20 -80t-71 -46q-67 -26 -79 -38q-10 -9 -10 -23q0 -26 41 -65z
M160 -13q-28 0 -48 20t-20 47t20 46.5t48 19.5t47.5 -19.5t19.5 -46.5t-19.5 -47t-47.5 -20z" />
    <glyph glyph-name="at" unicode="@" horiz-adv-x="798" 
d="M400 -116q-162 0 -266.5 101t-103.5 259q2 166 118 285t280 118q149 -1 246 -91.5t96 -231.5q-1 -112 -71 -193t-162 -81q-53 0 -82.5 24.5t-27.5 60.5q0 35 25 97h-5q-58 -94 -95.5 -135.5t-79.5 -41.5q-40 0 -68.5 28t-29.5 70q0 58 38 127.5t93 121.5q66 67 128 67
q30 0 46.5 -27.5t15.5 -67.5h4l40 110l94 -3l-64 -167l-42 -133q-27 -83 61 -83q60 0 110.5 66t51.5 160q1 133 -90 218t-233 86q-101 0 -187.5 -52t-137 -140.5t-51.5 -191.5q-1 -150 97.5 -245.5t252.5 -95.5q83 0 155 39.5t109 99.5l10 -14q-41 -63 -115 -103.5
t-160 -40.5zM318 120q24 0 59 41t74 112q27 51 27 71q-4 27 -28 52.5t-49 25.5q-18 0 -34 -16q-30 -28 -60 -102t-30 -125q0 -27 12 -43t29 -16z" />
    <glyph glyph-name="A" unicode="A" horiz-adv-x="649" 
d="M178 250l-28 -82q-12 -36 -17.5 -53t-9 -36.5t-1.5 -27t9.5 -15.5t19.5 -11t33 -5l23 -3l3 -17h-223l3 17l19 3q32 5 48 18t33.5 49.5t51.5 130.5l114 317l-8 34q25 7 53.5 29t37.5 44h18l178 -520q21 -60 37 -79.5t46 -21.5l30 -4l3 -17h-310l3 17l29 3q35 3 39.5 23
t-13.5 72l-44 135h-177zM348 272l-76 235h-4l-82 -235h162z" />
    <glyph glyph-name="B" unicode="B" horiz-adv-x="611" 
d="M22 0l3 16l37 4q44 6 44 18v552q0 6 -9 8.5t-43 6.5l-28 3l-3 17h269q258 0 258 -139q0 -55 -46.5 -91.5t-133.5 -50.5v-3q98 -7 154 -52t56 -114q0 -81 -70.5 -128t-209.5 -47h-278zM289 19l13 2q62 3 101.5 45t39.5 104q0 70 -48 112.5t-121 42.5q-32 0 -38 -2v-289z
M236 344h33q67 0 106.5 35t39.5 95q0 63 -39 96t-110 33h-30v-259z" />
    <glyph glyph-name="C" unicode="C" horiz-adv-x="693" 
d="M391 -13q-161 0 -260 88t-99 231q0 146 100 239.5t267 93.5q92 0 158 -34l72 21l5 -207h-25l-84 167q-46 30 -125 30q-106 0 -166.5 -84t-60.5 -217q0 -138 63 -222t162 -84q120 0 189 112l37 87h27l-30 -186h-43q-30 -13 -84.5 -24t-102.5 -11z" />
    <glyph glyph-name="D" unicode="D" horiz-adv-x="697" 
d="M22 0l3 16l37 4q44 6 44 18v552q0 6 -9.5 9t-42.5 6l-28 4l-3 16q18 0 48 0.5t93 0.5t104.5 0.5t39.5 0.5q172 1 265.5 -81t93.5 -224q0 -136 -102 -229t-270 -93h-273zM304 20q105 1 163.5 81t58.5 199q0 142 -61 223t-182 81h-47v-567z" />
    <glyph glyph-name="E" unicode="E" horiz-adv-x="619" 
d="M22 0l3 16l36 4q45 6 45 18v552q0 6 -9.5 9t-42.5 6l-28 4l-3 16h521l7 -205h-26l-9 33q-24 87 -69 119.5t-144 31.5l-67 -1v-274l37 1q60 2 89 18t42 57l11 32h21l-25 -240l-20 1l-4 31q-4 44 -28 60t-93 19l-30 1v-285l83 -3q98 1 148.5 38.5t79.5 115.5l10 30h26
l-26 -205h-535z" />
    <glyph glyph-name="F" unicode="F" horiz-adv-x="583" 
d="M22 0l3 16l38 4q43 5 43 18v552q0 6 -9 9t-42 6l-29 4l-3 16h519l7 -197h-25l-10 33q-29 83 -72 113t-140 30l-66 -1v-280l38 1q61 2 90 17.5t41 55.5l12 33h20l-25 -240l-20 1l-3 31q-4 45 -28.5 61.5t-93.5 17.5l-31 1v-267q0 -12 50 -15l46 -4l3 -16h-313z" />
    <glyph glyph-name="G" unicode="G" horiz-adv-x="722" 
d="M385 -16q-160 0 -256.5 90.5t-96.5 232.5q0 146 100 239t267 93q45 0 91 -10t70 -23l71 20l2 -206h-26l-81 165q-45 32 -129 32q-104 0 -163.5 -84.5t-59.5 -216.5q0 -145 63.5 -227.5t155.5 -82.5q63 0 107 28v206q0 12 -59 16l-36 3l-3 17h305l-3 -17l-41 -4
q-39 -4 -39 -15v-181l58 5l2 -12q-61 -28 -146 -48t-153 -20z" />
    <glyph glyph-name="H" unicode="H" 
d="M22 0l3 16l37 4q44 6 44 18v552q0 6 -9.5 9t-42.5 6l-28 4l-3 16h296l-3 -16l-37 -4q-44 -5 -44 -18v-258h280v261q0 6 -9 9t-42 6l-29 4l-3 16h296l-3 -16l-37 -4q-43 -6 -43 -18v-552q0 -6 9 -9t42 -6l28 -4l3 -16h-296l3 16l38 4q43 6 43 18v269h-280v-272q0 -6 9 -9
t42 -6l29 -4l3 -16h-296z" />
    <glyph glyph-name="I" unicode="I" horiz-adv-x="365" 
d="M30 0l3 16l41 4q44 4 44 18v552q0 6 -9.5 9t-42.5 6l-33 4l-3 16h305l-3 -16l-41 -4q-44 -4 -44 -18v-552q0 -6 9.5 -9t41.5 -6l33 -4l3 -16h-304z" />
    <glyph glyph-name="J" unicode="J" horiz-adv-x="364" 
d="M23 -149q-45 0 -73.5 21t-28.5 53q0 27 18.5 45t47.5 18q42 0 59.5 -38t-5.5 -76q83 6 83 202v514q0 12 -51 15l-36 4l-3 16h306l-3 -16l-39 -4q-44 -5 -44 -18v-494q0 -81 -74 -161.5t-157 -80.5z" />
    <glyph glyph-name="K" unicode="K" horiz-adv-x="692" 
d="M22 0l3 16l38 4q43 5 43 18v552q0 6 -9 9t-42 6l-29 4l-3 16h301l-3 -16l-42 -4q-44 -4 -44 -18v-300l156 160q102 104 95 133q-5 19 -55 25l-31 4l-2 16h268l-3 -16l-27 -4q-46 -5 -77.5 -29.5t-128.5 -123.5l-40 -39l193 -312q30 -51 46.5 -65t45.5 -17l19 -3l3 -16
h-292l2 16l20 4q16 2 23.5 6t7 15.5t-8.5 29t-26 48.5l-122 205l-66 -66v-223q0 -6 9.5 -9t42.5 -6l33 -4l3 -16h-301z" />
    <glyph glyph-name="L" unicode="L" horiz-adv-x="577" 
d="M22 0l3 16l38 5q43 4 43 17v551q0 12 -51 16l-29 4l-3 16h308l-3 -16l-49 -5q-44 -3 -44 -17v-563l57 -4q90 0 134 36.5t86 131.5l12 33h26l-29 -221h-499z" />
    <glyph glyph-name="M" unicode="M" horiz-adv-x="857" 
d="M15 0l3 16l29 3q39 3 52 20.5t15 69.5l13 455q-18 34 -61 40l-36 4l-3 17h240l160 -450h3l163 450h241l-3 -17l-54 -4q-40 -3 -40 -21l11 -496q1 -40 9.5 -51.5t39.5 -14.5l36 -5l3 -16h-307l3 16l49 5q21 2 28.5 16t6.5 52l-12 485h-4l-210 -568h-33l-198 545
q-1 3 -5.5 7t-4.5 5l-11 -460q-2 -48 11.5 -64.5t59.5 -19.5l29 -3l3 -16h-226z" />
    <glyph glyph-name="N" unicode="N" horiz-adv-x="709" 
d="M566 -6l-425 527h-3l1 -415q0 -49 15 -65.5t59 -20.5l30 -4l3 -16h-226l3 16l28 4q36 3 49.5 22t13.5 69l3 423q-34 59 -87 69l-21 6l-3 16h223l348 -437h3l-1 330q0 49 -15 66t-59 21l-29 4l-3 16h225l-3 -16l-28 -4q-36 -3 -49.5 -22t-13.5 -70l-3 -519h-35z" />
    <glyph glyph-name="O" unicode="O" horiz-adv-x="746" 
d="M368 -14q-148 0 -242 90t-94 234q0 134 102 231t244 97q148 0 242 -90t94 -235q0 -134 -102 -230.5t-244 -96.5zM376 8q93 0 144 76.5t51 225.5q0 143 -55 224.5t-146 81.5q-94 0 -145.5 -77t-51.5 -225q0 -144 55 -225t148 -81z" />
    <glyph glyph-name="P" unicode="P" horiz-adv-x="592" 
d="M17 0l3 16l42 4q44 6 44 18v552q0 6 -9.5 9t-42.5 6l-33 4l-3 16h287q130 0 196 -40.5t66 -116.5q0 -84 -74.5 -133t-195.5 -49q-38 0 -61 4v-255q0 -12 50 -15l44 -4l3 -16h-316zM294 306q60 0 97 40.5t37 106.5q0 152 -141 152l-51 -1v-291q37 -7 58 -7z" />
    <glyph glyph-name="Q" unicode="Q" horiz-adv-x="745" 
d="M606 -181q-99 0 -162.5 37t-108.5 132q-136 10 -219.5 99.5t-83.5 222.5q0 132 102.5 229.5t243.5 97.5q149 0 242.5 -91.5t93.5 -232.5q0 -102 -64.5 -186t-165.5 -118q46 -102 107.5 -133.5t170.5 -18.5l3 -15q-69 -23 -159 -23zM376 7q93 0 144 77t51 226
q0 143 -55 224.5t-146 81.5q-94 0 -145.5 -77.5t-51.5 -226.5q0 -144 55 -224.5t148 -80.5z" />
    <glyph glyph-name="R" unicode="R" horiz-adv-x="668" 
d="M17 0l3 16l42 4q44 5 44 18v552q0 6 -9.5 9t-42.5 6l-33 4l-3 16l298 1q254 0 254 -158q0 -58 -40.5 -100t-110.5 -59l130 -205q31 -49 49.5 -65t50.5 -20l16 -3l4 -16h-210l-18 35l-149 265q-1 0 -25 4.5t-31 7.5v-277q0 -11 50 -15l36 -4l3 -16h-308zM289 324
q68 2 105.5 38t37.5 102q0 67 -41 104.5t-115 36.5l-40 -1v-272q32 -8 53 -8z" />
    <glyph glyph-name="S" unicode="S" horiz-adv-x="525" 
d="M249 -13q-104 -1 -198 33l-11 170h24l42 -99q54 -82 149 -82q62 1 96.5 34t34.5 87q0 56 -38 85.5t-116 56.5q-87 31 -132.5 70t-45.5 111q0 77 59.5 131t155.5 54q62 0 138 -21l44 14l3 -185h-22l-72 144q-42 26 -95 26q-51 0 -82.5 -28.5t-31.5 -70.5q0 -26 10.5 -46
t33 -34.5t44 -24t57.5 -22.5q94 -33 141.5 -76t47.5 -122q0 -83 -66 -144t-170 -61z" />
    <glyph glyph-name="T" unicode="T" horiz-adv-x="664" 
d="M174 0l3 16l47 4q43 4 43 18v567h-24q-120 -5 -178 -138l-11 -36h-27l26 194h566l13 -193h-24l-11 35q-55 137 -174 138h-26v-570q0 -6 9.5 -9t41.5 -6l39 -4l3 -16h-316z" />
    <glyph glyph-name="U" unicode="U" horiz-adv-x="701" 
d="M360 -17q-131 0 -195 52.5t-64 164.5v391q0 11 -50 14l-34 4l-3 16h305l-3 -16l-42 -4q-43 -4 -43 -17v-358q0 -194 173 -194q176 0 176 205l-1 277q0 49 -15 66t-59 21l-30 4l-3 16h226l-3 -16l-28 -4q-36 -3 -49.5 -22t-13.5 -70l-2 -278q-2 -252 -242 -252z" />
    <glyph glyph-name="V" unicode="V" horiz-adv-x="654" 
d="M307 -7l-200 515q-26 63 -39 78.5t-43 17.5l-31 5l-2 16h305l-2 -16l-35 -3q-40 -2 -43 -18t19 -71l144 -374h6l110 301q16 44 22.5 67.5t9.5 43.5t-5 28.5t-21 14t-39 8.5l-22 3l-3 16h226l-3 -16l-19 -4q-43 -5 -63.5 -33t-62.5 -143l-165 -436h-44z" />
    <glyph glyph-name="W" unicode="W" horiz-adv-x="984" 
d="M295 -11l-194 519q-23 60 -36.5 76.5t-43.5 19.5l-29 4l-3 17h306l-3 -17l-35 -2q-35 -2 -39.5 -17t11.5 -59l138 -386h4l119 315l-17 49q-21 57 -35.5 75.5t-42.5 20.5l-33 4l-3 17h310l-3 -17l-34 -2q-36 -2 -41.5 -17t11.5 -62l129 -378h4l99 283q16 46 22.5 70t10 46
t-4.5 31.5t-22 16t-41 9.5l-25 3l-3 17h230l-3 -17l-18 -3q-44 -7 -62.5 -34t-59.5 -141l-158 -441h-39l-156 439h-3l-167 -439h-40z" />
    <glyph glyph-name="X" unicode="X" horiz-adv-x="654" 
d="M-3 0l3 16l31 5q37 4 63 30t84 106l96 131l-142 215q-48 75 -63 88q-13 10 -29 12l-35 6l-4 16h308l-2 -16l-32 -3q-22 -2 -29.5 -10t-1 -27t28.5 -53l83 -133h2l61 89q38 55 48.5 81t0 36.5t-46.5 15.5l-26 4l-3 16h236l-3 -16l-28 -5q-39 -4 -67 -30.5t-89 -110.5
l-70 -97l174 -268q30 -46 43.5 -60.5t34.5 -16.5l28 -5l4 -16h-302l2 16l32 3q33 2 36.5 18.5t-19.5 50.5l-117 183h-2l-19 -29l-38 -56l-20 -29q-37 -52 -47.5 -80.5t0.5 -40.5t45 -16l26 -4l3 -16h-238z" />
    <glyph glyph-name="Y" unicode="Y" horiz-adv-x="635" 
d="M160 0l3 16l47 4q43 4 43 18v238l-144 252q-26 43 -41.5 57.5t-43.5 18.5l-23 4l-3 17h302l-3 -17l-22 -2q-39 -4 -44.5 -21t17.5 -55l118 -214h4l79 146q24 45 34.5 69t9 41t-14.5 23t-42 10l-23 3l-3 17h225l-3 -17l-25 -4q-36 -6 -60.5 -31.5t-71.5 -112.5l-92 -165
v-260q0 -6 9.5 -9t41.5 -6l38 -4l3 -16h-315z" />
    <glyph glyph-name="Z" unicode="Z" horiz-adv-x="603" 
d="M32 0v17l377 583v3h-96q-98 0 -147.5 -35.5t-76.5 -112.5l-8 -30h-25l9 200h497v-18l-384 -581v-3l105 -2q77 -2 125.5 17t75.5 53.5t55 101.5l11 31h26l-29 -224h-515z" />
    <glyph glyph-name="bracketleft" unicode="[" horiz-adv-x="325" 
d="M64 -235v872h249v-21h-224v-830h224v-21h-249z" />
    <glyph glyph-name="backslash" unicode="\" horiz-adv-x="246" 
d="M209 -231l-212 877h24l211 -877h-23z" />
    <glyph glyph-name="bracketright" unicode="]" horiz-adv-x="325" 
d="M11 -235v21h224v830h-224v21h249v-872h-249z" />
    <glyph glyph-name="asciicircum" unicode="^" horiz-adv-x="379" 
d="M44 491l136 197h19l136 -197h-15l-129 98h-2l-131 -98h-14z" />
    <glyph glyph-name="underscore" unicode="_" horiz-adv-x="453" 
d="M11 -36l3 36h426l3 -36h-432z" />
    <glyph glyph-name="grave" unicode="`" horiz-adv-x="400" 
d="M242 498l-203 185h121l99 -185h-17z" />
    <glyph glyph-name="a" unicode="a" horiz-adv-x="462" 
d="M354 -13q-34 0 -55.5 22t-25.5 63l-2 1q-36 -41 -68 -63t-68 -22q-45 0 -77 29.5t-32 72.5q0 57 56.5 96t192.5 73l1 26q2 63 -24.5 96t-74.5 33q-26 0 -45 -8t-19 -16q0 -1 14 -21t14 -37q0 -21 -16.5 -36.5t-41.5 -15.5t-41.5 13.5t-16.5 34.5q0 46 73.5 84t145.5 38
q83 0 117 -38t30 -130l-8 -180q-3 -52 33 -52q15 0 43 28l10 -10q-63 -81 -115 -81zM200 58q36 0 70 34l6 149q-78 -20 -108 -47t-30 -66q0 -32 17.5 -51t44.5 -19z" />
    <glyph glyph-name="b" unicode="b" horiz-adv-x="527" 
d="M54 -21v578q0 27 -6.5 37t-27.5 16l-31 11l1 12l177 47v-320l4 -1q70 86 153 86q76 0 127.5 -61t51.5 -152q0 -112 -72.5 -179t-168.5 -67q-59 0 -132 29h-1l-67 -36h-8zM278 7q46 0 73 53.5t27 136.5q0 78 -33 127.5t-87 49.5q-47 0 -91 -40v-240q22 -38 51.5 -62.5
t59.5 -24.5z" />
    <glyph glyph-name="c" unicode="c" horiz-adv-x="441" 
d="M232 -15q-90 0 -149 62.5t-59 157.5q0 105 67.5 175t172.5 70q69 0 113 -28t44 -72q0 -27 -17.5 -44t-42.5 -17q-28 0 -45.5 21.5t-15.5 50.5q0 12 9 27t9 16q-2 9 -18 16.5t-35 7.5q-52 0 -85 -49t-33 -132q0 -87 39.5 -137.5t106.5 -50.5q80 0 124 74l12 -6
q-63 -142 -197 -142z" />
    <glyph glyph-name="d" unicode="d" horiz-adv-x="537" 
d="M358 -15v87l-2 1q-69 -87 -152 -87q-77 0 -128.5 61.5t-51.5 154.5q0 111 72.5 177t170.5 66q53 0 90 -15q1 -1 1 0v136q0 27 -6.5 38t-26.5 15l-41 11l2 11l186 38v-594q0 -26 5 -34.5t20 -13.5l41 -10l-2 -12zM270 56q47 0 88 41v241q-21 38 -50 61.5t-57 23.5
q-48 0 -75.5 -53t-27.5 -135q0 -78 33.5 -128.5t88.5 -50.5z" />
    <glyph glyph-name="e" unicode="e" horiz-adv-x="456" 
d="M232 -15q-89 0 -148.5 63t-59.5 159q0 104 67 174t168 70q79 0 124 -42t45 -104q0 -15 -3 -28q-259 2 -278 4q-2 -10 -2 -38q0 -82 41.5 -133t107.5 -51q81 0 127 74l12 -6q-63 -142 -201 -142zM148 298l168 1q1 55 -16.5 92.5t-53.5 37.5t-63.5 -36.5t-34.5 -94.5z" />
    <glyph glyph-name="f" unicode="f" horiz-adv-x="329" 
d="M22 0l3 16l20 1q22 2 30.5 5t8.5 12v345l-79 2l18 52h60l2 46q6 86 71 140t146 54q46 0 70 -17.5t24 -44.5q0 -23 -17 -39t-41 -16q-52 0 -70 78l-2 6l-20 4q-27 -12 -37 -44.5t-10 -103.5v-63h127l-14 -52h-113v-348q0 -7 8.5 -11t37.5 -5l36 -1l3 -16h-262z" />
    <glyph glyph-name="g" unicode="g" horiz-adv-x="482" 
d="M191 -245q-88 0 -134 27t-46 77q0 67 117 111v2q-44 5 -73.5 30t-29.5 57q0 37 32 65t76 40l1 2q-92 35 -92 128q0 64 52.5 109.5t131.5 45.5q68 0 121 -33l136 17l-8 -59l-99 15l-1 -4q35 -33 35 -81q0 -66 -53.5 -109t-135.5 -43q-34 0 -64 7q-22 -5 -35.5 -18
t-13.5 -30q0 -39 76 -39q16 0 62.5 1.5t65.5 1.5q68 0 108.5 -34t40.5 -91q0 -82 -76 -138.5t-194 -56.5zM225 170q75 0 75 125q0 135 -75 135q-71 0 -71 -127q0 -64 19 -98.5t52 -34.5zM243 -218q62 0 101.5 31.5t39.5 77.5q0 38 -27 57.5t-86 22.5q-25 2 -120 -4
q-23 -9 -37 -31.5t-14 -51.5q0 -45 39.5 -73.5t103.5 -28.5z" />
    <glyph glyph-name="h" unicode="h" horiz-adv-x="538" 
d="M10 0l3 16l17 1q23 2 31 5t8 12v522q0 27 -6 37t-26 16l-32 11l2 12l178 47v-313l2 -1q101 84 169 84q47 0 81 -32q33 -34 33 -112v-271q0 -12 49 -17l14 -1l3 -16h-237l3 16l19 1q35 2 35 17v244q0 52 -20.5 73.5t-62.5 21.5q-47 0 -89 -30v-310q0 -13 43 -16l18 -1
l3 -16h-238z" />
    <glyph glyph-name="i" unicode="i" horiz-adv-x="273" 
d="M130 516q-32 0 -51.5 21.5t-19.5 49.5t19.5 49.5t51.5 21.5q33 0 52.5 -21.5t19.5 -49.5t-19.5 -49.5t-52.5 -21.5zM20 0l3 16l17 1q23 2 31.5 5t8.5 12v269q0 45 -7.5 58.5t-34.5 20.5l-21 5l1 12l177 49v-415q0 -7 8.5 -10t38.5 -6l14 -1l3 -16h-239z" />
    <glyph glyph-name="j" unicode="j" horiz-adv-x="262" 
d="M128 516q-33 0 -52.5 21.5t-19.5 49.5t19.5 49.5t52.5 21.5q32 0 51 -21.5t19 -49.5t-19 -49.5t-51 -21.5zM-11 -255q-38 0 -60.5 18t-22.5 46q0 24 17 40t41 16q33 0 50.5 -27.5t10.5 -59.5q52 7 52 160v365q0 44 -8 58t-34 21l-22 5l1 12l177 49v-469
q-2 -81 -68 -157.5t-134 -76.5z" />
    <glyph glyph-name="k" unicode="k" horiz-adv-x="518" 
d="M12 0l3 16l16 1q24 3 31 6t7 11v522q0 27 -6 37t-26 16l-32 11l2 12l178 47v-467l66 61q90 84 90 112q0 15 -12 22.5t-44 10.5l-12 1l-2 16h225l-3 -16l-18 -3q-34 -4 -64.5 -25t-90.5 -79l-3 -3t-6 -5.5t-6 -5.5l-2 -3l125 -214q22 -37 35 -48.5t36 -14.5l15 -2l3 -16
h-179l-19 38l-100 180l-34 -31v-154q0 -7 8 -10t37 -6l17 -1l2 -16h-237z" />
    <glyph glyph-name="l" unicode="l" horiz-adv-x="267" 
d="M18 0l3 16l17 1q22 2 29.5 5t7.5 12v510q0 35 -6 47t-27 18l-30 11l1 12l178 47v-646q0 -7 8 -10t35 -6l16 -1l3 -16h-235z" />
    <glyph glyph-name="m" unicode="m" horiz-adv-x="814" 
d="M19 0l3 16l17 1q23 2 31.5 5t8.5 12v268q0 46 -7.5 59.5t-34.5 20.5l-21 5l1 12l178 49l-2 -83h3q90 84 160 84q47 0 81 -32q19 -21 27 -54l3 -1q89 87 165 87q47 0 81 -32q33 -34 33 -127v-256q0 -4 2 -6.5t13 -5.5t33 -5l14 -1l3 -16h-237l3 16l19 1q36 2 36 17v242
q0 53 -20.5 75t-62.5 22q-24 0 -47 -10.5t-31 -24.5l-1 -18v-20v-267q0 -6 7.5 -9t36.5 -7l16 -1l3 -16h-234l3 16l18 1q36 2 36 17v242q0 53 -20.5 75t-61.5 22q-39 0 -80 -29v-311q0 -7 7.5 -10.5t35.5 -5.5l17 -1l3 -16h-238z" />
    <glyph glyph-name="n" unicode="n" horiz-adv-x="548" 
d="M19 0l3 16l17 1q23 2 31.5 5t8.5 12v268q0 46 -7.5 59.5t-34.5 20.5l-21 5l1 12l178 49l-2 -83h3q101 84 170 84q48 0 80 -32q34 -34 34 -112v-271q0 -12 48 -17l14 -1l3 -16h-236l3 16l18 1q36 2 36 17v242q0 53 -21 75t-63 22q-46 0 -88 -30v-310q0 -7 8 -10.5t34 -5.5
l19 -1l2 -16h-238z" />
    <glyph glyph-name="o" unicode="o" horiz-adv-x="526" 
d="M259 -14q-106 0 -170.5 66t-64.5 165q0 98 69 165.5t175 67.5q105 0 170 -65.5t65 -162.5q0 -100 -69 -168t-175 -68zM263 6q51 0 81 56.5t30 144.5q0 146 -50 196q-26 26 -62 26q-52 0 -81.5 -55.5t-29.5 -142.5q0 -148 49 -199q24 -26 63 -26z" />
    <glyph glyph-name="p" unicode="p" horiz-adv-x="538" 
d="M2 -251l3 16l21 2q16 1 23.5 2.5t12 4.5t4.5 9v520q0 44 -8 58t-34 21l-22 5l1 12l178 49l-1 -88l3 -1q72 86 153 86q77 0 128 -61t51 -152q0 -112 -72 -179t-167 -67q-53 0 -94 16h-2v-221q0 -13 47 -14l35 -2l3 -16h-263zM290 7q46 0 73 53.5t27 136.5q0 77 -33 126.5
t-88 49.5q-48 0 -89 -39v-241q22 -39 51.5 -62.5t58.5 -23.5z" />
    <glyph glyph-name="q" unicode="q" horiz-adv-x="531" 
d="M274 -251l3 16l36 2q45 1 45 14v291l-2 1q-69 -87 -152 -87q-77 0 -128.5 61.5t-51.5 154.5q0 113 72 178t171 65q69 0 130 -29h1l67 37h7v-671q0 -12 42 -15l19 -2l3 -16h-262zM270 56q47 0 88 41v240q-21 38 -50 62t-57 24q-48 0 -75.5 -52t-27.5 -134
q0 -78 33.5 -129.5t88.5 -51.5z" />
    <glyph glyph-name="r" unicode="r" horiz-adv-x="406" 
d="M20 0l3 16l16 1q23 2 31.5 5t8.5 12v268q0 46 -7.5 59.5t-34.5 20.5l-21 5l1 12l178 49l-2 -148h3q27 74 59 111.5t76 37.5q31 0 51.5 -18.5t20.5 -49.5q0 -24 -17.5 -43.5t-43.5 -19.5q-53 0 -67 58q-46 -13 -81 -123v-220q0 -7 9.5 -10.5t38.5 -5.5l26 -1l3 -16h-251z
" />
    <glyph glyph-name="s" unicode="s" horiz-adv-x="393" 
d="M181 -14q-84 0 -147 25l-6 128l24 -1l25 -57q45 -75 110 -75q39 0 62.5 21t23.5 55q0 33 -27 52.5t-80 39.5q-31 12 -50.5 22t-40 26t-30.5 38.5t-10 51.5q0 61 45.5 99t119.5 38q53 0 99 -16l41 10l5 -135l-23 -1l-60 100q-32 22 -64 22q-35 0 -55 -18.5t-20 -50.5
t24.5 -49t80.5 -38q32 -13 51.5 -22.5t42 -26t33 -40t10.5 -53.5q0 -60 -48 -102.5t-136 -42.5z" />
    <glyph glyph-name="t" unicode="t" horiz-adv-x="356" 
d="M198 -13q-123 0 -120 132l5 259l-81 2l15 34l72 55l89 70l17 -2l-1 -103h153l-13 -53h-141l-5 -243q-1 -46 18 -67t58 -21q45 0 83 29l4 -12q-75 -80 -153 -80z" />
    <glyph glyph-name="u" unicode="u" horiz-adv-x="528" 
d="M349 -16l1 87h-2q-95 -85 -169 -85q-43 0 -80 34q-34 35 -32 112l1 271q0 6 -8 8.5t-41 6.5l-16 1l-3 16h184l-3 -277q-1 -52 20.5 -73.5t64.5 -21.5q44 0 83 29v298q0 15 -8.5 20.5t-38.5 7.5l-18 1l-4 16h183v-339q0 -25 5 -34t20 -14l41 -10l-2 -11z" />
    <glyph glyph-name="v" unicode="v" horiz-adv-x="481" 
d="M220 -10l-157 375q-12 30 -21.5 39t-31.5 12l-18 3l-4 16h252l-2 -16l-21 -3q-25 -2 -31.5 -12t1.5 -33l101 -253l73 192q22 62 15.5 81t-46.5 24l-21 4l-3 16h181l-3 -16l-19 -3q-29 -4 -41 -21t-41 -90l-122 -315h-41z" />
    <glyph glyph-name="w" unicode="w" horiz-adv-x="743" 
d="M209 -10l-144 368q-14 35 -23.5 45.5t-32.5 12.5l-18 3l-2 16h244l-2 -16l-21 -3q-23 -2 -29 -11t3 -32l95 -257l81 208l-16 43q-11 27 -22 36.5t-32 12.5l-18 3l-3 16h245l-2 -16l-21 -3q-24 -3 -29 -12.5t3 -30.5l96 -254l63 186q21 59 14 81.5t-49 28.5l-18 4l-3 16
h180l-3 -16l-18 -4q-30 -3 -42 -21t-37 -90l-110 -314h-42l-124 306l-121 -306h-42z" />
    <glyph glyph-name="x" unicode="x" horiz-adv-x="488" 
d="M-1 0l3 16l22 4q30 6 50.5 23.5t63.5 73.5l61 77l-104 154q-25 36 -41.5 51t-35.5 17l-16 3l-3 16h251l-3 -16l-19 -3q-23 -3 -23 -17t19 -42l57 -87h1l42 57q26 36 33 53.5t-1 25.5t-35 10l-16 3l-3 16h182l-3 -16l-24 -5q-29 -5 -50 -23.5t-63 -72.5l-50 -64l113 -167
q41 -62 73 -68l16 -3l3 -16h-248l3 16l17 3q24 2 25 16.5t-18 40.5l-67 102h-1l-52 -70q-38 -51 -37.5 -68.5t38.5 -21.5l18 -2l3 -16h-181z" />
    <glyph glyph-name="y" unicode="y" horiz-adv-x="480" 
d="M102 -258q-28 0 -49 17t-21 45q0 23 16.5 40t41.5 17q51 0 65 -52q17 4 28.5 22.5t24.5 57.5l34 97h-9l-170 379q-14 30 -23 38.5t-32 11.5l-18 4l-3 16h250l-3 -16l-20 -3q-25 -3 -31 -13t4 -32l105 -247l68 188q21 61 15 79t-48 24l-20 4l-3 16h181l-3 -16l-20 -3
q-29 -3 -41 -20.5t-39 -89.5l-111 -295l-45 -137q-23 -68 -52 -100t-72 -32z" />
    <glyph glyph-name="z" unicode="z" horiz-adv-x="454" 
d="M21 0v14l262 401l-44 -1q-72 -2 -104 -24t-54 -74l-20 -50h-21v169h378v-15l-265 -399h48q77 1 120 29t70 80l21 41h21l-34 -171h-378z" />
    <glyph glyph-name="braceleft" unicode="{" horiz-adv-x="329" 
d="M313 -253q-98 6 -160.5 51t-62.5 111q0 39 25.5 107t25.5 93q0 39 -30.5 56.5t-101.5 23.5l-5 13l5 13q67 7 99.5 24t32.5 56q0 25 -25.5 93t-25.5 107q0 65 62.5 110t160.5 52l1 -15q-129 -16 -129 -97q0 -30 25.5 -101t25.5 -110q0 -111 -184 -130v-5q184 -19 184 -130
q0 -38 -25.5 -109t-25.5 -102q0 -80 129 -96z" />
    <glyph glyph-name="bar" unicode="|" horiz-adv-x="190" 
d="M84 -207v877h22v-877h-22z" />
    <glyph glyph-name="braceright" unicode="}" horiz-adv-x="329" 
d="M7 -253l-2 15q129 16 129 96q0 31 -25.5 102t-25.5 109q0 111 184 130v5q-184 19 -184 130q0 39 25.5 110t25.5 101q0 81 -129 97l2 15q97 -7 159.5 -52t62.5 -110q0 -39 -25.5 -107t-25.5 -93q0 -39 33 -56t100 -24l4 -13l-4 -13q-71 -6 -102 -23.5t-31 -56.5
q0 -25 25.5 -93t25.5 -107q0 -66 -62.5 -111t-159.5 -51z" />
    <glyph glyph-name="asciitilde" unicode="~" horiz-adv-x="393" 
d="M273 154q-33 0 -96.5 32.5t-82.5 32.5q-18 0 -28 -11t-15 -45h-18q7 70 26.5 98.5t60.5 28.5q33 0 96 -32.5t82 -32.5q18 0 28.5 11t16.5 45h16q-6 -70 -25.5 -98.5t-60.5 -28.5z" />
    <glyph glyph-name="nbspace" unicode="&#xa0;" horiz-adv-x="139" 
 />
    <glyph glyph-name="exclamdown" unicode="&#xa1;" horiz-adv-x="277" 
d="M139 503q-28 0 -48 19.5t-20 46.5t20 47.5t48 20.5t48 -20.5t20 -47.5t-20 -46.5t-48 -19.5zM138 -16q-40 0 -53.5 17t-9.5 45l56 382q1 5 7 5t8 -5l55 -382q9 -62 -61 -62h-2z" />
    <glyph glyph-name="cent" unicode="&#xa2;" horiz-adv-x="439" 
d="M159 -159l38 147q-77 13 -125 74t-48 146q0 104 68 173.5t172 69.5q20 0 54 -6l44 168h22l-47 -173q39 -11 61.5 -35t22.5 -55q0 -25 -16.5 -42.5t-39.5 -17.5q-42 0 -56 40l-69 -258q26 -13 54 -13q78 0 124 74l12 -5q-63 -143 -197 -143q-10 0 -15 1l-39 -145h-20z
M221 81l89 333q-23 15 -45 15q-52 0 -85 -49.5t-33 -132.5q0 -118 74 -166z" />
    <glyph glyph-name="sterling" unicode="&#xa3;" horiz-adv-x="550" 
d="M172 287h-111l3 21h100q-19 59 -19 93q0 99 72 164t181 65q59 0 91 -22.5t32 -64.5q0 -24 -18.5 -42t-44.5 -18q-40 0 -55 38t6 72q-15 15 -45 15q-43 0 -71 -34.5t-28 -103.5q0 -20 7.5 -76.5t9.5 -85.5h130l3 -21h-131q1 -11 1 -35q0 -61 -36 -130q122 -42 169 -42
q45 0 66.5 24t30.5 90l14 -3q1 -85 -40.5 -145.5t-109.5 -60.5q-76 0 -179 64q-57 -64 -120 -64q-35 0 -57.5 20t-22.5 52q0 40 32.5 66.5t88.5 26.5q37 0 87 -15q1 5 1 16q0 39 -37 136zM180 62q-67 45 -102 45q-27 0 -43 -14t-16 -38t17.5 -38t44.5 -14q26 0 53 16.5
t46 42.5z" />
    <glyph glyph-name="currency" unicode="&#xa4;" horiz-adv-x="448" 
d="M78 197l-16 16l57 57q-33 38 -33 89t33 89l-57 57l16 16l57 -57q40 33 89 33t89 -33l57 57l16 -16l-57 -57q33 -40 33 -89t-33 -89l57 -57l-16 -16l-57 57q-38 -33 -89 -33t-89 33zM110 359q0 -47 33.5 -80.5t80.5 -33.5t80.5 33.5t33.5 80.5t-33.5 80.5t-80.5 33.5
t-80.5 -33.5t-33.5 -80.5z" />
    <glyph glyph-name="yen" unicode="&#xa5;" horiz-adv-x="621" 
d="M154 0l3 17l51 6q40 4 40 18v114h-182l3 21h180v107h-181l-1 22h171l-32 56q-33 56 -66 113l-33 56q-26 41 -43 56t-45 18l-25 4l-4 17h310l-3 -17l-27 -2q-35 -2 -39.5 -22t19.5 -61l113 -209h2l61 116q37 73 47 107t-2 49t-52 20l-22 3l-4 16h231l-3 -16l-21 -4
q-33 -6 -60 -31.5t-62 -93.5q-94 -175 -95 -175h179l-1 -22h-183v-107h182l3 -21h-185v-116q0 -7 9 -10.5t39 -6.5l43 -5l3 -17h-318z" />
    <glyph glyph-name="brokenbar" unicode="&#xa6;" horiz-adv-x="190" 
d="M84 292v335h22v-335h-22zM84 -154v335h22v-335h-22z" />
    <glyph glyph-name="section" unicode="&#xa7;" horiz-adv-x="420" 
d="M185 -50q-58 0 -94 20.5t-36 57.5q0 22 14.5 38t36.5 16q36 0 51.5 -29.5t3.5 -68.5q22 -13 48 -13q32 0 52.5 21.5t20.5 47.5q0 18 -8.5 33t-30.5 30t-36.5 23t-49.5 26q-34 17 -53.5 29t-44.5 31.5t-36.5 42t-11.5 49.5q0 72 88 119q-33 35 -33 78q0 58 50.5 98
t116.5 40q58 0 92.5 -20t34.5 -57q0 -22 -15.5 -38t-38.5 -16q-35 0 -49.5 29.5t-5.5 68.5q-22 13 -41 13q-32 0 -51.5 -20.5t-19.5 -46.5q0 -18 9 -33t29.5 -30t37.5 -24t49 -25q35 -18 54 -29t44 -30.5t36.5 -42t11.5 -49.5q0 -74 -88 -121q34 -34 34 -78q0 -58 -52.5 -99
t-118.5 -41zM312 177q31 23 31 56q0 35 -27 58t-85 51q-12 6 -33 17.5t-33.5 18t-28 17t-26.5 19.5q-32 -24 -32 -55q0 -35 26.5 -57.5t84.5 -52.5q98 -50 123 -72z" />
    <glyph glyph-name="dieresis" unicode="&#xa8;" horiz-adv-x="395" 
d="M298 514q-28 0 -44.5 19t-16.5 43t16.5 43.5t44.5 19.5t44.5 -19.5t16.5 -43.5t-16.5 -43t-44.5 -19zM98 514q-28 0 -45.5 19t-17.5 43t17.5 43.5t45.5 19.5t44.5 -19.5t16.5 -43.5t-16.5 -43t-44.5 -19z" />
    <glyph glyph-name="copyright" unicode="&#xa9;" horiz-adv-x="723" 
d="M362 -21q-139 0 -236.5 97.5t-97.5 235.5q0 140 97.5 238t236.5 98t236.5 -98t97.5 -238q0 -138 -97.5 -235.5t-236.5 -97.5zM362 -4q130 0 222 93t92 223q0 131 -92 224.5t-222 93.5t-222.5 -93.5t-92.5 -224.5q0 -130 92.5 -223t222.5 -93zM374 116q-98 0 -155.5 55
t-57.5 139t59.5 140.5t156.5 56.5q56 0 94 -20l43 13l3 -127h-15l-51 98q-26 21 -75 21q-61 0 -96 -48.5t-35 -127.5q0 -82 37.5 -134t96.5 -52q69 0 109 69l24 52h15l-17 -113l-26 -1q-48 -21 -110 -21z" />
    <glyph glyph-name="ordfeminine" unicode="&#xaa;" horiz-adv-x="358" 
d="M102 282q-33 0 -56.5 22t-23.5 53q0 82 195 128l1 27q1 44 -22 69t-59 25q-14 0 -24.5 -4t-14.5 -7.5t-4 -6.5q0 -1 9 -17t9 -27q0 -17 -13.5 -28.5t-33.5 -11.5q-19 0 -32.5 11.5t-13.5 29.5q0 35 61.5 63.5t118.5 28.5q56 0 85 -29t26 -85l-6 -145q-1 -45 27 -45
q18 0 35 17l4 -8q-40 -60 -91 -60q-55 0 -64 68h-2q-57 -68 -111 -68zM159 337q26 0 54 28l4 105q-104 -24 -104 -80q0 -24 13 -38.5t33 -14.5z" />
    <glyph glyph-name="guillemotleft" unicode="&#xab;" horiz-adv-x="464" 
d="M443 39l-227 169v28l227 169l6 -8l-129 -176l128 -174zM239 49l-222 159v28l222 158l5 -8l-119 -165l119 -164z" />
    <glyph glyph-name="logicalnot" unicode="&#xac;" horiz-adv-x="448" 
d="M420 314v-184h-26v158h-382l3 26h405z" />
    <glyph glyph-name="uni00AD" unicode="&#xad;" horiz-adv-x="296" 
d="M23 214l3 46h248l-2 -46h-249z" />
    <glyph glyph-name="registered" unicode="&#xae;" horiz-adv-x="723" 
d="M362 -21q-139 0 -236.5 97.5t-97.5 236.5t97.5 237t236.5 98t236.5 -98t97.5 -237t-97.5 -236.5t-236.5 -97.5zM362 -3q130 0 222 92.5t92 223.5t-92 224t-222 93t-222.5 -93t-92.5 -224t92.5 -223.5t222.5 -92.5zM175 126l3 15l26 3q25 3 25 11v317q0 7 -29 10l-22 4
l-2 14h174q162 0 162 -96q0 -35 -25 -61t-67 -36l75 -116q17 -27 29.5 -35.5t34.5 -12.5l11 -2l2 -15h-131l-10 20l-90 157q-2 0 -16 3t-19 5v-158q0 -6 28 -9l24 -3l2 -15h-185zM350 319q37 1 58.5 22.5t21.5 61.5q0 41 -26.5 61.5t-72.5 18.5h-25v-155q16 -6 44 -9z" />
    <glyph glyph-name="macron" unicode="&#xaf;" horiz-adv-x="378" 
d="M52 529l11 47h262l-8 -47h-265z" />
    <glyph glyph-name="degree" unicode="&#xb0;" horiz-adv-x="322" 
d="M161 366q-61 0 -99 40t-38 98t37.5 98.5t99.5 40.5t99.5 -40.5t37.5 -98.5t-37.5 -98t-99.5 -40zM161 386q51 0 83 34t32 84t-32 84.5t-83 34.5t-82.5 -34.5t-31.5 -84.5t31.5 -84t82.5 -34z" />
    <glyph glyph-name="plusminus" unicode="&#xb1;" horiz-adv-x="448" 
d="M211 82v162h-198l3 26h195v168h26v-168h195l3 -26h-198v-162h-26zM422 25h-396l3 26h390z" />
    <glyph glyph-name="twosuperior" unicode="&#xb2;" horiz-adv-x="316" 
d="M20 267l-4 26q12 12 37 35.5t34.5 32.5t27.5 27.5t25.5 28t18.5 24.5t15 26t7.5 24.5t3.5 27.5q0 34 -20 54.5t-53 20.5q-55 0 -87 -56l-6 6q43 110 143 110q51 0 83 -28t32 -73q0 -24 -9 -45t-32.5 -45.5t-40 -38.5t-57.5 -46t-59 -46v-2h132q29 0 43.5 13t30.5 48l7 14
l11 -1l-31 -137h-252z" />
    <glyph glyph-name="threesuperior" unicode="&#xb3;" horiz-adv-x="297" 
d="M112 248q-44 0 -71.5 16t-27.5 42q0 17 11.5 28t29.5 11q27 0 39.5 -23.5t4.5 -54.5l4 -1q4 -1 10 -2t10 -1q31 0 52 26t21 64q0 39 -22 64t-59 25q-29 0 -53 -11l-5 10q80 40 98 58q17 18 17 41q0 27 -16.5 41.5t-44.5 14.5q-57 0 -85 -52l-8 6q19 46 56 75t86 29
q44 0 73 -22.5t29 -55.5q0 -60 -103 -93v-2q55 7 90.5 -20.5t35.5 -74.5q0 -55 -51.5 -96.5t-120.5 -41.5z" />
    <glyph glyph-name="acute" unicode="&#xb4;" horiz-adv-x="400" 
d="M140 498l100 185h120l-202 -185h-18z" />
    <glyph glyph-name="mu" unicode="&#xb5;" horiz-adv-x="528" 
d="M245 -251h-242l3 16l21 2q16 1 23.5 2.5t12 4.5t4.5 9v620q0 6 -8 8.5t-41 6.5l-16 1l-3 16h183v-323q0 -53 77 -53q59 0 90 23v308q0 15 -8.5 20.5t-38.5 7.5l-18 1l-4 16h183v-339q0 -25 5 -34t20 -14l41 -10l-2 -11l-178 -43l1 77h-2q-36 -75 -89 -75q-50 0 -76 63h-2
v-266q0 -8 8.5 -11t31.5 -5l21 -2z" />
    <glyph glyph-name="mu" unicode="&#x3bc;" horiz-adv-x="528" 
d="M245 -251h-242l3 16l21 2q16 1 23.5 2.5t12 4.5t4.5 9v620q0 6 -8 8.5t-41 6.5l-16 1l-3 16h183v-323q0 -53 77 -53q59 0 90 23v308q0 15 -8.5 20.5t-38.5 7.5l-18 1l-4 16h183v-339q0 -25 5 -34t20 -14l41 -10l-2 -11l-178 -43l1 77h-2q-36 -75 -89 -75q-50 0 -76 63h-2
v-266q0 -8 8.5 -11t31.5 -5l21 -2z" />
    <glyph glyph-name="paragraph" unicode="&#xb6;" horiz-adv-x="449" 
d="M365 -32v283q-37 -7 -84 -7q-117 0 -185.5 50.5t-68.5 138.5q0 192 265 192h100v-657h-27z" />
    <glyph glyph-name="periodcentered" unicode="&#xb7;" horiz-adv-x="221" 
d="M110 164q-30 0 -50.5 21t-20.5 50q0 28 20.5 48.5t50.5 20.5q29 0 49.5 -20.5t20.5 -48.5q0 -29 -20 -50t-50 -21z" />
    <glyph glyph-name="cedilla" unicode="&#xb8;" horiz-adv-x="392" 
d="M98 -272l-5 11q155 25 155 88q0 27 -24 41t-61 14q-38 0 -73 -11v11l113 121h23l-62 -65q64 8 109 -16t45 -67q0 -102 -220 -127z" />
    <glyph glyph-name="onesuperior" unicode="&#xb9;" horiz-adv-x="260" 
d="M38 267l2 13l25 2q29 2 29 11v312l-64 7l2 9l152 31v-359q0 -9 30 -11l21 -2l2 -13h-199z" />
    <glyph glyph-name="ordmasculine" unicode="&#xba;" horiz-adv-x="406" 
d="M201 279q-82 0 -133 51t-51 125q0 76 53 128.5t135 52.5t132.5 -51t50.5 -125q0 -77 -52 -129t-135 -52zM203 295q38 0 59 44t21 111q0 114 -35 149q-19 20 -46 20q-40 0 -61 -43t-21 -111q0 -114 37 -151q19 -19 46 -19z" />
    <glyph glyph-name="guillemotright" unicode="&#xbb;" horiz-adv-x="463" 
d="M228 49l-5 8l118 164l-117 165l4 8l222 -158v-28zM24 39l-6 8l128 174l-127 176l5 8l228 -169v-28z" />
    <glyph glyph-name="onequarter" unicode="&#xbc;" horiz-adv-x="689" 
d="M38 267l2 13l25 2q29 2 29 11v312l-64 7l2 9l152 31v-359q0 -9 30 -11l21 -2l2 -13h-199zM524 -136v95h-161l-2 14l199 276h50v-242h70l-12 -48h-58v-95h-86zM403 7h122v167h-2zM38 -121l580 751h29l-580 -751h-29z" />
    <glyph glyph-name="onehalf" unicode="&#xbd;" horiz-adv-x="700" 
d="M398 -137l-4 26q12 12 37 35.5t34.5 32.5t27.5 27.5t25.5 28t18.5 24.5t15 26t7.5 24.5t3.5 27.5q0 34 -20 54.5t-53 20.5q-55 0 -87 -56l-6 6q43 110 143 110q51 0 83 -28t32 -73q0 -24 -9 -45t-32.5 -45.5t-40 -38.5t-57.5 -46t-59 -46v-2h132q29 0 43.5 13t30.5 48
l7 14l11 -1l-31 -137h-252zM38 267l2 13l25 2q29 2 29 11v312l-64 7l2 9l152 31v-359q0 -9 30 -11l21 -2l2 -13h-199zM38 -121l580 751h29l-580 -751h-29z" />
    <glyph glyph-name="threequarters" unicode="&#xbe;" horiz-adv-x="686" 
d="M521 -136v95h-161l-2 14l199 276h50v-242h70l-12 -48h-58v-95h-86zM400 7h122v167h-2zM112 248q-44 0 -71.5 16t-27.5 42q0 17 11.5 28t29.5 11q27 0 39.5 -23.5t4.5 -54.5l4 -1q4 -1 10 -2t10 -1q31 0 52 26t21 64q0 39 -22 64t-59 25q-29 0 -53 -11l-5 10q80 40 98 58
q17 18 17 41q0 27 -16.5 41.5t-44.5 14.5q-57 0 -85 -52l-8 6q19 46 56 75t86 29q44 0 73 -22.5t29 -55.5q0 -60 -103 -93v-2q55 7 90.5 -20.5t35.5 -74.5q0 -55 -51.5 -96.5t-120.5 -41.5zM35 -121l580 751h29l-580 -751h-29z" />
    <glyph glyph-name="questiondown" unicode="&#xbf;" horiz-adv-x="343" 
d="M184 505q-29 0 -48.5 19.5t-19.5 46.5q0 28 19.5 48t48.5 20q28 0 48 -20t20 -48q0 -27 -20 -46.5t-48 -19.5zM234 -14q-87 0 -144 62.5t-57 143.5q0 54 19.5 78.5t69.5 45.5q29 11 40 15.5t26 12.5t19.5 15.5t4.5 17.5q0 29 -41 65l17 3q33 -24 58 -57.5t25 -59.5
q0 -40 -27.5 -60.5t-89.5 -41.5q-53 -18 -74 -31.5t-21 -31.5q0 -31 41 -53.5t109 -22.5q37 0 81 11q23 -19 24 -52q1 -28 -19 -44t-61 -16z" />
    <glyph glyph-name="Agrave" unicode="&#xc0;" horiz-adv-x="649" 
d="M178 250l-28 -82q-12 -36 -17.5 -53t-9 -36.5t-1.5 -27t9.5 -15.5t19.5 -11t33 -5l23 -3l3 -17h-223l3 17l19 3q32 5 48 18t33.5 49.5t51.5 130.5l114 317l-8 34q25 7 53.5 29t37.5 44h18l178 -520q21 -60 37 -79.5t46 -21.5l30 -4l3 -17h-310l3 17l29 3q35 3 39.5 23
t-13.5 72l-44 135h-177zM348 272l-76 235h-4l-82 -235h162zM339 665l-203 185h121l99 -185h-17z" />
    <glyph glyph-name="Aacute" unicode="&#xc1;" horiz-adv-x="649" 
d="M178 250l-28 -82q-12 -36 -17.5 -53t-9 -36.5t-1.5 -27t9.5 -15.5t19.5 -11t33 -5l23 -3l3 -17h-223l3 17l19 3q32 5 48 18t33.5 49.5t51.5 130.5l114 317l-8 34q25 7 53.5 29t37.5 44h18l178 -520q21 -60 37 -79.5t46 -21.5l30 -4l3 -17h-310l3 17l29 3q35 3 39.5 23
t-13.5 72l-44 135h-177zM348 272l-76 235h-4l-82 -235h162zM271 665l100 185h120l-202 -185h-18z" />
    <glyph glyph-name="Acircumflex" unicode="&#xc2;" horiz-adv-x="649" 
d="M178 250l-28 -82q-12 -36 -17.5 -53t-9 -36.5t-1.5 -27t9.5 -15.5t19.5 -11t33 -5l23 -3l3 -17h-223l3 17l19 3q32 5 48 18t33.5 49.5t51.5 130.5l114 317l-8 34q25 7 53.5 29t37.5 44h18l178 -520q21 -60 37 -79.5t46 -21.5l30 -4l3 -17h-310l3 17l29 3q35 3 39.5 23
t-13.5 72l-44 135h-177zM348 272l-76 235h-4l-82 -235h162zM182 658l136 197h19l136 -197h-15l-129 98h-2l-131 -98h-14z" />
    <glyph glyph-name="Atilde" unicode="&#xc3;" horiz-adv-x="649" 
d="M178 250l-28 -82q-12 -36 -17.5 -53t-9 -36.5t-1.5 -27t9.5 -15.5t19.5 -11t33 -5l23 -3l3 -17h-223l3 17l19 3q32 5 48 18t33.5 49.5t51.5 130.5l114 317l-8 34q25 7 53.5 29t37.5 44h18l178 -520q21 -60 37 -79.5t46 -21.5l30 -4l3 -17h-310l3 17l29 3q35 3 39.5 23
t-13.5 72l-44 135h-177zM348 272l-76 235h-4l-82 -235h162zM401 672q-33 0 -96.5 32.5t-82.5 32.5q-18 0 -28 -11t-15 -45h-18q7 70 26.5 98.5t60.5 28.5q33 0 96 -32.5t82 -32.5q18 0 28.5 11t16.5 45h16q-6 -70 -25.5 -98.5t-60.5 -28.5z" />
    <glyph glyph-name="Adieresis" unicode="&#xc4;" horiz-adv-x="649" 
d="M178 250l-28 -82q-12 -36 -17.5 -53t-9 -36.5t-1.5 -27t9.5 -15.5t19.5 -11t33 -5l23 -3l3 -17h-223l3 17l19 3q32 5 48 18t33.5 49.5t51.5 130.5l114 317l-8 34q25 7 53.5 29t37.5 44h18l178 -520q21 -60 37 -79.5t46 -21.5l30 -4l3 -17h-310l3 17l29 3q35 3 39.5 23
t-13.5 72l-44 135h-177zM348 272l-76 235h-4l-82 -235h162zM425 681q-28 0 -44.5 19t-16.5 43t16.5 43.5t44.5 19.5t44.5 -19.5t16.5 -43.5t-16.5 -43t-44.5 -19zM225 681q-28 0 -45.5 19t-17.5 43t17.5 43.5t45.5 19.5t44.5 -19.5t16.5 -43.5t-16.5 -43t-44.5 -19z" />
    <glyph glyph-name="Aring" unicode="&#xc5;" horiz-adv-x="649" 
d="M356 249h-178l-28 -81q-12 -36 -17.5 -53t-9 -36.5t-1.5 -27t9.5 -15.5t19.5 -11t33 -5l23 -3l3 -17h-223l3 17l19 3q32 5 48 18t34 50t51 130l144 398q-26 10 -40.5 33t-14.5 51q0 39 25.5 66t66.5 27t66 -27t25 -66q0 -27 -13 -49t-35 -32l169 -497q21 -60 37 -79.5
t46 -21.5l30 -4l3 -17h-310l3 17l29 3q35 3 39.5 23t-13.5 72zM323 623q33 0 53.5 22.5t20.5 54.5t-20.5 54.5t-53.5 22.5q-34 0 -54.5 -22.5t-20.5 -54.5t20.5 -54.5t54.5 -22.5zM186 272h162l-19 59l-38 118l-19 59h-4z" />
    <glyph glyph-name="AE" unicode="&#xc6;" horiz-adv-x="877" 
d="M-47 0l3 17l33 4q33 6 63.5 39.5t84.5 135.5l190 354q16 25 6 38t-54 17l-37 4l-3 16h564l7 -205h-25l-9 33q-24 88 -66.5 120t-139.5 31l-62 -1v-274l29 1q59 2 86.5 18t40.5 57l11 32h21l-26 -240l-19 1l-3 31q-5 45 -27.5 60.5t-91.5 18.5l-21 1v-285l70 -3
q99 1 149.5 38.5t79.5 115.5l9 30h26l-25 -205h-530l3 16l50 6q40 6 40 19v211h-187l-44 -84q-28 -53 -35.5 -84t3 -45.5t40.5 -18.5l28 -3l3 -17h-235zM206 275h174v319h-4z" />
    <glyph glyph-name="Ccedilla" unicode="&#xc7;" horiz-adv-x="693" 
d="M382 -13q-157 3 -253.5 91t-96.5 228q0 146 100 239.5t267 93.5q92 0 158 -34l72 21l5 -207h-25l-84 167q-46 30 -125 30q-106 0 -166.5 -84t-60.5 -217q0 -138 63 -222t162 -84q120 0 189 112l37 87h27l-30 -186h-43q-71 -30 -173 -35l-47 -49q64 8 109 -16t45 -67
q0 -102 -220 -127l-5 11q155 25 155 88q0 27 -24 41t-61 14q-38 0 -73 -11v11z" />
    <glyph glyph-name="Egrave" unicode="&#xc8;" horiz-adv-x="619" 
d="M22 0l3 16l36 4q45 6 45 18v552q0 6 -9.5 9t-42.5 6l-28 4l-3 16h521l7 -205h-26l-9 33q-24 87 -69 119.5t-144 31.5l-67 -1v-274l37 1q60 2 89 18t42 57l11 32h21l-25 -240l-20 1l-4 31q-4 44 -28 60t-93 19l-30 1v-285l83 -3q98 1 148.5 38.5t79.5 115.5l10 30h26
l-26 -205h-535zM345 665l-203 185h121l99 -185h-17z" />
    <glyph glyph-name="Eacute" unicode="&#xc9;" horiz-adv-x="619" 
d="M22 0l3 16l36 4q45 6 45 18v552q0 6 -9.5 9t-42.5 6l-28 4l-3 16h521l7 -205h-26l-9 33q-24 87 -69 119.5t-144 31.5l-67 -1v-274l37 1q60 2 89 18t42 57l11 32h21l-25 -240l-20 1l-4 31q-4 44 -28 60t-93 19l-30 1v-285l83 -3q98 1 148.5 38.5t79.5 115.5l10 30h26
l-26 -205h-535zM258 665l100 185h120l-202 -185h-18z" />
    <glyph glyph-name="Ecircumflex" unicode="&#xca;" horiz-adv-x="619" 
d="M22 0l3 16l36 4q45 6 45 18v552q0 6 -9.5 9t-42.5 6l-28 4l-3 16h521l7 -205h-26l-9 33q-24 87 -69 119.5t-144 31.5l-67 -1v-274l37 1q60 2 89 18t42 57l11 32h21l-25 -240l-20 1l-4 31q-4 44 -28 60t-93 19l-30 1v-285l83 -3q98 1 148.5 38.5t79.5 115.5l10 30h26
l-26 -205h-535zM168 658l136 197h19l136 -197h-15l-129 98h-2l-131 -98h-14z" />
    <glyph glyph-name="Edieresis" unicode="&#xcb;" horiz-adv-x="619" 
d="M22 0l3 16l36 4q45 6 45 18v552q0 6 -9.5 9t-42.5 6l-28 4l-3 16h521l7 -205h-26l-9 33q-24 87 -69 119.5t-144 31.5l-67 -1v-274l37 1q60 2 89 18t42 57l11 32h21l-25 -240l-20 1l-4 31q-4 44 -28 60t-93 19l-30 1v-285l83 -3q98 1 148.5 38.5t79.5 115.5l10 30h26
l-26 -205h-535zM413 681q-28 0 -44.5 19t-16.5 43t16.5 43.5t44.5 19.5t44.5 -19.5t16.5 -43.5t-16.5 -43t-44.5 -19zM213 681q-28 0 -45.5 19t-17.5 43t17.5 43.5t45.5 19.5t44.5 -19.5t16.5 -43.5t-16.5 -43t-44.5 -19z" />
    <glyph glyph-name="Igrave" unicode="&#xcc;" horiz-adv-x="365" 
d="M30 0l3 16l41 4q44 4 44 18v552q0 6 -9.5 9t-42.5 6l-33 4l-3 16h305l-3 -16l-41 -4q-44 -4 -44 -18v-552q0 -6 9.5 -9t41.5 -6l33 -4l3 -16h-304zM211 665l-203 185h121l99 -185h-17z" />
    <glyph glyph-name="Iacute" unicode="&#xcd;" horiz-adv-x="365" 
d="M30 0l3 16l41 4q44 4 44 18v552q0 6 -9.5 9t-42.5 6l-33 4l-3 16h305l-3 -16l-41 -4q-44 -4 -44 -18v-552q0 -6 9.5 -9t41.5 -6l33 -4l3 -16h-304zM138 665l100 185h120l-202 -185h-18z" />
    <glyph glyph-name="Icircumflex" unicode="&#xce;" horiz-adv-x="365" 
d="M30 0l3 16l41 4q44 4 44 18v552q0 6 -9.5 9t-42.5 6l-33 4l-3 16h305l-3 -16l-41 -4q-44 -4 -44 -18v-552q0 -6 9.5 -9t41.5 -6l33 -4l3 -16h-304zM37 658l136 197h19l136 -197h-15l-129 98h-2l-131 -98h-14z" />
    <glyph glyph-name="Idieresis" unicode="&#xcf;" horiz-adv-x="365" 
d="M30 0l3 16l41 4q44 4 44 18v552q0 6 -9.5 9t-42.5 6l-33 4l-3 16h305l-3 -16l-41 -4q-44 -4 -44 -18v-552q0 -6 9.5 -9t41.5 -6l33 -4l3 -16h-304zM284 681q-28 0 -44.5 19t-16.5 43t16.5 43.5t44.5 19.5t44.5 -19.5t16.5 -43.5t-16.5 -43t-44.5 -19zM84 681
q-28 0 -45.5 19t-17.5 43t17.5 43.5t45.5 19.5t44.5 -19.5t16.5 -43.5t-16.5 -43t-44.5 -19z" />
    <glyph glyph-name="Eth" unicode="&#xd0;" horiz-adv-x="694" 
d="M106 303h-86l3 23h83v260q0 12 -47 17l-38 6l-3 16q19 0 49 0.5t94 0.5t105.5 0.5t39.5 0.5q172 1 266 -81.5t94 -223.5q0 -137 -102 -229.5t-270 -92.5h-277l3 16l46 7q40 4 40 18v262zM235 326h123l3 -23h-126v-265l68 -17q105 0 164 79.5t59 198.5q0 142 -61.5 223.5
t-183.5 81.5h-46v-278z" />
    <glyph glyph-name="Ntilde" unicode="&#xd1;" horiz-adv-x="709" 
d="M566 -6l-425 527h-3l1 -415q0 -49 15 -65.5t59 -20.5l30 -4l3 -16h-226l3 16l28 4q36 3 49.5 22t13.5 69l3 423q-34 59 -87 69l-21 6l-3 16h223l348 -437h3l-1 330q0 49 -15 66t-59 21l-29 4l-3 16h225l-3 -16l-28 -4q-36 -3 -49.5 -22t-13.5 -70l-3 -519h-35zM446 672
q-33 0 -96.5 32.5t-82.5 32.5q-18 0 -28 -11t-15 -45h-18q7 70 26.5 98.5t60.5 28.5q33 0 96 -32.5t82 -32.5q18 0 28.5 11t16.5 45h16q-6 -70 -25.5 -98.5t-60.5 -28.5z" />
    <glyph glyph-name="Ograve" unicode="&#xd2;" horiz-adv-x="746" 
d="M368 -14q-148 0 -242 90t-94 234q0 134 102 231t244 97q148 0 242 -90t94 -235q0 -134 -102 -230.5t-244 -96.5zM376 8q93 0 144 76.5t51 225.5q0 143 -55 224.5t-146 81.5q-94 0 -145.5 -77t-51.5 -225q0 -144 55 -225t148 -81zM403 665l-203 185h121l99 -185h-17z" />
    <glyph glyph-name="Oacute" unicode="&#xd3;" horiz-adv-x="746" 
d="M368 -14q-148 0 -242 90t-94 234q0 134 102 231t244 97q148 0 242 -90t94 -235q0 -134 -102 -230.5t-244 -96.5zM376 8q93 0 144 76.5t51 225.5q0 143 -55 224.5t-146 81.5q-94 0 -145.5 -77t-51.5 -225q0 -144 55 -225t148 -81zM330 665l100 185h120l-202 -185h-18z" />
    <glyph glyph-name="Ocircumflex" unicode="&#xd4;" horiz-adv-x="746" 
d="M368 -14q-148 0 -242 90t-94 234q0 134 102 231t244 97q148 0 242 -90t94 -235q0 -134 -102 -230.5t-244 -96.5zM376 8q93 0 144 76.5t51 225.5q0 143 -55 224.5t-146 81.5q-94 0 -145.5 -77t-51.5 -225q0 -144 55 -225t148 -81zM228 658l136 197h19l136 -197h-15
l-129 98h-2l-131 -98h-14z" />
    <glyph glyph-name="Otilde" unicode="&#xd5;" horiz-adv-x="746" 
d="M368 -14q-148 0 -242 90t-94 234q0 134 102 231t244 97q148 0 242 -90t94 -235q0 -134 -102 -230.5t-244 -96.5zM376 8q93 0 144 76.5t51 225.5q0 143 -55 224.5t-146 81.5q-94 0 -145.5 -77t-51.5 -225q0 -144 55 -225t148 -81zM455 672q-33 0 -96.5 32.5t-82.5 32.5
q-18 0 -28 -11t-15 -45h-18q7 70 26.5 98.5t60.5 28.5q33 0 96 -32.5t82 -32.5q18 0 28.5 11t16.5 45h16q-6 -70 -25.5 -98.5t-60.5 -28.5z" />
    <glyph glyph-name="Odieresis" unicode="&#xd6;" horiz-adv-x="746" 
d="M368 -14q-148 0 -242 90t-94 234q0 134 102 231t244 97q148 0 242 -90t94 -235q0 -134 -102 -230.5t-244 -96.5zM376 8q93 0 144 76.5t51 225.5q0 143 -55 224.5t-146 81.5q-94 0 -145.5 -77t-51.5 -225q0 -144 55 -225t148 -81zM473 681q-28 0 -44.5 19t-16.5 43
t16.5 43.5t44.5 19.5t44.5 -19.5t16.5 -43.5t-16.5 -43t-44.5 -19zM273 681q-28 0 -45.5 19t-17.5 43t17.5 43.5t45.5 19.5t44.5 -19.5t16.5 -43.5t-16.5 -43t-44.5 -19z" />
    <glyph glyph-name="multiply" unicode="&#xd7;" horiz-adv-x="448" 
d="M31 61l175 175q-13 13 -49 48.5t-78 78t-48 48.5l18 18l175 -175l175 175l18 -18l-175 -175q13 -13 48.5 -49t78 -78t48.5 -48l-18 -18l-175 175l-175 -175z" />
    <glyph glyph-name="Oslash" unicode="&#xd8;" horiz-adv-x="746" 
d="M553 596q75 -40 118 -114t43 -169q0 -134 -102 -230.5t-244 -96.5q-84 0 -151 30l-52 -90h-24l57 99q-78 40 -122 114t-44 171q0 134 102 231t244 97q86 0 156 -32l48 82h24zM232 83l271 469q-50 64 -133 64q-94 0 -145.5 -77t-51.5 -225q0 -149 59 -231zM517 534
l-271 -468q52 -58 130 -58q93 0 144 76.5t51 225.5q0 140 -54 224z" />
    <glyph glyph-name="Ugrave" unicode="&#xd9;" horiz-adv-x="701" 
d="M360 -17q-131 0 -195 52.5t-64 164.5v391q0 11 -50 14l-34 4l-3 16h305l-3 -16l-42 -4q-43 -4 -43 -17v-358q0 -194 173 -194q176 0 176 205l-1 277q0 49 -15 66t-59 21l-30 4l-3 16h226l-3 -16l-28 -4q-36 -3 -49.5 -22t-13.5 -70l-2 -278q-2 -252 -242 -252zM397 665
l-203 185h121l99 -185h-17z" />
    <glyph glyph-name="Uacute" unicode="&#xda;" horiz-adv-x="701" 
d="M360 -17q-131 0 -195 52.5t-64 164.5v391q0 11 -50 14l-34 4l-3 16h305l-3 -16l-42 -4q-43 -4 -43 -17v-358q0 -194 173 -194q176 0 176 205l-1 277q0 49 -15 66t-59 21l-30 4l-3 16h226l-3 -16l-28 -4q-36 -3 -49.5 -22t-13.5 -70l-2 -278q-2 -252 -242 -252zM338 665
l100 185h120l-202 -185h-18z" />
    <glyph glyph-name="Ucircumflex" unicode="&#xdb;" horiz-adv-x="701" 
d="M360 -17q-131 0 -195 52.5t-64 164.5v391q0 11 -50 14l-34 4l-3 16h305l-3 -16l-42 -4q-43 -4 -43 -17v-358q0 -194 173 -194q176 0 176 205l-1 277q0 49 -15 66t-59 21l-30 4l-3 16h226l-3 -16l-28 -4q-36 -3 -49.5 -22t-13.5 -70l-2 -278q-2 -252 -242 -252zM233 658
l136 197h19l136 -197h-15l-129 98h-2l-131 -98h-14z" />
    <glyph glyph-name="Udieresis" unicode="&#xdc;" horiz-adv-x="701" 
d="M360 -17q-131 0 -195 52.5t-64 164.5v391q0 11 -50 14l-34 4l-3 16h305l-3 -16l-42 -4q-43 -4 -43 -17v-358q0 -194 173 -194q176 0 176 205l-1 277q0 49 -15 66t-59 21l-30 4l-3 16h226l-3 -16l-28 -4q-36 -3 -49.5 -22t-13.5 -70l-2 -278q-2 -252 -242 -252zM284 681
q-28 0 -45.5 19t-17.5 43t17.5 43.5t45.5 19.5t44.5 -19.5t16.5 -43.5t-16.5 -43t-44.5 -19zM484 681q-28 0 -44.5 19t-16.5 43t16.5 43.5t44.5 19.5t44.5 -19.5t16.5 -43.5t-16.5 -43t-44.5 -19z" />
    <glyph glyph-name="Yacute" unicode="&#xdd;" horiz-adv-x="635" 
d="M160 0l3 16l47 4q43 4 43 18v238l-144 252q-26 43 -41.5 57.5t-43.5 18.5l-23 4l-3 17h302l-3 -17l-22 -2q-39 -4 -44.5 -21t17.5 -55l118 -214h4l79 146q24 45 34.5 69t9 41t-14.5 23t-42 10l-23 3l-3 17h225l-3 -17l-25 -4q-36 -6 -60.5 -31.5t-71.5 -112.5l-92 -165
v-260q0 -6 9.5 -9t41.5 -6l38 -4l3 -16h-315zM287 665l100 185h120l-202 -185h-18z" />
    <glyph glyph-name="Thorn" unicode="&#xde;" horiz-adv-x="600" 
d="M21 0l3 18l42 4q43 4 43 16v551q0 6 -9 9t-42 6l-33 3l-3 18h304l-3 -18l-41 -4q-43 -4 -43 -16v-92l66 -1q129 0 195.5 -42t66.5 -120q0 -83 -74.5 -133.5t-193.5 -50.5q-37 0 -60 5v-117q0 -12 51 -15l44 -3l3 -18h-316zM297 170q58 0 94.5 41.5t36.5 108.5
q0 74 -36.5 114t-109.5 41q1 0 -10 -0.5t-22 -0.5h-11v-297q33 -7 58 -7z" />
    <glyph glyph-name="germandbls" unicode="&#xdf;" horiz-adv-x="562" 
d="M362 423q74 -36 126 -103.5t52 -138.5q0 -78 -52.5 -136t-123.5 -58q-53 0 -86 23.5t-33 60.5q0 27 18 45t44 18q33 0 47 -22.5t6.5 -48t-29.5 -34.5q7 -21 41 -21q32 0 52.5 25t20.5 70q0 78 -48.5 154t-145.5 129v26q66 16 94.5 45t28.5 89q0 45 -24 74.5t-62 29.5
q-48 0 -68.5 -32.5t-20.5 -111.5v-506h-177l3 18l21 1q15 1 22 2.5t11.5 4.5t4.5 9v344l-79 2l18 53l61 -1l2 45q7 88 65.5 141.5t142.5 53.5q89 0 139 -35.5t50 -97.5q0 -91 -121 -117z" />
    <glyph glyph-name="agrave" unicode="&#xe0;" horiz-adv-x="462" 
d="M354 -13q-34 0 -55.5 22t-25.5 63l-2 1q-36 -41 -68 -63t-68 -22q-45 0 -77 29.5t-32 72.5q0 57 56.5 96t192.5 73l1 26q2 63 -24.5 96t-74.5 33q-26 0 -45 -8t-19 -16q0 -1 14 -21t14 -37q0 -21 -16.5 -36.5t-41.5 -15.5t-41.5 13.5t-16.5 34.5q0 46 73.5 84t145.5 38
q83 0 117 -38t30 -130l-8 -180q-3 -52 33 -52q15 0 43 28l10 -10q-63 -81 -115 -81zM200 58q36 0 70 34l6 149q-78 -20 -108 -47t-30 -66q0 -32 17.5 -51t44.5 -19zM259 498l-203 185h121l99 -185h-17z" />
    <glyph glyph-name="aacute" unicode="&#xe1;" horiz-adv-x="462" 
d="M354 -13q-34 0 -55.5 22t-25.5 63l-2 1q-36 -41 -68 -63t-68 -22q-45 0 -77 29.5t-32 72.5q0 57 56.5 96t192.5 73l1 26q2 63 -24.5 96t-74.5 33q-26 0 -45 -8t-19 -16q0 -1 14 -21t14 -37q0 -21 -16.5 -36.5t-41.5 -15.5t-41.5 13.5t-16.5 34.5q0 46 73.5 84t145.5 38
q83 0 117 -38t30 -130l-8 -180q-3 -52 33 -52q15 0 43 28l10 -10q-63 -81 -115 -81zM200 58q36 0 70 34l6 149q-78 -20 -108 -47t-30 -66q0 -32 17.5 -51t44.5 -19zM176 498l100 185h120l-202 -185h-18z" />
    <glyph glyph-name="acircumflex" unicode="&#xe2;" horiz-adv-x="462" 
d="M354 -13q-34 0 -55.5 22t-25.5 63l-2 1q-36 -41 -68 -63t-68 -22q-45 0 -77 29.5t-32 72.5q0 57 56.5 96t192.5 73l1 26q2 63 -24.5 96t-74.5 33q-26 0 -45 -8t-19 -16q0 -1 14 -21t14 -37q0 -21 -16.5 -36.5t-41.5 -15.5t-41.5 13.5t-16.5 34.5q0 46 73.5 84t145.5 38
q83 0 117 -38t30 -130l-8 -180q-3 -52 33 -52q15 0 43 28l10 -10q-63 -81 -115 -81zM200 58q36 0 70 34l6 149q-78 -20 -108 -47t-30 -66q0 -32 17.5 -51t44.5 -19zM75 491l136 197h19l136 -197h-15l-129 98h-2l-131 -98h-14z" />
    <glyph glyph-name="atilde" unicode="&#xe3;" horiz-adv-x="462" 
d="M354 -13q-34 0 -55.5 22t-25.5 63l-2 1q-36 -41 -68 -63t-68 -22q-45 0 -77 29.5t-32 72.5q0 57 56.5 96t192.5 73l1 26q2 63 -24.5 96t-74.5 33q-26 0 -45 -8t-19 -16q0 -1 14 -21t14 -37q0 -21 -16.5 -36.5t-41.5 -15.5t-41.5 13.5t-16.5 34.5q0 46 73.5 84t145.5 38
q83 0 117 -38t30 -130l-8 -180q-3 -52 33 -52q15 0 43 28l10 -10q-63 -81 -115 -81zM200 58q36 0 70 34l6 149q-78 -20 -108 -47t-30 -66q0 -32 17.5 -51t44.5 -19zM298 505q-33 0 -96.5 32.5t-82.5 32.5q-18 0 -28 -11t-15 -45h-18q7 70 26.5 98.5t60.5 28.5q33 0 96 -32.5
t82 -32.5q18 0 28.5 11t16.5 45h16q-6 -70 -25.5 -98.5t-60.5 -28.5z" />
    <glyph glyph-name="adieresis" unicode="&#xe4;" horiz-adv-x="462" 
d="M354 -13q-34 0 -55.5 22t-25.5 63l-2 1q-36 -41 -68 -63t-68 -22q-45 0 -77 29.5t-32 72.5q0 57 56.5 96t192.5 73l1 26q2 63 -24.5 96t-74.5 33q-26 0 -45 -8t-19 -16q0 -1 14 -21t14 -37q0 -21 -16.5 -36.5t-41.5 -15.5t-41.5 13.5t-16.5 34.5q0 46 73.5 84t145.5 38
q83 0 117 -38t30 -130l-8 -180q-3 -52 33 -52q15 0 43 28l10 -10q-63 -81 -115 -81zM200 58q36 0 70 34l6 149q-78 -20 -108 -47t-30 -66q0 -32 17.5 -51t44.5 -19zM319 514q-28 0 -44.5 19t-16.5 43t16.5 43.5t44.5 19.5t44.5 -19.5t16.5 -43.5t-16.5 -43t-44.5 -19z
M119 514q-28 0 -45.5 19t-17.5 43t17.5 43.5t45.5 19.5t44.5 -19.5t16.5 -43.5t-16.5 -43t-44.5 -19z" />
    <glyph glyph-name="aring" unicode="&#xe5;" horiz-adv-x="461" 
d="M216 503q-42 0 -67 27t-25 66t25.5 66t66.5 27t66.5 -27t25.5 -66t-25 -66t-67 -27zM354 -13q-34 0 -55.5 22t-25.5 63l-2 1q-36 -41 -68 -63t-68 -22q-45 0 -77 29.5t-32 72.5q0 57 56.5 96t192.5 73l1 26q2 63 -24.5 96t-74.5 33q-26 0 -45 -8t-19 -16q0 -1 14 -21
t14 -37q0 -21 -16.5 -36.5t-41.5 -15.5t-41.5 13.5t-16.5 34.5q0 46 73.5 84t145.5 38q83 0 117 -38t30 -130l-8 -180q-3 -52 33 -52q15 0 43 28l10 -10q-63 -81 -115 -81zM216 519q34 0 54 22t20 55q0 32 -20.5 54.5t-53.5 22.5q-34 0 -54.5 -22.5t-20.5 -54.5
q0 -33 20.5 -55t54.5 -22zM200 58q36 0 70 34l6 149q-78 -20 -108 -47t-30 -66q0 -32 17.5 -51t44.5 -19z" />
    <glyph glyph-name="ae" unicode="&#xe6;" horiz-adv-x="703" 
d="M134 -13q-44 0 -76 30t-32 73q0 57 56 96t193 73l1 27q3 61 -24 94.5t-75 33.5q-26 0 -45 -8t-19 -16q0 -1 14 -21t14 -37q0 -21 -16.5 -36.5t-41.5 -15.5t-41.5 13.5t-16.5 34.5q0 46 72.5 84t147.5 38q82 0 112 -52q62 53 147 53q80 0 125.5 -42t45.5 -104
q0 -10 -4 -28q-257 2 -279 4q-1 -10 -1 -38q1 -82 42 -132t107 -50q83 0 128 74l11 -6q-62 -142 -202 -142q-62 0 -109 29t-70 79q-87 -108 -164 -108zM394 298h28.5t54.5 0.5t61 0.5h24q1 56 -16.5 93t-54.5 37q-35 0 -62.5 -36.5t-34.5 -94.5zM198 56q42 0 92 53
q-17 41 -17 110q0 9 2 21q-78 -20 -107.5 -48t-29.5 -67q0 -30 18 -49.5t42 -19.5z" />
    <glyph glyph-name="ccedilla" unicode="&#xe7;" horiz-adv-x="441" 
d="M233 -15h-1q-90 0 -149 62.5t-59 157.5q0 105 67.5 175t172.5 70q69 0 113 -28t44 -72q0 -27 -17.5 -44t-42.5 -17q-28 0 -45.5 21.5t-15.5 50.5q0 12 9 27t9 16q-2 9 -18 16.5t-35 7.5q-52 0 -85 -49t-33 -132q0 -87 39.5 -137.5t106.5 -50.5q80 0 124 74l12 -6
q-57 -128 -172 -141l-46 -48q64 8 109 -16t45 -67q0 -102 -220 -127l-5 11q155 25 155 88q0 27 -24 41t-61 14q-38 0 -73 -11v11z" />
    <glyph glyph-name="egrave" unicode="&#xe8;" horiz-adv-x="456" 
d="M232 -15q-89 0 -148.5 63t-59.5 159q0 104 67 174t168 70q79 0 124 -42t45 -104q0 -15 -3 -28q-259 2 -278 4q-2 -10 -2 -38q0 -82 41.5 -133t107.5 -51q81 0 127 74l12 -6q-63 -142 -201 -142zM148 298l168 1q1 55 -16.5 92.5t-53.5 37.5t-63.5 -36.5t-34.5 -94.5z
M277 498l-203 185h121l99 -185h-17z" />
    <glyph glyph-name="eacute" unicode="&#xe9;" horiz-adv-x="456" 
d="M232 -15q-89 0 -148.5 63t-59.5 159q0 104 67 174t168 70q79 0 124 -42t45 -104q0 -15 -3 -28q-259 2 -278 4q-2 -10 -2 -38q0 -82 41.5 -133t107.5 -51q81 0 127 74l12 -6q-63 -142 -201 -142zM148 298l168 1q1 55 -16.5 92.5t-53.5 37.5t-63.5 -36.5t-34.5 -94.5z
M191 498l100 185h120l-202 -185h-18z" />
    <glyph glyph-name="ecircumflex" unicode="&#xea;" horiz-adv-x="456" 
d="M232 -15q-89 0 -148.5 63t-59.5 159q0 104 67 174t168 70q79 0 124 -42t45 -104q0 -15 -3 -28q-259 2 -278 4q-2 -10 -2 -38q0 -82 41.5 -133t107.5 -51q81 0 127 74l12 -6q-63 -142 -201 -142zM148 298l168 1q1 55 -16.5 92.5t-53.5 37.5t-63.5 -36.5t-34.5 -94.5z
M95 491l136 197h19l136 -197h-15l-129 98h-2l-131 -98h-14z" />
    <glyph glyph-name="edieresis" unicode="&#xeb;" horiz-adv-x="456" 
d="M232 -15q-89 0 -148.5 63t-59.5 159q0 104 67 174t168 70q79 0 124 -42t45 -104q0 -15 -3 -28q-259 2 -278 4q-2 -10 -2 -38q0 -82 41.5 -133t107.5 -51q81 0 127 74l12 -6q-63 -142 -201 -142zM148 298l168 1q1 55 -16.5 92.5t-53.5 37.5t-63.5 -36.5t-34.5 -94.5z
M339 514q-28 0 -44.5 19t-16.5 43t16.5 43.5t44.5 19.5t44.5 -19.5t16.5 -43.5t-16.5 -43t-44.5 -19zM139 514q-28 0 -45.5 19t-17.5 43t17.5 43.5t45.5 19.5t44.5 -19.5t16.5 -43.5t-16.5 -43t-44.5 -19z" />
    <glyph glyph-name="igrave" unicode="&#xec;" horiz-adv-x="273" 
d="M20 0l3 16l17 1q23 2 31.5 5t8.5 12v269q0 45 -7.5 58.5t-34.5 20.5l-21 5l1 12l177 49v-415q0 -7 8.5 -10t38.5 -6l14 -1l3 -16h-239zM178 498l-203 185h121l99 -185h-17z" />
    <glyph glyph-name="iacute" unicode="&#xed;" horiz-adv-x="273" 
d="M20 0l3 16l17 1q23 2 31.5 5t8.5 12v269q0 45 -7.5 58.5t-34.5 20.5l-21 5l1 12l177 49v-415q0 -7 8.5 -10t38.5 -6l14 -1l3 -16h-239zM80 498l100 185h120l-202 -185h-18z" />
    <glyph glyph-name="icircumflex" unicode="&#xee;" horiz-adv-x="273" 
d="M0 491l130 197h19l129 -197h-15l-123 98h-2l-122 -98h-16zM20 0l3 16l17 1q23 2 31.5 5t8.5 12v269q0 45 -7.5 58.5t-34.5 20.5l-21 5l1 12l177 49v-415q0 -7 8.5 -10t38.5 -6l14 -1l3 -16h-239z" />
    <glyph glyph-name="idieresis" unicode="&#xef;" horiz-adv-x="273" 
d="M20 0l3 16l17 1q23 2 31.5 5t8.5 12v269q0 45 -7.5 58.5t-34.5 20.5l-21 5l1 12l177 49v-415q0 -7 8.5 -10t38.5 -6l14 -1l3 -16h-239zM241 514q-28 0 -44.5 19t-16.5 43t16.5 43.5t44.5 19.5t44.5 -19.5t16.5 -43.5t-16.5 -43t-44.5 -19zM41 514q-28 0 -45.5 19
t-17.5 43t17.5 43.5t45.5 19.5t44.5 -19.5t16.5 -43.5t-16.5 -43t-44.5 -19z" />
    <glyph glyph-name="eth" unicode="&#xf0;" horiz-adv-x="517" 
d="M229 553l-33 -11q-33 -10 -66 -21l-33 -11l2 23l108 36q-53 35 -128 50l6 15q98 -10 178 -47l118 39l2 -23l-92 -30q96 -53 149 -139t53 -183q0 -117 -66 -190.5t-170 -73.5q-105 0 -169 66t-64 165q0 100 64 166.5t163 66.5q37 0 72 -10q-38 70 -94 112zM262 8
q52 0 79 51t27 149q0 102 -31 163t-83 61q-49 0 -76.5 -54.5t-27.5 -144.5q0 -225 112 -225z" />
    <glyph glyph-name="ntilde" unicode="&#xf1;" horiz-adv-x="548" 
d="M19 0l3 16l17 1q23 2 31.5 5t8.5 12v268q0 46 -7.5 59.5t-34.5 20.5l-21 5l1 12l178 49l-2 -83h3q101 84 170 84q48 0 80 -32q34 -34 34 -112v-271q0 -12 48 -17l14 -1l3 -16h-236l3 16l18 1q36 2 36 17v242q0 53 -21 75t-63 22q-46 0 -88 -30v-310q0 -7 8 -10.5t34 -5.5
l19 -1l2 -16h-238zM353 505q-33 0 -96.5 32.5t-82.5 32.5q-18 0 -28 -11t-15 -45h-18q7 70 26.5 98.5t60.5 28.5q33 0 96 -32.5t82 -32.5q18 0 28.5 11t16.5 45h16q-6 -70 -25.5 -98.5t-60.5 -28.5z" />
    <glyph glyph-name="ograve" unicode="&#xf2;" horiz-adv-x="526" 
d="M259 -14q-106 0 -170.5 66t-64.5 165q0 98 69 165.5t175 67.5q105 0 170 -65.5t65 -162.5q0 -100 -69 -168t-175 -68zM263 6q51 0 81 56.5t30 144.5q0 146 -50 196q-26 26 -62 26q-52 0 -81.5 -55.5t-29.5 -142.5q0 -148 49 -199q24 -26 63 -26zM287 498l-203 185h121
l99 -185h-17z" />
    <glyph glyph-name="oacute" unicode="&#xf3;" horiz-adv-x="526" 
d="M259 -14q-106 0 -170.5 66t-64.5 165q0 98 69 165.5t175 67.5q105 0 170 -65.5t65 -162.5q0 -100 -69 -168t-175 -68zM263 6q51 0 81 56.5t30 144.5q0 146 -50 196q-26 26 -62 26q-52 0 -81.5 -55.5t-29.5 -142.5q0 -148 49 -199q24 -26 63 -26zM218 498l100 185h120
l-202 -185h-18z" />
    <glyph glyph-name="ocircumflex" unicode="&#xf4;" horiz-adv-x="526" 
d="M259 -14q-106 0 -170.5 66t-64.5 165q0 98 69 165.5t175 67.5q105 0 170 -65.5t65 -162.5q0 -100 -69 -168t-175 -68zM263 6q51 0 81 56.5t30 144.5q0 146 -50 196q-26 26 -62 26q-52 0 -81.5 -55.5t-29.5 -142.5q0 -148 49 -199q24 -26 63 -26zM117 491l136 197h19
l136 -197h-15l-129 98h-2l-131 -98h-14z" />
    <glyph glyph-name="otilde" unicode="&#xf5;" horiz-adv-x="526" 
d="M259 -14q-106 0 -170.5 66t-64.5 165q0 98 69 165.5t175 67.5q105 0 170 -65.5t65 -162.5q0 -100 -69 -168t-175 -68zM263 6q51 0 81 56.5t30 144.5q0 146 -50 196q-26 26 -62 26q-52 0 -81.5 -55.5t-29.5 -142.5q0 -148 49 -199q24 -26 63 -26zM339 505
q-33 0 -96.5 32.5t-82.5 32.5q-18 0 -28 -11t-15 -45h-18q7 70 26.5 98.5t60.5 28.5q33 0 96 -32.5t82 -32.5q18 0 28.5 11t16.5 45h16q-6 -70 -25.5 -98.5t-60.5 -28.5z" />
    <glyph glyph-name="odieresis" unicode="&#xf6;" horiz-adv-x="526" 
d="M259 -14q-106 0 -170.5 66t-64.5 165q0 98 69 165.5t175 67.5q105 0 170 -65.5t65 -162.5q0 -100 -69 -168t-175 -68zM263 6q51 0 81 56.5t30 144.5q0 146 -50 196q-26 26 -62 26q-52 0 -81.5 -55.5t-29.5 -142.5q0 -148 49 -199q24 -26 63 -26zM363 514q-28 0 -44.5 19
t-16.5 43t16.5 43.5t44.5 19.5t44.5 -19.5t16.5 -43.5t-16.5 -43t-44.5 -19zM163 514q-28 0 -45.5 19t-17.5 43t17.5 43.5t45.5 19.5t44.5 -19.5t16.5 -43.5t-16.5 -43t-44.5 -19z" />
    <glyph glyph-name="divide" unicode="&#xf7;" horiz-adv-x="448" 
d="M275 377q0 -21 -15 -36.5t-37 -15.5q-21 0 -36 15.5t-15 36.5q0 20 15 35t36 15q22 0 37 -15t15 -35zM426 223h-404l3 26h398zM275 98q0 -21 -15 -36.5t-36 -15.5q-22 0 -37 15.5t-15 36.5q0 20 15 34.5t37 14.5q21 0 36 -14.5t15 -34.5z" />
    <glyph glyph-name="oslash" unicode="&#xf8;" horiz-adv-x="526" 
d="M132 19q-51 30 -79.5 82.5t-28.5 115.5q0 98 69 165.5t175 67.5q55 0 101 -20l87 150h22q-91 -158 -92 -158q55 -29 86 -82.5t31 -117.5q0 -100 -69 -168t-175 -68q-63 0 -110 24l-81 -139h-22zM170 85l171 296q-8 13 -17 22q-27 27 -62 27q-52 0 -81.5 -56t-29.5 -143
q0 -93 19 -146zM351 360l-172 -298q9 -18 21 -30q24 -26 63 -26q51 0 81 56.5t30 144.5q0 98 -23 153z" />
    <glyph glyph-name="ugrave" unicode="&#xf9;" horiz-adv-x="528" 
d="M349 -16l1 87h-2q-95 -85 -169 -85q-43 0 -80 34q-34 35 -32 112l1 271q0 6 -8 8.5t-41 6.5l-16 1l-3 16h184l-3 -277q-1 -52 20.5 -73.5t64.5 -21.5q44 0 83 29v298q0 15 -8.5 20.5t-38.5 7.5l-18 1l-4 16h183v-339q0 -25 5 -34t20 -14l41 -10l-2 -11zM288 498l-203 185
h121l99 -185h-17z" />
    <glyph glyph-name="uacute" unicode="&#xfa;" horiz-adv-x="528" 
d="M349 -16l1 87h-2q-95 -85 -169 -85q-43 0 -80 34q-34 35 -32 112l1 271q0 6 -8 8.5t-41 6.5l-16 1l-3 16h184l-3 -277q-1 -52 20.5 -73.5t64.5 -21.5q44 0 83 29v298q0 15 -8.5 20.5t-38.5 7.5l-18 1l-4 16h183v-339q0 -25 5 -34t20 -14l41 -10l-2 -11zM214 498l100 185
h120l-202 -185h-18z" />
    <glyph glyph-name="ucircumflex" unicode="&#xfb;" horiz-adv-x="528" 
d="M349 -16l1 87h-2q-95 -85 -169 -85q-43 0 -80 34q-34 35 -32 112l1 271q0 6 -8 8.5t-41 6.5l-16 1l-3 16h184l-3 -277q-1 -52 20.5 -73.5t64.5 -21.5q44 0 83 29v298q0 15 -8.5 20.5t-38.5 7.5l-18 1l-4 16h183v-339q0 -25 5 -34t20 -14l41 -10l-2 -11zM114 491l136 197
h19l136 -197h-15l-129 98h-2l-131 -98h-14z" />
    <glyph glyph-name="udieresis" unicode="&#xfc;" horiz-adv-x="528" 
d="M349 -16l1 87h-2q-95 -85 -169 -85q-43 0 -80 34q-34 35 -32 112l1 271q0 6 -8 8.5t-41 6.5l-16 1l-3 16h184l-3 -277q-1 -52 20.5 -73.5t64.5 -21.5q44 0 83 29v298q0 15 -8.5 20.5t-38.5 7.5l-18 1l-4 16h183v-339q0 -25 5 -34t20 -14l41 -10l-2 -11zM169 514
q-28 0 -45.5 19t-17.5 43t17.5 43.5t45.5 19.5t44.5 -19.5t16.5 -43.5t-16.5 -43t-44.5 -19zM369 514q-28 0 -44.5 19t-16.5 43t16.5 43.5t44.5 19.5t44.5 -19.5t16.5 -43.5t-16.5 -43t-44.5 -19z" />
    <glyph glyph-name="yacute" unicode="&#xfd;" horiz-adv-x="480" 
d="M102 -258q-28 0 -49 17t-21 45q0 23 16.5 40t41.5 17q51 0 65 -52q17 4 28.5 22.5t24.5 57.5l34 97h-9l-170 379q-14 30 -23 38.5t-32 11.5l-18 4l-3 16h250l-3 -16l-20 -3q-25 -3 -31 -13t4 -32l105 -247l68 188q21 61 15 79t-48 24l-20 4l-3 16h181l-3 -16l-20 -3
q-29 -3 -41 -20.5t-39 -89.5l-111 -295l-45 -137q-23 -68 -52 -100t-72 -32zM203 498l100 185h120l-202 -185h-18z" />
    <glyph glyph-name="thorn" unicode="&#xfe;" horiz-adv-x="526" 
d="M-10 -251l3 18l21 1q16 1 23.5 2.5t12 5t4.5 9.5v771q0 27 -6.5 37t-27.5 16l-31 11l1 12l177 47v-319l4 -1q70 86 153 86q76 0 127.5 -61t51.5 -153q0 -111 -72 -178t-168 -67q-52 0 -93 16h-3v-221q0 -12 48 -13l34 -1l3 -18h-262zM278 7q46 0 73 53.5t27 135.5
q0 78 -33 128t-87 50q-47 0 -91 -40v-241q22 -39 51.5 -62.5t59.5 -23.5z" />
    <glyph glyph-name="ydieresis" unicode="&#xff;" horiz-adv-x="480" 
d="M102 -258q-28 0 -49 17t-21 45q0 23 16.5 40t41.5 17q51 0 65 -52q17 4 28.5 22.5t24.5 57.5l34 97h-9l-170 379q-14 30 -23 38.5t-32 11.5l-18 4l-3 16h250l-3 -16l-20 -3q-25 -3 -31 -13t4 -32l105 -247l68 188q21 61 15 79t-48 24l-20 4l-3 16h181l-3 -16l-20 -3
q-29 -3 -41 -20.5t-39 -89.5l-111 -295l-45 -137q-23 -68 -52 -100t-72 -32zM347 514q-28 0 -44.5 19t-16.5 43t16.5 43.5t44.5 19.5t44.5 -19.5t16.5 -43.5t-16.5 -43t-44.5 -19zM147 514q-28 0 -45.5 19t-17.5 43t17.5 43.5t45.5 19.5t44.5 -19.5t16.5 -43.5t-16.5 -43
t-44.5 -19z" />
    <glyph glyph-name="Amacron" unicode="&#x100;" horiz-adv-x="649" 
d="M178 250l-28 -82q-12 -36 -17.5 -53t-9 -36.5t-1.5 -27t9.5 -15.5t19.5 -11t33 -5l23 -3l3 -17h-223l3 17l19 3q32 5 48 18t33.5 49.5t51.5 130.5l114 317l-8 34q25 7 53.5 29t37.5 44h18l178 -520q21 -60 37 -79.5t46 -21.5l30 -4l3 -17h-310l3 17l29 3q35 3 39.5 23
t-13.5 72l-44 135h-177zM348 272l-76 235h-4l-82 -235h162zM187 719l11 47h262l-8 -47h-265z" />
    <glyph glyph-name="amacron" unicode="&#x101;" horiz-adv-x="461" 
d="M354 -13q-34 0 -55.5 22t-25.5 63l-2 1q-36 -41 -68 -63t-68 -22q-45 0 -77 29.5t-32 72.5q0 57 56.5 96t192.5 73l1 26q2 63 -24.5 96t-74.5 33q-26 0 -45 -8t-19 -16q0 -1 14 -21t14 -37q0 -21 -16.5 -36.5t-41.5 -15.5t-41.5 13.5t-16.5 34.5q0 46 73.5 84t145.5 38
q83 0 117 -38t30 -130l-8 -180q-3 -52 33 -52q15 0 43 28l10 -10q-63 -81 -115 -81zM200 58q36 0 70 34l6 149q-78 -20 -108 -47t-30 -66q0 -32 17.5 -51t44.5 -19zM87 529l11 47h262l-8 -47h-265z" />
    <glyph glyph-name="Abreve" unicode="&#x102;" horiz-adv-x="649" 
d="M178 250l-28 -82q-12 -36 -17.5 -53t-9 -36.5t-1.5 -27t9.5 -15.5t19.5 -11t33 -5l23 -3l3 -17h-223l3 17l19 3q32 5 48 18t33.5 49.5t51.5 130.5l114 317l-8 34q25 7 53.5 29t37.5 44h18l178 -520q21 -60 37 -79.5t46 -21.5l30 -4l3 -17h-310l3 17l29 3q35 3 39.5 23
t-13.5 72l-44 135h-177zM317 683q-59 0 -91.5 48t-50.5 135h18q38 -110 125 -110q88 0 126 110h16q-16 -87 -48.5 -135t-94.5 -48zM348 272l-76 235h-4l-82 -235h162z" />
    <glyph glyph-name="abreve" unicode="&#x103;" horiz-adv-x="461" 
d="M354 -13q-34 0 -55.5 22t-25.5 63l-2 1q-36 -41 -68 -63t-68 -22q-45 0 -77 29.5t-32 72.5q0 57 56.5 96t192.5 73l1 26q2 63 -24.5 96t-74.5 33q-26 0 -45 -8t-19 -16q0 -1 14 -21t14 -37q0 -21 -16.5 -36.5t-41.5 -15.5t-41.5 13.5t-16.5 34.5q0 46 73.5 84t145.5 38
q83 0 117 -38t30 -130l-8 -180q-3 -52 33 -52q15 0 43 28l10 -10q-63 -81 -115 -81zM224 493q-59 0 -91.5 48t-50.5 135h18q38 -110 125 -110q88 0 126 110h16q-16 -87 -48.5 -135t-94.5 -48zM200 58q36 0 70 34l6 149q-78 -20 -108 -47t-30 -66q0 -32 17.5 -51t44.5 -19z
" />
    <glyph glyph-name="Aogonek" unicode="&#x104;" horiz-adv-x="649" 
d="M543 -236q-43 0 -71.5 24.5t-28.5 65.5q0 50 46 91t101 55h-250l3 16l31 4q34 3 38.5 23.5t-13.5 71.5l-44 136h-177l-29 -83q-14 -42 -19.5 -62t-8.5 -39t4.5 -26.5t20 -12.5t37.5 -8l24 -4l3 -16h-223l3 16l19 4q32 5 48 18t33.5 49.5t51.5 130.5l114 317l-8 34
q26 9 56.5 30t39.5 43h13l177 -520q20 -60 37 -79.5t46 -22.5l32 -4l2 -16q-63 -10 -100 -39.5t-37 -76.5q0 -32 18.5 -49t50.5 -17q31 0 63 30l5 -6q-11 -29 -40.5 -53.5t-67.5 -24.5zM185 272h163l-76 236h-4z" />
    <glyph glyph-name="aogonek" unicode="&#x105;" horiz-adv-x="461" 
d="M341 -236q-43 0 -71 25.5t-28 67.5q0 75 106 132h-2q-65 3 -73 83l-2 1q-73 -84 -136 -84q-45 0 -77 29.5t-32 71.5q0 57 56.5 96t192.5 73l1 26q1 63 -25 96t-75 33q-26 0 -45 -8t-19 -16q0 -1 14.5 -21t14.5 -37q0 -21 -16.5 -36.5t-41.5 -15.5t-41.5 13.5t-16.5 35.5
q0 45 73.5 82.5t145.5 37.5q82 0 116.5 -37.5t30.5 -129.5l-9 -180q-1 -52 34 -52q15 0 43 28l9 -10q-33 -50 -83 -76q-35 -17 -53.5 -46t-18.5 -59q0 -33 18 -51t50 -18q33 0 63 30l6 -6q-11 -29 -40.5 -53.5t-68.5 -24.5zM200 57q36 0 69 35l6 148q-78 -19 -108 -46.5
t-30 -66.5q0 -31 18 -50.5t45 -19.5z" />
    <glyph glyph-name="Cacute" unicode="&#x106;" horiz-adv-x="692" 
d="M316 688l100 185h120l-202 -185h-18zM391 -13q-161 0 -260 88t-99 231q0 146 100 239.5t267 93.5q92 0 158 -34l72 21l5 -207h-25l-84 167q-46 30 -125 30q-106 0 -166.5 -84t-60.5 -217q0 -138 63 -222t162 -84q120 0 189 112l37 87h27l-30 -186h-43q-30 -13 -84.5 -24
t-102.5 -11z" />
    <glyph glyph-name="cacute" unicode="&#x107;" horiz-adv-x="441" 
d="M184 498l100 185h120l-202 -185h-18zM232 -15q-90 0 -149 62.5t-59 157.5q0 105 67.5 175t172.5 70q69 0 113 -28t44 -72q0 -27 -17.5 -44t-42.5 -17q-28 0 -45.5 21.5t-15.5 50.5q0 12 9 27t9 16q-2 9 -18 16.5t-35 7.5q-52 0 -85 -49t-33 -132q0 -87 39.5 -137.5
t106.5 -50.5q80 0 124 74l12 -6q-63 -142 -197 -142z" />
    <glyph glyph-name="Ccircumflex" unicode="&#x108;" horiz-adv-x="692" 
d="M239 681l136 197h19l136 -197h-15l-129 98h-2l-131 -98h-14zM391 -13q-161 0 -260 88t-99 231q0 146 100 239.5t267 93.5q92 0 158 -34l72 21l5 -207h-25l-84 167q-46 30 -125 30q-106 0 -166.5 -84t-60.5 -217q0 -138 63 -222t162 -84q120 0 189 112l37 87h27l-30 -186
h-43q-30 -13 -84.5 -24t-102.5 -11z" />
    <glyph glyph-name="ccircumflex" unicode="&#x109;" horiz-adv-x="441" 
d="M104 491l136 197h19l136 -197h-15l-129 98h-2l-131 -98h-14zM232 -15q-90 0 -149 62.5t-59 157.5q0 105 67.5 175t172.5 70q69 0 113 -28t44 -72q0 -27 -17.5 -44t-42.5 -17q-28 0 -45.5 21.5t-15.5 50.5q0 12 9 27t9 16q-2 9 -18 16.5t-35 7.5q-52 0 -85 -49t-33 -132
q0 -87 39.5 -137.5t106.5 -50.5q80 0 124 74l12 -6q-63 -142 -197 -142z" />
    <glyph glyph-name="Cdotaccent" unicode="&#x10a;" horiz-adv-x="692" 
d="M391 -13q-161 0 -260 88t-99 231q0 146 100 239.5t267 93.5q92 0 158 -34l72 21l5 -207h-25l-84 167q-46 30 -125 30q-106 0 -166.5 -84t-60.5 -217q0 -138 63 -222t162 -84q120 0 189 112l37 87h27l-30 -186h-43q-30 -13 -84.5 -24t-102.5 -11zM391 714
q-31 0 -49.5 20.5t-18.5 47.5t18.5 48t49.5 21t48.5 -21t17.5 -48t-17.5 -47.5t-48.5 -20.5z" />
    <glyph glyph-name="cdotaccent" unicode="&#x10b;" horiz-adv-x="441" 
d="M232 -15q-90 0 -149 62.5t-59 157.5q0 105 67.5 175t172.5 70q69 0 113 -28t44 -72q0 -27 -17.5 -44t-42.5 -17q-28 0 -45.5 21.5t-15.5 50.5q0 12 9 27t9 16q-2 9 -18 16.5t-35 7.5q-52 0 -85 -49t-33 -132q0 -87 39.5 -137.5t106.5 -50.5q80 0 124 74l12 -6
q-63 -142 -197 -142zM250 524q-31 0 -49.5 20.5t-18.5 47.5t18.5 48t49.5 21t48.5 -21t17.5 -48t-17.5 -47.5t-48.5 -20.5z" />
    <glyph glyph-name="Ccaron" unicode="&#x10c;" horiz-adv-x="692" 
d="M368 681l-136 197h14l131 -99h2l130 99h14l-136 -197h-19zM391 -13q-161 0 -260 88t-99 231q0 146 100 239.5t267 93.5q92 0 158 -34l72 21l5 -207h-25l-84 167q-46 30 -125 30q-106 0 -166.5 -84t-60.5 -217q0 -138 63 -222t162 -84q120 0 189 112l37 87h27l-30 -186
h-43q-30 -13 -84.5 -24t-102.5 -11z" />
    <glyph glyph-name="ccaron" unicode="&#x10d;" horiz-adv-x="441" 
d="M238 491l-136 197h14l131 -99h2l130 99h14l-136 -197h-19zM232 -15q-90 0 -149 62.5t-59 157.5q0 105 67.5 175t172.5 70q69 0 113 -28t44 -72q0 -27 -17.5 -44t-42.5 -17q-28 0 -45.5 21.5t-15.5 50.5q0 12 9 27t9 16q-2 9 -18 16.5t-35 7.5q-52 0 -85 -49t-33 -132
q0 -87 39.5 -137.5t106.5 -50.5q80 0 124 74l12 -6q-63 -142 -197 -142z" />
    <glyph glyph-name="Dcaron" unicode="&#x10e;" horiz-adv-x="697" 
d="M299 681l-136 197h14l131 -99h2l130 99h14l-136 -197h-19zM22 0l3 16l37 4q44 6 44 18v552q0 6 -9.5 9t-42.5 6l-28 4l-3 16q18 0 48 0.5t93 0.5t104.5 0.5t39.5 0.5q172 1 265.5 -81t93.5 -224q0 -136 -102 -229t-270 -93h-273zM304 20q105 1 163.5 81t58.5 199
q0 142 -61 223t-182 81h-47v-567z" />
    <glyph glyph-name="dcaron" unicode="&#x10f;" horiz-adv-x="741" 
d="M358 -15v87l-2 1q-69 -87 -152 -87q-77 0 -128.5 61.5t-51.5 154.5q0 111 72.5 177t170.5 66q53 0 90 -15q1 -1 1 0v136q0 27 -6.5 38t-26.5 15l-41 11l2 11l186 38v-594q0 -26 5 -34.5t20 -13.5l41 -10l-2 -12zM270 56q47 0 88 41v241q-21 38 -50 61.5t-57 23.5
q-48 0 -75.5 -53t-27.5 -135q0 -78 33.5 -128.5t88.5 -50.5zM559 401l-12 11q88 48 88 119q0 20 -9 35t-22 23t-26 12.5t-22 6.5t-9 3q0 26 19 47.5t52 21.5q42 0 68.5 -29t26.5 -70q0 -52 -41.5 -100t-112.5 -80z" />
    <glyph glyph-name="Dcroat" unicode="&#x110;" horiz-adv-x="694" 
d="M106 303h-86l3 23h83v260q0 12 -47 17l-38 6l-3 16q19 0 49 0.5t94 0.5t105.5 0.5t39.5 0.5q172 1 266 -81.5t94 -223.5q0 -137 -102 -229.5t-270 -92.5h-277l3 16l46 7q40 4 40 18v262zM235 326h123l3 -23h-126v-265l68 -17q105 0 164 79.5t59 198.5q0 142 -61.5 223.5
t-183.5 81.5h-46v-278z" />
    <glyph glyph-name="dcroat" unicode="&#x111;" horiz-adv-x="537" 
d="M358 -15v87l-2 1q-69 -87 -152 -87q-77 0 -128.5 61.5t-51.5 154.5q0 111 72.5 177t170.5 66q53 0 90 -15q1 -1 1 0v75h-107l-8 42h115v19q0 27 -6.5 38t-26.5 15l-41 11l2 11l186 38v-132h61l10 -42h-71v-420q0 -26 5 -34.5t20 -13.5l41 -10l-2 -12zM270 56q47 0 88 41
v241q-21 38 -50 61.5t-57 23.5q-48 0 -75.5 -53t-27.5 -135q0 -78 33.5 -128.5t88.5 -50.5z" />
    <glyph glyph-name="Emacron" unicode="&#x112;" horiz-adv-x="619" 
d="M22 0l3 16l36 4q45 6 45 18v552q0 6 -9.5 9t-42.5 6l-28 4l-3 16h521l7 -205h-26l-9 33q-24 87 -69 119.5t-144 31.5l-67 -1v-274l37 1q60 2 89 18t42 57l11 32h21l-25 -240l-20 1l-4 31q-4 44 -28 60t-93 19l-30 1v-285l83 -3q98 1 148.5 38.5t79.5 115.5l10 30h26
l-26 -205h-535zM169 719l11 47h262l-8 -47h-265z" />
    <glyph glyph-name="emacron" unicode="&#x113;" horiz-adv-x="456" 
d="M232 -15q-89 0 -148.5 63t-59.5 159q0 104 67 174t168 70q79 0 124 -42t45 -104q0 -15 -3 -28q-259 2 -278 4q-2 -10 -2 -38q0 -82 41.5 -133t107.5 -51q81 0 127 74l12 -6q-63 -142 -201 -142zM148 298l168 1q1 55 -16.5 92.5t-53.5 37.5t-63.5 -36.5t-34.5 -94.5z
M110 529l11 47h262l-8 -47h-265z" />
    <glyph glyph-name="Ebreve" unicode="&#x114;" horiz-adv-x="619" 
d="M22 0l3 16l36 4q45 6 45 18v552q0 6 -9.5 9t-42.5 6l-28 4l-3 16h521l7 -205h-26l-9 33q-24 87 -69 119.5t-144 31.5l-67 -1v-274l37 1q60 2 89 18t42 57l11 32h21l-25 -240l-20 1l-4 31q-4 44 -28 60t-93 19l-30 1v-285l83 -3q98 1 148.5 38.5t79.5 115.5l10 30h26
l-26 -205h-535zM312 683q-59 0 -91.5 48t-50.5 135h18q38 -110 125 -110q88 0 126 110h16q-16 -87 -48.5 -135t-94.5 -48z" />
    <glyph glyph-name="ebreve" unicode="&#x115;" horiz-adv-x="456" 
d="M232 -15q-89 0 -148.5 63t-59.5 159q0 104 67 174t168 70q79 0 124 -42t45 -104q0 -15 -3 -28q-259 2 -278 4q-2 -10 -2 -38q0 -82 41.5 -133t107.5 -51q81 0 127 74l12 -6q-63 -142 -201 -142zM148 298l168 1q1 55 -16.5 92.5t-53.5 37.5t-63.5 -36.5t-34.5 -94.5z
M246 493q-59 0 -91.5 48t-50.5 135h18q38 -110 125 -110q88 0 126 110h16q-16 -87 -48.5 -135t-94.5 -48z" />
    <glyph glyph-name="Edotaccent" unicode="&#x116;" horiz-adv-x="619" 
d="M22 0l3 16l36 4q45 6 45 18v552q0 6 -9.5 9t-42.5 6l-28 4l-3 16h521l7 -205h-26l-9 33q-24 87 -69 119.5t-144 31.5l-67 -1v-274l37 1q60 2 89 18t42 57l11 32h21l-25 -240l-20 1l-4 31q-4 44 -28 60t-93 19l-30 1v-285l83 -3q98 1 148.5 38.5t79.5 115.5l10 30h26
l-26 -205h-535zM310 714q-31 0 -49.5 20.5t-18.5 47.5t18.5 48t49.5 21t48.5 -21t17.5 -48t-17.5 -47.5t-48.5 -20.5z" />
    <glyph glyph-name="edotaccent" unicode="&#x117;" horiz-adv-x="456" 
d="M232 -15q-89 0 -148.5 63t-59.5 159q0 104 67 174t168 70q79 0 124 -42t45 -104q0 -15 -3 -28q-259 2 -278 4q-2 -10 -2 -38q0 -82 41.5 -133t107.5 -51q81 0 127 74l12 -6q-63 -142 -201 -142zM148 298l168 1q1 55 -16.5 92.5t-53.5 37.5t-63.5 -36.5t-34.5 -94.5z
M250 524q-31 0 -49.5 20.5t-18.5 47.5t18.5 48t49.5 21t48.5 -21t17.5 -48t-17.5 -47.5t-48.5 -20.5z" />
    <glyph glyph-name="Eogonek" unicode="&#x118;" horiz-adv-x="619" 
d="M450 -236q-42 0 -70 26.5t-28 67.5q0 82 117 142h-446l3 16l35 4q45 6 45 17v553q0 6 -9.5 9t-42.5 7l-28 3l-3 16h520l7 -204h-25l-9 33q-25 87 -70 119t-143 31h-68v-274h38q60 2 89 18t42 56l11 33l21 -1l-25 -239l-20 1l-4 31q-4 44 -28 60t-93 19l-31 2v-286l84 -4
q98 1 148.5 39t78.5 116l11 30h26l-26 -205h-59q-74 -48 -74 -113q0 -32 17.5 -50.5t48.5 -18.5t63 30l5 -6q-10 -29 -39.5 -53.5t-68.5 -24.5z" />
    <glyph glyph-name="eogonek" unicode="&#x119;" horiz-adv-x="456" 
d="M264 -236q-42 0 -70 25.5t-28 67.5q0 40 30 74t74 57q-14 -3 -38 -3q-90 0 -149.5 63t-59.5 158q0 104 67.5 174t167.5 70q80 0 125 -41t45 -104q0 -13 -3 -28q-259 3 -279 3q-1 -9 -1 -37q0 -82 41 -133t107 -51q83 0 128 74l11 -6q-39 -90 -113 -126q-38 -20 -60 -51.5
t-22 -62.5q0 -33 17.5 -51t49.5 -18q31 0 63 30l5 -6q-10 -29 -39.5 -53.5t-68.5 -24.5zM148 297l167 2q2 55 -15.5 92.5t-54.5 37.5q-35 0 -62.5 -36.5t-34.5 -95.5z" />
    <glyph glyph-name="Ecaron" unicode="&#x11a;" horiz-adv-x="619" 
d="M299 681l-136 197h14l131 -99h2l130 99h14l-136 -197h-19zM22 0l3 16l36 4q45 6 45 18v552q0 6 -9.5 9t-42.5 6l-28 4l-3 16h521l7 -205h-26l-9 33q-24 87 -69 119.5t-144 31.5l-67 -1v-274l37 1q60 2 89 18t42 57l11 32h21l-25 -240l-20 1l-4 31q-4 44 -28 60t-93 19
l-30 1v-285l83 -3q98 1 148.5 38.5t79.5 115.5l10 30h26l-26 -205h-535z" />
    <glyph glyph-name="ecaron" unicode="&#x11b;" horiz-adv-x="456" 
d="M238 491l-136 197h14l131 -99h2l130 99h14l-136 -197h-19zM232 -15q-89 0 -148.5 63t-59.5 159q0 104 67 174t168 70q79 0 124 -42t45 -104q0 -15 -3 -28q-259 2 -278 4q-2 -10 -2 -38q0 -82 41.5 -133t107.5 -51q81 0 127 74l12 -6q-63 -142 -201 -142zM148 298l168 1
q1 55 -16.5 92.5t-53.5 37.5t-63.5 -36.5t-34.5 -94.5z" />
    <glyph glyph-name="Gcircumflex" unicode="&#x11c;" horiz-adv-x="721" 
d="M385 -16q-160 0 -256.5 90.5t-96.5 232.5q0 146 100 239t267 93q45 0 91 -10t70 -23l71 20l2 -206h-26l-81 165q-45 32 -129 32q-104 0 -163.5 -84.5t-59.5 -216.5q0 -145 63.5 -227.5t155.5 -82.5q63 0 107 28v206q0 12 -59 16l-36 3l-3 17h305l-3 -17l-41 -4
q-39 -4 -39 -15v-181l58 5l2 -12q-61 -28 -146 -48t-153 -20zM233 681l136 197h19l136 -197h-15l-129 98h-2l-131 -98h-14z" />
    <glyph glyph-name="gcircumflex" unicode="&#x11d;" horiz-adv-x="482" 
d="M83 491l136 197h19l136 -197h-15l-129 98h-2l-131 -98h-14zM191 -245q-88 0 -134 27t-46 77q0 67 117 111v2q-44 5 -73.5 30t-29.5 57q0 37 32 65t76 40l1 2q-92 35 -92 128q0 64 52.5 109.5t131.5 45.5q68 0 121 -33l136 17l-8 -59l-99 15l-1 -4q35 -33 35 -81
q0 -66 -53.5 -109t-135.5 -43q-34 0 -64 7q-22 -5 -35.5 -18t-13.5 -30q0 -39 76 -39q16 0 62.5 1.5t65.5 1.5q68 0 108.5 -34t40.5 -91q0 -82 -76 -138.5t-194 -56.5zM225 170q75 0 75 125q0 135 -75 135q-71 0 -71 -127q0 -64 19 -98.5t52 -34.5zM243 -218
q62 0 101.5 31.5t39.5 77.5q0 38 -27 57.5t-86 22.5q-25 2 -120 -4q-23 -9 -37 -31.5t-14 -51.5q0 -45 39.5 -73.5t103.5 -28.5z" />
    <glyph glyph-name="Gbreve" unicode="&#x11e;" horiz-adv-x="721" 
d="M385 -16q-160 0 -256.5 90.5t-96.5 232.5q0 146 100 239t267 93q45 0 91 -10t70 -23l71 20l2 -206h-26l-81 165q-45 32 -129 32q-104 0 -163.5 -84.5t-59.5 -216.5q0 -145 63.5 -227.5t155.5 -82.5q63 0 107 28v206q0 12 -59 16l-36 3l-3 17h305l-3 -17l-41 -4
q-39 -4 -39 -15v-181l58 5l2 -12q-61 -28 -146 -48t-153 -20zM384 683q-59 0 -91.5 48t-50.5 135h18q38 -110 125 -110q88 0 126 110h16q-16 -87 -48.5 -135t-94.5 -48z" />
    <glyph glyph-name="gbreve" unicode="&#x11f;" horiz-adv-x="482" 
d="M191 -245q-88 0 -134 27t-46 77q0 67 117 111v2q-44 5 -73.5 30t-29.5 57q0 37 32 65t76 40l1 2q-92 35 -92 128q0 64 52.5 109.5t131.5 45.5q68 0 121 -33l136 17l-8 -59l-99 15l-1 -4q35 -33 35 -81q0 -66 -53.5 -109t-135.5 -43q-34 0 -64 7q-22 -5 -35.5 -18
t-13.5 -30q0 -39 76 -39q16 0 62.5 1.5t65.5 1.5q68 0 108.5 -34t40.5 -91q0 -82 -76 -138.5t-194 -56.5zM243 -218q62 0 101.5 31.5t39.5 77.5q0 38 -27 57.5t-86 22.5q-25 2 -120 -4q-23 -9 -37 -31.5t-14 -51.5q0 -45 39.5 -73.5t103.5 -28.5zM225 170q75 0 75 125
q0 135 -75 135q-71 0 -71 -127q0 -64 19 -98.5t52 -34.5zM223 493q-59 0 -91.5 48t-50.5 135h18q38 -110 125 -110q88 0 126 110h16q-16 -87 -48.5 -135t-94.5 -48z" />
    <glyph glyph-name="Gdotaccent" unicode="&#x120;" horiz-adv-x="721" 
d="M385 -16q-160 0 -256.5 90.5t-96.5 232.5q0 146 100 239t267 93q45 0 91 -10t70 -23l71 20l2 -206h-26l-81 165q-45 32 -129 32q-104 0 -163.5 -84.5t-59.5 -216.5q0 -145 63.5 -227.5t155.5 -82.5q63 0 107 28v206q0 12 -59 16l-36 3l-3 17h305l-3 -17l-41 -4
q-39 -4 -39 -15v-181l58 5l2 -12q-61 -28 -146 -48t-153 -20zM387 714q-31 0 -49.5 20.5t-18.5 47.5t18.5 48t49.5 21t48.5 -21t17.5 -48t-17.5 -47.5t-48.5 -20.5z" />
    <glyph glyph-name="gdotaccent" unicode="&#x121;" horiz-adv-x="482" 
d="M191 -245q-88 0 -134 27t-46 77q0 67 117 111v2q-44 5 -73.5 30t-29.5 57q0 37 32 65t76 40l1 2q-92 35 -92 128q0 64 52.5 109.5t131.5 45.5q68 0 121 -33l136 17l-8 -59l-99 15l-1 -4q35 -33 35 -81q0 -66 -53.5 -109t-135.5 -43q-34 0 -64 7q-22 -5 -35.5 -18
t-13.5 -30q0 -39 76 -39q16 0 62.5 1.5t65.5 1.5q68 0 108.5 -34t40.5 -91q0 -82 -76 -138.5t-194 -56.5zM225 170q75 0 75 125q0 135 -75 135q-71 0 -71 -127q0 -64 19 -98.5t52 -34.5zM243 -218q62 0 101.5 31.5t39.5 77.5q0 38 -27 57.5t-86 22.5q-25 2 -120 -4
q-23 -9 -37 -31.5t-14 -51.5q0 -45 39.5 -73.5t103.5 -28.5zM229 524q-31 0 -49.5 20.5t-18.5 47.5t18.5 48t49.5 21t48.5 -21t17.5 -48t-17.5 -47.5t-48.5 -20.5z" />
    <glyph glyph-name="Gcommaaccent" unicode="&#x122;" horiz-adv-x="721" 
d="M337 -281l-8 10q38 10 59.5 33t21.5 53q0 34 -31 49t-54 2q-8 29 11 53t56 24q39 0 62.5 -24.5t23.5 -62.5q0 -44 -39.5 -83.5t-101.5 -53.5zM385 -16q-160 0 -256.5 90.5t-96.5 232.5q0 146 100 239t267 93q45 0 91 -10t70 -23l71 20l2 -206h-26l-81 165q-45 32 -129 32
q-104 0 -163.5 -84.5t-59.5 -216.5q0 -145 63.5 -227.5t155.5 -82.5q63 0 107 28v206q0 12 -59 16l-36 3l-3 17h305l-3 -17l-41 -4q-39 -4 -39 -15v-181l58 5l2 -12q-61 -28 -146 -48t-153 -20z" />
    <glyph glyph-name="gcommaaccent" unicode="&#x123;" horiz-adv-x="482" 
d="M295 717l8 -10q-38 -10 -59.5 -33t-21.5 -53q0 -34 31 -49t54 -2q8 -29 -11 -53t-56 -24q-39 0 -62.5 24.5t-23.5 62.5q0 44 39.5 83.5t101.5 53.5zM191 -245q-88 0 -134 27t-46 77q0 67 117 111v2q-44 5 -73.5 30t-29.5 57q0 37 32 65t76 40l1 2q-92 35 -92 128
q0 64 52.5 109.5t131.5 45.5q68 0 121 -33l136 17l-8 -59l-99 15l-1 -4q35 -33 35 -81q0 -66 -53.5 -109t-135.5 -43q-34 0 -64 7q-22 -5 -35.5 -18t-13.5 -30q0 -39 76 -39q16 0 62.5 1.5t65.5 1.5q68 0 108.5 -34t40.5 -91q0 -82 -76 -138.5t-194 -56.5zM225 170
q75 0 75 125q0 135 -75 135q-71 0 -71 -127q0 -64 19 -98.5t52 -34.5zM243 -218q62 0 101.5 31.5t39.5 77.5q0 38 -27 57.5t-86 22.5q-25 2 -120 -4q-23 -9 -37 -31.5t-14 -51.5q0 -45 39.5 -73.5t103.5 -28.5z" />
    <glyph glyph-name="Hcircumflex" unicode="&#x124;" 
d="M229 681l136 197h19l136 -197h-15l-129 98h-2l-131 -98h-14zM22 0l3 16l37 4q44 6 44 18v552q0 6 -9.5 9t-42.5 6l-28 4l-3 16h296l-3 -16l-37 -4q-44 -5 -44 -18v-258h280v261q0 6 -9 9t-42 6l-29 4l-3 16h296l-3 -16l-37 -4q-43 -6 -43 -18v-552q0 -6 9 -9t42 -6l28 -4
l3 -16h-296l3 16l38 4q43 6 43 18v269h-280v-272q0 -6 9 -9t42 -6l29 -4l3 -16h-296z" />
    <glyph glyph-name="hcircumflex" unicode="&#x125;" horiz-adv-x="538" 
d="M10 0l3 16l17 1q23 2 31 5t8 12v522q0 27 -6 37t-26 16l-32 11l2 12l178 47v-313l2 -1q101 84 169 84q47 0 81 -32q33 -34 33 -112v-271q0 -12 49 -17l14 -1l3 -16h-237l3 16l19 1q35 2 35 17v244q0 52 -20.5 73.5t-62.5 21.5q-47 0 -89 -30v-310q0 -13 43 -16l18 -1
l3 -16h-238zM14 695l136 197h19l136 -197h-15l-129 98h-2l-131 -98h-14z" />
    <glyph glyph-name="Hbar" unicode="&#x126;" 
d="M10 438l10 40h86v112q0 6 -9.5 9t-42.5 7l-28 3l-3 16h296l-3 -16l-38 -4q-43 -5 -43 -17v-110h280v112q0 6 -9 9t-42 7l-29 3l-3 16h296l-3 -16l-37 -4q-44 -5 -44 -17v-110h100l-8 -40h-92v-403q0 -6 9.5 -9t42.5 -6l28 -4l3 -16h-296l3 16l38 4q43 4 43 17v271h-280
v-273q0 -6 9 -9t42 -6l29 -4l3 -16h-295l3 16l36 4q44 6 44 17v401h-96zM235 329h280v109h-280v-109z" />
    <glyph glyph-name="hbar" unicode="&#x127;" horiz-adv-x="538" 
d="M-1 505l10 42h60v20q-2 20 -8 28.5t-24 13.5l-32 12l2 11l178 48v-133h114l-8 -42h-106v-139l2 -1q99 84 169 84q48 0 81 -33q33 -34 33 -111v-272q0 -11 48 -16l14 -1l3 -16h-236l3 16l18 1q23 1 29.5 5t6.5 12v244q0 52 -20.5 73.5t-62.5 21.5q-48 0 -89 -31v-310
q0 -12 43 -15l18 -1l3 -16h-238l3 16l17 1q23 2 31.5 5t8.5 12v471h-71z" />
    <glyph glyph-name="Imacron" unicode="&#x12a;" horiz-adv-x="365" 
d="M30 0l3 16l41 4q44 4 44 18v552q0 6 -9.5 9t-42.5 6l-33 4l-3 16h305l-3 -16l-41 -4q-44 -4 -44 -18v-552q0 -6 9.5 -9t41.5 -6l33 -4l3 -16h-304zM46 719l11 47h262l-8 -47h-265z" />
    <glyph glyph-name="imacron" unicode="&#x12b;" horiz-adv-x="273" 
d="M20 0l3 16l17 1q23 2 31.5 5t8.5 12v269q0 45 -7.5 58.5t-34.5 20.5l-21 5l1 12l177 49v-415q0 -7 8.5 -10t38.5 -6l14 -1l3 -16h-239zM-3 529l11 47h262l-8 -47h-265z" />
    <glyph glyph-name="Ibreve" unicode="&#x12c;" horiz-adv-x="365" 
d="M30 0l3 16l41 4q44 4 44 18v552q0 6 -9.5 9t-42.5 6l-33 4l-3 16h305l-3 -16l-41 -4q-44 -4 -44 -18v-552q0 -6 9.5 -9t41.5 -6l33 -4l3 -16h-304zM186 683q-59 0 -91.5 48t-50.5 135h18q38 -110 125 -110q88 0 126 110h16q-16 -87 -48.5 -135t-94.5 -48z" />
    <glyph glyph-name="ibreve" unicode="&#x12d;" horiz-adv-x="273" 
d="M20 0l3 16l17 1q23 2 31.5 5t8.5 12v269q0 45 -7.5 58.5t-34.5 20.5l-21 5l1 12l177 49v-415q0 -7 8.5 -10t38.5 -6l14 -1l3 -16h-239zM134 493q-59 0 -91.5 48t-50.5 135h18q38 -110 125 -110q88 0 126 110h16q-16 -87 -48.5 -135t-94.5 -48z" />
    <glyph glyph-name="Iogonek" unicode="&#x12e;" horiz-adv-x="365" 
d="M226 -236q-44 0 -72.5 23.5t-28.5 66.5q0 49 45 89.5t105 56.5h-245l3 16l41 4q44 4 44 17v553q0 6 -9.5 9t-42.5 7l-33 3l-3 16h305l-3 -16l-41 -4q-44 -4 -44 -17v-553q0 -6 9 -9t42 -6l33 -4l3 -16q-64 -11 -100.5 -42t-36.5 -74q0 -66 69 -66q31 0 63 30l5 -6
q-11 -29 -40.5 -53.5t-67.5 -24.5z" />
    <glyph glyph-name="iogonek" unicode="&#x12f;" horiz-adv-x="273" 
d="M150 -236q-44 0 -72.5 22t-28.5 66q0 51 43.5 91.5t104.5 56.5h-177l3 16l18 1q23 2 31 5t8 12v269q0 46 -7.5 59.5t-33.5 19.5l-22 5l1 12l176 49v-416q0 -6 9 -9t39 -6l14 -1l3 -16q-62 -11 -100 -41.5t-38 -77.5q0 -63 70 -63q32 0 62 30l6 -6q-11 -29 -40.5 -53.5
t-68.5 -24.5zM130 517q-33 0 -52 21t-19 49t19 49.5t52 21.5t52.5 -21.5t19.5 -49.5q0 -27 -19.5 -48.5t-52.5 -21.5z" />
    <glyph glyph-name="Idotaccent" unicode="&#x130;" horiz-adv-x="365" 
d="M30 0l3 16l41 4q44 4 44 18v552q0 6 -9.5 9t-42.5 6l-33 4l-3 16h305l-3 -16l-41 -4q-44 -4 -44 -18v-552q0 -6 9.5 -9t41.5 -6l33 -4l3 -16h-304zM185 714q-31 0 -49.5 20.5t-18.5 47.5t18.5 48t49.5 21t48.5 -21t17.5 -48t-17.5 -47.5t-48.5 -20.5z" />
    <glyph glyph-name="dotlessi" unicode="&#x131;" horiz-adv-x="273" 
d="M20 0l3 16l17 1q23 2 31.5 5t8.5 12v269q0 45 -7.5 58.5t-34.5 20.5l-21 5l1 12l177 49v-415q0 -7 8.5 -10t38.5 -6l14 -1l3 -16h-239z" />
    <glyph glyph-name="Jcircumflex" unicode="&#x134;" horiz-adv-x="377" 
d="M59 681l136 197h19l136 -197h-15l-129 98h-2l-131 -98h-14zM23 -149q-45 0 -73.5 21t-28.5 53q0 27 18.5 45t47.5 18q42 0 59.5 -38t-5.5 -76q83 6 83 202v514q0 12 -51 15l-36 4l-3 16h306l-3 -16l-39 -4q-44 -5 -44 -18v-494q0 -81 -74 -161.5t-157 -80.5z" />
    <glyph glyph-name="jcircumflex" unicode="&#x135;" horiz-adv-x="261" 
d="M-11 -255q-38 0 -60.5 18t-22.5 46q0 24 17 40t41 16q33 0 50 -27t11 -60q52 6 52 160v365q0 45 -8 59t-34 20l-22 5l1 12l177 49v-469q-2 -81 -68 -157.5t-134 -76.5zM-20 491l136 197h19l136 -197h-15l-129 98h-2l-131 -98h-14z" />
    <glyph glyph-name="Kcommaaccent" unicode="&#x136;" horiz-adv-x="691" 
d="M299 -281l-8 10q38 10 59.5 33t21.5 53q0 34 -31 49t-54 2q-8 29 11 53t56 24q39 0 62.5 -24.5t23.5 -62.5q0 -44 -39.5 -83.5t-101.5 -53.5zM22 0l3 16l38 4q43 5 43 18v552q0 6 -9 9t-42 6l-29 4l-3 16h301l-3 -16l-42 -4q-44 -4 -44 -18v-300l156 160q102 104 95 133
q-5 19 -55 25l-31 4l-2 16h268l-3 -16l-27 -4q-46 -5 -77.5 -29.5t-128.5 -123.5l-40 -39l193 -312q30 -51 46.5 -65t45.5 -17l19 -3l3 -16h-292l2 16l20 4q16 2 23.5 6t7 15.5t-8.5 29t-26 48.5l-122 205l-66 -66v-223q0 -6 9.5 -9t42.5 -6l33 -4l3 -16h-301z" />
    <glyph glyph-name="kcommaaccent" unicode="&#x137;" horiz-adv-x="517" 
d="M205 -281l-8 10q38 10 59.5 33t21.5 53q0 34 -31 49t-54 2q-8 29 11 53t56 24q39 0 62.5 -24.5t23.5 -62.5q0 -44 -39.5 -83.5t-101.5 -53.5zM12 0l3 16l16 1q24 3 31 6t7 11v522q0 27 -6 37t-26 16l-32 11l2 12l178 47v-467l66 61q90 84 90 112q0 15 -12 22.5t-44 10.5
l-12 1l-2 16h225l-3 -16l-18 -3q-34 -4 -64.5 -25t-90.5 -79l-3 -3t-6 -5.5t-6 -5.5l-2 -3l125 -214q22 -37 35 -48.5t36 -14.5l15 -2l3 -16h-179l-19 38l-100 180l-34 -31v-154q0 -7 8 -10t37 -6l17 -1l2 -16h-237z" />
    <glyph glyph-name="Lacute" unicode="&#x139;" horiz-adv-x="577" 
d="M133 688l100 185h120l-202 -185h-18zM22 0l3 16l38 5q43 4 43 17v551q0 12 -51 16l-29 4l-3 16h308l-3 -16l-49 -5q-44 -3 -44 -17v-563l57 -4q90 0 134 36.5t86 131.5l12 33h26l-29 -221h-499z" />
    <glyph glyph-name="lacute" unicode="&#x13a;" horiz-adv-x="267" 
d="M64 696l100 185h120l-202 -185h-18zM18 0l3 16l17 1q22 2 29.5 5t7.5 12v510q0 35 -6 47t-27 18l-30 11l1 12l178 47v-646q0 -7 8 -10t35 -6l16 -1l3 -16h-235z" />
    <glyph glyph-name="Lcommaaccent" unicode="&#x13b;" horiz-adv-x="577" 
d="M229 -281l-8 10q38 10 59.5 33t21.5 53q0 34 -31 49t-54 2q-8 29 11 53t56 24q39 0 62.5 -24.5t23.5 -62.5q0 -44 -39.5 -83.5t-101.5 -53.5zM22 0l3 16l38 5q43 4 43 17v551q0 12 -51 16l-29 4l-3 16h308l-3 -16l-49 -5q-44 -3 -44 -17v-563l57 -4q90 0 134 36.5
t86 131.5l12 33h26l-29 -221h-499z" />
    <glyph glyph-name="lcommaaccent" unicode="&#x13c;" horiz-adv-x="267" 
d="M73 -281l-8 10q38 10 59.5 33t21.5 53q0 34 -31 49t-54 2q-8 29 11 53t56 24q39 0 62.5 -24.5t23.5 -62.5q0 -44 -39.5 -83.5t-101.5 -53.5zM18 0l3 16l17 1q22 2 29.5 5t7.5 12v510q0 35 -6 47t-27 18l-30 11l1 12l178 47v-646q0 -7 8 -10t35 -6l16 -1l3 -16h-235z" />
    <glyph glyph-name="Lcaron" unicode="&#x13d;" horiz-adv-x="700" 
d="M538 360l-12 11q88 48 88 119q0 20 -9 35t-22 23t-26 12.5t-22 6.5t-9 3q0 26 19 47.5t52 21.5q42 0 68.5 -29t26.5 -70q0 -52 -41.5 -100t-112.5 -80zM22 0l3 16l38 5q43 4 43 17v551q0 12 -51 16l-29 4l-3 16h308l-3 -16l-49 -5q-44 -3 -44 -17v-563l57 -4
q90 0 134 36.5t86 131.5l12 33h26l-29 -221h-499z" />
    <glyph glyph-name="lcaron" unicode="&#x13e;" horiz-adv-x="458" 
d="M277 403l-12 11q88 48 88 119q0 20 -9 35t-22 23t-26 12.5t-22 6.5t-9 3q0 26 19 47.5t52 21.5q42 0 68.5 -29t26.5 -70q0 -52 -41.5 -100t-112.5 -80zM18 0l3 16l17 1q22 2 29.5 5t7.5 12v510q0 35 -6 47t-27 18l-30 11l1 12l178 47v-646q0 -7 8 -10t35 -6l16 -1l3 -16
h-235z" />
    <glyph glyph-name="Ldot" unicode="&#x13f;" horiz-adv-x="669" 
d="M660 239q-30 0 -50.5 21t-20.5 50q0 28 20.5 48.5t50.5 20.5q29 0 49.5 -21t20.5 -48q0 -29 -20.5 -50t-49.5 -21zM22 0l3 16l38 5q43 4 43 17v551q0 12 -51 16l-29 4l-3 16h308l-3 -16l-49 -5q-44 -3 -44 -17v-563l57 -4q90 0 134 36.5t86 131.5l12 33h26l-29 -221h-499
z" />
    <glyph glyph-name="ldotaccent" unicode="&#x140;" horiz-adv-x="448" 
d="M362 228q-30 0 -50.5 21t-20.5 50q0 28 20.5 48.5t50.5 20.5q29 0 49.5 -21t20.5 -48q0 -29 -20.5 -50t-49.5 -21zM18 0l3 16l17 1q22 2 29.5 5t7.5 12v510q0 35 -6 47t-27 18l-30 11l1 12l178 47v-646q0 -7 8 -10t35 -6l16 -1l3 -16h-235z" />
    <glyph glyph-name="Lslash" unicode="&#x141;" horiz-adv-x="579" 
d="M107 255l-93 -29l1 24l92 29v306q0 7 -8.5 10t-38.5 7l-36 5l-3 18h312l-3 -18l-54 -6q-40 -5 -40 -18v-264l101 31l2 -23l-103 -32v-271l58 -4q89 0 133 36t87 131l11 34h26l-28 -221h-503l3 18l44 6q40 4 40 18v213z" />
    <glyph glyph-name="lslash" unicode="&#x142;" horiz-adv-x="267" 
d="M75 238l-73 -22l1 23l72 22v282q0 35 -6 47t-27 18l-30 11l1 12l178 49v-383l73 23l1 -23l-74 -23v-236q0 -7 7.5 -9.5t34.5 -7.5l19 -4l3 -17h-237l3 17l18 4q22 3 29 6.5t7 11.5v199z" />
    <glyph glyph-name="Nacute" unicode="&#x143;" horiz-adv-x="709" 
d="M319 688l100 185h120l-202 -185h-18zM566 -6l-425 527h-3l1 -415q0 -49 15 -65.5t59 -20.5l30 -4l3 -16h-226l3 16l28 4q36 3 49.5 22t13.5 69l3 423q-34 59 -87 69l-21 6l-3 16h223l348 -437h3l-1 330q0 49 -15 66t-59 21l-29 4l-3 16h225l-3 -16l-28 -4
q-36 -3 -49.5 -22t-13.5 -70l-3 -519h-35z" />
    <glyph glyph-name="nacute" unicode="&#x144;" horiz-adv-x="548" 
d="M219 498l100 185h120l-202 -185h-18zM19 0l3 16l17 1q23 2 31.5 5t8.5 12v268q0 46 -7.5 59.5t-34.5 20.5l-21 5l1 12l178 49l-2 -83h3q101 84 170 84q48 0 80 -32q34 -34 34 -112v-271q0 -12 48 -17l14 -1l3 -16h-236l3 16l18 1q36 2 36 17v242q0 53 -21 75t-63 22
q-46 0 -88 -30v-310q0 -7 8 -10.5t34 -5.5l19 -1l2 -16h-238z" />
    <glyph glyph-name="Ncommaaccent" unicode="&#x145;" horiz-adv-x="709" 
d="M287 -281l-8 10q38 10 59.5 33t21.5 53q0 34 -31 49t-54 2q-8 29 11 53t56 24q39 0 62.5 -24.5t23.5 -62.5q0 -44 -39.5 -83.5t-101.5 -53.5zM566 -6l-425 527h-3l1 -415q0 -49 15 -65.5t59 -20.5l30 -4l3 -16h-226l3 16l28 4q36 3 49.5 22t13.5 69l3 423q-34 59 -87 69
l-21 6l-3 16h223l348 -437h3l-1 330q0 49 -15 66t-59 21l-29 4l-3 16h225l-3 -16l-28 -4q-36 -3 -49.5 -22t-13.5 -70l-3 -519h-35z" />
    <glyph glyph-name="ncommaaccent" unicode="&#x146;" horiz-adv-x="548" 
d="M19 0l3 16l17 1q23 2 31.5 5t8.5 12v268q0 46 -7.5 59.5t-34.5 20.5l-21 5l1 12l178 49l-2 -83h3q101 84 170 84q48 0 80 -32q34 -34 34 -112v-271q0 -12 48 -17l14 -1l3 -16h-236l3 16l18 1q36 2 36 17v242q0 53 -21 75t-63 22q-46 0 -88 -30v-310q0 -7 8 -10.5t34 -5.5
l19 -1l2 -16h-238zM217 -281l-8 10q38 10 59.5 33t21.5 53q0 34 -31 49t-54 2q-8 29 11 53t56 24q39 0 62.5 -24.5t23.5 -62.5q0 -44 -39.5 -83.5t-101.5 -53.5z" />
    <glyph glyph-name="Ncaron" unicode="&#x147;" horiz-adv-x="709" 
d="M362 681l-136 197h14l131 -99h2l130 99h14l-136 -197h-19zM566 -6l-425 527h-3l1 -415q0 -49 15 -65.5t59 -20.5l30 -4l3 -16h-226l3 16l28 4q36 3 49.5 22t13.5 69l3 423q-34 59 -87 69l-21 6l-3 16h223l348 -437h3l-1 330q0 49 -15 66t-59 21l-29 4l-3 16h225l-3 -16
l-28 -4q-36 -3 -49.5 -22t-13.5 -70l-3 -519h-35z" />
    <glyph glyph-name="ncaron" unicode="&#x148;" horiz-adv-x="548" 
d="M258 491l-136 197h14l131 -99h2l130 99h14l-136 -197h-19zM19 0l3 16l17 1q23 2 31.5 5t8.5 12v268q0 46 -7.5 59.5t-34.5 20.5l-21 5l1 12l178 49l-2 -83h3q101 84 170 84q48 0 80 -32q34 -34 34 -112v-271q0 -12 48 -17l14 -1l3 -16h-236l3 16l18 1q36 2 36 17v242
q0 53 -21 75t-63 22q-46 0 -88 -30v-310q0 -7 8 -10.5t34 -5.5l19 -1l2 -16h-238z" />
    <glyph glyph-name="Omacron" unicode="&#x14c;" horiz-adv-x="745" 
d="M251 719l11 47h262l-8 -47h-265zM368 -14q-148 0 -242 90t-94 234q0 134 102 231t244 97q148 0 242 -90t94 -235q0 -134 -102 -230.5t-244 -96.5zM376 8q93 0 144 76.5t51 225.5q0 143 -55 224.5t-146 81.5q-94 0 -145.5 -77t-51.5 -225q0 -144 55 -225t148 -81z" />
    <glyph glyph-name="omacron" unicode="&#x14d;" horiz-adv-x="526" 
d="M124 529l11 47h262l-8 -47h-265zM259 -14q-106 0 -170.5 66t-64.5 165q0 98 69 165.5t175 67.5q105 0 170 -65.5t65 -162.5q0 -100 -69 -168t-175 -68zM263 6q51 0 81 56.5t30 144.5q0 146 -50 196q-26 26 -62 26q-52 0 -81.5 -55.5t-29.5 -142.5q0 -148 49 -199
q24 -26 63 -26z" />
    <glyph glyph-name="Obreve" unicode="&#x14e;" horiz-adv-x="745" 
d="M368 -14q-148 0 -242 90t-94 234q0 134 102 231t244 97q148 0 242 -90t94 -235q0 -134 -102 -230.5t-244 -96.5zM376 8q93 0 144 76.5t51 225.5q0 143 -55 224.5t-146 81.5q-94 0 -145.5 -77t-51.5 -225q0 -144 55 -225t148 -81zM384 683q-59 0 -91.5 48t-50.5 135h18
q38 -110 125 -110q88 0 126 110h16q-16 -87 -48.5 -135t-94.5 -48z" />
    <glyph glyph-name="obreve" unicode="&#x14f;" horiz-adv-x="526" 
d="M259 -14q-106 0 -170.5 66t-64.5 165q0 98 69 165.5t175 67.5q105 0 170 -65.5t65 -162.5q0 -100 -69 -168t-175 -68zM263 6q51 0 81 56.5t30 144.5q0 146 -50 196q-26 26 -62 26q-52 0 -81.5 -55.5t-29.5 -142.5q0 -148 49 -199q24 -26 63 -26zM260 493q-59 0 -91.5 48
t-50.5 135h18q38 -110 125 -110q88 0 126 110h16q-16 -87 -48.5 -135t-94.5 -48z" />
    <glyph glyph-name="Ohungarumlaut" unicode="&#x150;" horiz-adv-x="745" 
d="M423 688l99 185h114l-196 -185h-17zM247 688l99 185h114l-195 -185h-18zM368 -14q-148 0 -242 90t-94 234q0 134 102 231t244 97q148 0 242 -90t94 -235q0 -134 -102 -230.5t-244 -96.5zM376 8q93 0 144 76.5t51 225.5q0 143 -55 224.5t-146 81.5q-94 0 -145.5 -77
t-51.5 -225q0 -144 55 -225t148 -81z" />
    <glyph glyph-name="ohungarumlaut" unicode="&#x151;" horiz-adv-x="526" 
d="M300 498l99 185h114l-196 -185h-17zM124 498l99 185h114l-195 -185h-18zM259 -14q-106 0 -170.5 66t-64.5 165q0 98 69 165.5t175 67.5q105 0 170 -65.5t65 -162.5q0 -100 -69 -168t-175 -68zM263 6q51 0 81 56.5t30 144.5q0 146 -50 196q-26 26 -62 26
q-52 0 -81.5 -55.5t-29.5 -142.5q0 -148 49 -199q24 -26 63 -26z" />
    <glyph glyph-name="OE" unicode="&#x152;" horiz-adv-x="966" 
d="M386 0q-169 0 -261.5 81.5t-92.5 222.5q0 135 102 228t270 93h487l7 -204h-24l-10 34q-23 85 -69.5 117.5t-146.5 31.5l-58 -1v-274l32 1q61 2 89.5 18t41.5 56l12 33l19 -1l-25 -238h-19l-3 32q-4 44 -28 59.5t-94 18.5l-25 1v-285l76 -3q100 1 150.5 38t78.5 115l10 31
l25 -1l-25 -204h-519zM416 22h46v568l-68 14q-106 -1 -165 -80t-59 -198q0 -141 62 -222.5t184 -81.5z" />
    <glyph glyph-name="oe" unicode="&#x153;" horiz-adv-x="807" 
d="M259 -16q-107 0 -171.5 66.5t-63.5 164.5q0 99 69 167.5t175 68.5q108 0 173 -73q68 73 169 73q78 0 124 -42t46 -104q0 -10 -4 -28q-258 2 -280 4q-2 -20 -2 -38q1 -82 43 -133t108 -51q81 0 128 74l11 -6q-63 -142 -202 -142q-88 0 -150 69q-68 -70 -173 -70zM497 298
h28.5t54.5 0.5t62 0.5h24q1 56 -16.5 93t-53.5 37q-35 0 -63.5 -36.5t-35.5 -94.5zM263 4q51 0 80.5 56.5t29.5 145.5q0 146 -48 197q-25 27 -63 27q-52 0 -81 -56t-30 -146q0 -146 48 -197q25 -27 64 -27z" />
    <glyph glyph-name="Racute" unicode="&#x154;" horiz-adv-x="668" 
d="M249 688l100 185h120l-202 -185h-18zM17 0l3 16l42 4q44 5 44 18v552q0 6 -9.5 9t-42.5 6l-33 4l-3 16l298 1q254 0 254 -158q0 -58 -40.5 -100t-110.5 -59l130 -205q31 -49 49.5 -65t50.5 -20l16 -3l4 -16h-210l-18 35l-149 265q-1 0 -25 4.5t-31 7.5v-277q0 -11 50 -15
l36 -4l3 -16h-308zM289 324q68 2 105.5 38t37.5 102q0 67 -41 104.5t-115 36.5l-40 -1v-272q32 -8 53 -8z" />
    <glyph glyph-name="racute" unicode="&#x155;" horiz-adv-x="405" 
d="M20 0l3 16l16 1q23 2 31.5 5t8.5 12v268q0 46 -7.5 59.5t-34.5 20.5l-21 5l1 12l178 49l-2 -148h3q27 74 59 111.5t76 37.5q31 0 51.5 -18.5t20.5 -49.5q0 -24 -17.5 -43.5t-43.5 -19.5q-53 0 -67 58q-46 -13 -81 -123v-220q0 -7 9.5 -10.5t38.5 -5.5l26 -1l3 -16h-251z
M162 498l100 185h120l-202 -185h-18z" />
    <glyph glyph-name="Rcommaaccent" unicode="&#x156;" horiz-adv-x="668" 
d="M300 -281l-8 10q38 10 59.5 33t21.5 53q0 34 -31 49t-54 2q-8 29 11 53t56 24q39 0 62.5 -24.5t23.5 -62.5q0 -44 -39.5 -83.5t-101.5 -53.5zM17 0l3 16l42 4q44 5 44 18v552q0 6 -9.5 9t-42.5 6l-33 4l-3 16l298 1q254 0 254 -158q0 -58 -40.5 -100t-110.5 -59l130 -205
q31 -49 49.5 -65t50.5 -20l16 -3l4 -16h-210l-18 35l-149 265q-1 0 -25 4.5t-31 7.5v-277q0 -11 50 -15l36 -4l3 -16h-308zM289 324q68 2 105.5 38t37.5 102q0 67 -41 104.5t-115 36.5l-40 -1v-272q32 -8 53 -8z" />
    <glyph glyph-name="rcommaaccent" unicode="&#x157;" horiz-adv-x="405" 
d="M83 -281l-8 10q38 10 59.5 33t21.5 53q0 34 -31 49t-54 2q-8 29 11 53t56 24q39 0 62.5 -24.5t23.5 -62.5q0 -44 -39.5 -83.5t-101.5 -53.5zM20 0l3 16l16 1q23 2 31.5 5t8.5 12v268q0 46 -7.5 59.5t-34.5 20.5l-21 5l1 12l178 49l-2 -148h3q27 74 59 111.5t76 37.5
q31 0 51.5 -18.5t20.5 -49.5q0 -24 -17.5 -43.5t-43.5 -19.5q-53 0 -67 58q-46 -13 -81 -123v-220q0 -7 9.5 -10.5t38.5 -5.5l26 -1l3 -16h-251z" />
    <glyph glyph-name="Rcaron" unicode="&#x158;" horiz-adv-x="668" 
d="M294 681l-136 197h14l131 -99h2l130 99h14l-136 -197h-19zM17 0l3 16l42 4q44 5 44 18v552q0 6 -9.5 9t-42.5 6l-33 4l-3 16l298 1q254 0 254 -158q0 -58 -40.5 -100t-110.5 -59l130 -205q31 -49 49.5 -65t50.5 -20l16 -3l4 -16h-210l-18 35l-149 265q-1 0 -25 4.5
t-31 7.5v-277q0 -11 50 -15l36 -4l3 -16h-308zM289 324q68 2 105.5 38t37.5 102q0 67 -41 104.5t-115 36.5l-40 -1v-272q32 -8 53 -8z" />
    <glyph glyph-name="rcaron" unicode="&#x159;" horiz-adv-x="405" 
d="M20 0l3 16l16 1q23 2 31.5 5t8.5 12v268q0 46 -7.5 59.5t-34.5 20.5l-21 5l1 12l178 49l-2 -148h3q27 74 59 111.5t76 37.5q31 0 51.5 -18.5t20.5 -49.5q0 -24 -17.5 -43.5t-43.5 -19.5q-53 0 -67 58q-46 -13 -81 -123v-220q0 -7 9.5 -10.5t38.5 -5.5l26 -1l3 -16h-251z
M206 491l-136 197h14l131 -99h2l130 99h14l-136 -197h-19z" />
    <glyph glyph-name="Sacute" unicode="&#x15a;" horiz-adv-x="524" 
d="M202 688l100 185h120l-202 -185h-18zM249 -13q-104 -1 -198 33l-11 170h24l42 -99q54 -82 149 -82q62 1 96.5 34t34.5 87q0 56 -38 85.5t-116 56.5q-87 31 -132.5 70t-45.5 111q0 77 59.5 131t155.5 54q62 0 138 -21l44 14l3 -185h-22l-72 144q-42 26 -95 26
q-51 0 -82.5 -28.5t-31.5 -70.5q0 -26 10.5 -46t33 -34.5t44 -24t57.5 -22.5q94 -33 141.5 -76t47.5 -122q0 -83 -66 -144t-170 -61z" />
    <glyph glyph-name="sacute" unicode="&#x15b;" horiz-adv-x="393" 
d="M137 498l100 185h120l-202 -185h-18zM181 -14q-84 0 -147 25l-6 128l24 -1l25 -57q45 -75 110 -75q39 0 62.5 21t23.5 55q0 33 -27 52.5t-80 39.5q-31 12 -50.5 22t-40 26t-30.5 38.5t-10 51.5q0 61 45.5 99t119.5 38q53 0 99 -16l41 10l5 -135l-23 -1l-60 100
q-32 22 -64 22q-35 0 -55 -18.5t-20 -50.5t24.5 -49t80.5 -38q32 -13 51.5 -22.5t42 -26t33 -40t10.5 -53.5q0 -60 -48 -102.5t-136 -42.5z" />
    <glyph glyph-name="Scircumflex" unicode="&#x15c;" horiz-adv-x="524" 
d="M116 681l136 197h19l136 -197h-15l-129 98h-2l-131 -98h-14zM249 -13q-104 -1 -198 33l-11 170h24l42 -99q54 -82 149 -82q62 1 96.5 34t34.5 87q0 56 -38 85.5t-116 56.5q-87 31 -132.5 70t-45.5 111q0 77 59.5 131t155.5 54q62 0 138 -21l44 14l3 -185h-22l-72 144
q-42 26 -95 26q-51 0 -82.5 -28.5t-31.5 -70.5q0 -26 10.5 -46t33 -34.5t44 -24t57.5 -22.5q94 -33 141.5 -76t47.5 -122q0 -83 -66 -144t-170 -61z" />
    <glyph glyph-name="scircumflex" unicode="&#x15d;" horiz-adv-x="393" 
d="M57 491l136 197h19l136 -197h-15l-129 98h-2l-131 -98h-14zM181 -14q-84 0 -147 25l-6 128l24 -1l25 -57q45 -75 110 -75q39 0 62.5 21t23.5 55q0 33 -27 52.5t-80 39.5q-31 12 -50.5 22t-40 26t-30.5 38.5t-10 51.5q0 61 45.5 99t119.5 38q53 0 99 -16l41 10l5 -135
l-23 -1l-60 100q-32 22 -64 22q-35 0 -55 -18.5t-20 -50.5t24.5 -49t80.5 -38q32 -13 51.5 -22.5t42 -26t33 -40t10.5 -53.5q0 -60 -48 -102.5t-136 -42.5z" />
    <glyph glyph-name="Scedilla" unicode="&#x15e;" horiz-adv-x="524" 
d="M249 -13q-104 -1 -198 33l-11 170h24l42 -99q54 -82 149 -82q62 1 96.5 34t34.5 87q0 56 -38 85.5t-116 56.5q-87 31 -132.5 70t-45.5 111q0 77 59.5 131t155.5 54q62 0 138 -21l44 14l3 -185h-22l-72 144q-42 26 -95 26q-51 0 -82.5 -28.5t-31.5 -70.5q0 -26 10.5 -46
t33 -34.5t44 -24t57.5 -22.5q94 -33 141.5 -76t47.5 -122q0 -77 -57.5 -136t-149.5 -67l-48 -51q64 8 109 -16t45 -67q0 -102 -220 -127l-5 11q155 25 155 88q0 27 -24 41t-61 14q-38 0 -73 -11v11l98 105h-5z" />
    <glyph glyph-name="scedilla" unicode="&#x15f;" horiz-adv-x="393" 
d="M91 -272l-5 11q155 25 155 88q0 27 -24 41t-61 14q-38 0 -73 -11v11l97 104q-83 0 -146 25l-6 128l24 -1l25 -57q45 -75 110 -75q39 0 62.5 21t23.5 55q0 33 -27 52.5t-80 39.5q-31 12 -50.5 22t-40 26t-30.5 38.5t-10 51.5q0 61 45.5 99t119.5 38q53 0 99 -16l41 10
l5 -135l-23 -1l-60 100q-32 22 -64 22q-35 0 -55 -18.5t-20 -50.5t24.5 -49t80.5 -38q32 -13 51.5 -22.5t42 -26t33 -40t10.5 -53.5q0 -56 -42.5 -97t-119.5 -47l-46 -49q64 8 109 -16t45 -67q0 -102 -220 -127z" />
    <glyph glyph-name="Scaron" unicode="&#x160;" horiz-adv-x="525" 
d="M249 -13q-104 -1 -198 33l-11 170h24l42 -99q54 -82 149 -82q62 1 96.5 34t34.5 87q0 56 -38 85.5t-116 56.5q-87 31 -132.5 70t-45.5 111q0 77 59.5 131t155.5 54q62 0 138 -21l44 14l3 -185h-22l-72 144q-42 26 -95 26q-51 0 -82.5 -28.5t-31.5 -70.5q0 -26 10.5 -46
t33 -34.5t44 -24t57.5 -22.5q94 -33 141.5 -76t47.5 -122q0 -83 -66 -144t-170 -61zM258 668l-136 197h14l131 -99h2l130 99h14l-136 -197h-19z" />
    <glyph glyph-name="scaron" unicode="&#x161;" horiz-adv-x="393" 
d="M181 -14q-84 0 -147 25l-6 128l24 -1l25 -57q45 -75 110 -75q39 0 62.5 21t23.5 55q0 33 -27 52.5t-80 39.5q-31 12 -50.5 22t-40 26t-30.5 38.5t-10 51.5q0 61 45.5 99t119.5 38q53 0 99 -16l41 10l5 -135l-23 -1l-60 100q-32 22 -64 22q-35 0 -55 -18.5t-20 -50.5
t24.5 -49t80.5 -38q32 -13 51.5 -22.5t42 -26t33 -40t10.5 -53.5q0 -60 -48 -102.5t-136 -42.5zM185 481l-136 197h14l131 -99h2l130 99h14l-136 -197h-19z" />
    <glyph glyph-name="Tcommaaccent" unicode="&#x162;" horiz-adv-x="663" 
d="M271 -281l-8 10q38 10 59.5 33t21.5 53q0 34 -31 49t-54 2q-8 29 11 53t56 24q39 0 62.5 -24.5t23.5 -62.5q0 -44 -39.5 -83.5t-101.5 -53.5zM174 0l3 16l47 4q43 4 43 18v567h-24q-120 -5 -178 -138l-11 -36h-27l26 194h566l13 -193h-24l-11 35q-55 137 -174 138h-26
v-570q0 -6 9.5 -9t41.5 -6l39 -4l3 -16h-316z" />
    <glyph glyph-name="tcommaaccent" unicode="&#x163;" horiz-adv-x="356" 
d="M135 -281l-8 10q38 10 59.5 33t21.5 53q0 34 -31 49t-54 2q-8 29 11 53t56 24q39 0 62.5 -24.5t23.5 -62.5q0 -44 -39.5 -83.5t-101.5 -53.5zM198 -13q-123 0 -120 132l5 259l-81 2l15 34l72 55l89 70l17 -2l-1 -103h153l-13 -53h-141l-5 -243q-1 -46 18 -67t58 -21
q45 0 83 29l4 -12q-75 -80 -153 -80z" />
    <glyph glyph-name="Tcaron" unicode="&#x164;" horiz-adv-x="663" 
d="M322 681l-136 197h14l131 -99h2l130 99h14l-136 -197h-19zM174 0l3 16l47 4q43 4 43 18v567h-24q-120 -5 -178 -138l-11 -36h-27l26 194h566l13 -193h-24l-11 35q-55 137 -174 138h-26v-570q0 -6 9.5 -9t41.5 -6l39 -4l3 -16h-316z" />
    <glyph glyph-name="tcaron" unicode="&#x165;" horiz-adv-x="380" 
d="M252 460l-10 9q71 39 71 95q0 16 -7.5 28t-17.5 18.5t-20.5 10t-18 5t-7.5 2.5q0 20 15.5 38t41.5 18q34 0 55 -23.5t21 -56.5q0 -42 -33 -80t-90 -64zM198 -13q-123 0 -120 132l5 259l-81 2l15 34l72 55l89 70l17 -2l-1 -103h153l-13 -53h-141l-5 -243q-1 -46 18 -67
t58 -21q45 0 83 29l4 -12q-75 -80 -153 -80z" />
    <glyph glyph-name="Umacron" unicode="&#x16a;" horiz-adv-x="701" 
d="M360 -17q-131 0 -195 52.5t-64 164.5v391q0 11 -50 14l-34 4l-3 16h305l-3 -16l-42 -4q-43 -4 -43 -17v-358q0 -194 173 -194q176 0 176 205l-1 277q0 49 -15 66t-59 21l-30 4l-3 16h226l-3 -16l-28 -4q-36 -3 -49.5 -22t-13.5 -70l-2 -278q-2 -252 -242 -252zM254 719
l11 47h262l-8 -47h-265z" />
    <glyph glyph-name="umacron" unicode="&#x16b;" horiz-adv-x="528" 
d="M349 -16l1 87h-2q-95 -85 -169 -85q-43 0 -80 34q-34 35 -32 112l1 271q0 6 -8 8.5t-41 6.5l-16 1l-3 16h184l-3 -277q-1 -52 20.5 -73.5t64.5 -21.5q44 0 83 29v298q0 15 -8.5 20.5t-38.5 7.5l-18 1l-4 16h183v-339q0 -25 5 -34t20 -14l41 -10l-2 -11zM115 529l11 47
h262l-8 -47h-265z" />
    <glyph glyph-name="Ubreve" unicode="&#x16c;" horiz-adv-x="701" 
d="M360 -17q-131 0 -195 52.5t-64 164.5v391q0 11 -50 14l-34 4l-3 16h305l-3 -16l-42 -4q-43 -4 -43 -17v-358q0 -194 173 -194q176 0 176 205l-1 277q0 49 -15 66t-59 21l-30 4l-3 16h226l-3 -16l-28 -4q-36 -3 -49.5 -22t-13.5 -70l-2 -278q-2 -252 -242 -252zM391 683
q-59 0 -91.5 48t-50.5 135h18q38 -110 125 -110q88 0 126 110h16q-16 -87 -48.5 -135t-94.5 -48z" />
    <glyph glyph-name="ubreve" unicode="&#x16d;" horiz-adv-x="528" 
d="M349 -16l1 87h-2q-95 -85 -169 -85q-43 0 -80 34q-34 35 -32 112l1 271q0 6 -8 8.5t-41 6.5l-16 1l-3 16h184l-3 -277q-1 -52 20.5 -73.5t64.5 -21.5q44 0 83 29v298q0 15 -8.5 20.5t-38.5 7.5l-18 1l-4 16h183v-339q0 -25 5 -34t20 -14l41 -10l-2 -11zM256 493
q-59 0 -91.5 48t-50.5 135h18q38 -110 125 -110q88 0 126 110h16q-16 -87 -48.5 -135t-94.5 -48z" />
    <glyph glyph-name="Uring" unicode="&#x16e;" horiz-adv-x="701" 
d="M360 -17q-131 0 -195 52.5t-64 164.5v391q0 11 -50 14l-34 4l-3 16h305l-3 -16l-42 -4q-43 -4 -43 -17v-358q0 -194 173 -194q176 0 176 205l-1 277q0 49 -15 66t-59 21l-30 4l-3 16h226l-3 -16l-28 -4q-36 -3 -49.5 -22t-13.5 -70l-2 -278q-2 -252 -242 -252zM389 693
q-42 0 -67 27t-25 66t25.5 66t66.5 27t66.5 -27t25.5 -66t-25 -66t-67 -27zM389 709q34 0 54 22t20 55q0 32 -20.5 54.5t-53.5 22.5q-34 0 -54.5 -22.5t-20.5 -54.5q0 -33 20.5 -55t54.5 -22z" />
    <glyph glyph-name="uring" unicode="&#x16f;" horiz-adv-x="528" 
d="M349 -16l1 87h-2q-95 -85 -169 -85q-43 0 -80 34q-34 35 -32 112l1 271q0 6 -8 8.5t-41 6.5l-16 1l-3 16h184l-3 -277q-1 -52 20.5 -73.5t64.5 -21.5q44 0 83 29v298q0 15 -8.5 20.5t-38.5 7.5l-18 1l-4 16h183v-339q0 -25 5 -34t20 -14l41 -10l-2 -11zM251 503
q-42 0 -67 27t-25 66t25.5 66t66.5 27t66.5 -27t25.5 -66t-25 -66t-67 -27zM251 519q34 0 54 22t20 55q0 32 -20.5 54.5t-53.5 22.5q-34 0 -54.5 -22.5t-20.5 -54.5q0 -33 20.5 -55t54.5 -22z" />
    <glyph glyph-name="Uhungarumlaut" unicode="&#x170;" horiz-adv-x="701" 
d="M360 -17q-131 0 -195 52.5t-64 164.5v391q0 11 -50 14l-34 4l-3 16h305l-3 -16l-42 -4q-43 -4 -43 -17v-358q0 -194 173 -194q176 0 176 205l-1 277q0 49 -15 66t-59 21l-30 4l-3 16h226l-3 -16l-28 -4q-36 -3 -49.5 -22t-13.5 -70l-2 -278q-2 -252 -242 -252zM251 688
l99 185h114l-195 -185h-18zM427 688l99 185h114l-196 -185h-17z" />
    <glyph glyph-name="uhungarumlaut" unicode="&#x171;" horiz-adv-x="528" 
d="M349 -16l1 87h-2q-95 -85 -169 -85q-43 0 -80 34q-34 35 -32 112l1 271q0 6 -8 8.5t-41 6.5l-16 1l-3 16h184l-3 -277q-1 -52 20.5 -73.5t64.5 -21.5q44 0 83 29v298q0 15 -8.5 20.5t-38.5 7.5l-18 1l-4 16h183v-339q0 -25 5 -34t20 -14l41 -10l-2 -11zM119 498l99 185
h114l-195 -185h-18zM295 498l99 185h114l-196 -185h-17z" />
    <glyph glyph-name="Uogonek" unicode="&#x172;" horiz-adv-x="701" 
d="M427 -236q-43 0 -71 23t-28 64t28.5 78t71.5 60q-34 -6 -68 -6q-131 0 -195 52.5t-64 164.5v391q0 6 -9 9t-41 6l-34 3l-3 16h305l-3 -16l-42 -4q-43 -4 -43 -16v-358q0 -195 173 -195q176 0 176 206l-1 276q0 49 -15.5 66t-59.5 21l-29 4l-3 16h225l-3 -16l-27 -4
q-37 -3 -50.5 -22t-13.5 -70l-1 -278q-1 -89 -30.5 -145t-94.5 -89q-78 -39 -78 -117q0 -32 18 -49t50 -17q31 0 63 30l5 -6q-10 -29 -39.5 -53.5t-68.5 -24.5z" />
    <glyph glyph-name="uogonek" unicode="&#x173;" horiz-adv-x="528" 
d="M417 -236q-43 0 -71.5 24t-28.5 66q0 49 37.5 89t90.5 65l-96 -24l1 87h-3q-95 -85 -168 -85q-46 0 -79 34q-35 35 -33 111l2 272q0 6 -8 8.5t-42 5.5l-16 2l-3 16h184l-3 -277q-1 -52 20.5 -74t64.5 -22t83 30v298q0 15 -8.5 20t-38.5 7l-19 2l-3 16h183v-339
q0 -25 4.5 -34t19.5 -14l41 -10l-1 -12q-63 -21 -100.5 -57.5t-37.5 -84.5q0 -32 18 -49t50 -17q31 0 63 30l5 -6q-11 -29 -40.5 -53.5t-67.5 -24.5z" />
    <glyph glyph-name="Wcircumflex" unicode="&#x174;" horiz-adv-x="984" 
d="M375 681l136 197h19l136 -197h-15l-129 98h-2l-131 -98h-14zM295 -11l-194 519q-23 60 -36.5 76.5t-43.5 19.5l-29 4l-3 17h306l-3 -17l-35 -2q-35 -2 -39.5 -17t11.5 -59l138 -386h4l119 315l-17 49q-21 57 -35.5 75.5t-42.5 20.5l-33 4l-3 17h310l-3 -17l-34 -2
q-36 -2 -41.5 -17t11.5 -62l129 -378h4l99 283q16 46 22.5 70t10 46t-4.5 31.5t-22 16t-41 9.5l-25 3l-3 17h230l-3 -17l-18 -3q-44 -7 -62.5 -34t-59.5 -141l-158 -441h-39l-156 439h-3l-167 -439h-40z" />
    <glyph glyph-name="wcircumflex" unicode="&#x175;" horiz-adv-x="742" 
d="M242 491l136 197h19l136 -197h-15l-129 98h-2l-131 -98h-14zM209 -10l-144 368q-14 35 -23.5 45.5t-32.5 12.5l-18 3l-2 16h244l-2 -16l-21 -3q-23 -2 -29 -11t3 -32l95 -257l81 208l-16 43q-11 27 -22 36.5t-32 12.5l-18 3l-3 16h245l-2 -16l-21 -3q-24 -3 -29 -12.5
t3 -30.5l96 -254l63 186q21 59 14 81.5t-49 28.5l-18 4l-3 16h180l-3 -16l-18 -4q-30 -3 -42 -21t-37 -90l-110 -314h-42l-124 306l-121 -306h-42z" />
    <glyph glyph-name="Ycircumflex" unicode="&#x176;" horiz-adv-x="635" 
d="M160 0l3 16l47 4q43 4 43 18v238l-144 252q-26 43 -41.5 57.5t-43.5 18.5l-23 4l-3 17h302l-3 -17l-22 -2q-39 -4 -44.5 -21t17.5 -55l118 -214h4l79 146q24 45 34.5 69t9 41t-14.5 23t-42 10l-23 3l-3 17h225l-3 -17l-25 -4q-36 -6 -60.5 -31.5t-71.5 -112.5l-92 -165
v-260q0 -6 9.5 -9t41.5 -6l38 -4l3 -16h-315zM205 681l136 197h19l136 -197h-15l-129 98h-2l-131 -98h-14z" />
    <glyph glyph-name="ycircumflex" unicode="&#x177;" horiz-adv-x="480" 
d="M102 -258q-28 0 -49 17t-21 45q0 23 16.5 40t41.5 17q51 0 65 -52q17 4 28.5 22.5t24.5 57.5l34 97h-9l-170 379q-14 30 -23 38.5t-32 11.5l-18 4l-3 16h250l-3 -16l-20 -3q-25 -3 -31 -13t4 -32l105 -247l68 188q21 61 15 79t-48 24l-20 4l-3 16h181l-3 -16l-20 -3
q-29 -3 -41 -20.5t-39 -89.5l-111 -295l-45 -137q-23 -68 -52 -100t-72 -32zM111 491l136 197h19l136 -197h-15l-129 98h-2l-131 -98h-14z" />
    <glyph glyph-name="Ydieresis" unicode="&#x178;" horiz-adv-x="635" 
d="M160 0l3 16l47 4q43 4 43 18v238l-144 252q-26 43 -41.5 57.5t-43.5 18.5l-23 4l-3 17h302l-3 -17l-22 -2q-39 -4 -44.5 -21t17.5 -55l118 -214h4l79 146q24 45 34.5 69t9 41t-14.5 23t-42 10l-23 3l-3 17h225l-3 -17l-25 -4q-36 -6 -60.5 -31.5t-71.5 -112.5l-92 -165
v-260q0 -6 9.5 -9t41.5 -6l38 -4l3 -16h-315zM428 681q-28 0 -44.5 19t-16.5 43t16.5 43.5t44.5 19.5t44.5 -19.5t16.5 -43.5t-16.5 -43t-44.5 -19zM228 681q-28 0 -45.5 19t-17.5 43t17.5 43.5t45.5 19.5t44.5 -19.5t16.5 -43.5t-16.5 -43t-44.5 -19z" />
    <glyph glyph-name="Zacute" unicode="&#x179;" horiz-adv-x="602" 
d="M252 688l100 185h120l-202 -185h-18zM32 0v17l377 583v3h-96q-98 0 -147.5 -35.5t-76.5 -112.5l-8 -30h-25l9 200h497v-18l-384 -581v-3l105 -2q77 -2 125.5 17t75.5 53.5t55 101.5l11 31h26l-29 -224h-515z" />
    <glyph glyph-name="zacute" unicode="&#x17a;" horiz-adv-x="453" 
d="M185 498l100 185h120l-202 -185h-18zM21 0v14l262 401l-44 -1q-72 -2 -104 -24t-54 -74l-20 -50h-21v169h378v-15l-265 -399h48q77 1 120 29t70 80l21 41h21l-34 -171h-378z" />
    <glyph glyph-name="Zdotaccent" unicode="&#x17b;" horiz-adv-x="602" 
d="M32 0v17l377 583v3h-96q-98 0 -147.5 -35.5t-76.5 -112.5l-8 -30h-25l9 200h497v-18l-384 -581v-3l105 -2q77 -2 125.5 17t75.5 53.5t55 101.5l11 31h26l-29 -224h-515zM314 714q-31 0 -49.5 20.5t-18.5 47.5t18.5 48t49.5 21t48.5 -21t17.5 -48t-17.5 -47.5t-48.5 -20.5
z" />
    <glyph glyph-name="zdotaccent" unicode="&#x17c;" horiz-adv-x="453" 
d="M21 0v14l262 401l-44 -1q-72 -2 -104 -24t-54 -74l-20 -50h-21v169h378v-15l-265 -399h48q77 1 120 29t70 80l21 41h21l-34 -171h-378zM231 524q-31 0 -49.5 20.5t-18.5 47.5t18.5 48t49.5 21t48.5 -21t17.5 -48t-17.5 -47.5t-48.5 -20.5z" />
    <glyph glyph-name="Zcaron" unicode="&#x17d;" horiz-adv-x="603" 
d="M32 0v17l377 583v3h-96q-98 0 -147.5 -35.5t-76.5 -112.5l-8 -30h-25l9 200h497v-18l-384 -581v-3l105 -2q77 -2 125.5 17t75.5 53.5t55 101.5l11 31h26l-29 -224h-515zM295 661l-136 197h14l131 -99h2l130 99h14l-136 -197h-19z" />
    <glyph glyph-name="zcaron" unicode="&#x17e;" horiz-adv-x="454" 
d="M21 0v14l262 401l-44 -1q-72 -2 -104 -24t-54 -74l-20 -50h-21v169h378v-15l-265 -399h48q77 1 120 29t70 80l21 41h21l-34 -171h-378zM219 477l-136 197h14l131 -99h2l130 99h14l-136 -197h-19z" />
    <glyph glyph-name="florin" unicode="&#x192;" horiz-adv-x="552" 
d="M98 -55q-47 0 -76 20.5t-29 53.5q0 24 17 42t44 18q35 0 52.5 -30.5t-4.5 -67.5q30 -4 38 -4q23 7 40.5 61t46.5 201l19 108l-104 4l16 42l100 11q35 129 84 179q53 55 142 55q47 0 75.5 -22t28.5 -56q0 -26 -18 -44t-43 -18q-43 0 -55 36t20 66q-27 8 -38 8
q-26 -6 -43 -54t-37 -142q0 -3 -0.5 -4t-1 -3t-0.5 -4h123l-5 -50h-127l-23 -96q-42 -184 -117 -259q-50 -51 -125 -51z" />
    <glyph glyph-name="Aringacute" unicode="&#x1fa;" horiz-adv-x="649" 
d="M252 794l100 185h120l-202 -185h-18zM356 249h-178l-28 -81q-12 -36 -17.5 -53t-9 -36.5t-1.5 -27t9.5 -15.5t19.5 -11t33 -5l23 -3l3 -17h-223l3 17l19 3q32 5 48 18t34 50t51 130l144 398q-26 10 -40.5 33t-14.5 51q0 39 25.5 66t66.5 27t66 -27t25 -66q0 -27 -13 -49
t-35 -32l169 -497q21 -60 37 -79.5t46 -21.5l30 -4l3 -17h-310l3 17l29 3q35 3 39.5 23t-13.5 72zM323 623q33 0 53.5 22.5t20.5 54.5t-20.5 54.5t-53.5 22.5q-34 0 -54.5 -22.5t-20.5 -54.5t20.5 -54.5t54.5 -22.5zM186 272h162l-19 59l-38 118l-19 59h-4z" />
    <glyph glyph-name="aringacute" unicode="&#x1fb;" horiz-adv-x="460" 
d="M121 687l100 185h120l-202 -185h-18zM216 503q-42 0 -67 27t-25 66t25.5 66t66.5 27t66.5 -27t25.5 -66t-25 -66t-67 -27zM354 -13q-34 0 -55.5 22t-25.5 63l-2 1q-36 -41 -68 -63t-68 -22q-45 0 -77 29.5t-32 72.5q0 57 56.5 96t192.5 73l1 26q2 63 -24.5 96t-74.5 33
q-26 0 -45 -8t-19 -16q0 -1 14 -21t14 -37q0 -21 -16.5 -36.5t-41.5 -15.5t-41.5 13.5t-16.5 34.5q0 46 73.5 84t145.5 38q83 0 117 -38t30 -130l-8 -180q-3 -52 33 -52q15 0 43 28l10 -10q-63 -81 -115 -81zM216 519q34 0 54 22t20 55q0 32 -20.5 54.5t-53.5 22.5
q-34 0 -54.5 -22.5t-20.5 -54.5q0 -33 20.5 -55t54.5 -22zM200 58q36 0 70 34l6 149q-78 -20 -108 -47t-30 -66q0 -32 17.5 -51t44.5 -19z" />
    <glyph glyph-name="AEacute" unicode="&#x1fc;" horiz-adv-x="877" 
d="M-47 0l3 17l33 4q33 6 63.5 39.5t84.5 135.5l190 354q16 25 6 38t-54 17l-37 4l-3 16h564l7 -205h-25l-9 33q-24 88 -66.5 120t-139.5 31l-62 -1v-274l29 1q59 2 86.5 18t40.5 57l11 32h21l-26 -240l-19 1l-3 31q-5 45 -27.5 60.5t-91.5 18.5l-21 1v-285l70 -3
q99 1 149.5 38.5t79.5 115.5l9 30h26l-25 -205h-530l3 16l50 6q40 6 40 19v211h-187l-44 -84q-28 -53 -35.5 -84t3 -45.5t40.5 -18.5l28 -3l3 -17h-235zM206 275h174v319h-4zM469 688l100 185h120l-202 -185h-18z" />
    <glyph glyph-name="aeacute" unicode="&#x1fd;" horiz-adv-x="703" 
d="M306 498l100 185h120l-202 -185h-18zM134 -13q-44 0 -76 30t-32 73q0 57 56 96t193 73l1 27q3 61 -24 94.5t-75 33.5q-26 0 -45 -8t-19 -16q0 -1 14 -21t14 -37q0 -21 -16.5 -36.5t-41.5 -15.5t-41.5 13.5t-16.5 34.5q0 46 72.5 84t147.5 38q82 0 112 -52q62 53 147 53
q80 0 125.5 -42t45.5 -104q0 -10 -4 -28q-257 2 -279 4q-1 -10 -1 -38q1 -82 42 -132t107 -50q83 0 128 74l11 -6q-62 -142 -202 -142q-62 0 -109 29t-70 79q-87 -108 -164 -108zM394 298h28.5t54.5 0.5t61 0.5h24q1 56 -16.5 93t-54.5 37q-35 0 -62.5 -36.5t-34.5 -94.5z
M198 56q42 0 92 53q-17 41 -17 110q0 9 2 21q-78 -20 -107.5 -48t-29.5 -67q0 -30 18 -49.5t42 -19.5z" />
    <glyph glyph-name="Oslashacute" unicode="&#x1fe;" horiz-adv-x="745" 
d="M553 596q75 -40 118 -114t43 -169q0 -134 -102 -230.5t-244 -96.5q-84 0 -151 30l-52 -90h-24l57 99q-78 40 -122 114t-44 171q0 134 102 231t244 97q86 0 156 -32l48 82h24zM232 83l271 469q-50 64 -133 64q-94 0 -145.5 -77t-51.5 -225q0 -149 59 -231zM517 534
l-271 -468q52 -58 130 -58q93 0 144 76.5t51 225.5q0 140 -54 224zM347 685l100 185h120l-202 -185h-18z" />
    <glyph glyph-name="oslashacute" unicode="&#x1ff;" horiz-adv-x="525" 
d="M132 19q-51 30 -79.5 82.5t-28.5 115.5q0 98 69 165.5t175 67.5q55 0 101 -20l87 150h22q-91 -158 -92 -158q55 -29 86 -82.5t31 -117.5q0 -100 -69 -168t-175 -68q-63 0 -110 24l-81 -139h-22zM170 85l171 296q-8 13 -17 22q-27 27 -62 27q-52 0 -81.5 -56t-29.5 -143
q0 -93 19 -146zM351 360l-172 -298q9 -18 21 -30q24 -26 63 -26q51 0 81 56.5t30 144.5q0 98 -23 153zM231 484l100 185h120l-202 -185h-18z" />
    <glyph glyph-name="Scommaaccent" unicode="&#x218;" horiz-adv-x="524" 
d="M203 -281l-8 10q38 10 59.5 33t21.5 53q0 34 -31 49t-54 2q-8 29 11 53t56 24q39 0 62.5 -24.5t23.5 -62.5q0 -44 -39.5 -83.5t-101.5 -53.5zM249 -13q-104 -1 -198 33l-11 170h24l42 -99q54 -82 149 -82q62 1 96.5 34t34.5 87q0 56 -38 85.5t-116 56.5q-87 31 -132.5 70
t-45.5 111q0 77 59.5 131t155.5 54q62 0 138 -21l44 14l3 -185h-22l-72 144q-42 26 -95 26q-51 0 -82.5 -28.5t-31.5 -70.5q0 -26 10.5 -46t33 -34.5t44 -24t57.5 -22.5q94 -33 141.5 -76t47.5 -122q0 -83 -66 -144t-170 -61z" />
    <glyph glyph-name="scommaaccent" unicode="&#x219;" horiz-adv-x="393" 
d="M134 -281l-8 10q38 10 59.5 33t21.5 53q0 34 -31 49t-54 2q-8 29 11 53t56 24q39 0 62.5 -24.5t23.5 -62.5q0 -44 -39.5 -83.5t-101.5 -53.5zM181 -14q-84 0 -147 25l-6 128l24 -1l25 -57q45 -75 110 -75q39 0 62.5 21t23.5 55q0 33 -27 52.5t-80 39.5q-31 12 -50.5 22
t-40 26t-30.5 38.5t-10 51.5q0 61 45.5 99t119.5 38q53 0 99 -16l41 10l5 -135l-23 -1l-60 100q-32 22 -64 22q-35 0 -55 -18.5t-20 -50.5t24.5 -49t80.5 -38q32 -13 51.5 -22.5t42 -26t33 -40t10.5 -53.5q0 -60 -48 -102.5t-136 -42.5z" />
    <glyph glyph-name="uni021A" unicode="&#x21a;" horiz-adv-x="663" 
d="M271 -281l-8 10q38 10 59.5 33t21.5 53q0 34 -31 49t-54 2q-8 29 11 53t56 24q39 0 62.5 -24.5t23.5 -62.5q0 -44 -39.5 -83.5t-101.5 -53.5zM174 0l3 16l47 4q43 4 43 18v567h-24q-120 -5 -178 -138l-11 -36h-27l26 194h566l13 -193h-24l-11 35q-55 137 -174 138h-26
v-570q0 -6 9.5 -9t41.5 -6l39 -4l3 -16h-316z" />
    <glyph glyph-name="uni021B" unicode="&#x21b;" horiz-adv-x="356" 
d="M135 -281l-8 10q38 10 59.5 33t21.5 53q0 34 -31 49t-54 2q-8 29 11 53t56 24q39 0 62.5 -24.5t23.5 -62.5q0 -44 -39.5 -83.5t-101.5 -53.5zM198 -13q-123 0 -120 132l5 259l-81 2l15 34l72 55l89 70l17 -2l-1 -103h153l-13 -53h-141l-5 -243q-1 -46 18 -67t58 -21
q45 0 83 29l4 -12q-75 -80 -153 -80z" />
    <glyph glyph-name="dotlessj" unicode="&#x237;" horiz-adv-x="261" 
d="M-11 -255q-38 0 -60.5 18t-22.5 46q0 24 17 40t41 16q33 0 50 -27t11 -60q52 6 52 160v365q0 45 -8 59t-34 20l-22 5l1 12l177 49v-469q-2 -81 -68 -157.5t-134 -76.5z" />
    <glyph glyph-name="circumflex" unicode="&#x2c6;" horiz-adv-x="379" 
d="M44 491l136 197h19l136 -197h-15l-129 98h-2l-131 -98h-14z" />
    <glyph glyph-name="caron" unicode="&#x2c7;" horiz-adv-x="379" 
d="M180 491l-136 197h14l131 -99h2l130 99h14l-136 -197h-19z" />
    <glyph glyph-name="breve" unicode="&#x2d8;" horiz-adv-x="393" 
d="M197 493q-59 0 -91.5 48t-50.5 135h18q38 -110 125 -110q88 0 126 110h16q-16 -87 -48.5 -135t-94.5 -48z" />
    <glyph glyph-name="dotaccent" unicode="&#x2d9;" horiz-adv-x="399" 
d="M200 524q-31 0 -49.5 20.5t-18.5 47.5t18.5 48t49.5 21t48.5 -21t17.5 -48t-17.5 -47.5t-48.5 -20.5z" />
    <glyph glyph-name="ring" unicode="&#x2da;" horiz-adv-x="379" 
d="M190 503q-42 0 -67 27t-25 66t25.5 66t66.5 27t66.5 -27t25.5 -66t-25 -66t-67 -27zM190 519q34 0 54 22t20 55q0 32 -20.5 54.5t-53.5 22.5q-34 0 -54.5 -22.5t-20.5 -54.5q0 -33 20.5 -55t54.5 -22z" />
    <glyph glyph-name="ogonek" unicode="&#x2db;" horiz-adv-x="397" 
d="M195 -241q-45 0 -76.5 28.5t-31.5 70.5q0 54 46 94.5t114 67.5h30q-60 -27 -91 -63.5t-31 -72.5q0 -35 22.5 -55.5t58.5 -20.5q38 0 77 30l5 -10q-55 -69 -123 -69z" />
    <glyph glyph-name="tilde" unicode="&#x2dc;" horiz-adv-x="393" 
d="M273 505q-33 0 -96.5 32.5t-82.5 32.5q-18 0 -28 -11t-15 -45h-18q7 70 26.5 98.5t60.5 28.5q33 0 96 -32.5t82 -32.5q18 0 28.5 11t16.5 45h16q-6 -70 -25.5 -98.5t-60.5 -28.5z" />
    <glyph glyph-name="hungarumlaut" unicode="&#x2dd;" horiz-adv-x="420" 
d="M242 498l99 185h114l-196 -185h-17zM66 498l99 185h114l-195 -185h-18z" />
    <glyph glyph-name="Wgrave" unicode="&#x1e80;" horiz-adv-x="984" 
d="M295 -11l-194 519q-23 60 -36.5 76.5t-43.5 19.5l-29 4l-3 17h306l-3 -17l-35 -2q-35 -2 -39.5 -17t11.5 -59l138 -386h4l119 315l-17 49q-21 57 -35.5 75.5t-42.5 20.5l-33 4l-3 17h310l-3 -17l-34 -2q-36 -2 -41.5 -17t11.5 -62l129 -378h4l99 283q16 46 22.5 70t10 46
t-4.5 31.5t-22 16t-41 9.5l-25 3l-3 17h230l-3 -17l-18 -3q-44 -7 -62.5 -34t-59.5 -141l-158 -441h-39l-156 439h-3l-167 -439h-40zM561 688l-203 185h121l99 -185h-17z" />
    <glyph glyph-name="wgrave" unicode="&#x1e81;" horiz-adv-x="742" 
d="M209 -10l-144 368q-14 35 -23.5 45.5t-32.5 12.5l-18 3l-2 16h244l-2 -16l-21 -3q-23 -2 -29 -11t3 -32l95 -257l81 208l-16 43q-11 27 -22 36.5t-32 12.5l-18 3l-3 16h245l-2 -16l-21 -3q-24 -3 -29 -12.5t3 -30.5l96 -254l63 186q21 59 14 81.5t-49 28.5l-18 4l-3 16
h180l-3 -16l-18 -4q-30 -3 -42 -21t-37 -90l-110 -314h-42l-124 306l-121 -306h-42zM428 498l-203 185h121l99 -185h-17z" />
    <glyph glyph-name="Wacute" unicode="&#x1e82;" horiz-adv-x="984" 
d="M462 688l100 185h120l-202 -185h-18zM295 -11l-194 519q-23 60 -36.5 76.5t-43.5 19.5l-29 4l-3 17h306l-3 -17l-35 -2q-35 -2 -39.5 -17t11.5 -59l138 -386h4l119 315l-17 49q-21 57 -35.5 75.5t-42.5 20.5l-33 4l-3 17h310l-3 -17l-34 -2q-36 -2 -41.5 -17t11.5 -62
l129 -378h4l99 283q16 46 22.5 70t10 46t-4.5 31.5t-22 16t-41 9.5l-25 3l-3 17h230l-3 -17l-18 -3q-44 -7 -62.5 -34t-59.5 -141l-158 -441h-39l-156 439h-3l-167 -439h-40z" />
    <glyph glyph-name="wacute" unicode="&#x1e83;" horiz-adv-x="742" 
d="M330 498l100 185h120l-202 -185h-18zM209 -10l-144 368q-14 35 -23.5 45.5t-32.5 12.5l-18 3l-2 16h244l-2 -16l-21 -3q-23 -2 -29 -11t3 -32l95 -257l81 208l-16 43q-11 27 -22 36.5t-32 12.5l-18 3l-3 16h245l-2 -16l-21 -3q-24 -3 -29 -12.5t3 -30.5l96 -254l63 186
q21 59 14 81.5t-49 28.5l-18 4l-3 16h180l-3 -16l-18 -4q-30 -3 -42 -21t-37 -90l-110 -314h-42l-124 306l-121 -306h-42z" />
    <glyph glyph-name="Wdieresis" unicode="&#x1e84;" horiz-adv-x="984" 
d="M622 704q-28 0 -44.5 19t-16.5 43t16.5 43.5t44.5 19.5t44.5 -19.5t16.5 -43.5t-16.5 -43t-44.5 -19zM422 704q-28 0 -45.5 19t-17.5 43t17.5 43.5t45.5 19.5t44.5 -19.5t16.5 -43.5t-16.5 -43t-44.5 -19zM295 -11l-194 519q-23 60 -36.5 76.5t-43.5 19.5l-29 4l-3 17
h306l-3 -17l-35 -2q-35 -2 -39.5 -17t11.5 -59l138 -386h4l119 315l-17 49q-21 57 -35.5 75.5t-42.5 20.5l-33 4l-3 17h310l-3 -17l-34 -2q-36 -2 -41.5 -17t11.5 -62l129 -378h4l99 283q16 46 22.5 70t10 46t-4.5 31.5t-22 16t-41 9.5l-25 3l-3 17h230l-3 -17l-18 -3
q-44 -7 -62.5 -34t-59.5 -141l-158 -441h-39l-156 439h-3l-167 -439h-40z" />
    <glyph glyph-name="wdieresis" unicode="&#x1e85;" horiz-adv-x="742" 
d="M490 514q-28 0 -44.5 19t-16.5 43t16.5 43.5t44.5 19.5t44.5 -19.5t16.5 -43.5t-16.5 -43t-44.5 -19zM290 514q-28 0 -45.5 19t-17.5 43t17.5 43.5t45.5 19.5t44.5 -19.5t16.5 -43.5t-16.5 -43t-44.5 -19zM209 -10l-144 368q-14 35 -23.5 45.5t-32.5 12.5l-18 3l-2 16
h244l-2 -16l-21 -3q-23 -2 -29 -11t3 -32l95 -257l81 208l-16 43q-11 27 -22 36.5t-32 12.5l-18 3l-3 16h245l-2 -16l-21 -3q-24 -3 -29 -12.5t3 -30.5l96 -254l63 186q21 59 14 81.5t-49 28.5l-18 4l-3 16h180l-3 -16l-18 -4q-30 -3 -42 -21t-37 -90l-110 -314h-42
l-124 306l-121 -306h-42z" />
    <glyph glyph-name="thinspace" unicode="&#x2009;" horiz-adv-x="60" 
 />
    <glyph glyph-name="endash" unicode="&#x2013;" horiz-adv-x="440" 
d="M12 216l3 42h410l2 -42h-415z" />
    <glyph glyph-name="emdash" unicode="&#x2014;" horiz-adv-x="909" 
d="M12 216l3 42h880l3 -42h-886z" />
    <glyph glyph-name="quoteleft" unicode="&#x2018;" horiz-adv-x="209" 
d="M115 375q-43 0 -69 29t-26 70q0 51 41.5 100t112.5 81l12 -12q-88 -48 -88 -119q0 -20 9 -35t22 -23t26 -12.5t22 -6.5t9 -3q0 -26 -19 -47.5t-52 -21.5z" />
    <glyph glyph-name="quoteright" unicode="&#x2019;" horiz-adv-x="209" 
d="M36 373l-12 11q88 48 88 119q0 20 -9 35t-22 23t-26 12.5t-22 6.5t-9 3q0 26 19 47.5t52 21.5q42 0 68.5 -29t26.5 -70q0 -52 -41.5 -100t-112.5 -80z" />
    <glyph glyph-name="quotesinglbase" unicode="&#x201a;" horiz-adv-x="209" 
d="M36 -144l-12 11q88 48 88 119q0 20 -9 35t-22 23t-26 12.5t-22 6.5t-9 3q0 26 19 47.5t52 21.5q42 0 68.5 -29t26.5 -70q0 -52 -41.5 -100t-112.5 -80z" />
    <glyph glyph-name="quotedblleft" unicode="&#x201c;" horiz-adv-x="405" 
d="M313 375q-42 0 -68 29t-26 70q0 52 41 100.5t112 80.5l12 -12q-89 -49 -89 -119q0 -20 9 -35t22 -23t26.5 -12.5t22.5 -6.5t9 -3q0 -26 -19 -47.5t-52 -21.5zM115 375q-43 0 -69 29t-26 70q0 51 41.5 100t112.5 81l12 -12q-88 -48 -88 -119q0 -20 9 -35t22 -23t26 -12.5
t22 -6.5t9 -3q0 -26 -19 -47.5t-52 -21.5z" />
    <glyph glyph-name="quotedblright" unicode="&#x201d;" horiz-adv-x="405" 
d="M234 373l-12 11q88 48 88 119q0 20 -9 35t-22 23t-26 12.5t-22 6.5t-9 3q0 25 19 47t52 22q42 0 68.5 -29t26.5 -70q0 -52 -41.5 -100t-112.5 -80zM36 373l-12 11q88 48 88 119q0 20 -9 35t-22 23t-26 12.5t-22 6.5t-9 3q0 26 19 47.5t52 21.5q42 0 68.5 -29t26.5 -70
q0 -52 -41.5 -100t-112.5 -80z" />
    <glyph glyph-name="quotedblbase" unicode="&#x201e;" horiz-adv-x="403" 
d="M234 -144l-12 11q88 48 88 119q0 20 -9 35t-22 23t-26 12.5t-22 6.5t-9 3q0 25 19 47t52 22q42 0 68.5 -29t26.5 -70q0 -52 -41.5 -100t-112.5 -80zM36 -144l-12 11q88 48 88 119q0 20 -9 35t-22 23t-26 12.5t-22 6.5t-9 3q0 26 19 47.5t52 21.5q42 0 68.5 -29t26.5 -70
q0 -52 -41.5 -100t-112.5 -80z" />
    <glyph glyph-name="dagger" unicode="&#x2020;" horiz-adv-x="444" 
d="M212 -156v562h-196l-1 21h197v198h21v-198h198l-2 -21h-196v-562h-21z" />
    <glyph glyph-name="daggerdbl" unicode="&#x2021;" horiz-adv-x="444" 
d="M212 -156v187h-197l1 21h196v364h-196l-1 21h197v188h21v-188h198l-2 -21h-196v-364h196l2 -21h-198v-187h-21z" />
    <glyph glyph-name="bullet" unicode="&#x2022;" horiz-adv-x="434" 
d="M217 39q-21 0 -71 20.5t-64 35.5q-15 16 -36 66t-21 71q0 22 21 71.5t36 64.5t65 35.5t71 20.5q22 0 71.5 -20.5t64.5 -35.5t35.5 -64.5t20.5 -71.5t-20 -71.5t-36 -65.5q-15 -15 -65 -35.5t-72 -20.5z" />
    <glyph glyph-name="ellipsis" unicode="&#x2026;" horiz-adv-x="658" 
d="M552 -13q-29 0 -49.5 21t-20.5 50q0 28 20.5 48.5t49.5 20.5t49.5 -20.5t20.5 -48.5q0 -29 -20 -50t-50 -21zM330 -13q-30 0 -50.5 21t-20.5 50q0 28 20.5 48.5t50.5 20.5q29 0 49.5 -21t20.5 -48q0 -29 -20.5 -50t-49.5 -21zM108 -13q-30 0 -50.5 21t-20.5 50
q0 28 20.5 48.5t49.5 20.5t49.5 -20.5t20.5 -48.5q0 -29 -20 -50t-49 -21z" />
    <glyph glyph-name="perthousand" unicode="&#x2030;" horiz-adv-x="910" 
d="M147 365q-61 0 -98.5 40t-37.5 98t37.5 99t98.5 41q62 0 100 -41t38 -99t-38 -98t-100 -40zM58 -14l452 654h24l-451 -654h-25zM762 -17q-62 0 -99.5 40t-37.5 98t37.5 99t99.5 41t99.5 -41t37.5 -99t-37.5 -98t-99.5 -40zM446 -17q-62 0 -99 40t-37 98q0 59 37 99.5
t99 40.5t99.5 -41t37.5 -99t-37.5 -98t-99.5 -40zM147 385q52 0 83.5 34t31.5 84t-31.5 85t-83.5 35q-51 0 -82 -35t-31 -85t31 -84t82 -34zM762 3q51 0 82.5 33.5t31.5 84.5q0 50 -31.5 85t-82.5 35t-82.5 -35t-31.5 -85q0 -51 31.5 -84.5t82.5 -33.5zM446 3
q51 0 82.5 33.5t31.5 84.5q0 50 -31.5 85t-82.5 35t-82 -35t-31 -85q0 -51 31 -84.5t82 -33.5z" />
    <glyph glyph-name="guilsinglleft" unicode="&#x2039;" horiz-adv-x="281" 
d="M253 39l-235 169v28l235 169l5 -8l-127 -176l128 -174z" />
    <glyph glyph-name="guilsinglright" unicode="&#x203a;" horiz-adv-x="282" 
d="M30 39l-6 8l129 174l-129 176l6 8l235 -169v-28z" />
    <glyph glyph-name="fraction" unicode="&#x2044;" horiz-adv-x="479" 
d="M-9 -14l468 654h29l-468 -654h-29z" />
    <glyph glyph-name="zerosuperior" unicode="&#x2070;" horiz-adv-x="346" 
d="M172 261q-69 0 -110 52t-41 141q0 86 44 141.5t114 55.5q69 0 110 -52.5t41 -139.5t-44 -142.5t-114 -55.5zM174 272q63 0 63 180q0 105 -14 146t-47 41q-62 0 -62 -177q0 -107 13.5 -148.5t46.5 -41.5z" />
    <glyph glyph-name="foursuperior" unicode="&#x2074;" horiz-adv-x="330" 
d="M172 267v95h-161l-2 14l199 276h50v-242h70l-12 -48h-58v-95h-86zM51 410h122v167h-2z" />
    <glyph glyph-name="fivesuperior" unicode="&#x2075;" horiz-adv-x="288" 
d="M109 248q-100 0 -100 61q0 17 12 28.5t29 11.5q29 0 41.5 -24.5t1.5 -52.5q14 -8 33 -8q30 0 53.5 22.5t23.5 56.5q0 45 -45.5 72t-130.5 31l51 199h191l-10 -76h-183l-13 -51q207 -12 207 -131q0 -57 -50 -98t-111 -41z" />
    <glyph glyph-name="sixsuperior" unicode="&#x2076;" horiz-adv-x="338" 
d="M175 258q-69 0 -112 44t-43 115q0 102 81.5 171.5t208.5 77.5l3 -11q-76 -12 -126.5 -61t-68.5 -117l2 -2q47 33 92 33q49 0 81 -31t32 -82q0 -57 -42 -97t-108 -40zM179 272q26 0 42.5 27t16.5 78q0 47 -21 73.5t-53 26.5q-26 0 -47 -14q-5 -30 -5 -54
q0 -66 17.5 -101.5t49.5 -35.5z" />
    <glyph glyph-name="sevensuperior" unicode="&#x2077;" horiz-adv-x="304" 
d="M53 265l200 305v3h-100q-66 0 -84.5 -8t-26.5 -36l-7 -15h-13l17 131h261l1 -9l-170 -371h-78z" />
    <glyph glyph-name="eightsuperior" unicode="&#x2078;" horiz-adv-x="319" 
d="M161 258q-64 0 -103 25.5t-39 69.5q0 30 25 53.5t62 32.5v1q-39 20 -60.5 43t-21.5 57q0 46 37.5 80t102.5 34q63 0 99.5 -24t36.5 -67q0 -27 -24.5 -47.5t-62.5 -30.5v-1q44 -21 68.5 -45.5t24.5 -64.5q0 -48 -40.5 -82t-104.5 -34zM197 490q26 32 26 64
q0 35 -18.5 60.5t-48.5 25.5q-27 0 -42 -17t-15 -43q0 -22 16 -40t32.5 -26.5t49.5 -23.5zM169 271q28 0 45.5 18.5t17.5 43.5q0 23 -17.5 42.5t-32 27.5t-50.5 25q-7 3 -10 5q-29 -29 -29 -72q-1 -39 20 -64.5t56 -25.5z" />
    <glyph glyph-name="ninesuperior" unicode="&#x2079;" horiz-adv-x="338" 
d="M33 247l-2 11q75 12 125.5 60t68.5 115l-2 1q-49 -34 -92 -34q-48 0 -80.5 32t-32.5 84q0 58 42.5 98t108.5 40q68 0 111 -44.5t43 -116.5q0 -100 -81.5 -169t-208.5 -77zM181 432q27 0 44 14q7 21 7 55q0 68 -18 104t-49 36q-26 0 -43 -28.5t-17 -78.5q0 -47 22 -74.5
t54 -27.5z" />
    <glyph glyph-name="plussuperior" unicode="&#x207a;" horiz-adv-x="346" 
d="M163 293v155h-153l2 19h151v153h20v-153h151l2 -19h-153v-155h-20z" />
    <glyph glyph-name="minussuperior" unicode="&#x207b;" horiz-adv-x="346" 
d="M317 447h-288l3 18h283z" />
    <glyph glyph-name="zeroinferior" unicode="&#x2080;" horiz-adv-x="346" 
d="M166 -143q-69 0 -110 52t-41 141q0 86 44 141.5t114 55.5q69 0 110 -52.5t41 -139.5t-44 -142.5t-114 -55.5zM168 -132q63 0 63 180q0 105 -14 146t-47 41q-62 0 -62 -177q0 -107 13.5 -148.5t46.5 -41.5z" />
    <glyph glyph-name="oneinferior" unicode="&#x2081;" horiz-adv-x="260" 
d="M32 -137l2 13l25 2q29 2 29 11v312l-64 7l2 9l152 31v-359q0 -9 30 -11l21 -2l2 -13h-199z" />
    <glyph glyph-name="twoinferior" unicode="&#x2082;" horiz-adv-x="316" 
d="M14 -137l-4 26q12 12 37 35.5t34.5 32.5t27.5 27.5t25.5 28t18.5 24.5t15 26t7.5 24.5t3.5 27.5q0 34 -20 54.5t-53 20.5q-55 0 -87 -56l-6 6q43 110 143 110q51 0 83 -28t32 -73q0 -24 -9 -45t-32.5 -45.5t-40 -38.5t-57.5 -46t-59 -46v-2h132q29 0 43.5 13t30.5 48
l7 14l11 -1l-31 -137h-252z" />
    <glyph glyph-name="threeinferior" unicode="&#x2083;" horiz-adv-x="297" 
d="M106 -156q-44 0 -71.5 16t-27.5 42q0 17 11.5 28t29.5 11q27 0 39.5 -23.5t4.5 -54.5l4 -1q4 -1 10 -2t10 -1q31 0 52 26t21 64q0 39 -22 64t-59 25q-29 0 -53 -11l-5 10q80 40 98 58q17 18 17 41q0 27 -16.5 41.5t-44.5 14.5q-57 0 -85 -52l-8 6q19 46 56 75t86 29
q44 0 73 -22.5t29 -55.5q0 -60 -103 -93v-2q55 7 90.5 -20.5t35.5 -74.5q0 -55 -51.5 -96.5t-120.5 -41.5z" />
    <glyph glyph-name="fourinferior" unicode="&#x2084;" horiz-adv-x="330" 
d="M166 -137v95h-161l-2 14l199 276h50v-242h70l-12 -48h-58v-95h-86zM45 6h122v167h-2z" />
    <glyph glyph-name="fiveinferior" unicode="&#x2085;" horiz-adv-x="288" 
d="M103 -156q-100 0 -100 61q0 17 12 28.5t29 11.5q29 0 41.5 -24.5t1.5 -52.5q14 -8 33 -8q30 0 53.5 22.5t23.5 56.5q0 45 -45.5 72t-130.5 31l51 199h191l-10 -76h-183l-13 -51q207 -12 207 -131q0 -57 -50 -98t-111 -41z" />
    <glyph glyph-name="sixinferior" unicode="&#x2086;" horiz-adv-x="338" 
d="M169 -146q-69 0 -112 44t-43 115q0 102 81.5 171.5t208.5 77.5l3 -11q-76 -12 -126.5 -61t-68.5 -117l2 -2q47 33 92 33q49 0 81 -31t32 -82q0 -57 -42 -97t-108 -40zM173 -132q26 0 42.5 27t16.5 78q0 47 -21 73.5t-53 26.5q-26 0 -47 -14q-5 -30 -5 -54
q0 -66 17.5 -101.5t49.5 -35.5z" />
    <glyph glyph-name="seveninferior" unicode="&#x2087;" horiz-adv-x="304" 
d="M47 -139l200 305v3h-100q-66 0 -84.5 -8t-26.5 -36l-7 -15h-13l17 131h261l1 -9l-170 -371h-78z" />
    <glyph glyph-name="eightinferior" unicode="&#x2088;" horiz-adv-x="319" 
d="M155 -146q-64 0 -103 25.5t-39 69.5q0 30 25 53.5t62 32.5v1q-39 20 -60.5 43t-21.5 57q0 46 37.5 80t102.5 34q63 0 99.5 -24t36.5 -67q0 -27 -24.5 -47.5t-62.5 -30.5v-1q44 -21 68.5 -45.5t24.5 -64.5q0 -48 -40.5 -82t-104.5 -34zM191 86q26 32 26 64
q0 35 -18.5 60.5t-48.5 25.5q-27 0 -42 -17t-15 -43q0 -22 16 -40t32.5 -26.5t49.5 -23.5zM163 -133q28 0 45.5 18.5t17.5 43.5q0 23 -17.5 42.5t-32 27.5t-50.5 25q-7 3 -10 5q-29 -29 -29 -72q-1 -39 20 -64.5t56 -25.5z" />
    <glyph glyph-name="nineinferior" unicode="&#x2089;" horiz-adv-x="338" 
d="M27 -157l-2 11q75 12 125.5 60t68.5 115l-2 1q-49 -34 -92 -34q-48 0 -80.5 32t-32.5 84q0 58 42.5 98t108.5 40q68 0 111 -44.5t43 -116.5q0 -100 -81.5 -169t-208.5 -77zM175 28q27 0 44 14q7 21 7 55q0 68 -18 104t-49 36q-26 0 -43 -28.5t-17 -78.5q0 -47 22 -74.5
t54 -27.5z" />
    <glyph glyph-name="Euro" unicode="&#x20ac;" horiz-adv-x="517" 
d="M309 -13q-91 0 -156.5 64t-83.5 174h-64l3 21h58q-3 27 -3 50q0 34 5 57h-63l3 21h63q24 116 102.5 186t177.5 70q69 0 109 -23.5t40 -64.5q0 -24 -18 -41t-44 -17q-41 0 -57 37.5t6 70.5q-25 15 -46 15q-63 0 -104.5 -64.5t-50.5 -168.5h192l3 -21h-197v-33q0 -43 5 -74
h189l3 -21h-187q18 -78 63 -121t108 -43q88 0 139 78l11 -7q-68 -145 -206 -145z" />
    <glyph glyph-name="trademark" unicode="&#x2122;" horiz-adv-x="569" 
d="M257 403l2 12l12 1q13 1 16 8t4 37l4 137q-5 12 -17 13l-16 3l-1 11h95l44 -155h4l51 155h96l-1 -11l-18 -3q-13 -1 -13 -7l4 -167q0 -12 3 -15t12 -5l15 -2l2 -12h-115v12l19 2q11 2 10 21l-3 165h-3l-68 -196h-24l-58 190h-4l-3 -138q-1 -28 2.5 -35t17.5 -8l13 -1
l1 -12h-83zM72 403v12l20 2q11 1 11 7v189h-5q-38 0 -60 -60l-4 -9h-13l6 81h209l3 -81h-13l-3 9q-11 31 -23.5 45.5t-36.5 14.5h-7v-190q0 -4 14 -6l16 -2l1 -12h-115z" />
    <glyph glyph-name="minus" unicode="&#x2212;" horiz-adv-x="448" 
d="M412 223h-376l3 26h370z" />
    <glyph glyph-name="uni2215" unicode="&#x2215;" horiz-adv-x="479" 
d="M-9 -14l468 654h29l-468 -654h-29z" />
    <glyph glyph-name="approxequal" unicode="&#x2248;" horiz-adv-x="448" 
d="M409 205h26q-19 -98 -108 -98q-34 0 -106 34q-68 33 -100 33q-34 0 -53.5 -15t-28.5 -57h-26q19 98 108 98q34 0 106 -34q68 -33 100 -33q35 0 54 15t28 57zM409 369h26q-19 -98 -108 -98q-34 0 -106 34q-68 33 -100 33q-34 0 -53.5 -15t-28.5 -57h-26q19 98 108 98
q34 0 106 -34q68 -33 100 -33q35 0 54 15t28 57z" />
    <glyph glyph-name="notequal" unicode="&#x2260;" horiz-adv-x="448" 
d="M27 309l-3 26h215l43 150h28l-43 -150h157l-3 -26h-161l-42 -147h203l3 -26h-213l-45 -160h-28l45 160h-159l3 26h163l42 147h-205z" />
    <glyph glyph-name="lessequal" unicode="&#x2264;" horiz-adv-x="438" 
d="M420 25h-409l3 26h403zM410 84l-399 174v18l399 174l10 -24l-368 -157l1 -1q58 -25 183.5 -80t183.5 -80z" />
    <glyph glyph-name="greaterequal" unicode="&#x2265;" horiz-adv-x="438" 
d="M427 25h-409l3 26h403zM427 258l-399 -174l-10 24l367 159v1q-345 149 -367 158l10 24l399 -174v-18z" />
    <glyph glyph-name="pcircle" unicode="&#x24df;" horiz-adv-x="723" 
d="M362 -21q-139 0 -236.5 97.5t-97.5 235.5q0 140 97.5 238t236.5 98t236.5 -98t97.5 -238q0 -138 -97.5 -235.5t-236.5 -97.5zM362 -4q130 0 222 93t92 223q0 131 -92 224.5t-222 93.5t-222.5 -93.5t-92.5 -224.5q0 -130 92.5 -223t222.5 -93zM213 122l2 14l27 3
q24 3 24 12v317q0 4 -5 6t-23 4l-23 3l-2 14h170q157 0 157 -100q0 -50 -44 -81.5t-114 -31.5q-5 0 -38 3v-136q0 -8 28 -9l29 -4l2 -14h-190zM379 297q35 0 57 25t22 67q0 43 -21.5 67t-63.5 25l-29 -1v-178q17 -5 35 -5z" />
    <glyph glyph-name="commaaccent" unicode="&#xf6c3;" horiz-adv-x="392" 
d="M133 -281l-8 10q38 10 59.5 33t21.5 53q0 34 -31 49t-54 2q-8 29 11 53t56 24q39 0 62.5 -24.5t23.5 -62.5q0 -44 -39.5 -83.5t-101.5 -53.5z" />
    <glyph glyph-name="J.alt" horiz-adv-x="503" 
d="M187 -13q-83 0 -127.5 31t-44.5 78q0 32 20.5 52t50.5 20q29 0 48.5 -18t19.5 -45q0 -43 -37 -62q9 -14 29 -24.5t43 -10.5q49 0 70.5 33.5t21.5 114.5v431q0 14 -47 17l-48 5l-3 16h317l-3 -16l-46 -6q-40 -4 -40 -18v-419q0 -66 -69.5 -122.5t-154.5 -56.5z" />
    <glyph glyph-name="Jcircumflex.alt" horiz-adv-x="503" 
d="M195 681l136 197h19l136 -197h-15l-129 98h-2l-131 -98h-14zM186 -13q-82 0 -126.5 31t-44.5 78q0 32 20.5 52t50.5 20q29 0 48 -17.5t19 -45.5q0 -43 -36 -63q9 -14 29 -24t43 -10q49 0 70.5 33.5t21.5 114.5v431q0 14 -47 17l-48 5l-3 16h317l-3 -16l-46 -6
q-40 -4 -40 -18v-420q0 -65 -69.5 -121.5t-155.5 -56.5z" />
    <glyph glyph-name="zero.alt" horiz-adv-x="561" 
d="M280 -13q-108 0 -177 69.5t-69 181.5q0 111 70 182.5t178 71.5t177.5 -70t69.5 -181q0 -112 -70.5 -183t-178.5 -71zM281 19q94 0 155 62t61 160q0 96 -61.5 158.5t-154.5 62.5t-154 -63t-61 -160t60.5 -158.5t154.5 -61.5z" />
    <glyph glyph-name="one.alt" horiz-adv-x="358" 
d="M42 0l3 17l37 4q40 3 40 18v400q0 13 -44 16l-35 4l-3 17h279l-3 -17l-36 -4q-41 -3 -41 -18v-400q0 -13 44 -16l35 -4l3 -17h-279z" />
    <glyph glyph-name="dot" horiz-adv-x="221" 
d="M110 164q-30 0 -50.5 21t-20.5 50q0 28 20.5 48.5t50.5 20.5q29 0 49.5 -21t20.5 -48q0 -29 -20.5 -50t-49.5 -21z" />
    <glyph glyph-name="ampersand.smallcap" horiz-adv-x="605" 
d="M168 -11q-69 0 -111.5 40.5t-42.5 100.5q0 57 39.5 98t102.5 58q-37 18 -61 48t-24 67q0 53 51.5 90.5t114.5 37.5q64 0 105.5 -27.5t41.5 -70.5q0 -40 -32.5 -66.5t-77.5 -33.5q39 -19 79 -58.5t63 -79.5q49 69 49 94q4 16 -9.5 25.5t-40.5 12.5l-13 2l-3 16h208l-2 -16
l-16 -3q-30 -2 -50 -16t-50 -53l-63 -80q34 -71 60 -99t61 -28q27 0 61 28l9 -11q-23 -22 -38 -34.5t-44 -27t-57 -14.5q-89 0 -131 101q-91 -101 -179 -101zM258 338q34 26 34 85q0 35 -17.5 60.5t-46.5 25.5q-28 0 -44.5 -20t-16.5 -52q0 -63 91 -99zM229 59q64 0 109 48
q-51 124 -166 170q-58 -36 -58 -107q0 -46 33.5 -78.5t81.5 -32.5z" />
    <glyph glyph-name="at.smallcap" horiz-adv-x="670" 
d="M335 -98q-135 0 -222.5 85t-86.5 217q2 139 99 237.5t234 97.5q126 -1 207.5 -77t79.5 -194q-1 -93 -59 -160.5t-136 -67.5q-44 0 -68.5 21t-23.5 54q0 22 22 82h-4q-48 -80 -79.5 -115.5t-69.5 -35.5q-35 0 -59.5 24t-25.5 60q0 47 28.5 103.5t73.5 102.5q56 56 111 56
q28 0 43.5 -23t13.5 -57h4l34 90l87 -2l-54 -141l-35 -113q-9 -27 3.5 -44.5t45.5 -17.5q49 0 88.5 53t40.5 131q1 111 -75 182t-194 72q-127 0 -218.5 -93.5t-93.5 -224.5q-1 -125 81 -204.5t210 -79.5q65 0 121.5 29.5t87.5 76.5l9 -13q-34 -49 -92.5 -80t-127.5 -31z
M270 104q40 0 105 121q6 11 14 32t8 27q-4 25 -23 48t-37 23q-13 0 -26 -11q-23 -24 -49 -88t-26 -107q0 -20 10 -32.5t24 -12.5z" />
    <glyph glyph-name="a.smallcap" horiz-adv-x="518" 
d="M275 180h-138l-18 -51q-25 -70 -21.5 -87.5t45.5 -22.5l16 -3l2 -16h-169l3 16l14 3q35 5 49.5 25t46.5 110l88 244l-6 25q23 6 49.5 24.5t34.5 38.5h18l137 -389q17 -46 30 -61t36 -17l21 -3l2 -16h-249l3 16l19 2q26 3 29.5 16t-9.5 50zM143 199h126l-60 176h-4z" />
    <glyph glyph-name="b.smallcap" horiz-adv-x="495" 
d="M20 0l2 16l30 5q30 4 30 13v406q0 8 -35 12l-24 4l-3 16h227q107 0 154.5 -26.5t47.5 -80.5q0 -41 -35.5 -68t-96.5 -37v-3q71 -5 111.5 -37.5t40.5 -84.5q0 -64 -52.5 -99.5t-160.5 -35.5h-236zM237 18h11q45 4 74 35t29 78q0 52 -36.5 82.5t-90.5 30.5q-23 0 -26 -1
v-213zM198 260l22 1q51 0 81.5 24.5t30.5 71.5t-30 72t-80 25l-24 -1v-193z" />
    <glyph glyph-name="c.smallcap" horiz-adv-x="536" 
d="M301 -10q-125 0 -200 67.5t-75 173.5q0 108 75.5 179.5t204.5 71.5q72 0 120 -24l58 15l4 -163h-23l-66 132q-31 20 -87 20q-75 0 -117.5 -62t-42.5 -163q0 -104 43 -166t112 -62q90 0 140 84l31 72l23 -1l-21 -147l-35 -1q-66 -26 -144 -26z" />
    <glyph glyph-name="d.smallcap" horiz-adv-x="554" 
d="M20 0l2 16l30 5q30 4 30 13v406q0 8 -35 12l-24 4l-3 16h40t77.5 0.5t86 0.5t31.5 0q130 1 201 -61t71 -173q0 -100 -79 -169.5t-198 -69.5h-230zM249 20q70 1 111.5 59t41.5 146q0 109 -43.5 168.5t-125.5 59.5h-35v-422z" />
    <glyph glyph-name="e.smallcap" horiz-adv-x="501" 
d="M20 0l2 16l29 5q31 4 31 13v406q0 8 -35 12l-24 4l-3 16h422l4 -160h-24l-6 24q-18 69 -56.5 94.5t-108.5 23.5l-53 -2v-203l36 1q75 2 92 58l9 27h18l-21 -194l-17 1l-4 25q-5 35 -21.5 48.5t-62.5 15.5l-29 2v-213l65 -2q137 1 173 120l7 23h25l-16 -161h-432z" />
    <glyph glyph-name="f.smallcap" horiz-adv-x="470" 
d="M20 0l2 16l30 5q30 4 30 13v406q0 8 -35 12l-24 4l-3 16h416l3 -160h-23l-7 24q-17 69 -53.5 93.5t-107.5 24.5l-50 -2v-209l33 2q74 1 92 57l9 28h19l-21 -194h-18l-3 25q-5 35 -22 50t-63 15h-26v-193q0 -9 34 -13l36 -4l2 -16h-250z" />
    <glyph glyph-name="g.smallcap" horiz-adv-x="562" 
d="M296 -13q-125 0 -197.5 69t-72.5 175q0 110 74.5 181t206.5 71q68 0 123 -25l57 15l2 -162h-25l-64 130q-33 22 -93 22q-74 0 -114.5 -62.5t-40.5 -163.5q0 -111 44 -170.5t105 -59.5q40 0 72 16v161q0 8 -45 11l-27 5l-2 16h246l-2 -16l-35 -5q-24 -2 -24 -13v-134l47 6
l2 -11q-45 -24 -113 -40t-124 -16z" />
    <glyph glyph-name="h.smallcap" horiz-adv-x="589" 
d="M20 0l2 16l30 5q30 4 30 13v406q0 8 -35 12l-25 4l-2 16h239l-2 -16l-29 -4q-30 -4 -30 -13v-189h192v190q0 9 -34 12l-24 4l-2 16h239l-2 -16l-31 -4q-29 -4 -29 -13v-406q0 -5 6 -7.5t29 -5.5l24 -4l2 -16h-239l3 16l29 5q29 4 29 13v195h-192v-196q0 -5 6 -7.5
t29 -5.5l23 -4l3 -16h-239z" />
    <glyph glyph-name="i.smallcap" horiz-adv-x="300" 
d="M27 0l3 16l32 5q30 4 30 13v406q0 8 -35 12l-28 4l-2 16h245l-2 -16l-33 -4q-29 -4 -29 -13v-406q0 -5 6 -7.5t28 -5.5l28 -4l2 -16h-245z" />
    <glyph glyph-name="j.smallcap" horiz-adv-x="292" 
d="M11 -134q-39 0 -62.5 18t-23.5 45q0 23 15 38t39 15q35 0 49.5 -31t-4.5 -66q67 3 67 162v393q0 9 -36 12l-28 4l-2 16h245l-3 -16l-31 -4q-29 -4 -29 -13v-373q0 -65 -64 -132.5t-132 -67.5z" />
    <glyph glyph-name="j.smallcap.alt" horiz-adv-x="404" 
d="M152 -11q-64 0 -101 25.5t-37 66.5q0 28 17 44.5t42 16.5q24 0 40.5 -15t16.5 -39q0 -36 -28 -53q17 -27 52 -27t50.5 24.5t15.5 84.5v323q0 10 -37 12l-36 4l-2 16h253l-2 -16l-32 -4q-31 -4 -31 -13v-310q0 -50 -56.5 -95t-124.5 -45z" />
    <glyph glyph-name="k.smallcap" horiz-adv-x="550" 
d="M20 0l2 16l30 5q30 4 30 13v406q0 8 -35 12l-24 4l-3 16h242l-3 -16l-31 -4q-30 -4 -30 -13v-216l114 115q77 77 65 99q-6 12 -43 17l-19 3l-2 15h213l-2 -16l-24 -3q-36 -4 -64 -25.5t-95 -87.5l-21 -21l148 -238q23 -38 36.5 -48.5t36.5 -13.5l12 -3l3 -16h-237l2 16
l13 3q14 2 19.5 5t4.5 12.5t-7.5 22.5t-21.5 39l-86 142l-45 -43v-164q0 -5 6.5 -7.5t28.5 -5.5l26 -4l2 -16h-241z" />
    <glyph glyph-name="l.smallcap" horiz-adv-x="461" 
d="M20 0l2 16l30 5q30 4 30 13v406q0 8 -35 12l-24 4l-3 16h249l-2 -16l-39 -4q-30 -4 -30 -13v-419l34 -2q60 0 98 30t74 106l8 24h23l-22 -178h-393z" />
    <glyph glyph-name="m.smallcap" horiz-adv-x="670" 
d="M14 0l3 16l20 4q30 3 39.5 16.5t11.5 49.5l9 342q-17 22 -45 25l-28 3l-2 16h200l108 -322h4l116 322h197l-2 -16l-38 -4q-29 -4 -29 -13l9 -390q1 -17 6.5 -21.5t29.5 -7.5l26 -4l3 -16h-244l2 16l35 5q17 2 22 8t5 22l-9 380h-5l-156 -426h-37l-143 413q0 2 -5 2
l-7 -339q-1 -35 9 -46.5t46 -14.5l21 -4l2 -16h-174z" />
    <glyph glyph-name="n.smallcap" horiz-adv-x="563" 
d="M438 -5l-318 388h-5v-301q0 -34 12 -47t46 -15l22 -4l2 -16h-173l1 16l20 4q30 2 39.5 16t9.5 51l2 312q-28 48 -69 53l-16 3l-2 17h193l252 -311h4v230q0 34 -11.5 46.5t-46.5 15.5l-21 3l-3 16h174l-2 -16l-20 -3q-30 -2 -39.5 -16.5t-9.5 -51.5l-3 -390h-38z" />
    <glyph glyph-name="o.smallcap" horiz-adv-x="575" 
d="M284 -10q-115 0 -186.5 67.5t-71.5 177.5q0 102 78.5 174.5t186.5 72.5q114 0 185 -68t71 -178q0 -103 -77.5 -174.5t-185.5 -71.5zM291 10q131 0 131 223q0 109 -37 169t-100 60q-133 0 -133 -225q0 -110 37 -168.5t102 -58.5z" />
    <glyph glyph-name="p.smallcap" horiz-adv-x="487" 
d="M19 0l2 16l31 5q30 4 30 13v406q0 9 -35 12l-25 4l-3 16h233q212 0 212 -124q0 -65 -60 -102t-160 -37q-13 0 -46 3v-179q0 -9 34 -13l35 -4l3 -16h-251zM243 227q42 0 70 31.5t28 80.5q0 113 -107 116l-36 -2v-222q20 -4 45 -4z" />
    <glyph glyph-name="q.smallcap" horiz-adv-x="574" 
d="M451 -137q-75 0 -121 28.5t-83 100.5q-101 10 -161 78t-60 165q0 100 79 173t186 73q116 0 186 -69.5t70 -176.5q0 -74 -46.5 -135.5t-120.5 -89.5q34 -77 78 -100.5t127 -12.5l2 -15q-59 -19 -136 -19zM291 9q131 0 131 224q0 109 -37 169t-100 60q-133 0 -133 -226
q0 -110 37 -168.5t102 -58.5z" />
    <glyph glyph-name="r.smallcap" horiz-adv-x="544" 
d="M18 0l3 16l31 5q30 4 30 13v406q0 8 -35 12l-26 4l-2 16l250 1q98 1 149 -30t51 -89q0 -45 -31 -77t-86 -44l93 -147q24 -38 38 -50.5t38 -16.5l13 -3l2 -16h-173l-13 24l-109 200q-3 1 -21 3.5t-22 4.5v-199q0 -9 34 -13l31 -4l2 -16h-247zM238 245q50 2 79 29.5
t29 75.5q0 49 -30.5 76.5t-84.5 27.5h-33v-203q18 -6 40 -6z" />
    <glyph glyph-name="s.smallcap" horiz-adv-x="421" 
d="M203 -9q-94 0 -158 23l-10 134h21l37 -81q42 -57 116 -57q46 0 74 23t28 60q0 23 -9 40t-29 29.5t-37.5 19.5t-48.5 17q-66 21 -104 52.5t-38 86.5q0 61 48.5 102.5t121.5 41.5q61 0 115 -18l36 11l2 -145h-20l-62 116q-28 17 -74 17q-38 0 -63.5 -20.5t-25.5 -49.5
q0 -36 27 -55t89 -39q71 -22 111.5 -56t40.5 -95q0 -64 -54 -110.5t-134 -46.5z" />
    <glyph glyph-name="t.smallcap" horiz-adv-x="526" 
d="M140 0l2 16l35 5q30 3 30 13v421h-18q-78 -5 -131 -117l-10 -27h-23l19 161h446l9 -160h-21l-9 27q-53 114 -127 116h-20v-422q0 -9 35 -13l29 -4l3 -16h-249z" />
    <glyph glyph-name="u.smallcap" horiz-adv-x="548" 
d="M280 -14q-201 0 -201 162v292q0 9 -35 12l-25 4l-2 16h241l-2 -16l-31 -4q-30 -4 -30 -13v-265q0 -140 126 -140q65 0 96.5 36t31.5 113v208q0 34 -11.5 47t-46.5 15l-21 3l-2 16h174l-2 -14l-21 -4q-29 -2 -38.5 -16t-9.5 -54q0 -13 -0.5 -34.5t-0.5 -67t-0.5 -75.5
t-0.5 -29q-2 -192 -189 -192z" />
    <glyph glyph-name="v.smallcap" horiz-adv-x="517" 
d="M240 -4l-154 384q-20 46 -31.5 59t-34.5 15l-20 2l-2 16h245l-3 -16l-22 -1q-31 -3 -33 -14t15 -51l103 -268h6l79 215q29 74 26.5 93t-47.5 25l-16 1l-2 16h170l-2 -16l-15 -2q-34 -4 -48 -24t-48 -107l-126 -327h-40z" />
    <glyph glyph-name="w.smallcap" horiz-adv-x="766" 
d="M224 -8l-146 388q-19 44 -30.5 57.5t-33.5 16.5l-18 2l-2 16h245l-2 -16l-24 -1q-28 -3 -32.5 -12t7.5 -37l101 -276h5l82 221l-10 29q-15 40 -27.5 55.5t-33.5 18.5l-21 2l-3 16h249l-2 -16l-23 -1q-27 -2 -32 -12.5t5 -41.5l93 -267h5l72 201q12 34 16.5 48.5t8 31
t-2.5 22.5t-16.5 10.5t-30.5 6.5l-18 2l-1 16h170l-2 -16l-13 -2q-34 -6 -47 -24.5t-45 -104.5l-124 -333h-37l-116 326h-4l-124 -326h-38z" />
    <glyph glyph-name="x.smallcap" horiz-adv-x="524" 
d="M2 0l2 16l26 3q27 4 49.5 26.5t74.5 92.5l59 77l-116 170q-5 7 -12.5 18.5t-10 16t-8 12t-8.5 10t-8 6t-10 4.5t-11 2l-24 2l-2 16h255l-2 -16l-21 -1q-26 -2 -29 -13t16 -41l70 -108h1l39 52q49 71 49 87q-1 15 -36 21q-4 0 -8 1l-20 2l-2 16h186l-2 -16l-21 -3
q-33 -4 -57.5 -26t-71.5 -92l-45 -57l134 -198q24 -37 34.5 -48.5t27.5 -12.5l18 -3l2 -16h-248l2 16l21 2q26 2 29.5 12t-12.5 34l-86 135h-2l-13 -17l-26 -36l-13 -18q-32 -43 -41.5 -64.5t-1 -31t37.5 -13.5l19 -3l3 -16h-187z" />
    <glyph glyph-name="y.smallcap" horiz-adv-x="503" 
d="M128 0l3 16l34 5q30 3 30 13v172l-110 185q-20 35 -31.5 47t-34.5 16l-13 2l-3 16h245l-2 -16l-14 -1q-31 -4 -36.5 -16t8.5 -35l90 -165h5l55 99q39 70 38 90.5t-47 25.5l-18 2l-2 16h179l-2 -16l-19 -3q-30 -5 -49.5 -26.5t-62.5 -98.5l-60 -107v-188q0 -10 34 -13
l29 -4l1 -16h-247z" />
    <glyph glyph-name="z.smallcap" horiz-adv-x="482" 
d="M30 0v15l279 435v1l-68 2q-64 0 -103 -28t-60 -90l-7 -23h-22l5 160h390v-16l-287 -433v-2l63 -2q82 -2 127 28.5t75 113.5l8 24h24l-22 -185h-402z" />
    <glyph glyph-name="fi.smallcap" horiz-adv-x="770" 
d="M498 0l2 16l33 5q29 4 29 13v406q0 9 -35 12l-27 4l-2 16h244l-2 -16l-32 -4q-30 -4 -30 -13v-406q0 -5 6 -7.5t29 -5.5l27 -4l2 -16h-244zM20 0l2 16l30 5q30 4 30 13v406q0 8 -35 12l-24 4l-3 16h416l3 -160h-23l-7 24q-17 69 -53.5 93.5t-107.5 24.5l-50 -2v-209l33 2
q74 1 92 57l9 28h19l-21 -194h-18l-3 25q-5 35 -22 50t-63 15h-26v-193q0 -9 34 -13l36 -4l2 -16h-250z" />
    <glyph glyph-name="fl.smallcap" horiz-adv-x="931" 
d="M490 0l3 16l30 5q29 4 29 13v406q0 9 -34 12l-25 4l-2 16h248l-2 -16l-39 -4q-30 -4 -30 -13v-419l34 -2q61 0 98.5 30t73.5 106l8 24h23l-22 -178h-393zM20 0l2 16l30 5q30 4 30 13v406q0 8 -35 12l-24 4l-3 16h416l3 -160h-23l-7 24q-17 69 -53.5 93.5t-107.5 24.5
l-50 -2v-209l33 2q74 1 92 57l9 28h19l-21 -194h-18l-3 25q-5 35 -22 50t-63 15h-26v-193q0 -9 34 -13l36 -4l2 -16h-250z" />
    <glyph glyph-name="ff.smallcap" horiz-adv-x="940" 
d="M490 0l3 16l30 5q29 4 29 13v406q0 9 -34 12l-25 4l-2 16h416l3 -160h-24l-6 24q-17 68 -54 93t-107 25l-51 -2v-209l33 2q74 1 92 57l9 28h19l-21 -194h-18l-3 25q-5 35 -22 50t-62 15h-27v-193q0 -9 34 -13l36 -4l2 -16h-250zM20 0l2 16l30 5q30 4 30 13v406
q0 8 -35 12l-24 4l-3 16h416l3 -160h-23l-7 24q-17 69 -53.5 93.5t-107.5 24.5l-50 -2v-209l33 2q74 1 92 57l9 28h19l-21 -194h-18l-3 25q-5 35 -22 50t-63 15h-26v-193q0 -9 34 -13l36 -4l2 -16h-250z" />
    <glyph glyph-name="ffi.smallcap" horiz-adv-x="1240" 
d="M968 0l3 16l32 5q29 4 29 13v406q0 9 -35 12l-27 4l-2 16h244l-2 -16l-32 -4q-30 -4 -30 -13v-406q0 -5 6 -7.5t29 -5.5l27 -4l2 -16h-244zM490 0l3 16l30 5q29 4 29 13v406q0 9 -34 12l-25 4l-2 16h416l3 -160h-24l-6 24q-17 68 -54 93t-107 25l-51 -2v-209l33 2
q74 1 92 57l9 28h19l-21 -194h-18l-3 25q-5 35 -22 50t-62 15h-27v-193q0 -9 34 -13l36 -4l2 -16h-250zM20 0l2 16l30 5q30 4 30 13v406q0 8 -35 12l-24 4l-3 16h416l3 -160h-23l-7 24q-17 69 -53.5 93.5t-107.5 24.5l-50 -2v-209l33 2q74 1 92 57l9 28h19l-21 -194h-18
l-3 25q-5 35 -22 50t-63 15h-26v-193q0 -9 34 -13l36 -4l2 -16h-250z" />
    <glyph glyph-name="ffl.smallcap" horiz-adv-x="1401" 
d="M960 0l3 16l30 5q29 4 29 13v406q0 9 -34 12l-25 4l-2 16h249l-3 -16l-39 -4q-30 -4 -30 -13v-419l34 -2q61 0 98.5 30t73.5 106l8 24h23l-21 -178h-394zM490 0l3 16l30 5q29 4 29 13v406q0 9 -34 12l-25 4l-2 16h416l3 -160h-24l-6 24q-17 68 -54 93t-107 25l-51 -2
v-209l33 2q74 1 92 57l9 28h19l-21 -194h-18l-3 25q-5 35 -22 50t-62 15h-27v-193q0 -9 34 -13l36 -4l2 -16h-250zM20 0l2 16l30 5q30 4 30 13v406q0 8 -35 12l-24 4l-3 16h416l3 -160h-23l-7 24q-17 69 -53.5 93.5t-107.5 24.5l-50 -2v-209l33 2q74 1 92 57l9 28h19
l-21 -194h-18l-3 25q-5 35 -22 50t-63 15h-26v-193q0 -9 34 -13l36 -4l2 -16h-250z" />
    <glyph glyph-name="germandbls.smallcap" horiz-adv-x="841" 
d="M624 -9q-93 0 -159 23l-10 134h22l37 -81q40 -57 115 -57q47 0 74.5 23t27.5 60q0 23 -9 40t-29 29.5t-37.5 19.5t-47.5 17q-67 21 -105 52.5t-38 86.5q0 61 49 102.5t122 41.5q61 0 115 -18l36 11l1 -145h-20l-62 116q-28 17 -74 17q-37 0 -62.5 -20.5t-25.5 -49.5
q0 -36 27 -55t89 -39q71 -22 111 -56t40 -95q0 -64 -53.5 -110.5t-133.5 -46.5zM203 -9q-94 0 -158 23l-10 134h21l37 -81q42 -57 116 -57q46 0 74 23t28 60q0 23 -9 40t-29 29.5t-37.5 19.5t-48.5 17q-66 21 -104 52.5t-38 86.5q0 61 48.5 102.5t121.5 41.5q61 0 115 -18
l36 11l2 -145h-20l-62 116q-28 17 -74 17q-38 0 -63.5 -20.5t-25.5 -49.5q0 -36 27 -55t89 -39q71 -22 111.5 -56t40.5 -95q0 -64 -54 -110.5t-134 -46.5z" />
    <glyph glyph-name="agrave.smallcap" horiz-adv-x="518" 
d="M275 180h-138l-18 -51q-25 -70 -21.5 -87.5t45.5 -22.5l16 -3l2 -16h-169l3 16l14 3q35 5 49.5 25t46.5 110l88 244l-6 25q23 6 49.5 24.5t34.5 38.5h18l137 -389q17 -46 30 -61t36 -17l21 -3l2 -16h-249l3 16l19 2q26 3 29.5 16t-9.5 50zM143 199h126l-60 176h-4z
M274 526l-203 185h121l99 -185h-17z" />
    <glyph glyph-name="aacute.smallcap" horiz-adv-x="518" 
d="M275 180h-138l-18 -51q-25 -70 -21.5 -87.5t45.5 -22.5l16 -3l2 -16h-169l3 16l14 3q35 5 49.5 25t46.5 110l88 244l-6 25q23 6 49.5 24.5t34.5 38.5h18l137 -389q17 -46 30 -61t36 -17l21 -3l2 -16h-249l3 16l19 2q26 3 29.5 16t-9.5 50zM143 199h126l-60 176h-4z
M205 526l100 185h120l-202 -185h-18z" />
    <glyph glyph-name="acircumflex.smallcap" horiz-adv-x="518" 
d="M275 180h-138l-18 -51q-25 -70 -21.5 -87.5t45.5 -22.5l16 -3l2 -16h-169l3 16l14 3q35 5 49.5 25t46.5 110l88 244l-6 25q23 6 49.5 24.5t34.5 38.5h18l137 -389q17 -46 30 -61t36 -17l21 -3l2 -16h-249l3 16l19 2q26 3 29.5 16t-9.5 50zM143 199h126l-60 176h-4z
M117 519l136 197h19l136 -197h-15l-129 98h-2l-131 -98h-14z" />
    <glyph glyph-name="atilde.smallcap" horiz-adv-x="518" 
d="M275 180h-138l-18 -51q-25 -70 -21.5 -87.5t45.5 -22.5l16 -3l2 -16h-169l3 16l14 3q35 5 49.5 25t46.5 110l88 244l-6 25q23 6 49.5 24.5t34.5 38.5h18l137 -389q17 -46 30 -61t36 -17l21 -3l2 -16h-249l3 16l19 2q26 3 29.5 16t-9.5 50zM143 199h126l-60 176h-4z
M336 533q-33 0 -96.5 32.5t-82.5 32.5q-18 0 -28 -11t-15 -45h-18q7 70 26.5 98.5t60.5 28.5q33 0 96 -32.5t82 -32.5q18 0 28.5 11t16.5 45h16q-6 -70 -25.5 -98.5t-60.5 -28.5z" />
    <glyph glyph-name="adieresis.smallcap" horiz-adv-x="518" 
d="M275 180h-138l-18 -51q-25 -70 -21.5 -87.5t45.5 -22.5l16 -3l2 -16h-169l3 16l14 3q35 5 49.5 25t46.5 110l88 244l-6 25q23 6 49.5 24.5t34.5 38.5h18l137 -389q17 -46 30 -61t36 -17l21 -3l2 -16h-249l3 16l19 2q26 3 29.5 16t-9.5 50zM143 199h126l-60 176h-4z
M359 542q-28 0 -44.5 19t-16.5 43t16.5 43.5t44.5 19.5t44.5 -19.5t16.5 -43.5t-16.5 -43t-44.5 -19zM159 542q-28 0 -45.5 19t-17.5 43t17.5 43.5t45.5 19.5t44.5 -19.5t16.5 -43.5t-16.5 -43t-44.5 -19z" />
    <glyph glyph-name="aring.smallcap" horiz-adv-x="518" 
d="M275 180h-138l-18 -51q-25 -70 -21.5 -87.5t45.5 -22.5l16 -3l2 -16h-169l3 16l14 3q25 3 37 11.5t24.5 34t34.5 89.5l107 299q-51 24 -51 83q0 39 25.5 66t66.5 27t66.5 -27t25.5 -66q0 -55 -46 -79l127 -360q17 -46 30 -61t36 -17l21 -3l2 -16h-249l3 16l19 2
q26 3 29.5 16t-9.5 50zM253 459q33 0 54 22.5t21 54.5t-21 54.5t-54 22.5t-53.5 -22.5t-20.5 -54.5t20.5 -54.5t53.5 -22.5zM143 199h126l-60 176h-4z" />
    <glyph glyph-name="aringacute.smallcap" horiz-adv-x="513" 
d="M172 622l100 185h120l-202 -185h-18zM275 180h-138l-18 -51q-25 -70 -21.5 -87.5t45.5 -22.5l16 -3l2 -16h-169l3 16l14 3q25 3 37 11.5t24.5 34t34.5 89.5l107 299q-51 24 -51 83q0 39 25.5 66t66.5 27t66.5 -27t25.5 -66q0 -55 -46 -79l127 -360q17 -46 30 -61t36 -17
l21 -3l2 -16h-249l3 16l19 2q26 3 29.5 16t-9.5 50zM253 459q33 0 54 22.5t21 54.5t-21 54.5t-54 22.5t-53.5 -22.5t-20.5 -54.5t20.5 -54.5t53.5 -22.5zM143 199h126l-60 176h-4z" />
    <glyph glyph-name="amacron.smallcap" horiz-adv-x="518" 
d="M275 180h-138l-18 -51q-25 -70 -21.5 -87.5t45.5 -22.5l16 -3l2 -16h-169l3 16l14 3q35 5 49.5 25t46.5 110l88 244l-6 25q23 6 49.5 24.5t34.5 38.5h18l137 -389q17 -46 30 -61t36 -17l21 -3l2 -16h-249l3 16l19 2q26 3 29.5 16t-9.5 50zM143 199h126l-60 176h-4z
M110 529l11 47h262l-8 -47h-265z" />
    <glyph glyph-name="abreve.smallcap" horiz-adv-x="518" 
d="M275 180h-138l-18 -51q-25 -70 -21.5 -87.5t45.5 -22.5l16 -3l2 -16h-169l3 16l14 3q35 5 49.5 25t46.5 110l88 244l-6 25q23 6 49.5 24.5t34.5 38.5h18l137 -389q17 -46 30 -61t36 -17l21 -3l2 -16h-249l3 16l19 2q26 3 29.5 16t-9.5 50zM255 507q-59 0 -91.5 48
t-50.5 135h18q38 -110 125 -110q88 0 126 110h16q-16 -87 -48.5 -135t-94.5 -48zM143 199h126l-60 176h-4z" />
    <glyph glyph-name="aogonek.smallcap" horiz-adv-x="518" 
d="M406 -236q-43 0 -71 24.5t-28 66.5q0 49 44.5 88.5t96.5 56.5h-183l3 16l20 2q25 3 29 16t-9 50l-33 96h-138l-19 -52q-25 -70 -21 -87.5t45 -22.5l17 -2l2 -16h-169l3 16l14 2q35 5 49.5 25.5t46.5 110.5l88 244l-6 26q24 6 52.5 24t37.5 38h11l137 -389q16 -46 30 -61
t37 -18l21 -2l2 -16q-61 -10 -99 -41.5t-38 -74.5q0 -31 18 -48.5t50 -17.5q33 0 63 30l6 -6q-11 -29 -40.5 -53.5t-68.5 -24.5zM143 199h125l-60 176h-3z" />
    <glyph glyph-name="ae.smallcap" horiz-adv-x="690" 
d="M288 189h-137l-32 -62q-29 -59 -26.5 -81t36.5 -27l20 -3l2 -16h-181l2 16l25 3q26 5 48.5 29.5t61.5 99.5l139 269q10 16 4 24.5t-37 11.5l-33 4l-3 15h453l4 -160l-23 1l-6 23q-18 69 -55.5 94.5t-107.5 23.5l-39 -2v-203l22 1q74 1 90 58l9 27h19l-22 -193h-17l-3 25
q-3 34 -20 48.5t-62 17.5h-16v-213l50 -2q71 1 112 29.5t61 89.5l7 24l25 -1l-17 -160h-422l2 16l37 5q30 3 30 13v155zM161 208h127v238h-4z" />
    <glyph glyph-name="aeacute.smallcap" horiz-adv-x="689" 
d="M344 505l100 185h120l-202 -185h-18zM288 189h-137l-32 -62q-29 -59 -26.5 -81t36.5 -27l20 -3l2 -16h-181l2 16l25 3q26 5 48.5 29.5t61.5 99.5l139 269q10 16 4 24.5t-37 11.5l-33 4l-3 15h453l4 -160l-23 1l-6 23q-18 69 -55.5 94.5t-107.5 23.5l-39 -2v-203l22 1
q74 1 90 58l9 27h19l-22 -193h-17l-3 25q-3 34 -20 48.5t-62 17.5h-16v-213l50 -2q71 1 112 29.5t61 89.5l7 24l25 -1l-17 -160h-422l2 16l37 5q30 3 30 13v155zM161 208h127v238h-4z" />
    <glyph glyph-name="ccedilla.smallcap" horiz-adv-x="536" 
d="M292 -10q-121 3 -193.5 70t-72.5 171q0 108 75.5 179.5t204.5 71.5q72 0 120 -24l58 15l4 -163h-23l-66 132q-31 20 -87 20q-75 0 -117.5 -62t-42.5 -163q0 -104 43 -166t112 -62q90 0 140 84l31 72l23 -1l-21 -147l-35 -1q-56 -21 -130 -26l-50 -52q64 8 109 -16t45 -67
q0 -102 -220 -127l-5 11q155 25 155 88q0 27 -24 41t-61 14q-38 0 -73 -11v11z" />
    <glyph glyph-name="cacute.smallcap" horiz-adv-x="536" 
d="M245 501l100 185h120l-202 -185h-18zM301 -10q-125 0 -200 67.5t-75 173.5q0 108 75.5 179.5t204.5 71.5q72 0 120 -24l58 15l4 -163h-23l-66 132q-31 20 -87 20q-75 0 -117.5 -62t-42.5 -163q0 -104 43 -166t112 -62q90 0 140 84l31 72l23 -1l-21 -147l-35 -1
q-66 -26 -144 -26z" />
    <glyph glyph-name="ccircumflex.smallcap" horiz-adv-x="536" 
d="M147 494l136 197h19l136 -197h-15l-129 98h-2l-131 -98h-14zM301 -10q-125 0 -200 67.5t-75 173.5q0 108 75.5 179.5t204.5 71.5q72 0 120 -24l58 15l4 -163h-23l-66 132q-31 20 -87 20q-75 0 -117.5 -62t-42.5 -163q0 -104 43 -166t112 -62q90 0 140 84l31 72l23 -1
l-21 -147l-35 -1q-66 -26 -144 -26z" />
    <glyph glyph-name="cdotaccent.smallcap" horiz-adv-x="536" 
d="M301 -10q-125 0 -200 67.5t-75 173.5q0 108 75.5 179.5t204.5 71.5q72 0 120 -24l58 15l4 -163h-23l-66 132q-31 20 -87 20q-75 0 -117.5 -62t-42.5 -163q0 -104 43 -166t112 -62q90 0 140 84l31 72l23 -1l-21 -147l-35 -1q-66 -26 -144 -26zM300 527q-31 0 -49.5 20.5
t-18.5 47.5t18.5 48t49.5 21t48.5 -21t17.5 -48t-17.5 -47.5t-48.5 -20.5z" />
    <glyph glyph-name="ccaron.smallcap" horiz-adv-x="536" 
d="M292 508l-136 197h14l131 -99h2l130 99h14l-136 -197h-19zM301 -10q-125 0 -200 67.5t-75 173.5q0 108 75.5 179.5t204.5 71.5q72 0 120 -24l58 15l4 -163h-23l-66 132q-31 20 -87 20q-75 0 -117.5 -62t-42.5 -163q0 -104 43 -166t112 -62q90 0 140 84l31 72l23 -1
l-21 -147l-35 -1q-66 -26 -144 -26z" />
    <glyph glyph-name="dcaron.smallcap" horiz-adv-x="556" 
d="M248 510l-136 197h14l131 -99h2l130 99h14l-136 -197h-19zM20 0l2 16l30 5q30 4 30 13v406q0 8 -35 12l-24 4l-3 16h40t77.5 0.5t86 0.5t31.5 0q130 1 201 -61t71 -173q0 -100 -79 -169.5t-198 -69.5h-230zM249 20q70 1 111.5 59t41.5 146q0 109 -43.5 168.5t-125.5 59.5
h-35v-422z" />
    <glyph glyph-name="eth.smallcap" horiz-adv-x="555" 
d="M86 228h-66l2 21h64v191q0 8 -35 12l-25 4l-3 16h40t78 0.5t87 0.5t32 0q130 1 199 -60.5t69 -173.5q0 -100 -77.5 -169.5t-196.5 -69.5h-231l3 16l30 5q30 4 30 13v194zM202 249h88l3 -21h-91v-197l52 -11q70 1 109.5 58.5t39.5 146.5q0 110 -41.5 169t-124.5 59h-35
v-204z" />
    <glyph glyph-name="dcroat.smallcap" horiz-adv-x="555" 
d="M86 228h-66l2 21h64v191q0 8 -35 12l-25 4l-3 16h40t78 0.5t87 0.5t32 0q130 1 199 -60.5t69 -173.5q0 -100 -77.5 -169.5t-196.5 -69.5h-231l3 16l30 5q30 4 30 13v194zM202 249h88l3 -21h-91v-197l52 -11q70 1 109.5 58.5t39.5 146.5q0 110 -41.5 169t-124.5 59h-35
v-204z" />
    <glyph glyph-name="egrave.smallcap" horiz-adv-x="501" 
d="M20 0l2 16l29 5q31 4 31 13v406q0 8 -35 12l-24 4l-3 16h422l4 -160h-24l-6 24q-18 69 -56.5 94.5t-108.5 23.5l-53 -2v-203l36 1q75 2 92 58l9 27h18l-21 -194l-17 1l-4 25q-5 35 -21.5 48.5t-62.5 15.5l-29 2v-213l65 -2q137 1 173 120l7 23h25l-16 -161h-432zM285 526
l-203 185h121l99 -185h-17z" />
    <glyph glyph-name="eacute.smallcap" horiz-adv-x="501" 
d="M20 0l2 16l29 5q31 4 31 13v406q0 8 -35 12l-24 4l-3 16h422l4 -160h-24l-6 24q-18 69 -56.5 94.5t-108.5 23.5l-53 -2v-203l36 1q75 2 92 58l9 27h18l-21 -194l-17 1l-4 25q-5 35 -21.5 48.5t-62.5 15.5l-29 2v-213l65 -2q137 1 173 120l7 23h25l-16 -161h-432zM214 519
l100 185h120l-202 -185h-18z" />
    <glyph glyph-name="ecircumflex.smallcap" horiz-adv-x="501" 
d="M20 0l2 16l29 5q31 4 31 13v406q0 8 -35 12l-24 4l-3 16h422l4 -160h-24l-6 24q-18 69 -56.5 94.5t-108.5 23.5l-53 -2v-203l36 1q75 2 92 58l9 27h18l-21 -194l-17 1l-4 25q-5 35 -21.5 48.5t-62.5 15.5l-29 2v-213l65 -2q137 1 173 120l7 23h25l-16 -161h-432zM105 519
l136 197h19l136 -197h-15l-129 98h-2l-131 -98h-14z" />
    <glyph glyph-name="edieresis.smallcap" horiz-adv-x="501" 
d="M20 0l2 16l29 5q31 4 31 13v406q0 8 -35 12l-24 4l-3 16h422l4 -160h-24l-6 24q-18 69 -56.5 94.5t-108.5 23.5l-53 -2v-203l36 1q75 2 92 58l9 27h18l-21 -194l-17 1l-4 25q-5 35 -21.5 48.5t-62.5 15.5l-29 2v-213l65 -2q137 1 173 120l7 23h25l-16 -161h-432zM348 542
q-28 0 -44.5 19t-16.5 43t16.5 43.5t44.5 19.5t44.5 -19.5t16.5 -43.5t-16.5 -43t-44.5 -19zM148 542q-28 0 -45.5 19t-17.5 43t17.5 43.5t45.5 19.5t44.5 -19.5t16.5 -43.5t-16.5 -43t-44.5 -19z" />
    <glyph glyph-name="emacron.smallcap" horiz-adv-x="501" 
d="M20 0l2 16l29 5q31 4 31 13v406q0 8 -35 12l-24 4l-3 16h422l4 -160h-24l-6 24q-18 69 -56.5 94.5t-108.5 23.5l-53 -2v-203l36 1q75 2 92 58l9 27h18l-21 -194l-17 1l-4 25q-5 35 -21.5 48.5t-62.5 15.5l-29 2v-213l65 -2q137 1 173 120l7 23h25l-16 -161h-432zM114 529
l11 47h262l-8 -47h-265z" />
    <glyph glyph-name="ebreve.smallcap" horiz-adv-x="501" 
d="M20 0l2 16l29 5q31 4 31 13v406q0 8 -35 12l-24 4l-3 16h422l4 -160h-24l-6 24q-18 69 -56.5 94.5t-108.5 23.5l-53 -2v-203l36 1q75 2 92 58l9 27h18l-21 -194l-17 1l-4 25q-5 35 -21.5 48.5t-62.5 15.5l-29 2v-213l65 -2q137 1 173 120l7 23h25l-16 -161h-432zM250 500
q-59 0 -91.5 48t-50.5 135h18q38 -110 125 -110q88 0 126 110h16q-16 -87 -48.5 -135t-94.5 -48z" />
    <glyph glyph-name="edotaccent.smallcap" horiz-adv-x="501" 
d="M20 0l2 16l29 5q31 4 31 13v406q0 8 -35 12l-24 4l-3 16h422l4 -160h-24l-6 24q-18 69 -56.5 94.5t-108.5 23.5l-53 -2v-203l36 1q75 2 92 58l9 27h18l-21 -194l-17 1l-4 25q-5 35 -21.5 48.5t-62.5 15.5l-29 2v-213l65 -2q137 1 173 120l7 23h25l-16 -161h-432zM255 521
q-31 0 -49.5 20.5t-18.5 47.5t18.5 48t49.5 21t48.5 -21t17.5 -48t-17.5 -47.5t-48.5 -20.5z" />
    <glyph glyph-name="eogonek.smallcap" horiz-adv-x="501" 
d="M350 -236q-42 0 -70 26.5t-28 67.5q0 82 117 142h-349l2 16l29 5q31 4 31 13v406q0 9 -35 12l-24 4l-2 16h420l5 -159h-24l-6 23q-18 69 -56 94t-109 24l-53 -2v-203l36 1q75 2 92 58l9 27h18l-21 -193h-18l-3 25q-5 35 -21.5 48.5t-63.5 15.5l-28 2v-213l64 -2
q138 1 174 119l7 24l25 -1l-16 -160h-54q-74 -48 -74 -113q0 -32 17.5 -50.5t48.5 -18.5q33 0 63 30l6 -6q-11 -29 -40.5 -53.5t-68.5 -24.5z" />
    <glyph glyph-name="ecaron.smallcap" horiz-adv-x="501" 
d="M240 498l-136 197h14l131 -99h2l130 99h14l-136 -197h-19zM20 0l2 16l29 5q31 4 31 13v406q0 8 -35 12l-24 4l-3 16h422l4 -160h-24l-6 24q-18 69 -56.5 94.5t-108.5 23.5l-53 -2v-203l36 1q75 2 92 58l9 27h18l-21 -194l-17 1l-4 25q-5 35 -21.5 48.5t-62.5 15.5l-29 2
v-213l65 -2q137 1 173 120l7 23h25l-16 -161h-432z" />
    <glyph glyph-name="gcircumflex.smallcap" horiz-adv-x="562" 
d="M296 -13q-125 0 -197.5 69t-72.5 175q0 110 74.5 181t206.5 71q68 0 123 -25l57 15l2 -162h-25l-64 130q-33 22 -93 22q-74 0 -114.5 -62.5t-40.5 -163.5q0 -111 44 -170.5t105 -59.5q40 0 72 16v161q0 8 -45 11l-27 5l-2 16h246l-2 -16l-35 -5q-24 -2 -24 -13v-134l47 6
l2 -11q-45 -24 -113 -40t-124 -16zM147 494l136 197h19l136 -197h-15l-129 98h-2l-131 -98h-14z" />
    <glyph glyph-name="gbreve.smallcap" horiz-adv-x="562" 
d="M296 -13q-125 0 -197.5 69t-72.5 175q0 110 74.5 181t206.5 71q68 0 123 -25l57 15l2 -162h-25l-64 130q-33 22 -93 22q-74 0 -114.5 -62.5t-40.5 -163.5q0 -111 44 -170.5t105 -59.5q40 0 72 16v161q0 8 -45 11l-27 5l-2 16h246l-2 -16l-35 -5q-24 -2 -24 -13v-134l47 6
l2 -11q-45 -24 -113 -40t-124 -16zM297 500q-59 0 -91.5 48t-50.5 135h18q38 -110 125 -110q88 0 126 110h16q-16 -87 -48.5 -135t-94.5 -48z" />
    <glyph glyph-name="gdotaccent.smallcap" horiz-adv-x="562" 
d="M296 -13q-125 0 -197.5 69t-72.5 175q0 110 74.5 181t206.5 71q68 0 123 -25l57 15l2 -162h-25l-64 130q-33 22 -93 22q-74 0 -114.5 -62.5t-40.5 -163.5q0 -111 44 -170.5t105 -59.5q40 0 72 16v161q0 8 -45 11l-27 5l-2 16h246l-2 -16l-35 -5q-24 -2 -24 -13v-134l47 6
l2 -11q-45 -24 -113 -40t-124 -16zM300 524q-31 0 -49.5 20.5t-18.5 47.5t18.5 48t49.5 21t48.5 -21t17.5 -48t-17.5 -47.5t-48.5 -20.5z" />
    <glyph glyph-name="gcommaaccent.smallcap" horiz-adv-x="562" 
d="M242 -282l-8 10q38 10 59.5 33t21.5 53q0 34 -31 49t-54 2q-8 29 11 53t56 24q39 0 62.5 -24.5t23.5 -62.5q0 -45 -39.5 -84t-101.5 -53zM296 -13q-125 0 -197.5 69t-72.5 175q0 110 74.5 181t206.5 71q68 0 123 -25l57 15l2 -162h-25l-64 130q-33 22 -93 22
q-74 0 -114.5 -62.5t-40.5 -163.5q0 -111 44 -170.5t105 -59.5q40 0 72 16v161q0 8 -45 11l-27 5l-2 16h246l-2 -16l-35 -5q-24 -2 -24 -13v-134l47 6l2 -11q-45 -24 -113 -40t-124 -16z" />
    <glyph glyph-name="hcircumflex.smallcap" horiz-adv-x="589" 
d="M148 503l136 197h19l136 -197h-15l-129 98h-2l-131 -98h-14zM20 0l2 16l30 5q30 4 30 13v406q0 8 -35 12l-25 4l-2 16h239l-2 -16l-29 -4q-30 -4 -30 -13v-189h192v190q0 9 -34 12l-24 4l-2 16h239l-2 -16l-31 -4q-29 -4 -29 -13v-406q0 -5 6 -7.5t29 -5.5l24 -4l2 -16
h-239l3 16l29 5q29 4 29 13v195h-192v-196q0 -5 6 -7.5t29 -5.5l23 -4l3 -16h-239z" />
    <glyph glyph-name="hbar.smallcap" horiz-adv-x="589" 
d="M-1 326l11 40h72v74q0 8 -35 12l-24 4l-3 16h239l-2 -16l-30 -4q-30 -4 -30 -14v-72h194v74q0 5 -5.5 7t-29.5 5l-24 4l-2 16h239l-3 -16l-30 -4q-30 -5 -30 -14v-72h82l-7 -40h-75v-294q0 -7 36 -12l24 -4l2 -16h-239l3 16l29 5q30 4 30 13v195h-194v-197q0 -7 36 -12
l23 -4l3 -16h-239l2 16l30 5q30 4 30 13v292h-83zM197 250h194v76h-194v-76z" />
    <glyph glyph-name="igrave.smallcap" horiz-adv-x="300" 
d="M27 0l3 16l32 5q30 4 30 13v406q0 8 -35 12l-28 4l-2 16h245l-2 -16l-33 -4q-29 -4 -29 -13v-406q0 -5 6 -7.5t28 -5.5l28 -4l2 -16h-245zM178 526l-203 185h121l99 -185h-17z" />
    <glyph glyph-name="iacute.smallcap" horiz-adv-x="300" 
d="M27 0l3 16l32 5q30 4 30 13v406q0 8 -35 12l-28 4l-2 16h245l-2 -16l-33 -4q-29 -4 -29 -13v-406q0 -5 6 -7.5t28 -5.5l28 -4l2 -16h-245zM105 526l100 185h120l-202 -185h-18z" />
    <glyph glyph-name="icircumflex.smallcap" horiz-adv-x="300" 
d="M27 0l3 16l32 5q30 4 30 13v406q0 8 -35 12l-28 4l-2 16h245l-2 -16l-33 -4q-29 -4 -29 -13v-406q0 -5 6 -7.5t28 -5.5l28 -4l2 -16h-245zM4 519l136 197h19l136 -197h-15l-129 98h-2l-131 -98h-14z" />
    <glyph glyph-name="idieresis.smallcap" horiz-adv-x="300" 
d="M27 0l3 16l32 5q30 4 30 13v406q0 8 -35 12l-28 4l-2 16h245l-2 -16l-33 -4q-29 -4 -29 -13v-406q0 -5 6 -7.5t28 -5.5l28 -4l2 -16h-245zM251 542q-28 0 -44.5 19t-16.5 43t16.5 43.5t44.5 19.5t44.5 -19.5t16.5 -43.5t-16.5 -43t-44.5 -19zM51 542q-28 0 -45.5 19
t-17.5 43t17.5 43.5t45.5 19.5t44.5 -19.5t16.5 -43.5t-16.5 -43t-44.5 -19z" />
    <glyph glyph-name="imacron.smallcap" horiz-adv-x="299" 
d="M27 0l3 16l32 5q30 4 30 13v406q0 8 -35 12l-28 4l-2 16h245l-2 -16l-33 -4q-29 -4 -29 -13v-406q0 -5 6 -7.5t28 -5.5l28 -4l2 -16h-245zM15 529l11 47h262l-8 -47h-265z" />
    <glyph glyph-name="ibreve.smallcap" horiz-adv-x="299" 
d="M27 0l3 16l32 5q30 4 30 13v406q0 8 -35 12l-28 4l-2 16h245l-2 -16l-33 -4q-29 -4 -29 -13v-406q0 -5 6 -7.5t28 -5.5l28 -4l2 -16h-245zM149 500q-59 0 -91.5 48t-50.5 135h18q38 -110 125 -110q88 0 126 110h16q-16 -87 -48.5 -135t-94.5 -48z" />
    <glyph glyph-name="iogonek.smallcap" horiz-adv-x="299" 
d="M163 -236q-42 0 -69.5 26t-27.5 68q0 84 117 142h-156l3 16l32 5q30 3 30 13v406q0 8 -35 12l-28 4l-2 16h245l-3 -16l-32 -4q-29 -4 -29 -14v-406q0 -9 34 -12l27 -4l2 -16q-59 -10 -96.5 -40.5t-37.5 -72.5q0 -32 17.5 -50.5t48.5 -18.5q33 0 63 30l6 -6
q-11 -29 -40.5 -53.5t-68.5 -24.5z" />
    <glyph glyph-name="idotaccent.smallcap" horiz-adv-x="299" 
d="M27 0l3 16l32 5q30 4 30 13v406q0 8 -35 12l-28 4l-2 16h245l-2 -16l-33 -4q-29 -4 -29 -13v-406q0 -5 6 -7.5t28 -5.5l28 -4l2 -16h-245zM163 524q-31 0 -49.5 20.5t-18.5 47.5t18.5 48t49.5 21t48.5 -21t17.5 -48t-17.5 -47.5t-48.5 -20.5z" />
    <glyph glyph-name="dotlessi.smallcap" horiz-adv-x="300" 
d="M27 0l3 16l32 5q30 4 30 13v406q0 8 -35 12l-28 4l-2 16h245l-2 -16l-33 -4q-29 -4 -29 -13v-406q0 -5 6 -7.5t28 -5.5l28 -4l2 -16h-245z" />
    <glyph glyph-name="jcircumflex.smallcap" horiz-adv-x="313" 
d="M31 -99q-38 0 -62 17.5t-24 44.5q0 23 15.5 38t38.5 15q37 0 51.5 -33t-5.5 -62h2q64 6 64 160v359q0 9 -35 12l-29 4l-2 16h245l-3 -16l-30 -4q-30 -5 -30 -14v-338q0 -65 -64 -132t-132 -67zM24 499l136 197h19l136 -197h-15l-129 98h-2l-131 -98h-14z" />
    <glyph glyph-name="jcircumflex.smallcap.alt" horiz-adv-x="404" 
d="M152 -11q-64 0 -101 25.5t-37 66.5q0 28 17 44.5t42 16.5q24 0 40.5 -15t16.5 -39q0 -36 -28 -53q17 -27 52 -27t50.5 24.5t15.5 84.5v323q0 10 -37 12l-36 4l-2 16h253l-2 -16l-32 -4q-31 -4 -31 -13v-310q0 -50 -56.5 -95t-124.5 -45zM126 499l136 197h19l136 -197h-15
l-129 98h-2l-131 -98h-14z" />
    <glyph glyph-name="dotlessj.smallcap" horiz-adv-x="313" 
d="M31 -99q-38 0 -62 17.5t-24 44.5q0 23 15.5 38t38.5 15q37 0 51.5 -33t-5.5 -62h2q64 6 64 160v359q0 9 -35 12l-29 4l-2 16h245l-3 -16l-30 -4q-30 -5 -30 -14v-338q0 -65 -64 -132t-132 -67z" />
    <glyph glyph-name="kcommaaccent.smallcap" horiz-adv-x="549" 
d="M218 -291l-8 10q38 10 59.5 33t21.5 53q0 34 -31 49t-54 2q-8 29 11 53t56 24q39 0 62.5 -24.5t23.5 -62.5q0 -44 -39.5 -83.5t-101.5 -53.5zM20 0l2 16l30 5q30 4 30 13v406q0 8 -35 12l-24 4l-3 16h242l-3 -16l-31 -4q-30 -4 -30 -13v-216l114 115q77 77 65 99
q-6 12 -43 17l-19 3l-2 15h213l-2 -16l-24 -3q-36 -4 -64 -25.5t-95 -87.5l-21 -21l148 -238q23 -38 36.5 -48.5t36.5 -13.5l12 -3l3 -16h-237l2 16l13 3q14 2 19.5 5t4.5 12.5t-7.5 22.5t-21.5 39l-86 142l-45 -43v-164q0 -5 6.5 -7.5t28.5 -5.5l26 -4l2 -16h-241z" />
    <glyph glyph-name="lacute.smallcap" horiz-adv-x="460" 
d="M97 497l100 185h120l-202 -185h-18zM20 0l2 16l30 5q30 4 30 13v406q0 8 -35 12l-24 4l-3 16h249l-2 -16l-39 -4q-30 -4 -30 -13v-419l34 -2q60 0 98 30t74 106l8 24h23l-22 -178h-393z" />
    <glyph glyph-name="lcommaaccent.smallcap" horiz-adv-x="460" 
d="M174 -294l-8 10q38 10 59.5 33t21.5 53q0 34 -31 49t-54 2q-8 29 11 53t56 24q39 0 62.5 -24.5t23.5 -62.5q0 -45 -39.5 -84t-101.5 -53zM20 0l2 16l30 5q30 4 30 13v406q0 8 -35 12l-24 4l-3 16h249l-2 -16l-39 -4q-30 -4 -30 -13v-419l34 -2q60 0 98 30t74 106l8 24h23
l-22 -178h-393z" />
    <glyph glyph-name="lcaron.smallcap" horiz-adv-x="653" 
d="M477 203l-12 11q88 48 88 119q0 20 -9 35t-22 23t-26 12.5t-22 6.5t-9 3q0 26 19 47.5t52 21.5q42 0 68.5 -29t26.5 -70q0 -52 -41.5 -100t-112.5 -80zM20 0l2 16l30 5q30 4 30 13v406q0 8 -35 12l-24 4l-3 16h249l-2 -16l-39 -4q-30 -4 -30 -13v-419l34 -2q60 0 98 30
t74 106l8 24h23l-22 -178h-393z" />
    <glyph glyph-name="ldotaccent.smallcap" horiz-adv-x="626" 
d="M557 187q-30 0 -50.5 21t-20.5 50q0 28 20.5 48.5t50.5 20.5q29 0 49.5 -21t20.5 -48q0 -29 -20.5 -50t-49.5 -21zM20 0l2 16l30 5q30 4 30 13v406q0 8 -35 12l-24 4l-3 16h249l-2 -16l-39 -4q-30 -4 -30 -13v-419l34 -2q60 0 98 30t74 106l8 24h23l-22 -178h-393z" />
    <glyph glyph-name="lslash.smallcap" horiz-adv-x="466" 
d="M87 201l-19 -5l-36 -12l-18 -5l1 23l72 22v215q0 4 -5.5 6t-29.5 6l-25 4l-3 17h250l-3 -17l-39 -5q-29 -4 -29 -13v-177l82 25v-22l-82 -25v-218l34 -2q62 0 101.5 30.5t70.5 105.5l8 24h24l-22 -178h-395l3 17l30 6q30 4 30 13v165z" />
    <glyph glyph-name="ntilde.smallcap" horiz-adv-x="563" 
d="M438 -5l-318 388h-5v-301q0 -34 12 -47t46 -15l22 -4l2 -16h-173l1 16l20 4q30 2 39.5 16t9.5 51l2 312q-28 48 -69 53l-16 3l-2 17h193l252 -311h4v230q0 34 -11.5 46.5t-46.5 15.5l-21 3l-3 16h174l-2 -16l-20 -3q-30 -2 -39.5 -16.5t-9.5 -51.5l-3 -390h-38zM374 533
q-33 0 -96.5 32.5t-82.5 32.5q-18 0 -28 -11t-15 -45h-18q7 70 26.5 98.5t60.5 28.5q33 0 96 -32.5t82 -32.5q18 0 28.5 11t16.5 45h16q-6 -70 -25.5 -98.5t-60.5 -28.5z" />
    <glyph glyph-name="nacute.smallcap" horiz-adv-x="562" 
d="M247 501l100 185h120l-202 -185h-18zM438 -5l-318 388h-5v-301q0 -34 12 -47t46 -15l22 -4l2 -16h-173l1 16l20 4q30 2 39.5 16t9.5 51l2 312q-28 48 -69 53l-16 3l-2 17h193l252 -311h4v230q0 34 -11.5 46.5t-46.5 15.5l-21 3l-3 16h174l-2 -16l-20 -3
q-30 -2 -39.5 -16.5t-9.5 -51.5l-3 -390h-38z" />
    <glyph glyph-name="ncommaaccent.smallcap" horiz-adv-x="562" 
d="M229 -288l-8 10q38 10 59.5 33t21.5 53q0 34 -31 49t-54 2q-8 29 11 53t56 24q39 0 62.5 -24.5t23.5 -62.5q0 -45 -39.5 -84t-101.5 -53zM438 -5l-318 388h-5v-301q0 -34 12 -47t46 -15l22 -4l2 -16h-173l1 16l20 4q30 2 39.5 16t9.5 51l2 312q-28 48 -69 53l-16 3l-2 17
h193l252 -311h4v230q0 34 -11.5 46.5t-46.5 15.5l-21 3l-3 16h174l-2 -16l-20 -3q-30 -2 -39.5 -16.5t-9.5 -51.5l-3 -390h-38z" />
    <glyph glyph-name="ncaron.smallcap" horiz-adv-x="562" 
d="M283 498l-136 197h14l131 -99h2l130 99h14l-136 -197h-19zM438 -5l-318 388h-5v-301q0 -34 12 -47t46 -15l22 -4l2 -16h-173l1 16l20 4q30 2 39.5 16t9.5 51l2 312q-28 48 -69 53l-16 3l-2 17h193l252 -311h4v230q0 34 -11.5 46.5t-46.5 15.5l-21 3l-3 16h174l-2 -16
l-20 -3q-30 -2 -39.5 -16.5t-9.5 -51.5l-3 -390h-38z" />
    <glyph glyph-name="ograve.smallcap" horiz-adv-x="575" 
d="M284 -10q-115 0 -186.5 67.5t-71.5 177.5q0 102 78.5 174.5t186.5 72.5q114 0 185 -68t71 -178q0 -103 -77.5 -174.5t-185.5 -71.5zM291 10q131 0 131 223q0 109 -37 169t-100 60q-133 0 -133 -225q0 -110 37 -168.5t102 -58.5zM308 526l-203 185h121l99 -185h-17z" />
    <glyph glyph-name="oacute.smallcap" horiz-adv-x="575" 
d="M284 -10q-115 0 -186.5 67.5t-71.5 177.5q0 102 78.5 174.5t186.5 72.5q114 0 185 -68t71 -178q0 -103 -77.5 -174.5t-185.5 -71.5zM291 10q131 0 131 223q0 109 -37 169t-100 60q-133 0 -133 -225q0 -110 37 -168.5t102 -58.5zM248 526l100 185h120l-202 -185h-18z" />
    <glyph glyph-name="ocircumflex.smallcap" horiz-adv-x="575" 
d="M284 -10q-115 0 -186.5 67.5t-71.5 177.5q0 102 78.5 174.5t186.5 72.5q114 0 185 -68t71 -178q0 -103 -77.5 -174.5t-185.5 -71.5zM291 10q131 0 131 223q0 109 -37 169t-100 60q-133 0 -133 -225q0 -110 37 -168.5t102 -58.5zM144 519l136 197h19l136 -197h-15l-129 98
h-2l-131 -98h-14z" />
    <glyph glyph-name="otilde.smallcap" horiz-adv-x="575" 
d="M284 -10q-115 0 -186.5 67.5t-71.5 177.5q0 102 78.5 174.5t186.5 72.5q114 0 185 -68t71 -178q0 -103 -77.5 -174.5t-185.5 -71.5zM291 10q131 0 131 223q0 109 -37 169t-100 60q-133 0 -133 -225q0 -110 37 -168.5t102 -58.5zM368 533q-33 0 -96.5 32.5t-82.5 32.5
q-18 0 -28 -11t-15 -45h-18q7 70 26.5 98.5t60.5 28.5q33 0 96 -32.5t82 -32.5q18 0 28.5 11t16.5 45h16q-6 -70 -25.5 -98.5t-60.5 -28.5z" />
    <glyph glyph-name="odieresis.smallcap" horiz-adv-x="575" 
d="M284 -10q-115 0 -186.5 67.5t-71.5 177.5q0 102 78.5 174.5t186.5 72.5q114 0 185 -68t71 -178q0 -103 -77.5 -174.5t-185.5 -71.5zM291 10q131 0 131 223q0 109 -37 169t-100 60q-133 0 -133 -225q0 -110 37 -168.5t102 -58.5zM388 542q-28 0 -44.5 19t-16.5 43
t16.5 43.5t44.5 19.5t44.5 -19.5t16.5 -43.5t-16.5 -43t-44.5 -19zM188 542q-28 0 -45.5 19t-17.5 43t17.5 43.5t45.5 19.5t44.5 -19.5t16.5 -43.5t-16.5 -43t-44.5 -19z" />
    <glyph glyph-name="omacron.smallcap" horiz-adv-x="574" 
d="M153 529l11 47h262l-8 -47h-265zM284 -10q-115 0 -186.5 67.5t-71.5 177.5q0 102 78.5 174.5t186.5 72.5q114 0 185 -68t71 -178q0 -103 -77.5 -174.5t-185.5 -71.5zM291 10q131 0 131 223q0 109 -37 169t-100 60q-133 0 -133 -225q0 -110 37 -168.5t102 -58.5z" />
    <glyph glyph-name="obreve.smallcap" horiz-adv-x="574" 
d="M284 -10q-115 0 -186.5 67.5t-71.5 177.5q0 102 78.5 174.5t186.5 72.5q114 0 185 -68t71 -178q0 -103 -77.5 -174.5t-185.5 -71.5zM291 10q131 0 131 223q0 109 -37 169t-100 60q-133 0 -133 -225q0 -110 37 -168.5t102 -58.5zM287 500q-59 0 -91.5 48t-50.5 135h18
q38 -110 125 -110q88 0 126 110h16q-16 -87 -48.5 -135t-94.5 -48z" />
    <glyph glyph-name="ohungarumlaut.smallcap" horiz-adv-x="574" 
d="M333 505l99 185h114l-196 -185h-17zM157 505l99 185h114l-195 -185h-18zM284 -10q-115 0 -186.5 67.5t-71.5 177.5q0 102 78.5 174.5t186.5 72.5q114 0 185 -68t71 -178q0 -103 -77.5 -174.5t-185.5 -71.5zM291 10q131 0 131 223q0 109 -37 169t-100 60q-133 0 -133 -225
q0 -110 37 -168.5t102 -58.5z" />
    <glyph glyph-name="oslash.smallcap" horiz-adv-x="575" 
d="M425 450q57 -30 89 -86t32 -128q0 -103 -77.5 -174.5t-185.5 -71.5q-61 0 -113 20l-38 -66h-21q23 39 42 73q-61 30 -95 87t-34 131q0 102 79 174.5t187 72.5q66 0 119 -24l35 62h21zM184 71l197 339q-37 52 -97 52q-133 0 -133 -225q0 -106 33 -166zM391 392
q-195 -338 -196 -338q36 -44 94 -44q66 0 99 54t33 169q0 102 -30 159z" />
    <glyph glyph-name="oslashacute.smallcap" horiz-adv-x="570" 
d="M425 450q57 -30 89 -86t32 -128q0 -103 -77.5 -174.5t-185.5 -71.5q-61 0 -113 20l-38 -66h-21q23 39 42 73q-61 30 -95 87t-34 131q0 102 79 174.5t187 72.5q66 0 119 -24l35 62h21zM184 71l197 339q-37 52 -97 52q-133 0 -133 -225q0 -106 33 -166zM391 392
q-195 -338 -196 -338q36 -44 94 -44q66 0 99 54t33 169q0 102 -30 159zM256 504l100 185h120l-202 -185h-18z" />
    <glyph glyph-name="oe.smallcap" horiz-adv-x="757" 
d="M294 0q-130 0 -199 60.5t-69 172.5q0 99 77.5 169t196.5 70h397l4 -160l-23 1l-7 23q-17 70 -54.5 95t-109.5 23l-40 -2v-203l23 1q73 1 92 58l9 27h18l-21 -193h-18l-3 25q-3 34 -19.5 47t-63.5 18l-17 1v-213l52 -2q71 1 112 29.5t61 89.5l8 24l24 -1l-16 -160h-414z
M318 19h34v423l-51 12q-70 -1 -110 -59.5t-40 -146.5q0 -229 167 -229z" />
    <glyph glyph-name="thorn.smallcap" horiz-adv-x="491" 
d="M25 0l3 17l30 6q29 4 29 13v403q0 4 -5.5 6t-29.5 6l-26 4l-2 17h244l-2 -17l-32 -5q-31 -3 -31 -13v-59h50q212 0 212 -126q0 -65 -60 -102.5t-160 -37.5q-27 0 -42 3v-81q0 -8 35 -12l35 -5l2 -17h-250zM244 130q42 0 70 31.5t28 81.5q0 55 -27.5 86t-79.5 32l-32 -2
v-225q18 -4 41 -4z" />
    <glyph glyph-name="racute.smallcap" horiz-adv-x="544" 
d="M183 501l100 185h120l-202 -185h-18zM18 0l3 16l31 5q30 4 30 13v406q0 8 -35 12l-26 4l-2 16l250 1q98 1 149 -30t51 -89q0 -45 -31 -77t-86 -44l93 -147q24 -38 38 -50.5t38 -16.5l13 -3l2 -16h-173l-13 24l-109 200q-3 1 -21 3.5t-22 4.5v-199q0 -9 34 -13l31 -4
l2 -16h-247zM238 245q50 2 79 29.5t29 75.5q0 49 -30.5 76.5t-84.5 27.5h-33v-203q18 -6 40 -6z" />
    <glyph glyph-name="rcommaaccent.smallcap" horiz-adv-x="544" 
d="M216 -291l-8 10q38 10 59.5 33t21.5 53q0 34 -31 49t-54 2q-8 29 11 53t56 24q39 0 62.5 -24.5t23.5 -62.5q0 -44 -39.5 -83.5t-101.5 -53.5zM18 0l3 16l31 5q30 4 30 13v406q0 8 -35 12l-26 4l-2 16l250 1q98 1 149 -30t51 -89q0 -45 -31 -77t-86 -44l93 -147
q24 -38 38 -50.5t38 -16.5l13 -3l2 -16h-173l-13 24l-109 200q-3 1 -21 3.5t-22 4.5v-199q0 -9 34 -13l31 -4l2 -16h-247zM238 245q50 2 79 29.5t29 75.5q0 49 -30.5 76.5t-84.5 27.5h-33v-203q18 -6 40 -6z" />
    <glyph glyph-name="rcaron.smallcap" horiz-adv-x="544" 
d="M233 501l-136 197h14l131 -99h2l130 99h14l-136 -197h-19zM18 0l3 16l31 5q30 4 30 13v406q0 8 -35 12l-26 4l-2 16l250 1q98 1 149 -30t51 -89q0 -45 -31 -77t-86 -44l93 -147q24 -38 38 -50.5t38 -16.5l13 -3l2 -16h-173l-13 24l-109 200q-3 1 -21 3.5t-22 4.5v-199
q0 -9 34 -13l31 -4l2 -16h-247zM238 245q50 2 79 29.5t29 75.5q0 49 -30.5 76.5t-84.5 27.5h-33v-203q18 -6 40 -6z" />
    <glyph glyph-name="sacute.smallcap" horiz-adv-x="421" 
d="M152 501l100 185h120l-202 -185h-18zM203 -9q-94 0 -158 23l-10 134h21l37 -81q42 -57 116 -57q46 0 74 23t28 60q0 23 -9 40t-29 29.5t-37.5 19.5t-48.5 17q-66 21 -104 52.5t-38 86.5q0 61 48.5 102.5t121.5 41.5q61 0 115 -18l36 11l2 -145h-20l-62 116q-28 17 -74 17
q-38 0 -63.5 -20.5t-25.5 -49.5q0 -36 27 -55t89 -39q71 -22 111.5 -56t40.5 -95q0 -64 -54 -110.5t-134 -46.5z" />
    <glyph glyph-name="scircumflex.smallcap" horiz-adv-x="421" 
d="M79 494l136 197h19l136 -197h-15l-129 98h-2l-131 -98h-14zM203 -9q-94 0 -158 23l-10 134h21l37 -81q42 -57 116 -57q46 0 74 23t28 60q0 23 -9 40t-29 29.5t-37.5 19.5t-48.5 17q-66 21 -104 52.5t-38 86.5q0 61 48.5 102.5t121.5 41.5q61 0 115 -18l36 11l2 -145h-20
l-62 116q-28 17 -74 17q-38 0 -63.5 -20.5t-25.5 -49.5q0 -36 27 -55t89 -39q71 -22 111.5 -56t40.5 -95q0 -64 -54 -110.5t-134 -46.5z" />
    <glyph glyph-name="scedilla.smallcap" horiz-adv-x="421" 
d="M100 -272l-5 11q155 25 155 88q0 27 -24 41t-61 14q-38 0 -73 -11v11l102 109q-92 2 -149 23l-10 134h21l37 -81q42 -57 116 -57q46 0 74 23t28 60q0 23 -9 40t-29 29.5t-37.5 19.5t-48.5 17q-66 21 -104 52.5t-38 86.5q0 61 48.5 102.5t121.5 41.5q61 0 115 -18l36 11
l2 -145h-20l-62 116q-28 17 -74 17q-38 0 -63.5 -20.5t-25.5 -49.5q0 -36 27 -55t89 -39q71 -22 111.5 -56t40.5 -95t-49.5 -106.5t-124.5 -49.5l-51 -54q64 8 109 -16t45 -67q0 -102 -220 -127z" />
    <glyph glyph-name="scommaaccent.smallcap" horiz-adv-x="421" 
d="M145 -291l-8 10q38 10 59.5 33t21.5 53q0 34 -31 49t-54 2q-8 29 11 53t56 24q39 0 62.5 -24.5t23.5 -62.5q0 -44 -39.5 -83.5t-101.5 -53.5zM203 -9q-94 0 -158 23l-10 134h21l37 -81q42 -57 116 -57q46 0 74 23t28 60q0 23 -9 40t-29 29.5t-37.5 19.5t-48.5 17
q-66 21 -104 52.5t-38 86.5q0 61 48.5 102.5t121.5 41.5q61 0 115 -18l36 11l2 -145h-20l-62 116q-28 17 -74 17q-38 0 -63.5 -20.5t-25.5 -49.5q0 -36 27 -55t89 -39q71 -22 111.5 -56t40.5 -95q0 -64 -54 -110.5t-134 -46.5z" />
    <glyph glyph-name="scaron.smallcap" horiz-adv-x="421" 
d="M203 -9q-94 0 -158 23l-10 134h21l37 -81q42 -57 116 -57q46 0 74 23t28 60q0 23 -9 40t-29 29.5t-37.5 19.5t-48.5 17q-66 21 -104 52.5t-38 86.5q0 61 48.5 102.5t121.5 41.5q61 0 115 -18l36 11l2 -145h-20l-62 116q-28 17 -74 17q-38 0 -63.5 -20.5t-25.5 -49.5
q0 -36 27 -55t89 -39q71 -22 111.5 -56t40.5 -95q0 -64 -54 -110.5t-134 -46.5zM208 508l-136 197h14l131 -99h2l130 99h14l-136 -197h-19z" />
    <glyph glyph-name="tcommaaccent.smallcap" horiz-adv-x="526" 
d="M202 -284l-8 10q38 10 59.5 33t21.5 53q0 34 -31 49t-54 2q-8 29 11 53t56 24q39 0 62.5 -24.5t23.5 -62.5q0 -45 -39.5 -84t-101.5 -53zM140 0l2 16l35 5q30 3 30 13v421h-18q-78 -5 -131 -117l-10 -27h-23l19 161h446l9 -160h-21l-9 27q-53 114 -127 116h-20v-422
q0 -9 35 -13l29 -4l3 -16h-249z" />
    <glyph glyph-name="tcaron.smallcap" horiz-adv-x="526" 
d="M253 505l-136 197h14l131 -99h2l130 99h14l-136 -197h-19zM140 0l2 16l35 5q30 3 30 13v421h-18q-78 -5 -131 -117l-10 -27h-23l19 161h446l9 -160h-21l-9 27q-53 114 -127 116h-20v-422q0 -9 35 -13l29 -4l3 -16h-249z" />
    <glyph glyph-name="ugrave.smallcap" horiz-adv-x="548" 
d="M280 -14q-201 0 -201 162v292q0 9 -35 12l-25 4l-2 16h241l-2 -16l-31 -4q-30 -4 -30 -13v-265q0 -140 126 -140q65 0 96.5 36t31.5 113v208q0 34 -11.5 47t-46.5 15l-21 3l-2 16h174l-2 -14l-21 -4q-29 -2 -38.5 -16t-9.5 -54q0 -13 -0.5 -34.5t-0.5 -67t-0.5 -75.5
t-0.5 -29q-2 -192 -189 -192zM318 526l-203 185h121l99 -185h-17z" />
    <glyph glyph-name="uacute.smallcap" horiz-adv-x="548" 
d="M280 -14q-201 0 -201 162v292q0 9 -35 12l-25 4l-2 16h241l-2 -16l-31 -4q-30 -4 -30 -13v-265q0 -140 126 -140q65 0 96.5 36t31.5 113v208q0 34 -11.5 47t-46.5 15l-21 3l-2 16h174l-2 -14l-21 -4q-29 -2 -38.5 -16t-9.5 -54q0 -13 -0.5 -34.5t-0.5 -67t-0.5 -75.5
t-0.5 -29q-2 -192 -189 -192zM264 526l100 185h120l-202 -185h-18z" />
    <glyph glyph-name="ucircumflex.smallcap" horiz-adv-x="548" 
d="M280 -14q-201 0 -201 162v292q0 9 -35 12l-25 4l-2 16h241l-2 -16l-31 -4q-30 -4 -30 -13v-265q0 -140 126 -140q65 0 96.5 36t31.5 113v208q0 34 -11.5 47t-46.5 15l-21 3l-2 16h174l-2 -14l-21 -4q-29 -2 -38.5 -16t-9.5 -54q0 -13 -0.5 -34.5t-0.5 -67t-0.5 -75.5
t-0.5 -29q-2 -192 -189 -192zM143 519l136 197h19l136 -197h-15l-129 98h-2l-131 -98h-14z" />
    <glyph glyph-name="udieresis.smallcap" horiz-adv-x="548" 
d="M280 -14q-201 0 -201 162v292q0 9 -35 12l-25 4l-2 16h241l-2 -16l-31 -4q-30 -4 -30 -13v-265q0 -140 126 -140q65 0 96.5 36t31.5 113v208q0 34 -11.5 47t-46.5 15l-21 3l-2 16h174l-2 -14l-21 -4q-29 -2 -38.5 -16t-9.5 -54q0 -13 -0.5 -34.5t-0.5 -67t-0.5 -75.5
t-0.5 -29q-2 -192 -189 -192zM196 542q-28 0 -45.5 19t-17.5 43t17.5 43.5t45.5 19.5t44.5 -19.5t16.5 -43.5t-16.5 -43t-44.5 -19zM396 542q-28 0 -44.5 19t-16.5 43t16.5 43.5t44.5 19.5t44.5 -19.5t16.5 -43.5t-16.5 -43t-44.5 -19z" />
    <glyph glyph-name="umacron.smallcap" horiz-adv-x="547" 
d="M280 -14q-201 0 -201 162v292q0 9 -35 12l-25 4l-2 16h241l-2 -16l-31 -4q-30 -4 -30 -13v-265q0 -140 126 -140q65 0 96.5 36t31.5 113v208q0 34 -11.5 47t-46.5 15l-21 3l-2 16h174l-2 -14l-21 -4q-29 -2 -38.5 -16t-9.5 -54q0 -13 -0.5 -34.5t-0.5 -67t-0.5 -75.5
t-0.5 -29q-2 -192 -189 -192zM167 532l11 47h262l-8 -47h-265z" />
    <glyph glyph-name="ubreve.smallcap" horiz-adv-x="547" 
d="M280 -14q-201 0 -201 162v292q0 9 -35 12l-25 4l-2 16h241l-2 -16l-31 -4q-30 -4 -30 -13v-265q0 -140 126 -140q65 0 96.5 36t31.5 113v208q0 34 -11.5 47t-46.5 15l-21 3l-2 16h174l-2 -14l-21 -4q-29 -2 -38.5 -16t-9.5 -54q0 -13 -0.5 -34.5t-0.5 -67t-0.5 -75.5
t-0.5 -29q-2 -192 -189 -192zM302 500q-59 0 -91.5 48t-50.5 135h18q38 -110 125 -110q88 0 126 110h16q-16 -87 -48.5 -135t-94.5 -48z" />
    <glyph glyph-name="uring.smallcap" horiz-adv-x="547" 
d="M280 -14q-201 0 -201 162v292q0 9 -35 12l-25 4l-2 16h241l-2 -16l-31 -4q-30 -4 -30 -13v-265q0 -140 126 -140q65 0 96.5 36t31.5 113v208q0 34 -11.5 47t-46.5 15l-21 3l-2 16h174l-2 -14l-21 -4q-29 -2 -38.5 -16t-9.5 -54q0 -13 -0.5 -34.5t-0.5 -67t-0.5 -75.5
t-0.5 -29q-2 -192 -189 -192zM308 510q-42 0 -67 27t-25 66t25.5 66t66.5 27t66.5 -27t25.5 -66t-25 -66t-67 -27zM308 526q34 0 54 22t20 55q0 32 -20.5 54.5t-53.5 22.5q-34 0 -54.5 -22.5t-20.5 -54.5q0 -33 20.5 -55t54.5 -22z" />
    <glyph glyph-name="uhungarumlaut.smallcap" horiz-adv-x="547" 
d="M280 -14q-201 0 -201 162v292q0 9 -35 12l-25 4l-2 16h241l-2 -16l-31 -4q-30 -4 -30 -13v-265q0 -140 126 -140q65 0 96.5 36t31.5 113v208q0 34 -11.5 47t-46.5 15l-21 3l-2 16h174l-2 -14l-21 -4q-29 -2 -38.5 -16t-9.5 -54q0 -13 -0.5 -34.5t-0.5 -67t-0.5 -75.5
t-0.5 -29q-2 -192 -189 -192zM172 505l99 185h114l-195 -185h-18zM348 505l99 185h114l-196 -185h-17z" />
    <glyph glyph-name="uogonek.smallcap" horiz-adv-x="547" 
d="M319 -236q-43 0 -71 25t-28 67q0 78 104 134q-17 -4 -45 -4q-200 0 -200 163v291q0 9 -34 12l-26 4l-3 16h242l-2 -16l-31 -4q-30 -4 -30 -14v-264q0 -140 126 -140q65 0 96.5 36t31.5 113v208q0 34 -11.5 47t-46.5 15l-21 3l-3 16h175l-2 -14l-21 -3q-29 -3 -39 -17.5
t-10 -53.5l-1 -206q-1 -132 -97 -180q-80 -40 -80 -113q0 -30 18 -48.5t49 -18.5q33 0 63 30l6 -6q-11 -29 -40.5 -53.5t-68.5 -24.5z" />
    <glyph glyph-name="wcircumflex.smallcap" horiz-adv-x="766" 
d="M266 501l136 197h19l136 -197h-15l-129 98h-2l-131 -98h-14zM224 -8l-146 388q-19 44 -30.5 57.5t-33.5 16.5l-18 2l-2 16h245l-2 -16l-24 -1q-28 -3 -32.5 -12t7.5 -37l101 -276h5l82 221l-10 29q-15 40 -27.5 55.5t-33.5 18.5l-21 2l-3 16h249l-2 -16l-23 -1
q-27 -2 -32 -12.5t5 -41.5l93 -267h5l72 201q12 34 16.5 48.5t8 31t-2.5 22.5t-16.5 10.5t-30.5 6.5l-18 2l-1 16h170l-2 -16l-13 -2q-34 -6 -47 -24.5t-45 -104.5l-124 -333h-37l-116 326h-4l-124 -326h-38z" />
    <glyph glyph-name="wgrave.smallcap" horiz-adv-x="766" 
d="M224 -8l-146 388q-19 44 -30.5 57.5t-33.5 16.5l-18 2l-2 16h245l-2 -16l-24 -1q-28 -3 -32.5 -12t7.5 -37l101 -276h5l82 221l-10 29q-15 40 -27.5 55.5t-33.5 18.5l-21 2l-3 16h249l-2 -16l-23 -1q-27 -2 -32 -12.5t5 -41.5l93 -267h5l72 201q12 34 16.5 48.5t8 31
t-2.5 22.5t-16.5 10.5t-30.5 6.5l-18 2l-1 16h170l-2 -16l-13 -2q-34 -6 -47 -24.5t-45 -104.5l-124 -333h-37l-116 326h-4l-124 -326h-38zM435 505l-203 185h121l99 -185h-17z" />
    <glyph glyph-name="wacute.smallcap" horiz-adv-x="766" 
d="M341 505l100 185h120l-202 -185h-18zM224 -8l-146 388q-19 44 -30.5 57.5t-33.5 16.5l-18 2l-2 16h245l-2 -16l-24 -1q-28 -3 -32.5 -12t7.5 -37l101 -276h5l82 221l-10 29q-15 40 -27.5 55.5t-33.5 18.5l-21 2l-3 16h249l-2 -16l-23 -1q-27 -2 -32 -12.5t5 -41.5
l93 -267h5l72 201q12 34 16.5 48.5t8 31t-2.5 22.5t-16.5 10.5t-30.5 6.5l-18 2l-1 16h170l-2 -16l-13 -2q-34 -6 -47 -24.5t-45 -104.5l-124 -333h-37l-116 326h-4l-124 -326h-38z" />
    <glyph glyph-name="wdieresis.smallcap" horiz-adv-x="766" 
d="M509 521q-28 0 -44.5 19t-16.5 43t16.5 43.5t44.5 19.5t44.5 -19.5t16.5 -43.5t-16.5 -43t-44.5 -19zM309 521q-28 0 -45.5 19t-17.5 43t17.5 43.5t45.5 19.5t44.5 -19.5t16.5 -43.5t-16.5 -43t-44.5 -19zM224 -8l-146 388q-19 44 -30.5 57.5t-33.5 16.5l-18 2l-2 16h245
l-2 -16l-24 -1q-28 -3 -32.5 -12t7.5 -37l101 -276h5l82 221l-10 29q-15 40 -27.5 55.5t-33.5 18.5l-21 2l-3 16h249l-2 -16l-23 -1q-27 -2 -32 -12.5t5 -41.5l93 -267h5l72 201q12 34 16.5 48.5t8 31t-2.5 22.5t-16.5 10.5t-30.5 6.5l-18 2l-1 16h170l-2 -16l-13 -2
q-34 -6 -47 -24.5t-45 -104.5l-124 -333h-37l-116 326h-4l-124 -326h-38z" />
    <glyph glyph-name="yacute.smallcap" horiz-adv-x="503" 
d="M128 0l3 16l34 5q30 3 30 13v172l-110 185q-20 35 -31.5 47t-34.5 16l-13 2l-3 16h245l-2 -16l-14 -1q-31 -4 -36.5 -16t8.5 -35l90 -165h5l55 99q39 70 38 90.5t-47 25.5l-18 2l-2 16h179l-2 -16l-19 -3q-30 -5 -49.5 -26.5t-62.5 -98.5l-60 -107v-188q0 -10 34 -13
l29 -4l1 -16h-247zM246 505l100 185h120l-202 -185h-18z" />
    <glyph glyph-name="ycircumflex.smallcap" horiz-adv-x="502" 
d="M128 0l3 16l34 5q30 3 30 13v172l-110 185q-20 35 -31.5 47t-34.5 16l-13 2l-3 16h245l-2 -16l-14 -1q-31 -4 -36.5 -16t8.5 -35l90 -165h5l55 99q39 70 38 90.5t-47 25.5l-18 2l-2 16h179l-2 -16l-19 -3q-30 -5 -49.5 -26.5t-62.5 -98.5l-60 -107v-188q0 -10 34 -13
l29 -4l1 -16h-247zM120 501l136 197h19l136 -197h-15l-129 98h-2l-131 -98h-14z" />
    <glyph glyph-name="ydieresis.smallcap" horiz-adv-x="503" 
d="M128 0l3 16l34 5q30 3 30 13v172l-110 185q-20 35 -31.5 47t-34.5 16l-13 2l-3 16h245l-2 -16l-14 -1q-31 -4 -36.5 -16t8.5 -35l90 -165h5l55 99q39 70 38 90.5t-47 25.5l-18 2l-2 16h179l-2 -16l-19 -3q-30 -5 -49.5 -26.5t-62.5 -98.5l-60 -107v-188q0 -10 34 -13
l29 -4l1 -16h-247zM363 542q-28 0 -44.5 19t-16.5 43t16.5 43.5t44.5 19.5t44.5 -19.5t16.5 -43.5t-16.5 -43t-44.5 -19zM163 542q-28 0 -45.5 19t-17.5 43t17.5 43.5t45.5 19.5t44.5 -19.5t16.5 -43.5t-16.5 -43t-44.5 -19z" />
    <glyph glyph-name="zacute.smallcap" horiz-adv-x="482" 
d="M208 505l100 185h120l-202 -185h-18zM30 0v15l279 435v1l-68 2q-64 0 -103 -28t-60 -90l-7 -23h-22l5 160h390v-16l-287 -433v-2l63 -2q82 -2 127 28.5t75 113.5l8 24h24l-22 -185h-402z" />
    <glyph glyph-name="zdotaccent.smallcap" horiz-adv-x="482" 
d="M30 0v15l279 435v1l-68 2q-64 0 -103 -28t-60 -90l-7 -23h-22l5 160h390v-16l-287 -433v-2l63 -2q82 -2 127 28.5t75 113.5l8 24h24l-22 -185h-402zM252 527q-31 0 -49.5 20.5t-18.5 47.5t18.5 48t49.5 21t48.5 -21t17.5 -48t-17.5 -47.5t-48.5 -20.5z" />
    <glyph glyph-name="zcaron.smallcap" horiz-adv-x="482" 
d="M30 0v15l279 435v1l-68 2q-64 0 -103 -28t-60 -90l-7 -23h-22l5 160h390v-16l-287 -433v-2l63 -2q82 -2 127 28.5t75 113.5l8 24h24l-22 -185h-402zM245 501l-136 197h14l131 -99h2l130 99h14l-136 -197h-19z" />
    <glyph glyph-name="solidus" horiz-adv-x="203" 
d="M-203 -121l580 751h29l-580 -751h-29z" />
    <glyph glyph-name="plusinferior" horiz-adv-x="346" 
d="M163 -111v155h-153l2 19h151v153h20v-153h151l2 -19h-153v-155h-20z" />
    <glyph glyph-name="minusinferior" horiz-adv-x="346" 
d="M317 43h-288l3 18h283z" />
    <glyph glyph-name="zero.lnum" horiz-adv-x="530" 
d="M263 -12q-104 0 -168.5 87t-64.5 233q0 144 67 235t172 91q102 0 166.5 -87.5t64.5 -231.5q0 -145 -65.5 -236t-171.5 -91zM267 6q111 0 111 295q0 168 -27 241t-87 73q-113 0 -113 -289q0 -171 27.5 -245.5t88.5 -74.5z" />
    <glyph glyph-name="one.lnum" horiz-adv-x="410" 
d="M66 0l3 18l46 5q23 2 31.5 5.5t8.5 12.5v527l-104 13l3 13l219 41v-595q0 -14 46 -17l39 -5l3 -18h-295z" />
    <glyph glyph-name="two.lnum" horiz-adv-x="479" 
d="M24 0l-6 35q54 52 73 71t59 59.5t54 58.5t38 49.5t32 52.5t15.5 48t7.5 53q0 63 -34.5 98t-85.5 35q-83 0 -142 -90l-8 10q81 159 215 159q73 0 121 -45t48 -116q0 -32 -13.5 -66t-31.5 -61t-53.5 -64.5t-61.5 -61t-74 -67t-74 -67.5l1 -5h207q48 0 70.5 20.5t49.5 80.5
l9 19h17l-45 -206h-388z" />
    <glyph glyph-name="three.lnum" horiz-adv-x="451" 
d="M162 -31q-64 0 -103 22.5t-39 59.5q0 23 16 39t39 16q36 0 57.5 -33.5t18.5 -74.5q7 -5 35 -5q56 0 93 42t37 107q0 68 -38 106t-102 38q-40 0 -83 -18l-8 14q111 65 135 84q54 44 54 96q0 45 -29 71.5t-77 26.5q-86 0 -133 -82l-8 10q33 67 88.5 109.5t120.5 42.5
t108 -37t43 -90q0 -24 -10 -45.5t-21.5 -35.5t-38 -31.5t-40 -25t-47.5 -25.5v-3q85 7 140 -38t55 -120q0 -89 -78 -154.5t-185 -65.5z" />
    <glyph glyph-name="four.lnum" horiz-adv-x="505" 
d="M277 0l-1 168h-258l-3 19l313 450h56v-400h113l-19 -69h-94v-168h-107zM76 237h200v286h-2z" />
    <glyph glyph-name="five.lnum" horiz-adv-x="440" 
d="M153 -29q-143 0 -143 85q0 24 16 40.5t40 16.5q37 0 57.5 -33.5t14.5 -72.5q21 -12 53 -12q48 0 84 40.5t36 101.5q0 78 -69 126t-196 61l75 301h283l-16 -103h-269l-25 -101q150 -14 230 -73t80 -150t-76 -159t-175 -68z" />
    <glyph glyph-name="six.lnum" horiz-adv-x="517" 
d="M263 -14q-104 0 -168.5 72.5t-64.5 184.5q0 165 126.5 279t318.5 133l4 -16q-88 -16 -156 -64.5t-105.5 -108.5t-55.5 -130l2 -2q70 59 148 59t128 -51t50 -137q0 -94 -66.5 -156.5t-160.5 -62.5zM272 5q48 0 75.5 46.5t27.5 126.5q0 79 -35 124t-91 45q-52 0 -88 -34
q-10 -22 -10 -84q0 -101 31 -162.5t90 -61.5z" />
    <glyph glyph-name="seven.lnum" horiz-adv-x="454" 
d="M81 -2l302 526l-1 3h-147q-104 0 -136.5 -12t-43.5 -56l-11 -25l-16 1l24 190h392l2 -18l-272 -609h-93z" />
    <glyph glyph-name="eight.lnum" horiz-adv-x="499" 
d="M249 -15q-95 0 -157.5 46t-62.5 119q0 50 41 89.5t105 55.5v1q-63 31 -97.5 68t-34.5 92q0 73 55.5 128.5t149.5 55.5q90 0 148 -43t58 -113q0 -45 -37.5 -79t-97.5 -53v-1q71 -33 110.5 -73.5t39.5 -102.5q0 -78 -62 -134t-158 -56zM298 358q52 40 52 117
q0 59 -30.5 103t-79.5 44q-46 0 -72.5 -32t-26.5 -77q-1 -52 38 -86.5t119 -68.5zM259 6q52 0 83.5 32.5t31.5 79.5q0 56 -45.5 94t-132.5 75q-62 -41 -62 -130q0 -59 35.5 -105t89.5 -46z" />
    <glyph glyph-name="nine.lnum" horiz-adv-x="517" 
d="M42 -28l-5 15q88 15 156 63.5t106 109t56 130.5l-3 2q-69 -59 -148 -59q-77 0 -127.5 51t-50.5 136q0 96 67.5 158t160.5 62q105 0 169 -71t64 -182q0 -165 -127 -281t-318 -134zM268 279q51 0 87 34q10 24 10 84q0 93 -30 158.5t-90 65.5q-46 0 -75 -46t-29 -126
q0 -76 35.5 -123t91.5 -47z" />
    <glyph glyph-name="dollar.lnum" horiz-adv-x="501" 
d="M157 -8q-61 7 -112 26l-11 171h25l55 -121q24 -24 53 -38l62 238q-2 0 -6 2q-88 31 -133 70t-45 111q0 77 61 131.5t157 54.5q35 0 62 -4l28 105h22q-28 -109 -29 -109q22 -3 55 -13l44 14l2 -184h-22l-72 143l-15 8l-54 -208q98 -34 148 -77t50 -123q0 -81 -67.5 -141.5
t-171.5 -60.5q-22 0 -64 2l-39 -150h-23zM187 21q31 -11 61 -11q59 0 95 33t36 85q0 51 -32.5 79.5t-96.5 52.5zM318 604q-32 10 -61 10q-50 0 -81.5 -28.5t-31.5 -70.5q0 -45 30 -71t89 -47q3 13 9 34.5t18 67t20 75.5z" />
    <glyph glyph-name="cent.lnum" horiz-adv-x="439" 
d="M159 -159l38 147q-77 13 -125 74t-48 146q0 104 68 173.5t172 69.5q20 0 54 -6l44 168h22l-47 -173q39 -11 61.5 -35t22.5 -55q0 -25 -16.5 -42.5t-39.5 -17.5q-42 0 -56 40l-69 -258q26 -13 54 -13q78 0 124 74l12 -5q-63 -143 -197 -143q-10 0 -15 1l-39 -145h-20z
M221 81l89 333q-23 15 -45 15q-52 0 -85 -49.5t-33 -132.5q0 -118 74 -166z" />
    <glyph glyph-name="sterling.lnum" horiz-adv-x="550" 
d="M172 287h-111l3 21h100q-19 59 -19 93q0 99 72 164t181 65q59 0 91 -22.5t32 -64.5q0 -24 -18.5 -42t-44.5 -18q-40 0 -55 38t6 72q-15 15 -45 15q-43 0 -71 -34.5t-28 -103.5q0 -20 7.5 -76.5t9.5 -85.5h130l3 -21h-131q1 -11 1 -35q0 -61 -36 -130q122 -42 169 -42
q45 0 66.5 24t30.5 90l14 -3q1 -85 -40.5 -145.5t-109.5 -60.5q-76 0 -179 64q-57 -64 -120 -64q-35 0 -57.5 20t-22.5 52q0 40 32.5 66.5t88.5 26.5q37 0 87 -15q1 5 1 16q0 39 -37 136zM180 62q-67 45 -102 45q-27 0 -43 -14t-16 -38t17.5 -38t44.5 -14q26 0 53 16.5
t46 42.5z" />
    <glyph glyph-name="yen.lnum" horiz-adv-x="621" 
d="M154 0l3 17l51 6q40 4 40 18v114h-182l3 21h180v107h-181l-1 22h171l-32 56q-33 56 -66 113l-33 56q-26 41 -43 56t-45 18l-25 4l-4 17h310l-3 -17l-27 -2q-35 -2 -39.5 -22t19.5 -61l113 -209h2l61 116q37 73 47 107t-2 49t-52 20l-22 3l-4 16h231l-3 -16l-21 -4
q-33 -6 -60 -31.5t-62 -93.5q-94 -175 -95 -175h179l-1 -22h-183v-107h182l3 -21h-185v-116q0 -7 9 -10.5t39 -6.5l43 -5l3 -17h-318z" />
    <glyph glyph-name="Euro.lnum" horiz-adv-x="517" 
d="M309 -13q-91 0 -156.5 64t-83.5 174h-64l3 21h58q-3 27 -3 50q0 34 5 57h-63l3 21h63q24 116 102.5 186t177.5 70q69 0 109 -23.5t40 -64.5q0 -24 -18 -41t-44 -17q-41 0 -57 37.5t6 70.5q-25 15 -46 15q-63 0 -104.5 -64.5t-50.5 -168.5h192l3 -21h-197v-33q0 -43 5 -74
h189l3 -21h-187q18 -78 63 -121t108 -43q88 0 139 78l11 -7q-68 -145 -206 -145z" />
    <glyph glyph-name="degree.lnum" horiz-adv-x="322" 
d="M161 366q-61 0 -99 40t-38 98t37.5 98.5t99.5 40.5t99.5 -40.5t37.5 -98.5t-37.5 -98t-99.5 -40zM161 386q51 0 83 34t32 84t-32 84.5t-83 34.5t-82.5 -34.5t-31.5 -84.5t31.5 -84t82.5 -34z" />
    <glyph glyph-name="plus.lnum" horiz-adv-x="448" 
d="M211 102v198h-198l3 26h195v198h26v-198h195l3 -26h-198v-198h-26z" />
    <glyph glyph-name="minus.lnum" horiz-adv-x="448" 
d="M412 300h-376l3 26h370z" />
    <glyph glyph-name="plusminus.lnum" horiz-adv-x="448" 
d="M211 159v162h-198l3 26h195v168h26v-168h195l3 -26h-198v-162h-26zM422 102h-396l3 26h390z" />
    <glyph glyph-name="logicalnot.lnum" horiz-adv-x="448" 
d="M420 391v-184h-26v158h-382l3 26h405z" />
    <glyph glyph-name="equal.lnum" horiz-adv-x="448" 
d="M27 386l-3 26h400l-3 -26h-394zM24 213l3 26h394l3 -26h-400z" />
    <glyph glyph-name="notequal.lnum" horiz-adv-x="448" 
d="M27 386l-3 26h215l43 150h28l-43 -150h157l-3 -26h-161l-42 -147h203l3 -26h-213l-45 -160h-28l45 160h-159l3 26h163l42 147h-205z" />
    <glyph glyph-name="approxequal.lnum" horiz-adv-x="448" 
d="M409 282h26q-19 -98 -108 -98q-34 0 -106 34q-68 33 -100 33q-34 0 -53.5 -15t-28.5 -57h-26q19 98 108 98q34 0 106 -34q68 -33 100 -33q35 0 54 15t28 57zM409 446h26q-19 -98 -108 -98q-34 0 -106 34q-68 33 -100 33q-34 0 -53.5 -15t-28.5 -57h-26q19 98 108 98
q34 0 106 -34q68 -33 100 -33q35 0 54 15t28 57z" />
    <glyph glyph-name="multiply.lnum" horiz-adv-x="448" 
d="M31 138l175 175q-13 13 -49 48.5t-78 78t-48 48.5l18 18l175 -175l175 175l18 -18l-175 -175q13 -13 48.5 -49t78 -78t48.5 -48l-18 -18l-175 175l-175 -175z" />
    <glyph glyph-name="divide.lnum" horiz-adv-x="448" 
d="M275 454q0 -21 -15 -36.5t-37 -15.5q-21 0 -36 15.5t-15 36.5q0 20 15 35t36 15q22 0 37 -15t15 -35zM426 300h-404l3 26h398zM275 175q0 -21 -15 -36.5t-36 -15.5q-22 0 -37 15.5t-15 36.5q0 20 15 34.5t37 14.5q21 0 36 -14.5t15 -34.5z" />
    <glyph glyph-name="less.lnum" horiz-adv-x="438" 
d="M411 109l-400 194v18l400 194l10 -24l-370 -177l1 -1q66 -32 191.5 -93.5t177.5 -86.5z" />
    <glyph glyph-name="greater.lnum" horiz-adv-x="438" 
d="M427 303l-400 -194l-10 24l369 179v1q-60 29 -185 89t-184 89l10 24l400 -194v-18z" />
    <glyph glyph-name="lessequal.lnum" horiz-adv-x="438" 
d="M420 102h-409l3 26h403zM410 161l-399 174v18l399 174l10 -24l-368 -157l1 -1q58 -25 183.5 -80t183.5 -80z" />
    <glyph glyph-name="greaterequal.lnum" horiz-adv-x="438" 
d="M427 102h-409l3 26h403zM427 335l-399 -174l-10 24l367 159v1q-345 149 -367 158l10 24l399 -174v-18z" />
    <glyph glyph-name="bar.lnum" horiz-adv-x="190" 
d="M84 -130v877h22v-877h-22z" />
    <glyph glyph-name="brokenbar.lnum" horiz-adv-x="190" 
d="M84 369v335h22v-335h-22zM84 -77v335h22v-335h-22z" />
    <glyph glyph-name="bullet.lnum" horiz-adv-x="434" 
d="M217 120q-21 0 -71 20.5t-64 35.5q-15 16 -36 66t-21 71q0 22 21 71.5t36 64.5t65 35.5t71 20.5q22 0 71.5 -20.5t64.5 -35.5t35.5 -64.5t20.5 -71.5t-20 -71.5t-36 -65.5q-15 -15 -65 -35.5t-72 -20.5z" />
    </font>
</defs>
</svg>
