<svg width="115" height="115" viewBox="0 0 115 115" fill="none" xmlns="http://www.w3.org/2000/svg">
<path d="M114 57.5C114 70.6833 103.642 76.6472 103.642 76.6472C103.642 76.6472 106.781 88.2611 97.3639 97.3639C88.2611 106.467 76.6472 103.642 76.6472 103.642C76.6472 103.642 70.6833 114 57.5 114C44.3167 114 38.3528 103.642 38.3528 103.642C38.3528 103.642 26.7389 106.781 17.6361 97.3639C8.53333 88.2611 11.3583 76.6472 11.3583 76.6472C11.3583 76.6472 1 70.6833 1 57.5C1 44.3167 11.3583 38.3528 11.3583 38.3528C11.3583 38.3528 8.21944 26.7389 17.6361 17.6361C27.0528 8.53333 38.3528 11.3583 38.3528 11.3583C38.3528 11.3583 44.3167 1 57.5 1C70.6833 1 76.6472 11.3583 76.6472 11.3583C76.6472 11.3583 88.2611 8.21944 97.3639 17.6361C106.467 26.7389 103.642 38.3528 103.642 38.3528C103.642 38.3528 114 44.3167 114 57.5Z" stroke="black" stroke-miterlimit="10"/>
</svg>
