<svg width="16" height="16" viewBox="0 0 16 16" fill="none" xmlns="http://www.w3.org/2000/svg">
<path d="M14.8056 8.97653C13.1179 8.11268 11.7595 9.23944 8.91919 8C11.7595 6.76056 13.1179 7.88732 14.8056 7.02347C16.2051 6.2723 16.2463 5.03286 15.5877 4.01878C14.9291 2.92958 13.7353 2.40376 12.3358 3.11737C10.6481 4.01878 11.0597 5.6338 8.46639 7.28638C8.71337 4.39437 10.4834 3.9061 10.4834 2.14084C10.4834 0.676056 9.33082 0 8.01359 0C6.65519 0 5.54378 0.676056 5.54378 2.14084C5.54378 3.9061 7.31381 4.39437 7.56079 7.28638C4.92633 5.6338 5.37912 4.01878 3.69142 3.11737C2.29186 2.40376 1.05696 2.96714 0.398341 3.98122C-0.260275 5.07042 -0.177948 6.2723 1.22161 7.02347C2.90931 7.88732 4.22655 6.76056 7.10799 8C4.22655 9.23944 2.90931 8.11268 1.22161 8.97653C-0.177948 9.7277 -0.260275 10.9296 0.398341 12.0188C1.05696 13.0329 2.29186 13.5962 3.69142 12.8826C5.37912 11.9812 4.92633 10.3662 7.56079 8.71361C7.31381 11.6056 5.54378 12.0939 5.54378 13.8592C5.54378 15.3239 6.65519 16 8.01359 16C9.33082 16 10.4834 15.3239 10.4834 13.8592C10.4834 12.0939 8.71337 11.6056 8.46639 8.71361C11.0597 10.3662 10.6481 11.9812 12.3358 12.8826C13.7353 13.5962 14.9291 13.0704 15.5877 11.9812C16.2463 10.9671 16.2051 9.7277 14.8056 8.97653Z" fill="#333333"/>
</svg>
